<svg width="16" height="16" viewBox="0 0 16 16" fill="none" xmlns="http://www.w3.org/2000/svg">
<path fill-rule="evenodd" clip-rule="evenodd" d="M12.9992 0H3.0002C1.34331 0 0 1.34336 0 3.00032V13.0003C0 14.6566 1.34331 16 3.0002 16H12.9998C14.6567 16 16 14.6566 16 12.9997V3.00032C15.9994 1.34336 14.6561 0 12.9992 0ZM13.0644 8.61696H11.4427V14.6214H8.73245V8.61696H7.68097V6.59328H8.73245V5.30432C8.73245 3.616 9.43514 2.61248 11.4242 2.61248H13.4407V4.6272H12.2683C11.4927 4.6272 11.4427 4.91712 11.4427 5.45536L11.4402 6.59136H13.2833L13.0619 8.61504L13.0644 8.61696Z" fill="#0E253A"/>
</svg>
