<svg width="314" height="330" viewBox="0 0 314 330" fill="none" xmlns="http://www.w3.org/2000/svg">
<path d="M54.3329 146.542C57.3571 142.358 61.7071 139.247 65.8244 136.075C67.3936 134.907 68.9939 133.626 70.0748 131.967C72.1512 128.507 71.2642 124.031 69.5884 120.381C67.9127 116.731 65.4877 113.31 64.6349 109.389C63.1682 102.943 66.2228 96.1597 70.6488 91.1886C75.1487 86.1761 80.9971 82.6064 86.4851 78.7608C89.8136 76.4142 93.3094 73.6869 94.2533 69.8096C94.9393 67.3204 94.5041 64.5997 94.3443 62.0114C93.949 67.9719 89.8949 73.4037 85.0512 77.1746C79.5861 81.3899 73.1101 84.0685 67.3042 87.71C60.613 91.8485 53.5932 98.0842 53.8003 106.384C53.9008 109.867 55.216 113.241 55.7394 116.773C57.9638 131.784 42.7841 146.808 51.7691 161.275C51.7265 161.204 51.6839 161.132 51.5987 160.988C49.7807 156.27 51.3087 150.726 54.3329 146.542Z" fill="#FFF766"/>
<path d="M52.107 161.182L51.443 161.554C46.1723 152.844 49.1751 143.986 52.1581 135.425C54.2223 129.293 56.3915 123.006 55.5494 116.784C55.3105 115.388 55.029 113.92 54.6426 112.607C54.1367 110.595 53.662 108.471 53.6102 106.396C53.3803 97.7256 60.8854 91.3132 67.2503 87.4535C69.4212 86.1394 71.7084 84.8555 73.9644 83.6848C77.6961 81.6858 81.5753 79.604 84.9973 76.918C90.5362 72.6613 93.7871 67.2022 94.1543 62.0226L94.8412 62.0196C94.8754 62.5743 94.9097 63.1289 94.9439 63.6835C95.0695 65.7172 95.2802 67.8943 94.6763 69.8592C93.6275 73.891 89.9841 76.7013 86.7294 79.0064C85.739 79.6579 84.7913 80.3812 83.7272 81.0741C79.2608 84.155 74.573 87.3602 70.8931 91.4342C65.9309 96.9932 63.6681 103.619 64.899 109.336C65.4817 111.974 66.8136 114.383 68.0292 116.761C68.6369 117.95 69.3185 119.098 69.8099 120.257C71.0057 122.933 72.7728 128.062 70.2765 132.141C69.207 133.985 67.4165 135.277 65.9949 136.362L65.2685 136.961C61.4776 139.854 57.4653 142.871 54.651 146.746C51.3119 151.394 50.3004 156.648 51.9792 160.966C52.0218 161.038 52.0218 161.038 52.0644 161.11L52.107 161.182ZM70.426 86.3405C69.4668 86.8789 68.5815 87.3758 67.6649 87.986C61.4475 91.7628 54.09 98.0924 54.3709 106.351C54.4227 108.426 54.9285 110.438 55.3918 112.378C55.7045 113.732 56.1023 115.231 56.2674 116.668C57.1948 123.034 54.9944 129.434 52.8564 135.607C50.2392 143.293 47.7156 150.639 50.5704 157.931C50.1094 154.173 51.3796 150.017 54.0889 146.297C56.9343 142.308 60.9466 139.291 64.854 136.428L65.6541 135.788C67.002 134.744 68.7925 133.453 69.7569 131.763C72.0433 127.993 70.404 123.079 69.2508 120.475C68.7594 119.316 68.0779 118.168 67.4701 116.979C66.2119 114.529 64.88 112.121 64.2547 109.411C62.9387 103.551 65.2212 96.6264 70.3622 90.8715C74.1159 86.756 78.8036 83.5509 83.3438 80.4285C84.3341 79.777 85.2819 79.0537 86.2722 78.4022C89.4531 76.1385 92.9178 73.5243 93.978 69.6773C94.3834 68.2064 94.3659 66.686 94.2746 65.207C93.0584 69.6196 89.9293 73.9584 85.4119 77.4505C81.9898 80.1365 78.1106 82.2183 74.3052 84.2587C73.0509 84.9627 71.6803 85.6364 70.426 86.3405Z" fill="#FFF766"/>
<path d="M284.338 226.894C283.084 227.598 281.554 228.17 280.714 229.406C279.917 230.714 280.136 232.408 279.297 233.645C278.499 234.953 276.737 235.464 275.131 235.41C273.524 235.355 272.042 234.848 270.456 234.495C267.79 233.982 265.043 233.994 262.372 234.633C255.079 236.431 250.389 234.664 243.664 231.457C232.503 226.245 220.745 222.515 208.551 220.369C201.952 219.196 195.302 218.434 188.995 216.427C179.448 213.273 171.093 207.155 164.16 199.952C154.987 190.468 146.459 179.091 142.113 166.802C139.94 160.658 139.31 154.794 137.401 148.597C136.489 145.57 137.583 142.278 139.166 139.477C140.749 136.675 142.724 134.037 143.682 131.012C145.213 126.136 143.982 120.419 146.53 115.928C147.494 114.239 149.009 112.815 150.377 111.473C152.723 109.295 155.101 107.004 158.032 105.646C160.848 104.257 164.057 103.698 167.205 103.366C170.543 103.023 173.923 102.752 177.295 102.963C182.654 103.207 187.922 104.458 193.19 105.709C202.52 107.837 211.935 110.107 220.44 114.324C219.665 113.516 218.859 112.821 218.052 112.125C215.179 110.104 211.813 108.742 208.656 107.07C206.961 106.204 205.329 105.112 203.77 103.979C201.23 103.014 198.701 102.233 196.109 101.68C193.708 101.115 191.306 100.55 188.863 99.9131C186.884 99.3977 184.863 98.8106 182.916 98.182C179.68 97.7029 176.288 97.7895 173.11 98.2348C165.728 99.2222 158.746 99.8894 151.924 96.3539C145.929 93.2156 139.729 89.2357 132.602 90.6535C126.342 91.8723 120.845 96.2008 117.339 101.23C114.431 105.444 113.039 110.721 114.298 115.657C115.708 121.178 119.773 125.208 118.544 131.254C117.583 136.097 113.861 140.1 109.922 143.076C105.405 146.568 100.229 149.282 96.1996 153.265C94.0007 155.36 92.1455 158.697 93.9742 161.113C94.9311 162.394 96.603 162.89 98.1897 163.242C101.204 163.846 104.312 164.11 107.44 164.076C111.022 163.978 114.887 163.53 117.982 165.427C128.059 171.63 114.298 184.902 117.579 192.911C118.519 195.157 120.535 196.895 122.676 198.18C132.986 204.443 145.687 204.296 153.805 213.99C157.428 218.269 159.66 221.033 165.479 222.549C178.905 226.107 192.288 229.594 205.788 233.11C211.797 234.615 208.721 234.238 214.73 235.743C226.33 237.552 230.215 243.597 238.864 244.577C240.354 244.601 241.801 244.554 243.334 244.65C249.073 244.871 254.815 245.761 260.582 245.202C265.853 244.634 270.896 242.856 276.186 241.99C282.004 241.02 287.902 241.344 293.831 241.554C296.623 239.796 296.838 235.85 297.521 232.693C298.504 228.219 289.985 216.359 287.992 212.505C291.38 218.542 288.28 224.586 284.338 226.894Z" fill="#FFF766"/>
<path d="M257.185 186.472C254.361 185.857 251.537 185.243 248.61 185.451C245.758 185.617 242.773 186.719 241.039 188.935C240.44 189.75 240.001 190.666 239.984 191.632C239.979 192.782 240.618 193.858 241.172 194.791C243.174 198.162 245.218 201.605 247.147 205.018C249.532 209.035 252.46 213.8 256.582 216.268C257.377 216.778 258.203 217.175 259.072 217.644C260.766 218.51 262.418 219.304 263.977 220.438C266.606 222.214 269.025 224.3 271.863 225.767C274.543 227.132 277.79 227.796 279.393 224.696C280.692 222.246 280.277 219.227 279.609 216.446C279.384 215.902 279.203 215.43 278.978 214.887C277.299 210.569 276.401 205.909 274.943 201.466C274.015 199.405 273.012 197.386 272.009 195.366C271.711 194.864 271.487 194.321 271.146 193.747C269.976 192.108 268.554 190.707 266.848 189.656C263.955 187.932 260.475 187.207 257.185 186.472Z" fill="#FFF766"/>
<path d="M51.943 162.231C45.8151 153.237 48.9852 143.997 52.093 134.984C54.1884 128.739 56.3888 122.339 55.504 116.045C55.3389 114.607 54.9837 113.181 54.6284 111.754C54.1225 109.743 53.6478 107.618 53.5535 105.472C53.281 96.7299 60.891 90.1628 67.4035 86.2204C69.6481 84.8648 71.9353 83.581 74.1914 82.4103C77.9968 80.3699 81.9498 78.2466 85.3718 75.5607C91.6371 70.7049 95.0948 64.2689 94.582 58.4356L95.3427 58.3912C95.8357 64.5225 92.273 71.1131 85.829 76.1648C82.2906 78.8205 78.2638 80.9851 74.4584 83.0255C72.2023 84.1962 69.9151 85.4801 67.6705 86.8356C61.3793 90.6539 53.948 97.0249 54.2403 105.469C54.2921 107.544 54.8406 109.627 55.3464 111.638C55.7017 113.065 56.0569 114.491 56.2646 116.001C57.1608 122.48 54.9293 128.992 52.8764 135.309C49.7063 144.549 46.8085 153.253 52.6496 161.93L51.943 162.231Z" fill="#0E253A"/>
<path d="M278.321 235.149C277.362 235.688 276.189 235.867 275.196 235.851C274.013 235.846 272.923 235.501 271.801 235.27C271.336 235.149 270.87 235.028 270.405 234.906C267.813 234.352 265.066 234.364 262.512 235.033C255.028 236.843 250.179 234.973 243.54 231.91C232.378 226.698 220.621 222.968 208.501 220.781C206.84 220.469 205.222 220.23 203.562 219.919C198.665 219.128 193.653 218.307 188.901 216.766C180.138 213.938 171.701 208.345 163.95 200.262C153.141 189.018 145.693 177.8 141.818 166.968C140.576 163.552 139.832 160.145 139.129 156.809C138.547 154.171 137.921 151.461 137.106 148.763C136.333 146.136 136.9 142.949 138.891 139.344C139.373 138.5 139.855 137.655 140.38 136.883C141.523 134.998 142.74 133.071 143.376 130.993C144.011 128.915 144.18 126.716 144.319 124.63C144.516 121.649 144.745 118.556 146.297 115.868C147.292 114.066 148.85 112.713 150.292 111.33C152.638 109.152 155.016 106.861 158.021 105.461C160.91 104.031 164.236 103.503 167.267 103.14C171.133 102.692 174.408 102.575 177.431 102.696C182.906 102.97 188.174 104.221 193.4 105.4C203.471 107.781 213.965 110.212 223.171 115.278L222.825 115.855C213.692 110.747 203.315 108.347 193.287 106.038C188.135 104.817 182.793 103.607 177.508 103.322C174.485 103.202 171.326 103.349 167.461 103.797C164.429 104.159 161.251 104.605 158.436 105.994C155.547 107.424 153.2 109.602 150.927 111.738C149.56 113.08 148.076 114.391 147.111 116.08C145.665 118.614 145.498 121.481 145.227 124.502C145.057 126.702 144.93 128.973 144.295 131.051C143.629 133.242 142.412 135.168 141.195 137.095C140.713 137.939 140.188 138.712 139.706 139.557C137.819 143.007 137.241 146.009 138.003 148.451C138.861 151.221 139.486 153.931 140.069 156.568C140.802 159.791 141.547 163.199 142.715 166.656C146.547 177.417 153.953 188.562 164.719 199.735C172.428 207.745 180.706 213.237 189.395 216.107C194.146 217.648 199.159 218.469 203.939 219.229C205.557 219.468 207.217 219.779 208.878 220.091C221.072 222.237 232.945 225.997 244.107 231.209C250.747 234.272 255.246 236.051 262.582 234.324C265.253 233.685 268.148 233.591 270.856 234.175C271.321 234.296 271.787 234.417 272.252 234.539C273.374 234.77 274.347 235.084 275.457 235.131C276.757 235.166 278.488 234.769 279.285 233.46C279.631 232.883 279.818 232.205 279.963 231.454C280.107 230.703 280.283 229.84 280.703 229.221C281.364 228.181 282.439 227.673 283.472 227.093C283.768 226.927 284.136 226.72 284.432 226.555C288.004 224.454 291.391 218.727 287.759 212.445L288.423 212.072C291.927 218.139 289.421 224.519 284.889 227.159C284.594 227.324 284.225 227.532 283.93 227.697C282.928 228.164 281.969 228.702 281.486 229.547C281.14 230.124 280.953 230.802 280.809 231.553C280.664 232.304 280.52 233.054 280.069 233.786C279.342 234.385 278.837 234.859 278.321 235.149Z" fill="#0E253A"/>
<path d="M214.477 235.98C211.451 235.192 210.711 234.938 209.97 234.685C209.229 234.431 208.488 234.178 205.536 233.348C190.058 229.316 177.256 225.981 165.226 222.786C159.365 221.199 157.059 218.476 153.479 214.269L153.351 214.054C148.41 208.219 141.859 205.967 135.001 203.695C130.715 202.275 126.27 200.753 122.264 198.315C119.604 196.652 117.895 194.934 117.082 192.903C115.651 189.498 117.29 185.135 118.898 180.885C121.195 174.814 123.324 169.123 117.613 165.634C115.112 164.073 111.953 164.22 108.868 164.326C108.371 164.318 107.8 164.351 107.304 164.343C104.176 164.377 101.068 164.113 98.011 163.438C96.4243 163.086 94.636 162.559 93.5627 161.249C91.7341 158.832 93.3876 155.322 95.7965 152.917C98.353 150.43 101.324 148.476 104.179 146.491C105.938 145.312 107.845 144.05 109.519 142.728C114.289 138.999 117.103 135.124 117.962 131.103C118.758 127.308 117.349 124.273 115.855 121.095C115.023 119.362 114.265 117.588 113.728 115.69C112.523 111.01 113.67 105.489 116.862 100.923C120.757 95.3896 126.54 91.3784 132.421 90.1817C138.945 88.9103 144.592 91.9577 150.079 94.9031C150.672 95.2395 151.382 95.6063 151.975 95.9428C158.564 99.4176 165.398 98.8332 172.928 97.763C179.095 96.8836 184.9 97.5468 188.956 99.5737L188.653 100.222C184.755 98.2974 179.067 97.6645 173.09 98.5328C165.37 99.6142 158.493 100.127 151.672 96.5913C151.078 96.2549 150.369 95.8881 149.775 95.5516C144.405 92.6366 138.875 89.6195 132.583 90.9515C126.85 92.0654 121.288 95.9523 117.54 101.403C114.528 105.772 113.369 111.11 114.562 115.604C115.099 117.503 115.815 119.205 116.647 120.938C118.184 124.188 119.678 127.366 118.819 131.387C117.972 135.592 115.053 139.622 110.135 143.434C108.387 144.798 106.554 146.018 104.721 147.239C101.824 149.152 98.8953 151.178 96.37 153.552C94.1399 155.76 92.6111 158.818 94.153 160.917C95.0247 162.054 96.6966 162.55 98.1669 162.873C101.181 163.476 104.216 163.781 107.301 163.676C107.797 163.684 108.368 163.65 108.865 163.659C112.066 163.583 115.341 163.466 118.001 165.129C124.19 168.924 121.831 175.222 119.607 181.252C118.105 185.347 116.497 189.597 117.8 192.787C118.528 194.674 120.194 196.321 122.695 197.882C126.658 200.248 130.987 201.74 135.273 203.16C141.941 205.442 148.916 207.744 153.984 213.794L154.112 214.009C157.692 218.216 159.839 220.837 165.425 222.292C177.454 225.487 190.256 228.822 205.734 232.854C208.76 233.642 209.501 233.896 210.242 234.149C210.983 234.403 211.724 234.657 214.676 235.486L214.477 235.98Z" fill="#0E253A"/>
<path d="M275.142 235.594C272.255 235.206 269.128 235.24 266.48 236.248C265.14 236.809 263.886 237.513 262.515 238.187C261.187 238.932 259.658 239.504 258.148 239.777C256.564 240.093 254.927 240.151 253.383 239.87C251.765 239.63 250.357 239.082 248.918 238.646C246.07 237.662 243.255 236.565 240.512 235.426C237.77 234.287 235.102 233.107 232.297 232.194C229.567 231.24 226.816 230.585 223.961 230.083C218.25 229.081 212.352 228.757 206.38 228.474C203.431 228.313 200.408 228.192 197.374 227.887C194.382 227.653 191.348 227.348 188.26 226.786C186.716 226.505 185.172 226.224 183.616 225.758C182.802 225.546 182.061 225.292 181.32 225.038C180.536 224.713 179.753 224.388 178.927 223.991C175.855 222.463 173.425 220.193 171.27 218.055C169.115 215.917 167.193 213.84 165.104 212.143C164.096 211.274 163.025 210.632 161.839 209.959C160.652 209.286 159.392 208.654 158.015 207.993C152.857 205.436 146.961 203.294 141.848 198.991C139.387 196.834 137.229 194.028 135.863 191.065C134.423 188.143 133.701 185.105 132.99 182.252C131.717 176.463 130.73 170.992 127.658 166.978C126.244 165.093 124.007 163.48 121.642 161.651C119.277 159.822 116.594 157.79 114.794 154.592C113.899 153.086 113.203 151.085 113.489 148.916C113.701 146.789 114.813 145.017 115.991 143.686C117.168 142.356 118.368 141.395 119.568 140.435L121.2 139.041L122.789 137.575C125.031 135.552 127.136 133.796 127.887 131.748C128.211 130.802 128.259 129.723 128.011 128.809C127.721 127.824 126.966 126.718 126.094 125.581C125.223 124.445 124.235 123.278 123.414 121.73C122.636 120.254 122.087 118.171 122.617 116.247C123.732 112.657 126.629 110.744 127.761 108.674C128.422 107.633 128.765 106.389 128.875 105.084C128.914 104.488 128.954 103.892 128.877 103.265C128.8 102.639 128.607 101.982 128.476 101.099C128.345 100.216 128.583 99.1261 129.034 98.3947C129.443 97.5916 130.01 96.8906 130.589 96.3744C131.894 95.2592 133.339 94.544 134.837 94.0855C137.834 93.1684 141.109 93.0515 144.147 94.0246C147.11 95.0392 149.56 97.0114 151.272 99.3978L151.02 99.6352C149.203 97.4033 146.721 95.5443 143.886 94.7449C141.05 93.9456 137.934 94.1645 135.243 95.1008C133.861 95.5897 132.533 96.3351 131.523 97.2847C130.556 98.306 129.759 99.6142 129.997 101.01C130.117 101.708 130.31 102.365 130.472 103.135C130.592 103.833 130.637 104.573 130.609 105.353C130.468 106.772 130.105 108.315 129.382 109.581C128.701 110.92 127.659 111.983 126.777 113.147C125.852 114.24 125.013 115.477 124.638 116.835C124.264 118.192 124.619 119.619 125.27 120.88C125.92 122.141 126.939 123.194 127.854 124.403C128.725 125.539 129.64 126.748 130.185 128.163C130.731 129.578 130.674 131.14 130.226 132.539C129.183 135.421 126.782 137.342 124.657 139.396C122.575 141.521 120.12 143.186 118.196 145.413C117.271 146.506 116.548 147.773 116.407 149.191C116.265 150.61 116.694 151.995 117.418 153.214C120.326 158.277 126.529 160.438 130.217 165.158C133.875 169.992 134.853 175.946 136.189 181.509C136.857 184.29 137.641 187.102 138.91 189.737C140.137 192.3 141.923 194.645 144.141 196.556C148.575 200.379 154.133 202.616 159.524 205.233C162.161 206.526 164.884 207.963 167.101 209.874C169.392 211.745 171.326 214.007 173.438 216.073C175.477 218.18 177.694 220.092 180.3 221.498C182.863 222.833 185.846 223.55 188.745 224.123C194.646 225.114 200.512 225.551 206.496 226.019C212.479 226.486 218.462 226.953 224.258 228.099C227.156 228.672 230.066 229.43 232.882 230.527C235.655 231.553 238.366 232.805 241.151 234.016C243.861 235.268 246.53 236.448 249.303 237.473C250.669 237.95 252.076 238.499 253.504 238.75C254.932 239 256.422 239.025 257.858 238.792C260.773 238.4 263.259 236.622 266.097 235.603C269.02 234.727 272.116 234.806 275.088 235.338L275.142 235.594Z" fill="white"/>
<path d="M204.205 104.213C200.219 101.477 196.295 98.5146 192.846 95.1905C189.323 91.9079 186.114 88.1616 183.57 84.0426C182.261 82.0038 181.32 79.758 180.054 77.7909C178.787 75.8238 177.047 74.2184 175.128 72.8089C173.209 71.3994 171.142 70.0728 169.285 68.437C167.355 66.8427 165.855 64.815 164.546 62.7762C163.237 60.7374 162.149 58.5743 160.809 56.6487C159.543 54.6816 158.055 52.8388 156.104 51.5425C154.154 50.2462 151.858 49.5267 149.564 49.475C147.228 49.3515 144.81 49.7524 142.52 50.3684C140.23 50.9845 137.994 51.8572 135.684 52.7713C133.447 53.6439 131.137 54.558 128.742 55.3286C126.421 56.0579 123.855 56.5415 121.371 56.5009C118.814 56.5017 116.37 55.8651 114.031 55.0738C111.735 54.3543 109.427 53.45 107.068 52.9568C104.752 52.5353 102.342 52.4533 100.095 53.1411C99.0078 53.4643 97.9749 54.0441 97.1435 54.7976C96.3122 55.5512 95.6824 56.4786 95.328 57.5383C94.6191 59.6578 94.8839 62.0915 95.0322 64.4949C95.0695 65.7173 95.1806 66.8983 95.0278 68.1318C94.8749 69.3653 94.6057 70.5685 93.9873 71.6807C92.8669 73.9355 91.0255 75.6387 89.1726 77.1569C85.3078 80.0914 81.1137 82.6369 77.3228 85.5299C73.5318 88.423 69.9227 91.7878 67.5427 95.8973C66.2945 97.9369 65.4381 100.139 64.9308 102.432C64.4235 104.726 64.4555 107.099 64.9416 109.408C65.5015 111.676 66.5893 113.839 67.6345 115.931C68.796 118.052 69.9576 120.174 70.7076 122.431C71.4576 124.688 71.8814 127.224 71.3429 129.63C71.0737 130.833 70.4979 132.017 69.7943 132.986C69.017 133.996 68.1118 134.791 67.0903 135.556C63.2682 138.562 59.3182 141.353 56.2598 144.983C54.6937 146.818 53.4029 148.786 52.5777 150.875C51.7212 153.077 51.2877 155.329 51.4673 157.619C51.5358 158.729 51.837 159.899 52.317 160.873C52.6152 161.375 52.7658 161.96 53.0952 162.349C53.223 162.564 53.3933 162.851 53.5211 163.066L54.0209 163.742C55.4662 165.513 57.4591 166.881 59.5143 168.023C63.7413 170.337 68.4078 171.734 72.7823 173.965C77.2306 176.155 81.259 178.963 84.9299 182.162C88.6008 185.362 91.7355 189.15 94.4275 193.186C95.7366 195.225 96.8982 197.346 97.9859 199.509C98.9999 201.714 99.8664 204.001 100.543 206.3C101.335 208.628 101.748 210.979 102.381 213.206C103.015 215.433 103.986 217.565 105.463 219.223C106.939 220.881 109.037 222.095 111.291 222.742C113.471 223.432 115.892 223.698 118.259 223.709C123.067 223.688 127.849 222.63 132.879 222.485C134.136 222.448 135.362 222.525 136.662 222.561L137.624 222.69C137.931 222.709 138.28 222.8 138.513 222.861L140.406 223.233C142.776 223.911 145.158 224.774 147.329 225.946C151.704 228.177 155.627 231.139 159.539 233.917C163.451 236.694 167.437 239.43 171.936 241.209C172.487 241.474 173.069 241.625 173.651 241.777C174.233 241.928 174.783 242.193 175.365 242.345L177.142 242.686C177.449 242.706 177.724 242.838 178.031 242.857L178.95 242.915C181.329 243.11 183.747 242.709 186.122 242.236C190.862 241.106 195.462 239.576 200.105 238.118C202.426 237.389 204.79 236.731 207.166 236.259C209.541 235.786 211.959 235.385 214.474 235.313L214.486 235.497C212.087 235.6 209.669 236.001 207.263 236.587C204.856 237.173 202.608 237.86 200.213 238.631C195.613 240.161 191.024 241.876 186.21 243.048C183.804 243.633 181.343 243.963 178.817 243.85L177.897 243.793C177.591 243.773 177.242 243.682 177.009 243.622L175.158 243.322C174.577 243.17 173.952 242.947 173.37 242.795C172.788 242.643 172.164 242.42 171.656 242.227C166.966 240.46 162.907 237.765 158.878 234.957C154.892 232.221 151.012 229.331 146.68 227.171C144.551 226.071 142.285 225.238 139.958 224.632L138.181 224.29C137.874 224.271 137.599 224.139 137.293 224.12L136.447 224.02C135.294 223.902 134.037 223.938 132.853 223.933C128.057 224.139 123.275 225.197 118.203 225.271C115.719 225.23 113.151 225.046 110.695 224.224C108.283 223.475 105.952 222.2 104.231 220.297C102.437 218.435 101.485 216.004 100.809 213.706C100.09 211.336 99.7204 209.057 98.9704 206.8C98.3367 204.573 97.4391 202.399 96.4251 200.194C95.38 198.103 94.3348 196.012 93.0257 193.973C90.4501 189.967 87.4006 186.323 83.846 183.153C80.2915 179.984 76.3794 177.206 72.0476 175.047C67.7894 172.846 63.0491 171.49 58.737 169.033C56.6391 167.819 54.4872 166.349 52.9142 164.363L52.3718 163.615C52.2014 163.328 52.031 163.042 51.9033 162.826C51.5625 162.253 51.3381 161.709 51.0399 161.207C50.5485 160.048 50.321 158.837 50.1673 157.584C49.9764 155.109 50.4722 152.631 51.4025 150.387C52.3327 148.143 53.7284 146.021 55.3371 144.257C58.5857 140.616 62.6094 137.784 66.4742 134.85C67.4219 134.126 68.327 133.331 69.0732 132.434C69.8194 131.537 70.2902 130.508 70.602 129.376C71.1519 127.155 70.8134 124.763 70.0633 122.506C68.6058 118.063 65.386 114.132 64.3286 109.37C63.7999 106.989 63.8416 104.574 64.3063 102.209C64.771 99.8442 65.7012 97.6005 67.0232 95.5195C69.4769 91.3685 73.0435 87.932 76.9082 84.9975C78.8775 83.5095 80.8155 82.1348 82.8274 80.7185C84.8393 79.3023 86.8199 77.9993 88.7154 76.5527C90.5683 75.0345 92.2934 73.301 93.3088 71.2008C94.3242 69.1006 94.2922 66.7275 94.1864 64.3958C94.0806 62.0641 93.6995 59.6001 94.4281 57.1826C94.8137 56.0098 95.5059 54.8561 96.4422 53.948C97.3785 53.0398 98.6016 52.4489 99.7624 52.0843C102.231 51.2723 104.789 51.2715 107.338 51.7536C109.77 52.2054 112.152 53.0683 114.448 53.7878C116.744 54.5073 119.072 55.1137 121.439 55.124C123.806 55.1343 126.182 54.6617 128.429 53.9739C133.041 52.6286 137.32 50.2266 142.208 49.0137C144.614 48.4279 147.106 47.9856 149.675 48.1697C150.901 48.2466 152.212 48.4669 153.419 48.8418C154.625 49.2168 155.769 49.8179 156.882 50.5323C158.96 52.0438 160.564 53.917 161.873 55.9558C163.182 57.9946 164.344 60.1162 165.537 62.1247C166.803 64.0917 168.143 66.0174 169.958 67.5814C171.772 69.1454 173.765 70.5135 175.726 71.9947C177.688 73.4759 179.514 75.2248 180.823 77.2636C182.132 79.3024 183.072 81.5483 184.265 83.5567C186.693 87.6455 189.711 91.4028 193.161 94.7269C196.61 98.0509 200.386 101.096 204.341 103.945L204.205 104.213Z" fill="#0E253A"/>
<path d="M259.009 217.87L256.636 216.525C255.841 216.014 255.12 215.463 254.473 214.87C253.062 213.653 251.946 212.271 250.787 210.817C248.587 207.94 246.903 204.773 245.028 201.616L242.259 196.954L240.896 194.658C240.428 193.869 240.033 193.039 239.902 192.156C239.729 191.201 240.052 190.255 240.503 189.523C240.985 188.679 241.595 188.049 242.322 187.45C243.817 186.324 245.568 185.628 247.458 185.332C249.348 185.036 251.188 185.152 252.996 185.38C254.846 185.68 256.623 186.022 258.443 186.435C260.262 186.849 262.081 187.262 263.765 187.943C265.522 188.583 267.143 189.49 268.628 190.665C271.523 193.057 273.366 196.326 274.682 199.7C275.997 203.075 276.827 206.626 277.762 210.022C278.287 211.736 278.813 213.449 279.486 215.08C280.159 216.71 280.949 218.371 281.37 220.239C281.748 222.036 281.536 224.163 280.455 225.822C279.856 226.636 278.982 227.318 278.012 227.672C277.041 228.025 275.931 227.978 274.969 227.849C273.002 227.519 271.339 226.539 269.718 225.632L264.929 222.869L260.14 220.105C258.519 219.198 257.003 218.136 255.498 217.259C253.951 216.31 252.341 215.588 250.627 215.02C248.955 214.524 247.147 214.295 245.296 213.995C243.488 213.767 241.564 213.508 239.776 212.981C237.987 212.455 236.188 211.743 234.567 210.836C231.367 209.093 228.094 207.392 224.957 205.422C221.82 203.453 218.831 201.401 215.978 199.081C213.125 196.761 210.524 194.204 208.176 191.41C205.828 188.615 203.627 185.738 201.827 182.54C200.1 179.301 198.89 175.772 198.778 172.105C198.78 170.287 198.972 168.457 199.514 166.718C200.055 164.98 200.903 163.26 202.038 161.858C203.13 160.384 204.7 159.217 206.365 158.377C208.031 157.538 209.953 157.129 211.769 156.874C215.402 156.366 219.174 156.257 222.864 156.672C226.522 157.201 230.215 158.284 233.142 160.563C236.069 162.841 238.165 165.873 240.47 168.596C241.586 169.978 242.776 171.319 244.187 172.535C245.555 173.68 247.176 174.587 248.86 175.268C250.543 175.949 252.331 176.476 254.046 177.044C255.803 177.683 257.529 178.436 259.002 179.426C262.139 181.396 264.635 184.107 266.804 187.098C268.931 190.017 270.732 193.214 272.342 196.423C275.563 202.84 278.488 209.423 280.781 216.266C281.307 217.979 281.611 219.817 281.609 221.636C281.549 222.53 281.416 223.465 281.167 224.37C280.917 225.275 280.319 226.09 279.635 226.76C278.951 227.431 278.066 227.928 277.126 228.168C276.187 228.409 275.194 228.393 274.231 228.263C272.307 228.004 270.612 227.138 268.96 226.344C267.339 225.437 265.866 224.447 264.245 223.539C262.698 222.591 261.119 221.755 259.498 220.848C256.225 219.146 252.964 217.63 249.597 216.267C246.23 214.905 242.79 213.585 239.33 212.562C235.827 211.468 232.262 210.599 228.72 210.101C227.874 210.002 226.966 210.129 226.057 210.256C225.107 210.312 224.113 210.296 223.151 210.166C221.3 209.866 219.512 209.34 217.735 208.998L206.915 206.846C203.319 206.091 199.691 205.449 196.083 204.51C192.476 203.57 188.993 202.177 185.813 200.136C179.497 196.126 174.63 190.25 171.219 183.844C167.766 177.366 165.768 170.358 164.151 163.327C163.364 159.848 162.724 156.285 162.084 152.723C161.822 150.957 161.592 149.078 161.668 147.218C161.744 145.358 162.2 143.476 163.048 141.757C164.628 138.288 167.437 135.564 170.598 133.598C172.179 132.615 173.961 131.806 175.754 131.182C177.548 130.558 179.396 130.19 181.286 129.894C185.035 129.416 188.818 129.492 192.466 129.835C196.187 130.138 199.814 130.78 203.473 131.308C207.1 131.95 210.77 132.664 214.316 133.83C217.861 134.996 221.313 136.501 224.481 138.358C227.723 140.172 230.755 142.296 233.639 144.503C236.598 146.668 239.377 149.029 242.125 151.503C247.579 156.38 252.454 161.774 256.929 167.487C265.732 178.996 272.565 191.994 276.696 205.743C277.747 209.17 278.577 212.721 279.438 216.159C279.89 217.914 280.152 219.68 280.15 221.498C280.09 222.392 279.957 223.328 279.665 224.161C279.373 224.994 278.891 225.839 278.165 226.438C277.438 227.037 276.425 227.319 275.505 227.261C274.586 227.203 273.655 226.961 272.797 226.677C271.114 225.996 269.524 224.975 268.008 223.914C266.492 222.852 265.124 221.707 263.534 220.686C262.282 219.572 260.63 218.778 259.009 217.87ZM259.114 217.716C260.692 218.552 262.345 219.346 263.934 220.366C265.45 221.428 266.893 222.531 268.366 223.522C269.882 224.584 271.355 225.574 273.112 226.213C273.97 226.497 274.827 226.781 275.746 226.839C276.666 226.897 277.563 226.584 278.258 226.099C278.911 225.541 279.436 224.768 279.728 223.935C280.02 223.101 280.195 222.238 280.181 221.385C280.226 219.638 279.848 217.842 279.438 216.159C278.987 214.404 278.651 212.679 278.125 210.966C277.674 209.211 277.148 207.498 276.622 205.784C272.27 192.16 265.405 179.275 256.424 167.962C251.992 162.32 246.969 157.01 241.558 152.205C238.852 149.802 236.042 147.554 233.083 145.389C230.125 143.223 227.178 141.243 224.053 139.459C220.927 137.674 217.592 136.199 214.132 135.176C210.629 134.082 207.106 133.286 203.522 132.716C199.937 132.146 196.235 131.545 192.631 131.273C188.983 130.929 185.39 130.842 181.757 131.351C179.941 131.605 178.21 132.003 176.564 132.545C174.844 133.127 173.252 133.925 171.819 134.825C168.805 136.708 166.291 139.267 164.805 142.397C164.062 143.961 163.668 145.617 163.581 147.292C163.493 148.967 163.681 150.775 164.017 152.499C164.614 155.99 165.327 159.51 166.041 163.031C167.542 170.031 169.528 176.855 172.896 183.189C176.222 189.452 180.887 195.154 186.928 199.032C189.949 200.971 193.315 202.333 196.807 203.243C200.341 204.224 203.968 204.866 207.565 205.621L218.385 207.773C220.162 208.114 221.95 208.641 223.758 208.869C224.646 209.04 225.523 209.026 226.4 209.012C227.277 208.998 228.259 208.829 229.222 208.959C236.655 210.046 243.567 212.574 250.417 215.329C253.826 216.763 257.13 218.351 260.403 220.053C262.024 220.96 263.603 221.796 265.15 222.744C266.697 223.693 268.287 224.714 269.791 225.591C271.37 226.426 273.022 227.221 274.756 227.49C275.645 227.661 276.522 227.647 277.345 227.376C278.21 227.178 278.948 226.763 279.558 226.134C280.863 225.019 281.288 223.25 281.333 221.503C281.378 219.756 281.043 218.032 280.591 216.277C278.341 209.506 275.489 202.882 272.268 196.464C270.658 193.256 268.9 190.13 266.847 187.17C264.72 184.251 262.267 181.611 259.204 179.6C257.657 178.651 256.004 177.857 254.29 177.289C252.575 176.721 250.787 176.195 249.104 175.514C247.347 174.874 245.726 173.967 244.315 172.75C242.904 171.534 241.714 170.193 240.482 168.781C238.208 165.945 236.081 163.026 233.196 160.819C230.312 158.613 226.735 157.56 223.119 157.103C219.503 156.646 215.816 156.898 212.184 157.407C210.367 157.661 208.605 158.172 207.013 158.97C205.421 159.768 204.042 160.925 202.981 162.286C201.92 163.646 201.103 165.253 200.635 166.95C200.125 168.575 199.932 170.405 199.961 172.11C200.062 175.592 201.303 179.008 203.018 182.062C204.776 185.188 206.934 187.994 209.314 190.675C211.693 193.357 214.294 195.914 217.031 198.203C219.767 200.493 222.757 202.545 225.851 204.442C228.945 206.34 232.145 208.083 235.344 209.826C236.922 210.661 238.532 211.384 240.278 211.839C242.023 212.293 243.757 212.563 245.566 212.792C247.374 213.02 249.298 213.279 251.129 213.877C252.96 214.475 254.612 215.27 256.275 216.249C257.896 217.156 259.412 218.218 260.959 219.167L265.675 221.972L270.39 224.777C271.937 225.725 273.589 226.519 275.25 226.831C276.096 226.93 276.899 226.957 277.648 226.728C278.397 226.499 279.093 226.013 279.512 225.395C280.426 224.117 280.692 222.246 280.325 220.634C280.033 218.981 279.243 217.321 278.57 215.69C277.854 213.988 277.328 212.274 276.876 210.519C275.899 207.051 275.185 203.53 273.913 200.228C272.64 196.925 270.84 193.727 268.177 191.397C266.808 190.252 265.261 189.303 263.546 188.735C261.863 188.054 260.117 187.599 258.298 187.186C254.775 186.39 251.051 185.419 247.492 185.887C245.676 186.141 243.956 186.724 242.535 187.809C241.882 188.367 241.198 189.037 240.747 189.769C240.296 190.5 240.047 191.405 240.135 192.217C240.266 193.1 240.734 193.889 241.086 194.647L242.45 196.943L245.218 201.605C247.05 204.69 248.734 207.857 250.861 210.776C251.903 212.199 253.135 213.612 254.43 214.798C255.077 215.391 255.798 215.943 256.593 216.453L259.114 217.716Z" fill="#0E253A"/>
<path d="M293.672 241.453C289.656 241.316 285.756 241.21 281.763 241.443C279.787 241.595 277.812 241.748 275.922 242.043C273.958 242.381 272.079 242.861 270.2 243.342C266.369 244.345 262.537 245.348 258.544 245.581C254.551 245.814 250.597 245.451 246.612 245.201C238.79 244.618 230.931 245.3 223.083 246.166L199.413 248.549C191.597 249.302 183.644 250.323 175.62 249.566C171.666 249.203 167.604 248.327 163.877 246.689C160.076 245.093 156.874 242.682 153.547 240.724C151.883 239.745 150.262 238.837 148.389 238.168C146.632 237.528 144.77 237.043 142.845 236.784C139.07 236.225 135.139 236.232 131.177 236.352C127.215 236.472 123.253 236.591 119.225 236.27C117.227 236.052 115.186 235.763 113.208 235.248C111.229 234.733 109.344 233.878 107.565 232.868C104.036 230.736 101.296 227.779 98.8512 224.656C96.4064 221.533 94.2994 218.317 91.9398 215.337C87.1781 209.307 81.4998 203.886 75.1917 199.393C72.0745 197.126 68.7049 195.096 65.3352 193.066C62.0393 190.995 58.7008 188.852 55.646 186.358C52.5174 183.906 49.7463 181.062 47.418 177.969C46.2907 176.402 45.1945 174.722 44.2886 173.031C43.3826 171.34 42.4341 169.577 41.6019 167.844C39.9375 164.379 38.5257 160.676 37.5679 156.91C36.684 153.102 36.2541 149.231 36.7013 145.345C36.9249 143.402 37.2648 141.49 37.8376 139.638C38.4103 137.787 39.2158 135.995 40.0212 134.204C41.5584 130.664 42.8628 127.062 43.5853 123.309C43.9679 121.468 44.1177 119.567 44.0773 117.677C44.1107 115.745 43.8802 113.866 43.7235 111.946C43.5668 110.025 43.4838 108.063 43.7812 106.079C44.0785 104.095 44.7676 102.274 45.5731 100.483C47.1841 96.9003 49.2719 93.6243 50.6189 90.0946C52.0397 86.5234 52.995 82.831 54.2142 79.0861C55.4023 75.4544 56.8116 71.6984 59.0897 68.4112C60.1705 66.7524 61.5693 65.2978 63.1696 64.0169C64.77 62.736 66.5407 61.7421 68.3229 60.933C71.961 59.2735 75.8235 58.1575 79.4418 56.796C83.0602 55.4344 86.4115 53.4577 89.5924 51.1939C92.7734 48.9302 95.8691 46.5231 99.0075 44.1876C102.188 41.9239 105.602 39.7208 109.399 38.1633C111.298 37.3846 113.25 36.8624 115.331 36.5555C117.411 36.2486 119.472 36.2396 121.501 36.3439C123.573 36.5198 125.54 36.8503 127.507 37.1809L133.377 38.2856L145 40.4646L150.87 41.5693C152.763 41.9413 154.73 42.2718 156.783 42.7458C158.761 43.2612 160.751 43.9614 162.542 45.1557C164.334 46.35 165.767 47.9362 166.863 49.6163C169.203 52.8938 170.72 56.4419 173.185 59.2668C175.607 62.0199 178.976 64.0498 181.937 66.8828C183.434 68.2428 184.794 69.8704 185.711 71.7465C186.702 73.5812 187.239 75.4795 187.776 77.3778C188.313 79.2761 188.734 81.1441 189.376 82.8879C189.623 83.8012 190.018 84.6316 190.339 85.5035C190.734 86.334 191.055 87.2059 191.566 88.0666C193.262 91.4188 195.443 94.5942 197.981 97.3777C200.519 100.161 203.5 102.696 206.68 104.737C209.828 106.891 213.532 108.159 217.061 110.291C218.841 111.301 220.485 112.578 221.876 114.092C223.267 115.607 224.437 117.245 225.564 118.812L227.277 121.199C227.49 121.558 227.862 122.018 228.117 122.449C228.373 122.879 228.628 123.309 228.853 123.853C229.728 125.657 230.265 127.556 231.054 129.217C231.449 130.047 231.918 130.836 232.417 131.512L233.289 132.649L234.235 133.744C235.541 135.115 236.92 136.444 238.405 137.619C241.344 140.083 244.713 142.113 248.04 144.071C254.768 147.946 262.013 151.531 267.955 156.899C270.905 159.547 273.54 162.658 275.289 166.267C277.039 169.876 277.923 173.684 278.838 177.378C279.679 181.114 280.606 184.994 280.508 188.97C280.474 190.902 280.398 192.762 280.629 194.641C280.859 196.52 281.164 198.357 281.806 200.101C282.448 201.845 283.354 203.536 284.333 205.186C285.313 206.836 286.293 208.486 287.241 210.249C288.98 213.673 291.16 216.848 293.089 220.261C294.068 221.911 295.017 223.674 295.849 225.406C296.681 227.139 297.482 228.985 297.756 230.935C297.864 231.449 297.855 231.932 297.773 232.456C297.691 232.98 297.566 233.433 297.441 233.885C297.235 234.862 297.101 235.798 296.852 236.703C296.268 238.37 295.474 240.346 293.672 241.453ZM293.618 241.196C293.987 240.989 294.344 240.597 294.628 240.247C294.912 239.896 295.153 239.474 295.394 239.052C295.876 238.207 296.126 237.302 296.332 236.325C296.582 235.42 296.672 234.413 296.848 233.549C296.973 233.096 297.055 232.572 297.106 232.161C297.157 231.75 297.165 231.267 297.057 230.754C296.753 228.916 295.878 227.111 295.089 225.451C294.256 223.718 293.277 222.068 292.297 220.418C291.317 218.768 290.264 217.16 289.168 215.48C288.656 214.619 288.114 213.871 287.603 213.011L286.186 210.459C285.206 208.809 284.226 207.159 283.204 205.437C282.224 203.788 281.276 202.025 280.517 200.251C279.79 198.363 279.369 196.495 279.17 194.503C278.971 192.511 279.004 190.579 278.964 188.689C278.999 184.939 278.084 181.245 277.126 177.478C276.211 173.784 275.254 170.017 273.558 166.665C271.863 163.313 269.429 160.375 266.491 157.912C263.626 155.407 260.361 153.223 257.034 151.264C253.707 149.306 250.159 147.472 246.758 145.556C243.314 143.567 239.945 141.537 236.774 139.013C235.246 137.767 233.75 136.407 232.401 134.964L231.413 133.797L230.499 132.589C229.84 131.811 229.36 130.837 228.923 129.935C228.048 128.13 227.437 126.273 226.648 124.612C226.435 124.254 226.253 123.782 226.04 123.423C225.827 123.065 225.614 122.706 225.285 122.317C224.7 121.498 224.157 120.75 223.572 119.931C222.445 118.364 221.318 116.797 220.128 115.456C218.822 114.085 217.38 112.982 215.833 112.033C212.622 110.105 208.832 108.693 205.451 106.479C202.039 104.377 198.973 101.699 196.233 98.7414C193.567 95.7427 191.227 92.4652 189.52 88.9282C187.666 85.474 186.506 81.5339 185.591 77.8393C185.097 76.0128 184.528 74.2276 183.665 72.6081C182.802 70.9886 181.686 69.6065 180.349 68.3486C177.631 65.7611 174.219 63.6595 171.51 60.5891C168.833 57.4055 167.274 53.7857 165.104 50.7951C164.093 49.2585 162.787 47.8874 161.314 46.8973C159.84 45.9071 158.083 45.2675 156.221 44.7824C154.359 44.2973 152.392 43.9668 150.499 43.5949L144.703 42.4488L133.037 40.1979C129.177 39.4955 125.305 38.6082 121.467 38.2755C119.586 38.0884 117.641 38.1276 115.751 38.4235C113.861 38.7193 112.056 39.1587 110.231 39.896C106.656 41.3292 103.421 43.3363 100.24 45.6001C97.0588 47.8638 93.963 50.2709 90.7395 52.4629C87.4422 54.6963 84.0171 56.7145 80.2512 58.1589C76.4853 59.6032 72.7278 60.5647 69.1634 62.1828C67.3813 62.9919 65.7581 63.903 64.3053 65.101C62.7247 66.0839 61.3997 67.4971 60.3501 69.0427C58.1344 72.1036 56.7562 75.7464 55.5256 79.3065C54.3375 82.9382 53.2347 86.7135 51.8139 90.2846C50.3619 93.9689 48.1577 97.2146 46.5779 100.684C45.7298 102.403 45.1145 104.183 44.8483 106.054C44.5396 107.853 44.6225 109.815 44.7793 111.736C44.936 113.656 45.0927 115.577 45.0593 117.508C45.0259 119.44 44.9187 121.413 44.4623 123.295C43.7824 127.12 42.4042 130.763 40.7933 134.345C39.9878 136.136 39.2135 137.814 38.6408 139.666C38.0681 141.517 37.6855 143.358 37.5357 145.259C37.1197 149.032 37.5496 152.903 38.3909 156.639C39.3061 160.334 40.7491 163.923 42.4135 167.388C44.1516 170.812 45.9323 174.308 48.1444 177.37C50.4727 180.463 53.2012 183.235 56.2446 185.544C59.3306 187.924 62.6265 189.995 65.9961 192.025C69.3658 194.055 72.7667 195.972 76.0002 198.27C82.4247 202.793 88.2931 208.202 93.2876 214.294C95.7636 217.303 97.987 220.551 100.347 223.53C102.706 226.509 105.435 229.282 108.645 231.21C110.309 232.189 111.992 232.87 113.854 233.355C115.716 233.84 117.567 234.14 119.523 234.286C123.36 234.618 127.28 234.427 131.242 234.307C135.204 234.187 139.209 234.139 143.29 234.717C145.331 235.006 147.31 235.522 149.226 236.263C151.142 237.005 152.922 238.014 154.659 238.952C158.071 241.054 161.188 243.321 164.683 244.898C168.177 246.475 172.006 247.291 175.844 247.624C183.604 248.433 191.482 247.453 199.341 246.772L222.949 244.615C230.808 243.934 238.783 243.283 246.765 243.968C250.676 244.259 254.63 244.622 258.518 244.543C262.407 244.465 266.238 243.462 270.112 242.531C272.033 242.122 273.986 241.6 275.919 241.376C277.883 241.038 279.858 240.886 281.876 240.805C285.69 240.768 289.749 240.977 293.618 241.196Z" fill="#0E253A"/>
<path d="M243.175 244.548C240.175 244.797 237.141 244.492 234.22 243.549C231.299 242.606 228.724 241.087 226.087 239.793C223.45 238.5 220.708 237.361 217.798 236.603C214.931 235.917 211.971 235.57 208.979 235.337C205.988 235.103 203.008 235.054 200.104 235.632C197.201 236.21 194.491 237.444 191.653 238.463C190.271 238.952 188.772 239.41 187.263 239.684C185.753 239.958 184.231 240.047 182.625 239.992C181.092 239.896 179.591 239.686 178.035 239.221C176.553 238.713 175.208 237.938 173.967 237.009C171.455 235.263 169.385 233.268 166.81 231.749C164.352 230.26 161.567 229.049 158.825 227.91L150.556 224.422L146.48 222.693C145.146 222.103 143.78 221.626 142.352 221.376C139.571 220.833 136.636 221.524 133.69 222.029C132.18 222.303 130.702 222.464 129.138 222.481C127.574 222.498 126.03 222.217 124.548 221.709C121.542 220.623 119.092 218.651 117.19 216.276C115.213 213.942 113.901 211.235 112.853 208.476C111.805 205.717 111.094 202.864 110.31 200.052C109.526 197.241 108.668 194.471 107.588 191.825C105.461 186.42 102.7 181.274 99.2756 176.501C97.5633 174.115 95.7773 171.77 93.8125 169.621C91.9215 167.431 89.6616 165.447 87.833 163.031C86.9186 161.822 86.0781 160.573 85.5327 159.157C84.9873 157.742 84.7058 156.274 84.8047 154.784C84.9035 153.294 85.4253 151.853 85.9896 150.484C86.554 149.115 87.2773 147.849 87.8417 146.48C88.406 145.111 88.7803 143.753 88.7315 142.346C88.6828 140.939 88.2538 139.554 87.5296 138.334C85.9649 135.865 83.4951 134.191 81.0253 132.517C79.8272 131.659 78.5554 130.842 77.4312 129.943C76.2643 128.972 75.1713 127.96 74.2258 126.865C73.2377 125.698 72.3971 124.448 71.8943 123.104C71.3489 121.689 71.0674 120.221 71.1663 118.731C71.364 115.751 72.7567 112.96 74.754 110.691C76.635 108.392 79.0782 106.543 81.6179 105.022C86.6548 101.907 92.1914 99.469 96.6434 95.5355C101.022 91.6433 104.38 86.6974 106.025 81.1836C106.473 79.7844 106.731 78.3963 106.872 76.978C107.013 75.5596 107.186 74.028 107.591 72.5572C107.997 71.0863 108.825 69.6649 109.866 68.6022C110.865 67.4678 112.182 66.5374 113.467 65.7202C116.123 64.2293 119.078 63.2405 122.097 62.6932C122.815 62.5771 123.607 62.4196 124.41 62.4469C125.171 62.4025 125.932 62.3582 126.735 62.3855C128.268 62.4816 129.843 62.6494 131.356 63.0436C134.339 63.7601 137.093 65.0837 139.846 66.4074C142.526 67.7725 145.163 69.0658 147.936 70.0915C149.302 70.5684 150.741 71.004 152.192 71.6244C153.642 72.2448 154.957 73.1329 156.092 74.217C158.363 76.3852 159.897 78.9676 161.462 81.4367C162.228 82.7279 163.026 83.9059 163.824 85.084C164.696 86.2206 165.642 87.3158 166.618 88.2978C168.688 90.2922 171.01 92.0493 173.542 93.4972C178.607 96.393 184.29 98.1765 190.109 99.6924C193.018 100.45 195.916 101.023 198.868 101.853C201.82 102.683 204.667 103.667 207.378 104.919C212.874 107.381 218.046 110.79 222.135 115.19C224.216 117.37 225.897 119.869 227.357 122.493C228.743 125.158 229.939 127.834 231.239 130.356C232.583 132.949 234.179 135.306 236.322 137.259C238.466 139.212 240.967 140.773 243.468 142.334L258.454 151.998C260.924 153.672 263.499 155.192 265.895 156.907C268.291 158.623 270.667 160.637 272.453 162.982C274.313 165.285 275.815 167.981 276.863 170.74C277.912 173.499 278.401 176.476 278.583 179.434C278.766 182.392 278.716 185.29 278.93 188.134C279.021 189.613 279.186 191.051 279.499 192.406C279.854 193.832 280.283 195.217 280.786 196.561C282.84 202.008 286.086 206.976 287.918 212.547L287.771 212.63C285.864 207.101 282.471 202.215 280.301 196.738C279.798 195.394 279.252 193.979 278.971 192.511C278.616 191.084 278.451 189.647 278.286 188.209C278.029 185.293 278.079 182.395 277.823 179.479C277.609 176.634 277.089 173.769 276.083 171.082C275.077 168.395 273.587 165.884 271.769 163.652C268.166 159.076 262.838 156.232 257.867 152.997L242.776 143.487C240.275 141.926 237.657 140.335 235.397 138.352C233.095 136.296 231.297 133.767 229.954 131.173C228.494 128.549 227.298 125.873 225.998 123.352C224.654 120.758 222.985 118.443 221.02 116.294C217.133 112.068 212.119 108.761 206.74 106.329C204.072 105.149 201.298 104.123 198.463 103.324C195.627 102.525 192.655 101.993 189.746 101.235C183.927 99.7192 178.054 97.9467 172.788 94.8771C170.139 93.3989 167.658 91.5398 165.546 89.4737C164.453 88.4613 163.465 87.2944 162.624 86.0446C161.71 84.8363 160.943 83.5451 160.219 82.3257C158.654 79.8565 157.163 77.3459 155.136 75.4232C154.086 74.4826 152.93 73.6965 151.596 73.1064C150.262 72.5163 148.865 72.1525 147.457 71.6038C141.678 69.4919 136.843 65.9889 131.141 64.5034C129.744 64.1396 128.243 63.9303 126.826 63.8645C126.139 63.8675 125.336 63.8401 124.692 63.9149C123.931 63.9592 123.287 64.0339 122.495 64.1915C119.623 64.656 116.743 65.6033 114.234 67.0114C111.725 68.4195 109.526 70.5146 108.735 73.1584C108.361 74.5161 108.22 75.9345 108.005 77.3943C107.789 78.8541 107.5 80.3553 107.052 81.7545C105.303 87.4228 101.723 92.493 97.2709 96.4266C92.7452 100.402 87.166 102.768 82.0865 105.811C79.5468 107.332 77.1774 109.14 75.3276 111.326C73.4778 113.512 72.0425 116.23 71.876 119.098C71.8083 120.475 72.016 121.984 72.5926 123.286C73.0954 124.63 73.8934 125.808 74.8814 126.975C75.827 128.07 76.92 129.082 78.0443 129.982C79.1685 130.881 80.4403 131.697 81.6383 132.555C82.8364 133.413 84.1082 134.229 85.275 135.2C86.4419 136.171 87.4612 137.225 88.3017 138.475C89.1422 139.724 89.5401 141.223 89.5576 142.743C89.5751 144.263 89.1697 145.734 88.6792 147.062C88.1148 148.431 87.4341 149.769 86.8271 151.066C86.2201 152.363 85.7722 153.763 85.6307 155.181C85.4642 158.048 86.7764 160.755 88.5936 162.986C90.4108 165.218 92.5969 167.243 94.6043 169.464C96.6117 171.684 98.4715 173.988 100.184 176.374C103.608 181.147 106.528 186.395 108.772 191.83C109.894 194.548 110.868 197.348 111.652 200.16C112.437 202.971 113.221 205.783 114.3 208.429C115.306 211.116 116.649 213.71 118.54 215.9C120.358 218.132 122.68 219.889 125.337 220.884C126.702 221.361 128.087 221.54 129.504 221.606C130.951 221.558 132.43 221.398 133.866 221.166C135.302 220.933 136.812 220.66 138.364 220.458C139.917 220.256 141.481 220.239 143.067 220.592C144.611 220.873 146.062 221.493 147.47 222.042L151.589 223.842L159.784 227.372C162.526 228.511 165.311 229.721 167.855 231.354C170.472 232.945 172.658 234.97 175.054 236.686C176.252 237.543 177.481 238.288 178.804 238.693C180.17 239.17 181.597 239.421 183.087 239.445C184.504 239.511 186.025 239.422 187.461 239.19C188.897 238.958 190.322 238.541 191.704 238.052C194.511 237.146 197.295 235.87 200.314 235.323C203.334 234.776 206.431 234.855 209.422 235.088C212.456 235.394 215.417 235.74 218.326 236.498C221.236 237.256 224.02 238.467 226.7 239.832C229.38 241.197 231.881 242.758 234.728 243.742C237.501 244.768 240.536 245.073 243.536 244.824L243.175 244.548Z" fill="#0E253A"/>
</svg>
