<svg width="330" height="314" viewBox="0 0 330 314" fill="none" xmlns="http://www.w3.org/2000/svg">
<path d="M162.231 51.6571C153.237 45.5292 143.997 48.6993 134.984 51.8071C128.739 53.9025 122.339 56.1029 116.045 55.2181C114.607 55.053 113.181 54.6978 111.754 54.3425C109.743 53.8366 107.618 53.3619 105.472 53.2676C96.7298 52.9951 90.1628 60.6051 86.2203 67.1176C84.8647 69.3622 83.5809 71.6494 82.4102 73.9055C80.3698 77.7109 78.2466 81.6639 75.5606 85.0859C70.7048 91.3512 64.2688 94.8089 58.4356 94.2961L58.3912 95.0568C64.5224 95.5498 71.113 91.9871 76.1648 85.5431C78.8204 82.0047 80.9851 77.9779 83.0255 74.1725C84.1962 71.9164 85.48 69.6292 86.8356 67.3846C90.6538 61.0934 97.0249 53.6622 105.469 53.9544C107.544 54.0062 109.627 54.5547 111.638 55.0606C113.065 55.4158 114.491 55.7711 116.001 55.9787C122.479 56.8749 128.992 54.6434 135.309 52.5906C144.549 49.4204 153.253 46.5226 161.93 52.3638L162.231 51.6571Z" fill="#0E253A"/>
<path d="M235.149 278.035C235.688 277.076 235.867 275.904 235.851 274.91C235.846 273.727 235.501 272.637 235.27 271.516C235.149 271.05 235.027 270.585 234.906 270.119C234.352 267.528 234.364 264.78 235.033 262.226C236.843 254.742 234.973 249.894 231.91 243.254C226.698 232.092 222.968 220.335 220.781 208.215C220.469 206.554 220.23 204.937 219.919 203.276C219.128 198.38 218.307 193.367 216.766 188.615C213.938 179.853 208.344 171.416 200.262 163.665C189.018 152.856 177.8 145.407 166.968 141.532C163.552 140.291 160.145 139.546 156.809 138.844C154.171 138.261 151.461 137.636 148.763 136.82C146.136 136.047 142.949 136.614 139.344 138.605C138.5 139.088 137.655 139.57 136.883 140.095C134.998 141.238 133.071 142.455 130.993 143.09C128.915 143.725 126.716 143.895 124.63 144.033C121.649 144.231 118.556 144.46 115.868 146.011C114.066 147.007 112.713 148.565 111.33 150.006C109.152 152.352 106.861 154.73 105.461 157.735C104.031 160.624 103.503 163.951 103.14 166.982C102.692 170.847 102.575 174.123 102.696 177.145C102.97 182.62 104.221 187.889 105.4 193.114C107.781 203.185 110.212 213.679 115.278 222.885L115.855 222.539C110.747 213.407 108.347 203.029 106.038 193.001C104.817 187.849 103.607 182.507 103.322 177.222C103.202 174.199 103.349 171.04 103.797 167.175C104.159 164.144 104.605 160.965 105.994 158.15C107.424 155.261 109.602 152.915 111.738 150.642C113.08 149.274 114.391 147.79 116.08 146.826C118.614 145.379 121.481 145.213 124.502 144.941C126.702 144.772 128.973 144.645 131.051 144.01C133.242 143.343 135.168 142.126 137.095 140.909C137.939 140.427 138.712 139.902 139.557 139.42C143.006 137.534 146.009 136.956 148.451 137.717C151.221 138.575 153.931 139.201 156.568 139.783C159.791 140.517 163.199 141.261 166.656 142.429C177.416 146.261 188.562 153.667 199.734 164.434C207.745 172.142 213.237 180.42 216.107 189.109C217.648 193.861 218.468 198.873 219.229 203.653C219.468 205.271 219.779 206.932 220.091 208.592C222.236 220.786 225.997 232.66 231.208 243.821C234.272 250.461 236.051 254.96 234.324 262.297C233.685 264.967 233.591 267.862 234.175 270.57C234.296 271.036 234.417 271.501 234.539 271.967C234.77 273.088 235.084 274.062 235.131 275.171C235.166 276.471 234.768 278.202 233.46 279C232.883 279.346 232.205 279.533 231.454 279.677C230.703 279.822 229.84 279.997 229.221 280.417C228.181 281.078 227.673 282.154 227.093 283.187C226.927 283.482 226.72 283.851 226.555 284.146C224.454 287.719 218.727 291.106 212.445 287.473L212.072 288.137C218.139 291.642 224.519 289.135 227.159 284.603C227.324 284.308 227.531 283.939 227.697 283.644C228.164 282.642 228.702 281.683 229.547 281.201C230.124 280.855 230.802 280.668 231.553 280.523C232.304 280.379 233.054 280.234 233.786 279.783C234.385 279.057 234.859 278.552 235.149 278.035Z" fill="#0E253A"/>
<path d="M235.98 214.191C235.192 211.166 234.938 210.425 234.685 209.684C234.431 208.943 234.178 208.202 233.348 205.25C229.316 189.772 225.981 176.97 222.786 164.941C221.199 159.079 218.476 156.773 214.269 153.193L214.054 153.065C208.219 148.125 205.967 141.573 203.695 134.715C202.275 130.429 200.754 125.984 198.315 121.978C196.652 119.318 194.934 117.609 192.903 116.797C189.498 115.365 185.135 117.004 180.885 118.612C174.814 120.909 169.123 123.039 165.634 117.327C164.073 114.826 164.221 111.667 164.326 108.582C164.318 108.085 164.352 107.515 164.343 107.018C164.377 103.89 164.114 100.782 163.438 97.7252C163.086 96.1385 162.559 94.3502 161.249 93.2769C158.832 91.4483 155.322 93.1019 152.917 95.5107C150.43 98.0672 148.476 101.038 146.491 103.893C145.312 105.652 144.05 107.559 142.728 109.233C138.999 114.003 135.124 116.817 131.103 117.676C127.308 118.472 124.274 117.064 121.095 115.57C119.362 114.737 117.588 113.979 115.69 113.442C111.011 112.237 105.489 113.385 100.923 116.576C95.3896 120.471 91.3784 126.254 90.1818 132.135C88.9104 138.66 91.9578 144.306 94.9031 149.793C95.2396 150.386 95.6064 151.096 95.9428 151.689C99.4177 158.278 98.8333 165.113 97.763 172.642C96.8836 178.809 97.5469 184.614 99.5738 188.67L100.222 188.367C98.2975 184.469 97.6646 178.781 98.5329 172.804C99.6142 165.084 100.127 158.207 96.5914 151.386C96.2549 150.793 95.8882 150.083 95.5517 149.49C92.6367 144.119 89.6196 138.589 90.9516 132.297C92.0654 126.564 95.9524 121.002 101.403 117.255C105.773 114.242 111.11 113.083 115.604 114.276C117.503 114.813 119.205 115.529 120.938 116.361C124.188 117.898 127.366 119.392 131.387 118.533C135.592 117.686 139.622 114.767 143.434 109.849C144.798 108.101 146.018 106.268 147.239 104.435C149.152 101.538 151.178 98.6095 153.552 96.0843C155.76 93.8541 158.818 92.3253 160.918 93.8672C162.054 94.7389 162.55 96.4108 162.873 97.8811C163.476 100.896 163.781 103.93 163.676 107.015C163.684 107.512 163.65 108.082 163.659 108.579C163.583 111.78 163.466 115.056 165.129 117.716C168.924 123.904 175.222 121.545 181.252 119.322C185.347 117.819 189.597 116.211 192.787 117.515C194.674 118.242 196.321 119.909 197.882 122.41C200.248 126.373 201.74 130.701 203.16 134.988C205.442 141.655 207.744 148.63 213.794 153.698L214.009 153.826C218.216 157.406 220.837 159.553 222.292 165.139C225.487 177.169 228.822 189.97 232.854 205.449C233.642 208.474 233.896 209.215 234.149 209.956C234.403 210.697 234.657 211.438 235.486 214.39L235.98 214.191Z" fill="#0E253A"/>
<path d="M235.594 274.856C235.206 271.969 235.24 268.842 236.248 266.194C236.809 264.854 237.513 263.6 238.187 262.229C238.932 260.901 239.504 259.372 239.777 257.862C240.093 256.278 240.151 254.641 239.87 253.097C239.63 251.479 239.082 250.071 238.646 248.632C237.662 245.784 236.565 242.969 235.426 240.226C234.287 237.484 233.107 234.816 232.194 232.011C231.24 229.281 230.585 226.53 230.083 223.675C229.081 217.964 228.757 212.066 228.474 206.094C228.313 203.145 228.192 200.122 227.887 197.088C227.653 194.096 227.348 191.062 226.786 187.974C226.505 186.43 226.224 184.886 225.758 183.33C225.546 182.516 225.292 181.775 225.038 181.034C224.713 180.25 224.388 179.467 223.991 178.641C222.463 175.569 220.193 173.139 218.055 170.984C215.917 168.829 213.84 166.907 212.143 164.818C211.274 163.81 210.632 162.739 209.959 161.553C209.286 160.366 208.654 159.106 207.993 157.729C205.436 152.571 203.294 146.675 198.991 141.562C196.834 139.101 194.028 136.943 191.065 135.577C188.143 134.137 185.105 133.415 182.252 132.704C176.463 131.431 170.992 130.444 166.978 127.372C165.093 125.958 163.48 123.721 161.651 121.356C159.822 118.991 157.79 116.308 154.592 114.508C153.086 113.613 151.085 112.917 148.916 113.203C146.789 113.415 145.017 114.527 143.686 115.704C142.356 116.882 141.395 118.082 140.435 119.282L139.041 120.914L137.575 122.503C135.552 124.744 133.796 126.85 131.748 127.601C130.802 127.925 129.723 127.973 128.809 127.725C127.824 127.435 126.718 126.68 125.581 125.808C124.445 124.937 123.278 123.949 121.73 123.128C120.254 122.35 118.171 121.801 116.247 122.331C112.657 123.446 110.744 126.343 108.674 127.475C107.633 128.136 106.389 128.479 105.084 128.589C104.488 128.628 103.892 128.668 103.265 128.591C102.639 128.514 101.982 128.321 101.099 128.19C100.216 128.059 99.1261 128.297 98.3947 128.748C97.5916 129.157 96.8906 129.724 96.3744 130.303C95.2592 131.608 94.544 133.053 94.0855 134.551C93.1684 137.548 93.0515 140.823 94.0246 143.861C95.0392 146.824 97.0114 149.274 99.3978 150.986L99.6351 150.734C97.4033 148.917 95.5443 146.435 94.7449 143.6C93.9456 140.764 94.1645 137.648 95.1008 134.957C95.5897 133.575 96.3351 132.247 97.2847 131.237C98.306 130.27 99.6142 129.473 101.01 129.711C101.708 129.831 102.365 130.024 103.135 130.186C103.833 130.306 104.573 130.351 105.353 130.323C106.772 130.182 108.315 129.819 109.581 129.095C110.92 128.415 111.983 127.373 113.147 126.491C114.24 125.566 115.477 124.727 116.835 124.352C118.192 123.978 119.619 124.333 120.88 124.984C122.14 125.634 123.194 126.653 124.403 127.568C125.539 128.439 126.748 129.354 128.163 129.899C129.578 130.445 131.14 130.388 132.539 129.94C135.421 128.897 137.342 126.496 139.396 124.371C141.521 122.289 143.186 119.834 145.413 117.91C146.506 116.985 147.773 116.262 149.191 116.121C150.61 115.979 151.995 116.408 153.214 117.132C158.277 120.04 160.438 126.243 165.158 129.931C169.992 133.589 175.946 134.567 181.509 135.903C184.29 136.571 187.102 137.355 189.737 138.624C192.3 139.851 194.645 141.637 196.556 143.855C200.379 148.289 202.616 153.847 205.233 159.238C206.526 161.875 207.963 164.598 209.874 166.815C211.745 169.106 214.007 171.04 216.073 173.152C218.18 175.191 220.092 177.408 221.498 180.014C222.833 182.577 223.55 185.56 224.123 188.459C225.114 194.36 225.551 200.226 226.019 206.21C226.486 212.193 226.953 218.176 228.099 223.972C228.672 226.87 229.43 229.78 230.527 232.596C231.553 235.369 232.805 238.08 234.016 240.865C235.268 243.575 236.448 246.244 237.473 249.017C237.95 250.382 238.499 251.79 238.75 253.218C239 254.646 239.025 256.136 238.792 257.572C238.4 260.487 236.622 262.973 235.603 265.81C234.727 268.734 234.806 271.83 235.338 274.802L235.594 274.856Z" fill="#FFF766"/>
<path d="M104.213 203.919C101.477 199.933 98.5146 196.01 95.1906 192.56C91.908 189.037 88.1617 185.828 84.0427 183.284C82.0039 181.975 79.758 181.034 77.7909 179.768C75.8239 178.501 74.2184 176.761 72.809 174.842C71.3995 172.923 70.0729 170.856 68.4371 168.999C66.8428 167.069 64.8151 165.569 62.7763 164.26C60.7375 162.951 58.5744 161.864 56.6487 160.523C54.6817 159.257 52.8389 157.769 51.5425 155.819C50.2462 153.868 49.5267 151.572 49.475 149.279C49.3516 146.943 49.7524 144.525 50.3685 142.234C50.9846 139.944 51.8572 137.708 52.7713 135.398C53.644 133.161 54.5581 130.851 55.3287 128.456C56.0579 126.135 56.5416 123.569 56.501 121.086C56.5018 118.528 55.8651 116.084 55.0739 113.745C54.3544 111.449 53.45 109.141 52.9568 106.782C52.5354 104.466 52.4533 102.057 53.1411 99.8089C53.4643 98.722 54.0441 97.689 54.7977 96.8577C55.5513 96.0263 56.4786 95.3965 57.5384 95.0421C59.6578 94.3332 62.0915 94.598 64.4949 94.7463C65.7174 94.7837 66.8984 94.8947 68.1319 94.7419C69.3654 94.589 70.5686 94.3198 71.6808 93.7014C73.9356 92.581 75.6387 90.7396 77.157 88.8867C80.0914 85.0219 82.6369 80.8278 85.53 77.0369C88.423 73.2459 91.7879 69.6368 95.8974 67.2568C97.937 66.0087 100.139 65.1522 102.433 64.6449C104.726 64.1376 107.099 64.1696 109.408 64.6558C111.676 65.2156 113.839 66.3034 115.931 67.3486C118.052 68.5101 120.174 69.6717 122.431 70.4217C124.688 71.1717 127.224 71.5955 129.63 71.057C130.833 70.7878 132.017 70.212 132.986 69.5084C133.996 68.7311 134.791 67.8259 135.556 66.8044C138.562 62.9823 141.353 59.0323 144.983 55.9739C146.818 54.4078 148.786 53.117 150.875 52.2918C153.077 51.4353 155.329 51.0018 157.62 51.1814C158.729 51.2499 159.899 51.5511 160.873 52.0311C161.375 52.3293 161.96 52.4799 162.349 52.8093C162.564 52.9371 162.851 53.1075 163.066 53.2353L163.742 53.735C165.513 55.1803 166.881 57.1732 168.023 59.2284C170.337 63.4554 171.734 68.1219 173.965 72.4964C176.155 76.9447 178.963 80.9731 182.162 84.644C185.362 88.3149 189.15 91.4496 193.186 94.1416C195.225 95.4507 197.347 96.6123 199.51 97.7001C201.714 98.714 204.001 99.5805 206.3 100.257C208.628 101.049 210.979 101.462 213.206 102.095C215.433 102.729 217.565 103.7 219.223 105.177C220.881 106.653 222.095 108.751 222.742 111.005C223.432 113.185 223.699 115.606 223.709 117.973C223.688 122.781 222.63 127.563 222.485 132.593C222.448 133.85 222.525 135.076 222.561 136.376L222.69 137.338C222.709 137.645 222.8 137.994 222.861 138.227L223.233 140.12C223.911 142.49 224.774 144.872 225.946 147.043C228.177 151.418 231.139 155.341 233.917 159.253C236.694 163.165 239.43 167.151 241.209 171.65C241.474 172.201 241.625 172.783 241.777 173.365C241.928 173.947 242.193 174.497 242.345 175.079L242.686 176.856C242.706 177.163 242.838 177.438 242.857 177.745L242.915 178.664C243.11 181.043 242.709 183.461 242.236 185.836C241.106 190.576 239.576 195.176 238.118 199.819C237.389 202.141 236.731 204.505 236.259 206.88C235.786 209.256 235.385 211.674 235.313 214.188L235.497 214.2C235.6 211.801 236.001 209.383 236.587 206.977C237.173 204.57 237.86 202.322 238.631 199.927C240.161 195.327 241.876 190.738 243.048 185.925C243.633 183.518 243.963 181.057 243.85 178.531L243.793 177.612C243.773 177.305 243.682 176.956 243.622 176.723L243.322 174.873C243.17 174.291 242.947 173.666 242.795 173.084C242.644 172.502 242.42 171.878 242.227 171.37C240.46 166.68 237.765 162.621 234.957 158.592C232.221 154.607 229.331 150.726 227.171 146.394C226.071 144.265 225.238 142 224.632 139.672L224.29 137.895C224.271 137.589 224.139 137.313 224.12 137.007L224.021 136.161C223.902 135.008 223.938 133.751 223.933 132.568C224.139 127.771 225.197 122.989 225.271 117.917C225.23 115.433 225.046 112.865 224.224 110.409C223.475 107.997 222.201 105.666 220.297 103.945C218.435 102.151 216.004 101.199 213.706 100.523C211.336 99.8043 209.057 99.4345 206.8 98.6845C204.573 98.0508 202.399 97.1532 200.194 96.1392C198.103 95.0941 196.012 94.0489 193.973 92.7398C189.967 90.1642 186.323 87.1147 183.153 83.5601C179.984 80.0056 177.206 76.0936 175.047 71.7617C172.846 67.5036 171.49 62.7632 169.033 58.4511C167.819 56.3532 166.349 54.2013 164.363 52.6283L163.615 52.0859C163.329 51.9155 163.042 51.7452 162.826 51.6174C162.253 51.2766 161.709 51.0522 161.207 50.754C160.048 50.2626 158.837 50.0351 157.584 49.8815C155.109 49.6905 152.631 50.1864 150.387 51.1166C148.143 52.0468 146.021 53.4425 144.257 55.0512C140.617 58.2998 137.784 62.3235 134.85 66.1883C134.126 67.136 133.331 68.0412 132.434 68.7873C131.537 69.5335 130.508 70.0043 129.376 70.3161C127.155 70.866 124.763 70.5275 122.506 69.7774C118.063 68.32 114.132 65.1001 109.37 64.0427C106.989 63.514 104.574 63.5558 102.209 64.0204C99.8442 64.4851 97.6005 65.4154 95.5195 66.7373C91.3686 69.191 87.932 72.7576 84.9975 76.6223C83.5096 78.5916 82.1348 80.5297 80.7186 82.5415C79.3024 84.5534 77.9993 86.534 76.5528 88.4295C75.0346 90.2824 73.3011 92.0075 71.2009 93.0229C69.1006 94.0383 66.7275 94.0063 64.3959 93.9005C62.0642 93.7947 59.6002 93.4136 57.1827 94.1422C56.0098 94.5278 54.8562 95.22 53.948 96.1563C53.0399 97.0927 52.449 98.3157 52.0844 99.4765C51.2723 101.945 51.2715 104.503 51.7536 107.052C52.2054 109.484 53.0684 111.866 53.7879 114.162C54.5074 116.459 55.1137 118.786 55.124 121.153C55.1343 123.52 54.6617 125.896 53.9739 128.144C52.6286 132.755 50.2266 137.035 49.0137 141.922C48.428 144.328 47.9857 146.82 48.1698 149.389C48.2467 150.615 48.467 151.926 48.8419 153.133C49.2168 154.339 49.818 155.483 50.5323 156.596C52.0439 158.674 53.917 160.278 55.9558 161.587C57.9946 162.896 60.1162 164.058 62.1247 165.251C64.0918 166.517 66.0174 167.858 67.5815 169.672C69.1455 171.486 70.5135 173.479 71.9947 175.44C73.4759 177.402 75.2248 179.228 77.2636 180.537C79.3024 181.846 81.5483 182.786 83.5568 183.979C87.6455 186.407 91.4029 189.425 94.7269 192.875C98.0509 196.324 101.096 200.1 103.945 204.055L104.213 203.919Z" fill="#0E253A"/>
<path d="M217.87 258.723L216.525 256.35C216.014 255.555 215.463 254.834 214.87 254.187C213.653 252.776 212.271 251.66 210.817 250.501C207.94 248.301 204.773 246.617 201.616 244.742L196.954 241.973L194.658 240.61C193.869 240.142 193.039 239.747 192.156 239.616C191.201 239.443 190.255 239.766 189.523 240.217C188.679 240.699 188.049 241.309 187.45 242.036C186.324 243.531 185.628 245.282 185.332 247.172C185.036 249.062 185.152 250.901 185.38 252.71C185.68 254.56 186.022 256.337 186.435 258.157C186.849 259.976 187.262 261.795 187.943 263.479C188.583 265.236 189.49 266.857 190.665 268.342C193.057 271.237 196.326 273.08 199.7 274.396C203.075 275.711 206.626 276.541 210.022 277.476C211.736 278.001 213.449 278.527 215.08 279.2C216.71 279.873 218.371 280.663 220.239 281.084C222.036 281.462 224.163 281.25 225.822 280.169C226.636 279.57 227.318 278.696 227.672 277.726C228.025 276.755 227.978 275.645 227.849 274.683C227.519 272.716 226.539 271.053 225.632 269.432L222.869 264.643L220.105 259.854C219.198 258.233 218.136 256.717 217.259 255.212C216.31 253.665 215.588 252.055 215.02 250.341C214.524 248.669 214.295 246.861 213.995 245.01C213.767 243.202 213.508 241.278 212.981 239.49C212.455 237.701 211.743 235.902 210.836 234.281C209.093 231.081 207.392 227.808 205.422 224.671C203.453 221.534 201.401 218.545 199.081 215.692C196.761 212.839 194.204 210.238 191.41 207.89C188.615 205.542 185.738 203.341 182.54 201.541C179.301 199.814 175.772 198.604 172.105 198.492C170.287 198.494 168.457 198.686 166.718 199.228C164.98 199.769 163.26 200.617 161.858 201.752C160.384 202.844 159.217 204.414 158.377 206.079C157.538 207.745 157.129 209.667 156.874 211.483C156.366 215.116 156.257 218.888 156.672 222.578C157.201 226.236 158.284 229.929 160.563 232.856C162.841 235.783 165.873 237.879 168.596 240.184C169.978 241.3 171.319 242.49 172.535 243.901C173.68 245.269 174.587 246.89 175.268 248.574C175.949 250.257 176.476 252.045 177.044 253.76C177.683 255.517 178.436 257.243 179.426 258.716C181.396 261.853 184.107 264.349 187.098 266.518C190.017 268.645 193.214 270.446 196.423 272.056C202.84 275.277 209.423 278.202 216.266 280.495C217.979 281.021 219.817 281.325 221.636 281.323C222.53 281.263 223.465 281.13 224.37 280.881C225.275 280.631 226.09 280.033 226.76 279.349C227.431 278.665 227.928 277.78 228.168 276.84C228.409 275.901 228.393 274.908 228.263 273.945C228.004 272.021 227.138 270.326 226.344 268.674C225.437 267.053 224.447 265.58 223.539 263.959C222.591 262.412 221.755 260.833 220.848 259.212C219.146 255.939 217.63 252.678 216.267 249.311C214.905 245.944 213.585 242.504 212.562 239.044C211.468 235.541 210.599 231.976 210.101 228.434C210.002 227.588 210.129 226.68 210.256 225.771C210.312 224.821 210.296 223.827 210.166 222.865C209.866 221.014 209.34 219.226 208.998 217.449L206.846 206.629C206.091 203.033 205.449 199.405 204.51 195.797C203.57 192.19 202.177 188.707 200.136 185.527C196.126 179.211 190.25 174.344 183.844 170.933C177.366 167.48 170.358 165.482 163.327 163.865C159.848 163.077 156.285 162.438 152.723 161.798C150.957 161.536 149.078 161.306 147.218 161.382C145.358 161.458 143.476 161.914 141.757 162.762C138.288 164.342 135.564 167.151 133.598 170.312C132.615 171.893 131.806 173.675 131.182 175.468C130.558 177.262 130.19 179.11 129.894 181C129.416 184.749 129.492 188.532 129.835 192.18C130.138 195.901 130.78 199.528 131.308 203.187C131.95 206.814 132.664 210.484 133.83 214.03C134.996 217.575 136.501 221.027 138.358 224.195C140.172 227.437 142.296 230.469 144.503 233.353C146.668 236.312 149.029 239.091 151.503 241.839C156.38 247.293 161.774 252.168 167.487 256.643C178.996 265.446 191.994 272.279 205.743 276.41C209.17 277.461 212.721 278.291 216.159 279.152C217.914 279.604 219.68 279.866 221.498 279.864C222.392 279.804 223.328 279.671 224.161 279.379C224.994 279.087 225.839 278.605 226.438 277.879C227.037 277.152 227.319 276.139 227.261 275.219C227.203 274.3 226.961 273.369 226.677 272.511C225.996 270.828 224.975 269.238 223.914 267.722C222.852 266.206 221.707 264.838 220.686 263.248C219.572 261.996 218.778 260.344 217.87 258.723ZM217.716 258.828C218.552 260.406 219.346 262.059 220.366 263.648C221.428 265.164 222.531 266.607 223.522 268.08C224.583 269.596 225.574 271.069 226.213 272.826C226.497 273.684 226.781 274.541 226.839 275.46C226.897 276.38 226.584 277.277 226.099 277.972C225.541 278.625 224.768 279.15 223.935 279.442C223.101 279.734 222.238 279.909 221.385 279.895C219.638 279.94 217.842 279.562 216.159 279.152C214.404 278.7 212.679 278.365 210.966 277.839C209.211 277.388 207.498 276.862 205.784 276.336C192.16 271.984 179.275 265.119 167.962 256.138C162.32 251.706 157.01 246.683 152.205 241.272C149.802 238.566 147.554 235.756 145.389 232.797C143.223 229.839 141.243 226.892 139.459 223.767C137.674 220.641 136.199 217.306 135.176 213.846C134.082 210.343 133.286 206.82 132.716 203.236C132.146 199.651 131.545 195.949 131.273 192.345C130.929 188.697 130.842 185.104 131.351 181.471C131.605 179.655 132.003 177.924 132.545 176.278C133.127 174.558 133.925 172.966 134.825 171.533C136.708 168.519 139.267 166.005 142.397 164.519C143.961 163.776 145.617 163.382 147.292 163.295C148.967 163.207 150.775 163.395 152.499 163.731C155.99 164.328 159.51 165.041 163.031 165.755C170.031 167.256 176.855 169.242 183.189 172.61C189.452 175.936 195.154 180.601 199.032 186.642C200.971 189.663 202.333 193.029 203.243 196.521C204.224 200.055 204.866 203.682 205.621 207.279L207.773 218.099C208.114 219.876 208.641 221.664 208.869 223.472C209.04 224.36 209.026 225.237 209.012 226.114C208.998 226.991 208.829 227.973 208.959 228.936C210.046 236.369 212.574 243.281 215.329 250.131C216.763 253.54 218.351 256.844 220.053 260.117C220.96 261.738 221.796 263.317 222.744 264.864C223.693 266.411 224.714 268.001 225.591 269.505C226.426 271.084 227.221 272.736 227.49 274.47C227.661 275.359 227.647 276.236 227.376 277.059C227.178 277.924 226.763 278.662 226.134 279.272C225.019 280.577 223.25 281.002 221.503 281.047C219.756 281.092 218.032 280.757 216.277 280.305C209.506 278.055 202.882 275.203 196.464 271.982C193.256 270.372 190.13 268.614 187.17 266.561C184.251 264.434 181.611 261.981 179.6 258.918C178.651 257.371 177.857 255.718 177.289 254.004C176.721 252.289 176.195 250.501 175.514 248.818C174.874 247.061 173.967 245.44 172.75 244.029C171.534 242.618 170.193 241.428 168.781 240.196C165.945 237.921 163.026 235.795 160.819 232.91C158.613 230.026 157.56 226.449 157.103 222.833C156.646 219.217 156.898 215.53 157.407 211.898C157.661 210.081 158.172 208.319 158.97 206.727C159.768 205.135 160.925 203.756 162.286 202.695C163.646 201.634 165.253 200.817 166.95 200.349C168.575 199.839 170.405 199.646 172.11 199.675C175.592 199.776 179.008 201.017 182.062 202.732C185.188 204.49 187.994 206.648 190.675 209.028C193.357 211.407 195.914 214.008 198.203 216.745C200.493 219.481 202.545 222.471 204.442 225.565C206.34 228.659 208.083 231.859 209.826 235.058C210.661 236.636 211.384 238.246 211.839 239.992C212.293 241.737 212.563 243.471 212.792 245.279C213.02 247.088 213.279 249.012 213.877 250.843C214.475 252.674 215.27 254.326 216.249 255.989C217.156 257.61 218.218 259.126 219.167 260.673L221.972 265.389L224.776 270.104C225.725 271.651 226.519 273.303 226.831 274.964C226.93 275.81 226.957 276.613 226.728 277.362C226.499 278.111 226.013 278.807 225.395 279.226C224.117 280.14 222.246 280.406 220.634 280.039C218.981 279.746 217.321 278.957 215.69 278.284C213.988 277.568 212.274 277.042 210.519 276.59C207.051 275.613 203.53 274.899 200.228 273.627C196.925 272.354 193.727 270.554 191.397 267.891C190.252 266.522 189.303 264.975 188.735 263.26C188.054 261.577 187.599 259.831 187.186 258.012C186.39 254.489 185.419 250.765 185.887 247.206C186.141 245.39 186.724 243.67 187.809 242.249C188.367 241.596 189.037 240.912 189.769 240.461C190.5 240.01 191.405 239.761 192.217 239.849C193.099 239.98 193.889 240.448 194.647 240.8L196.943 242.164L201.605 244.932C204.69 246.764 207.857 248.448 210.776 250.575C212.199 251.617 213.612 252.849 214.798 254.144C215.391 254.791 215.943 255.512 216.453 256.307L217.716 258.828Z" fill="#0E253A"/>
<path d="M241.453 293.386C241.316 289.37 241.21 285.47 241.443 281.477C241.595 279.502 241.747 277.526 242.043 275.636C242.381 273.672 242.861 271.793 243.342 269.914C244.345 266.083 245.348 262.252 245.581 258.258C245.814 254.265 245.451 250.311 245.201 246.326C244.618 238.504 245.3 230.645 246.166 222.797L248.549 199.127C249.302 191.311 250.323 183.358 249.566 175.334C249.203 171.381 248.327 167.319 246.689 163.592C245.093 159.791 242.682 156.588 240.724 153.261C239.745 151.598 238.837 149.977 238.167 148.103C237.528 146.346 237.043 144.484 236.784 142.56C236.225 138.785 236.232 134.854 236.352 130.891C236.471 126.929 236.591 122.967 236.27 118.94C236.052 116.941 235.763 114.901 235.248 112.922C234.733 110.944 233.878 109.059 232.868 107.279C230.736 103.75 227.779 101.01 224.656 98.5656C221.533 96.1208 218.316 94.0137 215.337 91.6542C209.306 86.8924 203.886 81.2141 199.393 74.906C197.126 71.7889 195.096 68.4192 193.066 65.0495C190.995 61.7536 188.852 58.4151 186.358 55.3603C183.906 52.2318 181.062 49.4607 177.969 47.1323C176.402 46.005 174.722 44.9089 173.031 44.0029C171.339 43.097 169.577 42.1484 167.844 41.3162C164.379 39.6519 160.676 38.24 156.91 37.2823C153.102 36.3983 149.231 35.9685 145.345 36.4157C143.402 36.6392 141.49 36.9792 139.638 37.5519C137.787 38.1246 135.995 38.9301 134.204 39.7356C130.663 41.2728 127.062 42.5772 123.309 43.2997C121.468 43.6822 119.567 43.832 117.677 43.7917C115.745 43.8251 113.866 43.5946 111.946 43.4378C110.025 43.2811 108.063 43.1982 106.079 43.4955C104.095 43.7929 102.274 44.482 100.483 45.2875C96.9003 46.8984 93.6242 48.9863 90.0945 50.3333C86.5234 51.7541 82.831 52.7094 79.0861 53.9286C75.4543 55.1166 71.6983 56.526 68.4111 58.804C66.7524 59.8848 65.2977 61.2836 64.0168 62.884C62.736 64.4843 61.742 66.2551 60.933 68.0372C59.2734 71.6753 58.1574 75.5379 56.7959 79.1562C55.4344 82.7745 53.4576 86.1258 51.1939 89.3068C48.9302 92.4877 46.523 95.5835 44.1875 98.7218C41.9238 101.903 39.7208 105.316 38.1633 109.114C37.3845 111.012 36.8624 112.965 36.5554 115.045C36.2485 117.125 36.2396 119.186 36.3438 121.215C36.5198 123.287 36.8503 125.254 37.1808 127.221L38.2855 133.091L40.4646 144.715L41.5693 150.584C41.9412 152.478 42.2717 154.445 42.7457 156.497C43.2611 158.475 43.9614 160.465 45.1556 162.257C46.3499 164.048 47.9361 165.482 49.6163 166.578C52.8937 168.918 56.4418 170.434 59.2667 172.899C62.0199 175.321 64.0498 178.691 66.8828 181.652C68.2427 183.148 69.8703 184.508 71.7464 185.425C73.5811 186.417 75.4794 186.954 77.3778 187.491C79.2761 188.028 81.1441 188.448 82.8878 189.09C83.8011 189.338 84.6316 189.733 85.5034 190.054C86.3339 190.448 87.2058 190.769 88.0666 191.28C91.4187 192.976 94.5941 195.157 97.3776 197.695C100.161 200.234 102.696 203.215 104.737 206.394C106.891 209.542 108.159 213.247 110.291 216.775C111.301 218.555 112.578 220.199 114.092 221.59C115.607 222.982 117.245 224.151 118.812 225.279L121.199 226.991C121.557 227.204 122.018 227.576 122.449 227.832C122.879 228.087 123.309 228.343 123.853 228.567C125.657 229.442 127.556 229.979 129.216 230.769C130.047 231.163 130.836 231.632 131.512 232.132L132.648 233.003L133.744 233.949C135.115 235.255 136.444 236.635 137.619 238.12C140.083 241.058 142.112 244.428 144.071 247.755C147.946 254.483 151.531 261.727 156.898 267.669C159.547 270.619 162.658 273.254 166.267 275.004C169.876 276.753 173.684 277.637 177.378 278.552C181.114 279.394 184.994 280.32 188.97 280.222C190.902 280.189 192.762 280.113 194.641 280.343C196.52 280.574 198.357 280.878 200.101 281.52C201.845 282.162 203.536 283.068 205.186 284.048C206.836 285.028 208.486 286.007 210.249 286.956C213.672 288.694 216.848 290.875 220.261 292.803C221.91 293.783 223.673 294.731 225.406 295.564C227.139 296.396 228.985 297.197 230.935 297.47C231.449 297.578 231.932 297.57 232.456 297.487C232.98 297.405 233.433 297.281 233.885 297.156C234.862 296.949 235.798 296.816 236.703 296.566C238.37 295.982 240.346 295.188 241.453 293.386ZM241.196 293.332C240.989 293.701 240.597 294.059 240.247 294.342C239.896 294.626 239.474 294.867 239.052 295.108C238.207 295.591 237.302 295.84 236.325 296.047C235.42 296.296 234.413 296.387 233.549 296.562C233.096 296.687 232.572 296.769 232.161 296.82C231.75 296.871 231.267 296.88 230.753 296.772C228.916 296.467 227.111 295.593 225.45 294.803C223.718 293.971 222.068 292.991 220.418 292.011C218.768 291.032 217.16 289.978 215.48 288.882C214.619 288.371 213.871 287.828 213.011 287.317L210.459 285.9C208.809 284.92 207.159 283.941 205.437 282.918C203.788 281.938 202.025 280.99 200.251 280.232C198.363 279.504 196.495 279.084 194.503 278.884C192.511 278.685 190.579 278.718 188.689 278.678C184.939 278.714 181.244 277.799 177.478 276.841C173.784 275.926 170.017 274.968 166.665 273.272C163.313 271.577 160.375 269.144 157.912 266.205C155.407 263.34 153.223 260.076 151.264 256.749C149.306 253.422 147.472 249.873 145.556 246.472C143.567 243.029 141.537 239.659 139.013 236.488C137.767 234.961 136.407 233.464 134.964 232.116L133.797 231.128L132.589 230.213C131.811 229.555 130.837 229.075 129.935 228.637C128.13 227.762 126.273 227.152 124.612 226.362C124.254 226.149 123.782 225.967 123.423 225.754C123.065 225.541 122.706 225.328 122.317 224.999C121.498 224.414 120.75 223.872 119.931 223.287C118.364 222.159 116.797 221.032 115.456 219.842C114.085 218.536 112.982 217.094 112.033 215.547C110.105 212.336 108.693 208.547 106.479 205.166C104.377 201.753 101.699 198.687 98.7413 195.947C95.7426 193.281 92.4652 190.941 88.9281 189.234C85.4739 187.38 81.5338 186.221 77.8393 185.305C76.0127 184.811 74.2275 184.243 72.608 183.379C70.9885 182.516 69.6064 181.4 68.3485 180.063C65.761 177.346 63.6594 173.934 60.589 171.225C57.4055 168.547 53.7856 166.988 50.7951 164.818C49.2584 163.808 47.8874 162.502 46.8972 161.028C45.907 159.555 45.2674 157.798 44.7823 155.936C44.2972 154.074 43.9667 152.107 43.5948 150.213L42.4487 144.417L40.1979 132.751C39.4954 128.891 38.6081 125.019 38.2754 121.182C38.0883 119.3 38.1276 117.356 38.4234 115.466C38.7193 113.575 39.1586 111.77 39.8959 109.946C41.3292 106.37 43.3363 103.135 45.6 99.9541C47.8637 96.7731 50.2709 93.6774 52.4629 90.4539C54.6963 87.1565 56.7145 83.7314 58.1588 79.9655C59.6031 76.1996 60.5646 72.4421 62.1827 68.8778C62.9918 67.0956 63.9029 65.4724 65.1009 64.0196C66.0838 62.4391 67.497 61.1141 69.0426 60.0644C72.1035 57.8487 75.7464 56.4706 79.3064 55.2399C82.9382 54.0519 86.7134 52.9491 90.2845 51.5283C93.9688 50.0763 97.2145 47.872 100.684 46.2923C102.403 45.4442 104.183 44.8289 106.054 44.5627C107.853 44.2539 109.815 44.3369 111.736 44.4936C113.656 44.6503 115.577 44.8071 117.508 44.7737C119.44 44.7402 121.413 44.633 123.295 44.1767C127.12 43.4968 130.763 42.1186 134.345 40.5076C136.136 39.7022 137.814 38.9279 139.666 38.3551C141.517 37.7824 143.358 37.3999 145.259 37.2501C149.032 36.8341 152.903 37.2639 156.639 38.1053C160.333 39.0204 163.923 40.4635 167.388 42.1278C170.812 43.866 174.308 45.6467 177.37 47.8587C180.463 50.1871 183.235 52.9156 185.544 55.9589C187.924 59.0449 189.995 62.3408 192.025 65.7105C194.055 69.0802 195.972 72.481 198.27 75.7146C202.793 82.139 208.202 88.0075 214.294 93.002C217.303 95.478 220.55 97.7014 223.53 100.061C226.509 102.421 229.282 105.149 231.21 108.36C232.189 110.023 232.87 111.707 233.355 113.569C233.84 115.431 234.14 117.281 234.286 119.237C234.618 123.074 234.427 126.994 234.307 130.956C234.187 134.918 234.139 138.923 234.717 143.005C235.006 145.045 235.521 147.024 236.263 148.94C237.005 150.856 238.014 152.636 238.952 154.373C241.054 157.786 243.321 160.903 244.898 164.397C246.475 167.892 247.291 171.721 247.624 175.558C248.433 183.318 247.453 191.197 246.772 199.056L244.615 222.664C243.934 230.523 243.283 238.498 243.967 246.479C244.259 250.39 244.622 254.344 244.543 258.233C244.465 262.121 243.462 265.952 242.531 269.826C242.122 271.748 241.6 273.7 241.376 275.633C241.038 277.597 240.886 279.572 240.805 281.59C240.768 285.405 240.977 289.464 241.196 293.332Z" fill="#0E253A"/>
<path d="M244.548 242.889C244.797 239.889 244.492 236.855 243.549 233.934C242.606 231.013 241.087 228.438 239.793 225.801C238.5 223.164 237.361 220.422 236.603 217.512C235.917 214.646 235.57 211.685 235.337 208.694C235.103 205.702 235.054 202.722 235.632 199.818C236.21 196.915 237.444 194.205 238.463 191.367C238.952 189.985 239.41 188.486 239.684 186.977C239.958 185.467 240.046 183.945 239.992 182.339C239.896 180.806 239.686 179.305 239.221 177.749C238.713 176.268 237.938 174.922 237.009 173.681C235.263 171.169 233.268 169.099 231.749 166.524C230.26 164.066 229.049 161.281 227.91 158.539L224.422 150.27L222.693 146.194C222.103 144.86 221.626 143.494 221.376 142.067C220.833 139.285 221.524 136.35 222.029 133.404C222.303 131.895 222.464 130.416 222.481 128.852C222.498 127.288 222.217 125.744 221.709 124.262C220.623 121.256 218.651 118.806 216.276 116.904C213.942 114.927 211.235 113.615 208.476 112.567C205.717 111.519 202.864 110.808 200.052 110.024C197.241 109.24 194.471 108.382 191.825 107.302C186.42 105.175 181.274 102.414 176.501 98.9897C174.115 97.2774 171.77 95.4914 169.621 93.5266C167.431 91.6356 165.447 89.3757 163.031 87.5471C161.822 86.6327 160.573 85.7922 159.157 85.2468C157.742 84.7014 156.274 84.4199 154.784 84.5188C153.294 84.6176 151.853 85.1394 150.484 85.7037C149.115 86.2681 147.849 86.9914 146.48 87.5558C145.111 88.1202 143.753 88.4944 142.346 88.4457C140.939 88.3969 139.554 87.9679 138.334 87.2437C135.865 85.6791 134.191 83.2092 132.517 80.7394C131.659 79.5414 130.842 78.2695 129.943 77.1453C128.972 75.9785 127.96 74.8854 126.865 73.9399C125.698 72.9518 124.448 72.1113 123.104 71.6084C121.689 71.063 120.221 70.7816 118.731 70.8804C115.751 71.0781 112.96 72.4708 110.691 74.4681C108.392 76.3492 106.543 78.7923 105.022 81.332C101.907 86.3689 99.469 91.9055 95.5355 96.3575C91.6433 100.736 86.6974 104.094 81.1836 105.739C79.7844 106.187 78.3963 106.445 76.978 106.586C75.5596 106.728 74.028 106.9 72.5571 107.306C71.0863 107.711 69.6649 108.539 68.6022 109.581C67.4678 110.579 66.5374 111.896 65.7202 113.181C64.2293 115.837 63.2405 118.792 62.6932 121.812C62.5771 122.53 62.4196 123.321 62.4469 124.125C62.4025 124.885 62.3581 125.646 62.3855 126.449C62.4816 127.982 62.6494 129.557 63.0436 131.07C63.7601 134.053 65.0837 136.807 66.4074 139.56C67.7725 142.24 69.0658 144.877 70.0915 147.651C70.5684 149.016 71.004 150.455 71.6244 151.906C72.2448 153.356 73.1329 154.671 74.217 155.806C76.3852 158.078 78.9675 159.611 81.4367 161.176C82.7279 161.943 83.9059 162.74 85.084 163.538C86.2206 164.41 87.3158 165.356 88.2978 166.332C90.2922 168.402 92.0492 170.724 93.4971 173.257C96.393 178.321 98.1765 184.004 99.6924 189.823C100.45 192.732 101.023 195.63 101.853 198.582C102.683 201.534 103.667 204.381 104.919 207.092C107.381 212.588 110.79 217.76 115.19 221.849C117.37 223.93 119.869 225.611 122.493 227.071C125.158 228.457 127.834 229.653 130.356 230.953C132.949 232.297 135.306 233.893 137.259 236.036C139.212 238.18 140.773 240.681 142.334 243.182L151.998 258.168C153.672 260.638 155.192 263.213 156.907 265.609C158.623 268.005 160.637 270.381 162.982 272.167C165.285 274.027 167.981 275.529 170.74 276.578C173.499 277.626 176.476 278.115 179.434 278.298C182.392 278.48 185.29 278.43 188.134 278.644C189.613 278.735 191.051 278.9 192.406 279.213C193.832 279.568 195.217 279.997 196.561 280.5C202.008 282.554 206.976 285.8 212.547 287.632L212.63 287.485C207.101 285.578 202.215 282.185 196.738 280.015C195.394 279.512 193.979 278.967 192.511 278.685C191.084 278.33 189.647 278.165 188.209 278C185.293 277.743 182.395 277.793 179.478 277.537C176.634 277.323 173.769 276.803 171.082 275.797C168.395 274.792 165.884 273.301 163.652 271.483C159.076 267.88 156.232 262.552 152.997 257.581L143.487 242.49C141.926 239.989 140.335 237.371 138.352 235.111C136.296 232.809 133.767 231.011 131.173 229.668C128.549 228.208 125.873 227.012 123.352 225.712C120.758 224.368 118.443 222.699 116.294 220.734C112.068 216.847 108.761 211.834 106.329 206.454C105.149 203.786 104.123 201.013 103.324 198.177C102.525 195.341 101.993 192.369 101.235 189.46C99.7192 183.641 97.9467 177.768 94.8771 172.502C93.3989 169.853 91.5398 167.372 89.4736 165.26C88.4613 164.167 87.2944 163.179 86.0446 162.338C84.8363 161.424 83.5451 160.657 82.3257 159.933C79.8565 158.368 77.3459 156.877 75.4232 154.85C74.4825 153.8 73.6965 152.644 73.1064 151.31C72.5163 149.976 72.1525 148.579 71.6038 147.171C69.4919 141.392 65.9889 136.557 64.5034 130.855C64.1395 129.458 63.9303 127.957 63.8645 126.54C63.8675 125.854 63.8401 125.05 63.9148 124.406C63.9592 123.645 64.0339 123.001 64.1915 122.209C64.6559 119.337 65.6033 116.457 67.0114 113.948C68.4195 111.44 70.5146 109.241 73.1583 108.45C74.5161 108.075 75.9345 107.934 77.3943 107.719C78.8541 107.503 80.3553 107.214 81.7545 106.766C87.4228 105.017 92.493 101.437 96.4266 96.985C100.402 92.4593 102.768 86.8801 105.811 81.8006C107.332 79.2609 109.14 76.8915 111.326 75.0417C113.512 73.1919 116.23 71.7566 119.098 71.5901C120.475 71.5224 121.984 71.7301 123.286 72.3067C124.63 72.8095 125.808 73.6075 126.975 74.5956C128.07 75.5411 129.082 76.6341 129.982 77.7584C130.881 78.8826 131.697 80.1544 132.555 81.3525C133.413 82.5505 134.229 83.8223 135.2 84.9891C136.171 86.156 137.225 87.1753 138.475 88.0158C139.724 88.8563 141.223 89.2542 142.743 89.2717C144.263 89.2892 145.734 88.8839 147.062 88.3933C148.431 87.8289 149.769 87.1482 151.066 86.5412C152.363 85.9343 153.763 85.4863 155.181 85.3448C158.048 85.1783 160.755 86.4905 162.986 88.3077C165.218 90.1249 167.243 92.3111 169.464 94.3184C171.684 96.3258 173.988 98.1856 176.374 99.8979C181.147 103.322 186.394 106.242 191.83 108.486C194.548 109.608 197.348 110.582 200.16 111.367C202.971 112.151 205.783 112.935 208.429 114.015C211.116 115.02 213.71 116.364 215.9 118.255C218.132 120.072 219.889 122.394 220.884 125.051C221.361 126.416 221.54 127.801 221.606 129.218C221.558 130.665 221.398 132.144 221.166 133.58C220.933 135.016 220.66 136.526 220.458 138.078C220.256 139.631 220.239 141.195 220.592 142.782C220.873 144.326 221.493 145.776 222.042 147.184L223.842 151.303L227.372 159.498C228.511 162.24 229.721 165.025 231.354 167.569C232.945 170.186 234.97 172.372 236.686 174.768C237.543 175.966 238.288 177.196 238.693 178.518C239.17 179.884 239.421 181.311 239.445 182.801C239.511 184.218 239.422 185.739 239.19 187.175C238.958 188.611 238.541 190.036 238.052 191.418C237.146 194.225 235.87 197.009 235.323 200.028C234.776 203.048 234.855 206.145 235.088 209.136C235.394 212.17 235.74 215.131 236.498 218.04C237.256 220.95 238.467 223.735 239.832 226.414C241.197 229.094 242.758 231.595 243.742 234.442C244.768 237.215 245.073 240.25 244.824 243.25L244.548 242.889Z" fill="#0E253A"/>
</svg>
