<svg width="330" height="314" viewBox="0 0 330 314" fill="none" xmlns="http://www.w3.org/2000/svg">
<path d="M167.12 261.504C176.113 267.632 185.353 264.462 194.366 261.355C200.611 259.259 207.011 257.059 213.305 257.944C214.743 258.109 216.169 258.464 217.596 258.819C219.607 259.325 221.732 259.8 223.879 259.894C232.62 260.167 239.187 252.557 243.13 246.044C244.485 243.799 245.769 241.512 246.94 239.256C248.98 235.451 251.104 231.498 253.79 228.076C258.645 221.81 265.081 218.353 270.915 218.866L270.959 218.105C264.828 217.612 258.237 221.175 253.185 227.619C250.53 231.157 248.365 235.184 246.325 238.989C245.154 241.245 243.87 243.532 242.515 245.777C238.696 252.068 232.325 259.499 223.882 259.207C221.806 259.155 219.723 258.607 217.712 258.101C216.285 257.746 214.859 257.391 213.349 257.183C206.871 256.287 200.358 258.518 194.041 260.571C184.801 263.741 176.097 266.639 167.421 260.798L167.12 261.504Z" fill="#0E253A"/>
<path d="M94.2008 35.1267C93.6624 36.0859 93.4827 37.258 93.4989 38.2514C93.504 39.435 93.8486 40.525 94.0801 41.6462C94.2014 42.1117 94.3226 42.5772 94.4439 43.0427C94.9977 45.6342 94.9858 48.3817 94.3172 50.9359C92.5075 58.4198 94.3769 63.2681 97.4405 69.9078C102.652 81.0696 106.382 92.8269 108.569 104.947C108.881 106.607 109.12 108.225 109.432 109.886C110.222 114.782 111.043 119.795 112.584 124.546C115.412 133.309 121.006 141.746 129.088 149.497C140.332 160.306 151.55 167.755 162.382 171.63C165.798 172.871 169.205 173.616 172.541 174.318C175.179 174.901 177.889 175.526 180.587 176.341C183.214 177.114 186.401 176.548 190.006 174.556C190.85 174.074 191.695 173.592 192.467 173.067C194.353 171.924 196.279 170.707 198.357 170.072C200.435 169.437 202.634 169.267 204.721 169.129C207.701 168.931 210.794 168.702 213.482 167.151C215.285 166.155 216.637 164.597 218.02 163.156C220.198 160.809 222.489 158.432 223.889 155.426C225.319 152.538 225.847 149.211 226.21 146.18C226.658 142.315 226.775 139.039 226.654 136.017C226.38 130.541 225.129 125.273 223.95 120.048C221.569 109.977 219.138 99.4828 214.072 90.2767L213.495 90.6228C218.603 99.7551 221.003 110.133 223.312 120.161C224.533 125.313 225.743 130.655 226.028 135.94C226.149 138.962 226.001 142.121 225.553 145.987C225.191 149.018 224.745 152.197 223.357 155.012C221.926 157.901 219.748 160.247 217.612 162.52C216.27 163.888 214.959 165.372 213.27 166.336C210.736 167.783 207.869 167.949 204.848 168.221C202.648 168.39 200.377 168.517 198.299 169.152C196.108 169.819 194.182 171.036 192.255 172.253C191.411 172.735 190.638 173.26 189.793 173.742C186.344 175.628 183.341 176.206 180.899 175.445C178.129 174.587 175.42 173.961 172.782 173.379C169.559 172.645 166.151 171.901 162.694 170.733C151.934 166.901 140.788 159.495 129.616 148.728C121.605 141.02 116.113 132.742 113.243 124.053C111.702 119.301 110.882 114.288 110.121 109.509C109.882 107.891 109.571 106.23 109.259 104.57C107.114 92.3758 103.353 80.5022 98.1416 69.3404C95.0779 62.7007 93.2995 58.2015 95.0264 50.8651C95.6647 48.1946 95.7594 45.2996 95.1753 42.5917C95.054 42.1262 94.9327 41.6607 94.8115 41.1951C94.58 40.0739 94.2657 39.1003 94.2192 37.9906C94.1837 36.6906 94.5816 34.9594 95.8898 34.1623C96.4667 33.8162 97.1455 33.6291 97.8961 33.4846C98.6467 33.3401 99.5105 33.1644 100.129 32.7446C101.169 32.0836 101.677 31.008 102.257 29.9751C102.423 29.68 102.63 29.3111 102.795 29.016C104.897 25.4433 110.623 22.0563 116.905 25.6885L117.278 25.0245C111.211 21.5201 104.831 24.027 102.191 28.5588C102.026 28.8539 101.819 29.2228 101.653 29.518C101.186 30.5197 100.648 31.4789 99.8033 31.9611C99.2265 32.3072 98.5477 32.4943 97.7971 32.6388C97.0465 32.7833 96.2958 32.9278 95.5645 33.3788C94.9654 34.1052 94.4907 34.6103 94.2008 35.1267Z" fill="#0E253A"/>
<path d="M93.3697 98.9701C94.158 101.996 94.4116 102.737 94.6652 103.478C94.9189 104.219 95.1725 104.959 96.0022 107.911C100.034 123.39 103.369 136.191 106.564 148.221C108.151 154.083 110.874 156.388 115.081 159.969L115.296 160.096C121.131 165.037 123.383 171.588 125.655 178.446C127.075 182.733 128.597 187.178 131.035 191.183C132.698 193.843 134.416 195.553 136.447 196.365C139.852 197.797 144.215 196.157 148.465 194.55C154.536 192.253 160.227 190.123 163.716 195.835C165.277 198.336 165.13 201.495 165.024 204.58C165.032 205.076 164.999 205.647 165.007 206.144C164.973 209.271 165.237 212.379 165.912 215.436C166.264 217.023 166.791 218.811 168.101 219.885C170.518 221.713 174.028 220.06 176.433 217.651C178.92 215.094 180.874 212.123 182.859 209.269C184.038 207.509 185.3 205.603 186.622 203.928C190.351 199.159 194.226 196.344 198.247 195.486C202.042 194.689 205.077 196.098 208.255 197.592C209.988 198.424 211.762 199.183 213.66 199.72C218.34 200.925 223.862 199.777 228.427 196.585C233.96 192.69 237.972 186.907 239.168 181.027C240.44 174.502 237.392 168.856 234.447 163.368C234.111 162.775 233.744 162.065 233.407 161.472C229.932 154.883 230.517 148.049 231.587 140.52C232.466 134.352 231.803 128.548 229.776 124.491L229.128 124.795C231.053 128.692 231.686 134.38 230.817 140.357C229.736 148.077 229.223 154.954 232.759 161.776C233.095 162.369 233.462 163.079 233.798 163.672C236.713 169.043 239.731 174.573 238.399 180.865C237.285 186.598 233.398 192.159 227.947 195.907C223.578 198.92 218.241 200.079 213.746 198.885C211.847 198.348 210.145 197.632 208.412 196.8C205.162 195.264 201.984 193.77 197.963 194.628C193.758 195.476 189.728 198.395 185.916 203.312C184.552 205.06 183.332 206.893 182.112 208.726C180.198 211.624 178.172 214.552 175.798 217.077C173.59 219.307 170.532 220.836 168.433 219.294C167.296 218.423 166.8 216.751 166.477 215.28C165.874 212.266 165.569 209.232 165.674 206.147C165.666 205.65 165.7 205.08 165.692 204.583C165.767 201.381 165.884 198.106 164.221 195.446C160.426 189.257 154.128 191.617 148.098 193.84C144.003 195.343 139.753 196.951 136.563 195.647C134.676 194.92 133.029 193.253 131.468 190.752C129.102 186.789 127.61 182.46 126.19 178.174C123.908 171.506 121.606 164.532 115.556 159.464L115.341 159.336C111.134 155.755 108.513 153.609 107.058 148.023C103.863 135.993 100.528 123.191 96.4962 107.713C95.7079 104.687 95.4543 103.946 95.2007 103.205C94.947 102.465 94.6934 101.724 93.8637 98.7716L93.3697 98.9701Z" fill="#0E253A"/>
<path d="M93.7557 38.3053C94.1439 41.192 94.1098 44.3197 93.1018 46.9675C92.5412 48.307 91.8371 49.5612 91.1634 50.9319C90.418 52.26 89.8463 53.7896 89.5726 55.2994C89.2576 56.8831 89.1991 58.5207 89.4801 60.0648C89.7197 61.6827 90.2684 63.0907 90.7039 64.5298C91.6881 67.3769 92.7855 70.1928 93.9243 72.935C95.063 75.6771 96.2433 78.3455 97.1558 81.1499C98.1097 83.8807 98.7656 86.6312 99.2669 89.4866C100.27 95.1975 100.593 101.096 100.876 107.067C101.038 110.016 101.158 113.039 101.463 116.073C101.697 119.065 102.002 122.099 102.564 125.187C102.845 126.731 103.126 128.276 103.592 129.831C103.804 130.646 104.058 131.387 104.312 132.127C104.637 132.911 104.962 133.694 105.359 134.52C106.887 137.592 109.157 140.022 111.295 142.177C113.433 144.332 115.51 146.254 117.207 148.344C118.076 149.352 118.718 150.422 119.391 151.609C120.064 152.795 120.696 154.056 121.358 155.432C123.914 160.59 126.056 166.486 130.359 171.599C132.516 174.061 135.322 176.219 138.285 177.585C141.207 179.025 144.245 179.747 147.098 180.457C152.887 181.731 158.358 182.717 162.372 185.79C164.257 187.204 165.87 189.441 167.699 191.806C169.528 194.171 171.561 196.853 174.758 198.654C176.265 199.548 178.265 200.244 180.434 199.958C182.561 199.746 184.333 198.634 185.664 197.457C186.994 196.279 187.955 195.079 188.915 193.879L190.309 192.247L191.775 190.658C193.799 188.417 195.554 186.311 197.602 185.56C198.549 185.237 199.627 185.189 200.541 185.436C201.526 185.726 202.632 186.481 203.769 187.353C204.905 188.225 206.072 189.213 207.62 190.034C209.096 190.812 211.179 191.36 213.103 190.83C216.693 189.716 218.606 186.819 220.676 185.687C221.717 185.026 222.961 184.683 224.266 184.573C224.863 184.533 225.459 184.493 226.085 184.57C226.711 184.647 227.368 184.84 228.251 184.971C229.134 185.102 230.224 184.864 230.955 184.413C231.758 184.005 232.46 183.437 232.976 182.858C234.091 181.553 234.806 180.109 235.265 178.61C236.182 175.613 236.299 172.338 235.325 169.301C234.311 166.337 232.339 163.887 229.952 162.175L229.715 162.427C231.947 164.245 233.806 166.726 234.605 169.562C235.405 172.397 235.186 175.514 234.249 178.204C233.76 179.586 233.015 180.914 232.065 181.924C231.044 182.892 229.736 183.689 228.34 183.45C227.642 183.331 226.985 183.137 226.215 182.975C225.517 182.856 224.778 182.81 223.997 182.838C222.578 182.98 221.036 183.343 219.769 184.066C218.43 184.747 217.368 185.788 216.203 186.67C215.11 187.595 213.873 188.435 212.516 188.809C211.158 189.183 209.731 188.828 208.47 188.178C207.21 187.527 206.156 186.508 204.947 185.594C203.811 184.722 202.603 183.808 201.187 183.262C199.772 182.717 198.21 182.773 196.811 183.221C193.93 184.265 192.008 186.665 189.955 188.79C187.829 190.873 186.164 193.327 183.937 195.251C182.844 196.176 181.577 196.899 180.159 197.041C178.74 197.182 177.355 196.753 176.136 196.029C171.073 193.121 168.912 186.919 164.192 183.23C159.358 179.573 153.404 178.595 147.841 177.259C145.06 176.591 142.248 175.807 139.613 174.537C137.05 173.31 134.705 171.524 132.794 169.307C128.971 164.872 126.734 159.314 124.117 153.923C122.824 151.286 121.387 148.564 119.476 146.346C117.606 144.055 115.343 142.122 113.277 140.009C111.17 137.971 109.258 135.754 107.852 133.148C106.517 130.584 105.8 127.601 105.227 124.703C104.236 118.802 103.799 112.935 103.332 106.952C102.864 100.969 102.397 94.9853 101.251 89.1892C100.678 86.2912 99.92 83.3817 98.8226 80.5658C97.797 77.7925 96.5451 75.0816 95.3345 72.2968C94.0826 69.5859 92.9024 66.9175 91.8768 64.1442C91.3998 62.7789 90.8511 61.3709 90.6005 59.9432C90.3498 58.5155 90.3254 57.0254 90.5577 55.5893C90.9504 52.6745 92.7283 50.1888 93.7474 47.3509C94.623 44.4277 94.5439 41.3312 94.0123 38.3594L93.7557 38.3053Z" fill="#FFF766"/>
<path d="M225.137 109.243C227.873 113.229 230.835 117.152 234.16 120.602C237.442 124.125 241.188 127.333 245.307 129.878C247.346 131.187 249.592 132.127 251.559 133.394C253.526 134.66 255.132 136.401 256.541 138.32C257.951 140.239 259.277 142.306 260.913 144.162C262.507 146.093 264.535 147.592 266.574 148.901C268.613 150.21 270.776 151.298 272.701 152.638C274.668 153.905 276.511 155.393 277.808 157.343C279.104 159.293 279.823 161.59 279.875 163.883C279.999 166.219 279.598 168.637 278.982 170.927C278.366 173.218 277.493 175.454 276.579 177.764C275.706 180 274.792 182.31 274.021 184.705C273.292 187.027 272.809 189.593 272.849 192.076C272.848 194.633 273.485 197.077 274.276 199.416C274.996 201.713 275.9 204.02 276.393 206.379C276.815 208.695 276.897 211.105 276.209 213.353C275.886 214.44 275.306 215.473 274.552 216.304C273.799 217.135 272.871 217.765 271.812 218.12C269.692 218.828 267.259 218.564 264.855 218.415C263.633 218.378 262.452 218.267 261.218 218.42C259.985 218.573 258.782 218.842 257.669 219.46C255.415 220.581 253.711 222.422 252.193 224.275C249.259 228.14 246.713 232.334 243.82 236.125C240.927 239.916 237.562 243.525 233.453 245.905C231.413 247.153 229.211 248.009 226.918 248.517C224.624 249.024 222.251 248.992 219.942 248.506C217.674 247.946 215.511 246.858 213.419 245.813C211.298 244.652 209.176 243.49 206.919 242.74C204.662 241.99 202.126 241.566 199.72 242.105C198.517 242.374 197.333 242.95 196.364 243.653C195.354 244.431 194.559 245.336 193.794 246.357C190.788 250.179 187.997 254.129 184.367 257.188C182.532 258.754 180.564 260.045 178.475 260.87C176.273 261.726 174.021 262.16 171.731 261.98C170.621 261.912 169.451 261.61 168.477 261.131C167.975 260.832 167.39 260.682 167.001 260.352C166.786 260.225 166.499 260.054 166.284 259.926L165.608 259.427C163.837 257.981 162.469 255.988 161.327 253.933C159.013 249.706 157.616 245.04 155.385 240.665C153.195 236.217 150.387 232.189 147.188 228.518C143.988 224.847 140.2 221.712 136.164 219.02C134.125 217.711 132.004 216.549 129.841 215.462C127.636 214.448 125.349 213.581 123.05 212.905C120.722 212.112 118.371 211.7 116.144 211.066C113.918 210.433 111.785 209.461 110.127 207.985C108.469 206.508 107.255 204.41 106.608 202.157C105.918 199.977 105.652 197.556 105.641 195.188C105.662 190.38 106.72 185.598 106.865 180.569C106.902 179.312 106.825 178.085 106.789 176.786L106.66 175.823C106.641 175.517 106.55 175.168 106.489 174.935L106.117 173.042C105.439 170.671 104.576 168.29 103.404 166.118C101.173 161.744 98.2107 157.82 95.4332 153.908C92.6557 149.996 89.9196 146.01 88.1412 141.511C87.8765 140.96 87.7249 140.379 87.5733 139.797C87.4217 139.215 87.157 138.664 87.0054 138.082L86.6638 136.305C86.6445 135.999 86.5122 135.723 86.493 135.417L86.4353 134.497C86.2401 132.119 86.641 129.701 87.1136 127.325C88.2437 122.586 89.7738 117.985 91.2322 113.343C91.9615 111.021 92.6189 108.657 93.0915 106.282C93.5641 103.906 93.965 101.488 94.0375 98.9733L93.8527 98.9619C93.7498 101.36 93.3489 103.778 92.7632 106.185C92.1774 108.592 91.4897 110.839 90.719 113.234C89.1889 117.835 87.4739 122.424 86.3024 127.237C85.7166 129.644 85.3875 132.104 85.4998 134.63L85.5575 135.55C85.5767 135.857 85.6676 136.206 85.7283 136.438L86.0285 138.289C86.1801 138.871 86.4034 139.495 86.555 140.077C86.7066 140.659 86.9299 141.284 87.1229 141.792C88.8902 146.481 91.5849 150.541 94.3927 154.569C97.1288 158.555 100.019 162.436 102.179 166.768C103.279 168.897 104.112 171.162 104.718 173.49L105.06 175.266C105.079 175.573 105.211 175.848 105.231 176.155L105.33 177.001C105.448 178.153 105.412 179.41 105.417 180.594C105.211 185.391 104.153 190.173 104.079 195.245C104.12 197.728 104.304 200.297 105.126 202.752C105.875 205.165 107.15 207.496 109.053 209.216C110.915 211.011 113.346 211.962 115.644 212.638C118.014 213.357 120.294 213.727 122.55 214.477C124.777 215.111 126.951 216.008 129.156 217.022C131.247 218.068 133.338 219.113 135.377 220.422C139.383 222.997 143.027 226.047 146.197 229.601C149.366 233.156 152.144 237.068 154.303 241.4C156.504 245.658 157.86 250.398 160.317 254.711C161.531 256.808 163.001 258.96 164.987 260.533L165.735 261.076C166.022 261.246 166.308 261.416 166.524 261.544C167.098 261.885 167.641 262.109 168.143 262.408C169.302 262.899 170.513 263.126 171.766 263.28C174.241 263.471 176.719 262.975 178.963 262.045C181.207 261.115 183.329 259.719 185.093 258.11C188.734 254.862 191.566 250.838 194.5 246.973C195.224 246.026 196.019 245.12 196.916 244.374C197.813 243.628 198.842 243.157 199.974 242.845C202.195 242.296 204.587 242.634 206.844 243.384C211.287 244.842 215.218 248.062 219.98 249.119C222.361 249.648 224.776 249.606 227.141 249.141C229.506 248.676 231.75 247.746 233.831 246.424C237.982 243.971 241.418 240.404 244.353 236.539C245.84 234.57 247.215 232.632 248.632 230.62C250.048 228.608 251.351 226.628 252.797 224.732C254.316 222.879 256.049 221.154 258.149 220.139C260.249 219.123 262.623 219.155 264.954 219.261C267.286 219.367 269.75 219.748 272.167 219.019C273.34 218.634 274.494 217.942 275.402 217.005C276.31 216.069 276.901 214.846 277.266 213.685C278.078 211.216 278.079 208.659 277.596 206.11C277.145 203.677 276.282 201.296 275.562 198.999C274.843 196.703 274.236 194.375 274.226 192.008C274.216 189.641 274.688 187.266 275.376 185.018C276.721 180.406 279.123 176.127 280.336 171.24C280.922 168.833 281.364 166.342 281.18 163.773C281.103 162.547 280.883 161.235 280.508 160.029C280.133 158.823 279.532 157.679 278.818 156.566C277.306 154.488 275.433 152.883 273.394 151.574C271.356 150.265 269.234 149.104 267.225 147.911C265.258 146.644 263.333 145.304 261.769 143.49C260.205 141.676 258.837 139.683 257.355 137.721C255.874 135.759 254.125 133.934 252.086 132.625C250.048 131.316 247.802 130.375 245.793 129.183C241.705 126.755 237.947 123.736 234.623 120.287C231.299 116.837 228.254 113.061 225.405 109.107L225.137 109.243Z" fill="#0E253A"/>
<path d="M111.48 54.4382L112.825 56.8114C113.336 57.6063 113.887 58.3274 114.48 58.9747C115.697 60.3857 117.079 61.5016 118.533 62.6601C121.41 64.8607 124.578 66.5449 127.734 68.4191L132.396 71.188L134.692 72.5511C135.481 73.0197 136.311 73.4145 137.194 73.5453C138.149 73.7188 139.095 73.3955 139.827 72.9445C140.671 72.4623 141.301 71.8522 141.9 71.1258C143.026 69.6304 143.722 67.8795 144.018 65.9893C144.314 64.0991 144.198 62.2599 143.97 60.4518C143.67 58.6012 143.328 56.8243 142.915 55.0049C142.501 53.1854 142.088 51.366 141.407 49.6826C140.767 47.9255 139.86 46.3046 138.685 44.8198C136.293 41.924 133.024 40.0809 129.65 38.7657C126.275 37.4504 122.724 36.6205 119.328 35.6856C117.614 35.16 115.901 34.6343 114.27 33.9611C112.64 33.2879 110.979 32.4983 109.111 32.0776C107.314 31.6996 105.187 31.9117 103.528 32.9926C102.714 33.5912 102.032 34.4651 101.679 35.4357C101.325 36.4063 101.372 37.516 101.501 38.4782C101.832 40.4453 102.811 42.1088 103.718 43.7297L106.481 48.5188L109.245 53.3078C110.152 54.9288 111.214 56.4448 112.091 57.9493C113.04 59.4965 113.762 61.106 114.33 62.8205C114.826 64.4924 115.055 66.3005 115.355 68.1511C115.584 69.9591 115.842 71.8836 116.369 73.6719C116.895 75.4601 117.607 77.2598 118.514 78.8808C120.257 82.08 121.958 85.3531 123.928 88.49C125.897 91.627 127.949 94.6163 130.269 97.4695C132.589 100.323 135.146 102.923 137.94 105.272C140.735 107.62 143.612 109.82 146.81 111.621C150.049 113.348 153.578 114.558 157.245 114.67C159.064 114.668 160.893 114.475 162.632 113.934C164.37 113.392 166.09 112.544 167.492 111.409C168.966 110.317 170.133 108.748 170.973 107.082C171.812 105.416 172.221 103.495 172.476 101.678C172.984 98.0456 173.093 94.2736 172.678 90.5837C172.149 86.925 171.066 83.2321 168.787 80.3051C166.509 77.3781 163.477 75.2825 160.754 72.9769C159.372 71.861 158.031 70.6714 156.815 69.2603C155.67 67.8919 154.763 66.271 154.082 64.5877C153.401 62.9044 152.874 61.1161 152.306 59.4016C151.667 57.6445 150.914 55.9186 149.924 54.4452C147.955 51.3083 145.243 48.8126 142.252 46.6431C139.333 44.5163 136.136 42.7158 132.927 41.1055C126.51 37.8848 119.927 34.9592 113.084 32.6665C111.371 32.1408 109.533 31.8365 107.715 31.8388C106.82 31.8981 105.885 32.0312 104.98 32.2806C104.075 32.5301 103.26 33.1287 102.59 33.8125C101.919 34.4963 101.422 35.3817 101.182 36.3211C100.941 37.2604 100.957 38.2538 101.087 39.216C101.346 41.1405 102.212 42.8352 103.006 44.4873C103.913 46.1083 104.903 47.5816 105.811 49.2026C106.759 50.7498 107.595 52.3281 108.502 53.949C110.204 57.2221 111.721 60.4838 113.083 63.8504C114.445 67.217 115.765 70.6574 116.788 74.1176C117.882 77.6204 118.751 81.1855 119.249 84.7278C119.348 85.5736 119.221 86.4818 119.094 87.39C119.038 88.3408 119.054 89.3342 119.184 90.2964C119.484 92.1471 120.01 93.9354 120.352 95.7122L122.504 106.532C123.259 110.129 123.901 113.756 124.84 117.364C125.78 120.972 127.173 124.455 129.214 127.634C133.224 133.951 139.1 138.817 145.506 142.228C151.984 145.682 158.993 147.679 166.023 149.297C169.502 150.084 173.065 150.724 176.627 151.363C178.393 151.625 180.272 151.856 182.132 151.78C183.992 151.704 185.874 151.247 187.593 150.399C191.062 148.819 193.787 146.01 195.752 142.849C196.735 141.269 197.544 139.487 198.168 137.693C198.793 135.899 199.16 134.052 199.456 132.162C199.934 128.412 199.858 124.629 199.515 120.982C199.212 117.261 198.57 113.633 198.042 109.975C197.4 106.347 196.686 102.677 195.52 99.1316C194.354 95.5862 192.849 92.1344 190.992 88.9663C189.178 85.7244 187.054 82.6924 184.847 79.808C182.682 76.8498 180.321 74.0704 177.847 71.3222C172.97 65.8683 167.576 60.9932 161.863 56.5182C150.354 47.7158 137.356 40.8827 123.607 36.7514C120.18 35.7001 116.629 34.8701 113.191 34.009C111.436 33.5571 109.67 33.2954 107.852 33.2977C106.958 33.357 106.022 33.4901 105.189 33.7821C104.356 34.0742 103.511 34.5564 102.912 35.2828C102.313 36.0092 102.031 37.0224 102.089 37.942C102.147 38.8616 102.389 39.7926 102.673 40.6499C103.354 42.3332 104.375 43.923 105.437 45.4389C106.498 46.9549 107.643 48.3233 108.664 49.9131C109.778 51.1651 110.572 52.8173 111.48 54.4382ZM111.634 54.3332C110.799 52.7549 110.004 51.1028 108.984 49.513C107.922 47.997 106.819 46.5548 105.828 45.0815C104.767 43.5655 103.776 42.0921 103.137 40.335C102.853 39.4777 102.569 38.6205 102.511 37.7009C102.454 36.7813 102.766 35.8845 103.251 35.1893C103.809 34.5367 104.582 34.0118 105.415 33.7198C106.249 33.4277 107.113 33.252 107.965 33.2665C109.712 33.2217 111.508 33.5997 113.191 34.009C114.946 34.4609 116.671 34.7963 118.384 35.322C120.139 35.7738 121.852 36.2995 123.566 36.8251C137.19 41.1778 150.075 48.0421 161.388 57.0233C167.03 61.4557 172.34 66.4783 177.146 71.8896C179.548 74.5952 181.796 77.4059 183.961 80.364C186.127 83.3222 188.107 86.269 189.891 89.3945C191.676 92.52 193.151 95.8554 194.174 99.3156C195.268 102.818 196.064 106.341 196.634 109.926C197.205 113.511 197.805 117.212 198.077 120.817C198.421 124.464 198.508 128.057 197.999 131.69C197.745 133.506 197.347 135.238 196.805 136.884C196.223 138.603 195.425 140.195 194.525 141.628C192.642 144.642 190.083 147.156 186.953 148.642C185.389 149.385 183.733 149.779 182.058 149.867C180.383 149.954 178.575 149.766 176.851 149.431C173.36 148.833 169.84 148.12 166.319 147.406C159.319 145.905 152.495 143.919 146.161 140.551C139.898 137.225 134.196 132.56 130.318 126.519C128.379 123.499 127.017 120.132 126.107 116.641C125.126 113.107 124.484 109.479 123.729 105.883L121.577 95.0627C121.236 93.2858 120.709 91.4975 120.481 89.6895C120.31 88.8011 120.324 87.924 120.338 87.047C120.352 86.17 120.521 85.188 120.392 84.2258C119.304 76.7921 116.776 69.8801 114.021 63.0305C112.587 59.6212 110.999 56.317 109.297 53.0439C108.39 51.423 107.554 49.8446 106.606 48.2975C105.657 46.7503 104.636 45.1605 103.759 43.656C102.924 42.0776 102.13 40.4255 101.86 38.6912C101.689 37.8028 101.703 36.9258 101.974 36.1028C102.173 35.2372 102.587 34.4994 103.216 33.8893C104.331 32.5841 106.1 32.159 107.847 32.1141C109.594 32.0693 111.318 32.4048 113.073 32.8566C119.844 35.1068 126.468 37.9586 132.886 41.1793C136.094 42.7896 139.22 44.5475 142.181 46.6005C145.099 48.7274 147.739 51.1805 149.75 54.2436C150.699 55.7908 151.493 57.4429 152.061 59.1574C152.629 60.8719 153.155 62.6602 153.836 64.3435C154.476 66.1006 155.383 67.7215 156.6 69.1326C157.816 70.5436 159.157 71.7332 160.569 72.9655C163.405 75.2399 166.324 77.3667 168.531 80.2511C170.737 83.1355 171.79 86.712 172.247 90.3281C172.704 93.9442 172.452 97.631 171.943 101.264C171.689 103.08 171.178 104.843 170.38 106.435C169.582 108.027 168.425 109.406 167.064 110.467C165.704 111.528 164.097 112.345 162.4 112.812C160.775 113.323 158.945 113.515 157.24 113.486C153.758 113.386 150.342 112.144 147.288 110.429C144.162 108.671 141.356 106.513 138.675 104.134C135.993 101.754 133.436 99.1537 131.147 96.4168C128.857 93.68 126.805 90.6906 124.908 87.5963C123.01 84.502 121.267 81.3027 119.524 78.1034C118.689 76.5251 117.966 74.9155 117.511 73.1699C117.057 71.4242 116.787 69.6899 116.558 67.8819C116.33 66.0738 116.071 64.1494 115.473 62.3185C114.875 60.4877 114.08 58.8355 113.101 57.172C112.194 55.551 111.132 54.0351 110.183 52.4879L107.378 47.7726L104.574 43.0574C103.625 41.5102 102.831 39.8581 102.519 38.1976C102.42 37.3518 102.393 36.5485 102.622 35.7993C102.851 35.0501 103.337 34.3549 103.956 33.935C105.233 33.0215 107.104 32.7553 108.716 33.122C110.369 33.4149 112.03 34.2045 113.66 34.8777C115.362 35.5935 117.076 36.1191 118.831 36.571C122.299 37.5485 125.82 38.262 129.122 39.5347C132.425 40.8073 135.623 42.6078 137.954 45.2709C139.098 46.6393 140.047 48.1864 140.615 49.9009C141.296 51.5842 141.751 53.3299 142.164 55.1494C142.96 58.6719 143.931 62.396 143.463 65.9551C143.209 67.7714 142.626 69.4912 141.541 70.9128C140.983 71.5655 140.313 72.2493 139.581 72.7003C138.85 73.1513 137.945 73.4008 137.134 73.3126C136.251 73.1817 135.462 72.7131 134.703 72.3609L132.407 70.9978L127.745 68.229C124.66 66.3973 121.493 64.7132 118.574 62.5863C117.151 61.5442 115.738 60.312 114.552 59.0173C113.959 58.37 113.407 57.6489 112.897 56.854L111.634 54.3332Z" fill="#0E253A"/>
<path d="M87.8973 19.7756C88.034 23.7918 88.1404 27.6916 87.9074 31.6849C87.755 33.6603 87.6026 35.6357 87.3068 37.5259C86.9695 39.4898 86.4888 41.3686 86.0081 43.2474C85.0052 47.0787 84.0024 50.91 83.7693 54.9033C83.5363 58.8967 83.8993 62.8505 84.1492 66.8355C84.7317 74.6579 84.0504 82.5168 83.1843 90.3643L80.8011 114.035C80.0481 121.851 79.0274 129.803 79.7837 137.827C80.1467 141.781 81.0229 145.843 82.6609 149.57C84.2574 153.371 86.6681 156.574 88.6263 159.901C89.6054 161.564 90.5127 163.185 91.1827 165.059C91.8223 166.816 92.3074 168.678 92.5661 170.602C93.1251 174.377 93.1184 178.308 92.9985 182.27C92.8786 186.233 92.7587 190.195 93.0803 194.222C93.2977 196.22 93.5868 198.261 94.1022 200.24C94.6176 202.218 95.4724 204.103 96.4818 205.883C98.6138 209.412 101.571 212.152 104.694 214.596C107.817 217.041 111.034 219.148 114.013 221.508C120.044 226.269 125.464 231.948 129.957 238.256C132.225 241.373 134.254 244.743 136.284 248.112C138.356 251.408 140.499 254.747 142.992 257.802C145.444 260.93 148.288 263.701 151.381 266.03C152.948 267.157 154.628 268.253 156.319 269.159C158.011 270.065 159.774 271.013 161.506 271.846C164.972 273.51 168.674 274.922 172.441 275.88C176.248 276.764 180.12 277.193 184.005 276.746C185.948 276.523 187.86 276.183 189.712 275.61C191.564 275.037 193.355 274.232 195.146 273.426C198.687 271.889 202.288 270.585 206.041 269.862C207.882 269.48 209.783 269.33 211.673 269.37C213.605 269.337 215.484 269.567 217.404 269.724C219.325 269.881 221.287 269.964 223.271 269.666C225.255 269.369 227.076 268.68 228.868 267.874C232.45 266.263 235.726 264.176 239.256 262.829C242.827 261.408 246.519 260.453 250.264 259.233C253.896 258.045 257.652 256.636 260.939 254.358C262.598 253.277 264.052 251.878 265.333 250.278C266.614 248.678 267.608 246.907 268.417 245.125C270.077 241.487 271.193 237.624 272.554 234.006C273.916 230.387 275.893 227.036 278.156 223.855C280.42 220.674 282.827 217.578 285.163 214.44C287.426 211.259 289.629 207.845 291.187 204.048C291.966 202.15 292.488 200.197 292.795 198.117C293.102 196.037 293.111 193.976 293.006 191.947C292.83 189.875 292.5 187.908 292.169 185.941L291.065 180.071L288.886 168.447L287.781 162.577C287.409 160.684 287.078 158.717 286.604 156.665C286.089 154.687 285.389 152.697 284.194 150.905C283 149.114 281.414 147.68 279.734 146.584C276.456 144.244 272.908 142.727 270.083 140.263C267.33 137.841 265.3 134.471 262.467 131.51C261.107 130.014 259.48 128.654 257.604 127.736C255.769 126.745 253.871 126.208 251.972 125.671C250.074 125.134 248.206 124.713 246.462 124.071C245.549 123.824 244.719 123.429 243.847 123.108C243.016 122.714 242.144 122.393 241.284 121.881C237.931 120.186 234.756 118.005 231.973 115.467C229.189 112.928 226.654 109.947 224.613 106.768C222.459 103.619 221.191 99.9152 219.059 96.3865C218.049 94.6066 216.772 92.9628 215.258 91.5716C213.743 90.1803 212.105 89.0104 210.538 87.8831L208.151 86.1708C207.793 85.9579 207.332 85.5859 206.902 85.3303C206.471 85.0747 206.041 84.8191 205.497 84.5947C203.693 83.72 201.795 83.1829 200.134 82.3933C199.303 81.9985 198.514 81.53 197.838 81.0302L196.702 80.1585L195.606 79.213C194.235 77.9069 192.906 76.5271 191.731 75.0423C189.268 72.1039 187.238 68.7342 185.279 65.4071C181.405 58.6792 177.82 51.4348 172.452 45.4925C169.804 42.5427 166.692 39.9078 163.083 38.1582C159.474 36.4087 155.666 35.5247 151.972 34.6096C148.236 33.7682 144.356 32.8417 140.38 32.9397C138.448 32.9731 136.589 33.0491 134.71 32.8186C132.83 32.5881 130.993 32.2838 129.249 31.6418C127.505 30.9998 125.814 30.0938 124.164 29.1141C122.514 28.1343 120.865 27.1546 119.102 26.206C115.678 24.4679 112.502 22.287 109.089 20.3587C107.44 19.379 105.677 18.4304 103.944 17.5983C102.211 16.7661 100.366 15.9651 98.4147 15.692C97.9015 15.5839 97.4186 15.5923 96.8943 15.6744C96.37 15.7566 95.9174 15.8813 95.4648 16.006C94.4879 16.2129 93.5524 16.346 92.6472 16.5955C90.9804 17.1796 89.0044 17.9737 87.8973 19.7756ZM88.1539 19.8296C88.361 19.4607 88.7529 19.1032 89.1035 18.8195C89.454 18.5358 89.8763 18.2947 90.2985 18.0536C91.1431 17.5713 92.0482 17.3219 93.0251 17.115C93.9303 16.8655 94.9375 16.775 95.8013 16.5993C96.2539 16.4746 96.7782 16.3925 97.1893 16.3415C97.6005 16.2906 98.0834 16.2822 98.5966 16.3902C100.434 16.6945 102.239 17.5693 103.9 18.3589C105.632 19.1911 107.282 20.1708 108.932 21.1506C110.582 22.1303 112.19 23.1838 113.87 24.28C114.731 24.7911 115.479 25.3335 116.34 25.8446L118.892 27.2618C120.541 28.2415 122.191 29.2213 123.913 30.2436C125.563 31.2233 127.326 32.1719 129.1 32.9303C130.987 33.6575 132.855 34.0782 134.847 34.2775C136.839 34.4769 138.771 34.4434 140.661 34.4838C144.411 34.4481 148.106 35.3633 151.872 36.321C155.567 37.2361 159.333 38.1939 162.685 39.8894C166.037 41.585 168.975 44.0183 171.438 46.9567C173.943 49.8214 176.128 53.0861 178.086 56.4132C180.044 59.7402 181.878 63.2887 183.795 66.6895C185.783 70.133 187.813 73.5027 190.337 76.6738C191.584 78.2012 192.943 79.6974 194.386 81.0461L195.553 82.0342L196.761 82.9485C197.539 83.6072 198.513 84.0872 199.416 84.5246C201.22 85.3994 203.077 86.0102 204.738 86.7998C205.096 87.0128 205.568 87.1946 205.927 87.4076C206.286 87.6206 206.644 87.8336 207.033 88.1629C207.853 88.7479 208.6 89.2902 209.42 89.8752C210.987 91.0025 212.553 92.1298 213.894 93.3195C215.265 94.6255 216.369 96.0677 217.317 97.6149C219.245 100.826 220.657 104.615 222.872 107.996C224.973 111.409 227.652 114.475 230.609 117.215C233.607 119.881 236.885 122.221 240.422 123.927C243.876 125.782 247.816 126.941 251.511 127.856C253.337 128.351 255.123 128.919 256.742 129.782C258.362 130.646 259.744 131.762 261.002 133.099C263.589 135.816 265.691 139.228 268.761 141.937C271.945 144.615 275.564 146.174 278.555 148.343C280.092 149.354 281.463 150.66 282.453 152.134C283.443 153.607 284.083 155.364 284.568 157.226C285.053 159.088 285.383 161.055 285.755 162.949L286.901 168.745L289.152 180.411C289.855 184.271 290.742 188.143 291.075 191.98C291.262 193.862 291.223 195.806 290.927 197.696C290.631 199.586 290.192 201.391 289.454 203.216C288.021 206.792 286.014 210.027 283.75 213.208C281.486 216.389 279.079 219.484 276.887 222.708C274.654 226.005 272.636 229.43 271.191 233.196C269.747 236.962 268.786 240.72 267.167 244.284C266.358 246.066 265.447 247.689 264.249 249.142C263.266 250.723 261.853 252.048 260.307 253.097C257.247 255.313 253.604 256.691 250.044 257.922C246.412 259.11 242.637 260.213 239.066 261.634C235.381 263.086 232.136 265.29 228.666 266.87C226.947 267.718 225.167 268.333 223.296 268.599C221.497 268.908 219.535 268.825 217.614 268.668C215.694 268.512 213.773 268.355 211.842 268.388C209.91 268.422 207.937 268.529 206.055 268.985C202.23 269.665 198.588 271.043 195.005 272.654C193.214 273.46 191.536 274.234 189.684 274.807C187.833 275.379 185.992 275.762 184.091 275.912C180.319 276.328 176.447 275.898 172.711 275.057C169.017 274.141 165.427 272.698 161.962 271.034C158.538 269.296 155.042 267.515 151.98 265.303C148.887 262.975 146.115 260.246 143.806 257.203C141.426 254.117 139.355 250.821 137.325 247.451C135.295 244.082 133.378 240.681 131.081 237.447C126.557 231.023 121.148 225.154 115.057 220.16C112.047 217.684 108.8 215.46 105.82 213.101C102.841 210.741 100.068 208.013 98.1406 204.802C97.1615 203.139 96.4804 201.455 95.9954 199.593C95.5103 197.731 95.2101 195.881 95.0644 193.925C94.7317 190.087 94.9234 186.168 95.0433 182.206C95.1632 178.244 95.2113 174.239 94.6331 170.157C94.344 168.116 93.8286 166.138 93.0869 164.222C92.3452 162.306 91.3358 160.526 90.3982 158.789C88.2966 155.376 86.0293 152.259 84.452 148.765C82.8747 145.27 82.0591 141.441 81.7264 137.604C80.9176 129.844 81.8969 121.965 82.5781 114.106L84.7351 90.4983C85.4163 82.6393 86.0673 74.6641 85.3827 66.6827C85.0914 62.7714 84.7284 58.8176 84.8069 54.9292C84.8853 51.0408 85.8882 47.2095 86.8193 43.3356C87.2283 41.4142 87.7504 39.4617 87.9746 37.5289C88.3118 35.5649 88.4642 33.5896 88.5448 31.5716C88.5819 27.757 88.3735 23.6982 88.1539 19.8296Z" fill="#0E253A"/>
<path d="M84.8021 70.2725C84.5528 73.2725 84.8581 76.3067 85.8009 79.2276C86.7437 82.1484 88.2634 84.7232 89.5567 87.3604C90.8501 89.9976 91.9888 92.7397 92.7468 95.6492C93.433 98.516 93.7797 101.476 94.0134 104.468C94.247 107.46 94.2957 110.44 93.7181 113.343C93.1405 116.247 91.9062 118.957 90.8871 121.795C90.3982 123.177 89.9397 124.675 89.666 126.185C89.3924 127.695 89.3036 129.216 89.3583 130.823C89.4544 132.355 89.6636 133.857 90.1295 135.412C90.6368 136.894 91.4117 138.24 92.3413 139.48C94.0872 141.993 96.0816 144.062 97.6013 146.637C99.0906 149.096 100.301 151.88 101.44 154.623L104.928 162.892L106.657 166.968C107.247 168.302 107.724 169.667 107.975 171.095C108.517 173.877 107.827 176.811 107.321 179.757C107.047 181.267 106.886 182.746 106.869 184.31C106.852 185.874 107.133 187.418 107.641 188.899C108.727 191.905 110.699 194.356 113.074 196.258C115.408 198.234 118.115 199.546 120.874 200.595C123.633 201.643 126.486 202.353 129.298 203.138C132.109 203.922 134.879 204.78 137.525 205.859C142.93 207.987 148.076 210.747 152.849 214.172C155.235 215.884 157.58 217.67 159.729 219.635C161.919 221.526 163.903 223.786 166.319 225.615C167.528 226.529 168.777 227.369 170.193 227.915C171.608 228.46 173.076 228.742 174.566 228.643C176.056 228.544 177.497 228.022 178.866 227.458C180.235 226.894 181.501 226.17 182.87 225.606C184.239 225.041 185.597 224.667 187.004 224.716C188.411 224.765 189.797 225.194 191.016 225.918C193.485 227.483 195.159 229.952 196.834 232.422C197.691 233.62 198.508 234.892 199.407 236.016C200.378 237.183 201.39 238.276 202.485 239.222C203.652 240.21 204.902 241.05 206.246 241.553C207.661 242.099 209.129 242.38 210.619 242.281C213.6 242.084 216.39 240.691 218.659 238.693C220.958 236.812 222.807 234.369 224.329 231.83C227.443 226.793 229.881 221.256 233.815 216.804C237.707 212.426 242.653 209.067 248.167 207.423C249.566 206.975 250.954 206.717 252.372 206.576C253.791 206.434 255.322 206.261 256.793 205.856C258.264 205.451 259.685 204.622 260.748 203.581C261.882 202.582 262.813 201.266 263.63 199.98C265.121 197.324 266.11 194.37 266.657 191.35C266.773 190.632 266.931 189.84 266.903 189.037C266.948 188.276 266.992 187.516 266.965 186.713C266.869 185.18 266.701 183.605 266.307 182.092C265.59 179.108 264.266 176.355 262.943 173.601C261.578 170.922 260.284 168.284 259.259 165.511C258.782 164.146 258.346 162.707 257.726 161.256C257.105 159.805 256.217 158.491 255.133 157.355C252.965 155.084 250.383 153.551 247.913 151.986C246.622 151.219 245.444 150.421 244.266 149.623C243.13 148.751 242.034 147.806 241.052 146.829C239.058 144.76 237.301 142.437 235.853 139.905C232.957 134.841 231.174 129.158 229.658 123.339C228.9 120.429 228.327 117.531 227.497 114.579C226.667 111.627 225.683 108.78 224.431 106.069C221.969 100.574 218.56 95.4011 214.16 91.3126C211.98 89.2314 209.481 87.5504 206.857 86.0906C204.192 84.7047 201.516 83.5089 198.994 82.2082C196.401 80.8648 194.045 79.2689 192.092 77.1254C190.139 74.9819 188.578 72.4808 187.016 69.9798L177.352 54.9935C175.678 52.5236 174.158 49.9488 172.443 47.5528C170.727 45.1567 168.713 42.7805 166.369 40.9944C164.065 39.1346 161.369 37.6323 158.61 36.584C155.851 35.5358 152.874 35.0466 149.916 34.864C146.958 34.6814 144.061 34.7315 141.216 34.5177C139.737 34.4264 138.299 34.2613 136.944 33.9487C135.518 33.5934 134.133 33.1644 132.789 32.6615C127.343 30.6077 122.374 27.3619 116.803 25.5294L116.72 25.677C122.25 27.5833 127.135 30.9766 132.612 33.1468C133.956 33.6497 135.371 34.1951 136.839 34.4766C138.266 34.8318 139.703 34.9969 141.141 35.162C144.058 35.4184 146.955 35.3683 149.872 35.6247C152.717 35.8385 155.581 36.3588 158.268 37.3644C160.955 38.3701 163.466 39.861 165.698 41.6782C170.275 45.2815 173.118 50.6098 176.353 55.5807L185.863 70.672C187.424 73.173 189.015 75.7904 190.999 78.0503C193.054 80.3528 195.583 82.1503 198.177 83.4936C200.801 84.9533 203.477 86.1491 205.999 87.4499C208.592 88.7932 210.907 90.4629 213.056 92.4277C217.282 96.3147 220.589 101.328 223.021 106.707C224.201 109.376 225.227 112.149 226.026 114.985C226.826 117.82 227.357 120.792 228.115 123.702C229.631 129.521 231.403 135.394 234.473 140.66C235.951 143.308 237.81 145.789 239.876 147.902C240.889 148.995 242.056 149.983 243.305 150.823C244.514 151.738 245.805 152.505 247.024 153.229C249.494 154.793 252.004 156.284 253.927 158.311C254.868 159.362 255.654 160.517 256.244 161.852C256.834 163.186 257.198 164.582 257.746 165.99C259.858 171.77 263.361 176.604 264.847 182.307C265.211 183.703 265.42 185.205 265.486 186.621C265.483 187.308 265.51 188.111 265.435 188.756C265.391 189.516 265.316 190.16 265.159 190.952C264.694 193.824 263.747 196.705 262.339 199.214C260.931 201.722 258.836 203.921 256.192 204.712C254.834 205.086 253.416 205.228 251.956 205.443C250.496 205.658 248.995 205.947 247.596 206.395C241.927 208.144 236.857 211.725 232.924 216.177C228.949 220.702 226.582 226.282 223.54 231.361C222.018 233.901 220.21 236.27 218.024 238.12C215.838 239.97 213.12 241.405 210.253 241.572C208.876 241.639 207.366 241.432 206.064 240.855C204.72 240.352 203.542 239.554 202.375 238.566C201.28 237.621 200.268 236.527 199.369 235.403C198.469 234.279 197.653 233.007 196.795 231.809C195.937 230.611 195.121 229.339 194.15 228.172C193.179 227.006 192.125 225.986 190.875 225.146C189.626 224.305 188.127 223.907 186.607 223.89C185.087 223.872 183.616 224.278 182.288 224.768C180.919 225.333 179.581 226.013 178.284 226.62C176.987 227.227 175.588 227.675 174.169 227.817C171.302 227.983 168.595 226.671 166.364 224.854C164.132 223.037 162.107 220.851 159.886 218.843C157.666 216.836 155.362 214.976 152.976 213.264C148.203 209.839 142.956 206.92 137.52 204.676C134.803 203.554 132.002 202.579 129.19 201.795C126.379 201.011 123.567 200.226 120.921 199.147C118.234 198.141 115.641 196.798 113.45 194.907C111.218 193.09 109.461 190.768 108.466 188.111C107.989 186.745 107.81 185.36 107.744 183.944C107.792 182.496 107.952 181.018 108.184 179.582C108.417 178.145 108.69 176.636 108.892 175.083C109.094 173.531 109.111 171.967 108.758 170.38C108.477 168.836 107.857 167.385 107.308 165.977L105.508 161.859L101.978 153.663C100.839 150.921 99.629 148.136 97.9962 145.593C96.4048 142.975 94.3801 140.789 92.6645 138.393C91.8067 137.195 91.062 135.966 90.6568 134.643C90.1799 133.278 89.9292 131.85 89.9048 130.36C89.839 128.944 89.9278 127.423 90.16 125.986C90.3923 124.55 90.8094 123.126 91.2982 121.744C92.2042 118.937 93.4799 116.153 94.0272 113.133C94.5745 110.114 94.4955 107.017 94.2618 104.025C93.9565 100.991 93.6097 98.0308 92.8518 95.1213C92.0939 92.2118 90.8833 89.4271 89.5183 86.7473C88.1532 84.0676 86.5922 81.5665 85.6079 78.7194C84.5823 75.9461 84.277 72.9119 84.5262 69.912L84.8021 70.2725Z" fill="#0E253A"/>
</svg>
