<svg width="314" height="330" viewBox="0 0 314 330" fill="none" xmlns="http://www.w3.org/2000/svg">
<path d="M51.6576 167.12C45.5297 176.114 48.6998 185.353 51.8076 194.366C53.903 200.612 56.1034 207.011 55.2186 213.305C55.0535 214.743 54.6983 216.169 54.343 217.596C53.8371 219.607 53.3624 221.732 53.2681 223.879C52.9956 232.62 60.6056 239.187 67.1181 243.13C69.3627 244.486 71.6499 245.769 73.906 246.94C77.7114 248.98 81.6644 251.104 85.0864 253.79C91.3517 258.645 94.8094 265.081 94.2966 270.915L95.0572 270.959C95.5503 264.828 91.9876 258.237 85.5436 253.186C82.0052 250.53 77.9784 248.365 74.173 246.325C71.9169 245.154 69.6297 243.87 67.3851 242.515C61.0939 238.696 53.6626 232.325 53.9549 223.882C54.0067 221.807 54.5552 219.723 55.061 217.712C55.4163 216.285 55.7715 214.859 55.9792 213.35C56.8754 206.871 54.6439 200.358 52.591 194.041C49.4209 184.801 46.5231 176.097 52.3642 167.421L51.6576 167.12Z" fill="#0C2340"/>
<path d="M278.036 94.2007C277.076 93.6623 275.904 93.4826 274.911 93.4989C273.727 93.504 272.637 93.8486 271.516 94.0801C271.051 94.2013 270.585 94.3226 270.12 94.4438C267.528 94.9977 264.781 94.9858 262.226 94.3172C254.743 92.5075 249.894 94.3769 243.255 97.4405C232.093 102.652 220.335 106.382 208.215 108.569C206.555 108.881 204.937 109.12 203.277 109.431C198.38 110.222 193.368 111.043 188.616 112.584C179.853 115.412 171.416 121.006 163.665 129.088C152.856 140.332 145.408 151.55 141.533 162.382C140.291 165.798 139.546 169.205 138.844 172.541C138.262 175.179 137.636 177.889 136.821 180.587C136.048 183.214 136.615 186.401 138.606 190.006C139.088 190.85 139.57 191.695 140.095 192.467C141.238 194.353 142.455 196.279 143.09 198.357C143.725 200.435 143.895 202.634 144.033 204.721C144.231 207.701 144.46 210.794 146.012 213.482C147.007 215.285 148.565 216.637 150.006 218.02C152.353 220.198 154.731 222.489 157.736 223.889C160.625 225.319 163.951 225.847 166.982 226.21C170.848 226.658 174.123 226.775 177.146 226.654C182.621 226.38 187.889 225.129 193.115 223.95C203.186 221.569 213.68 219.138 222.886 214.072L222.54 213.495C213.407 218.603 203.03 221.003 193.001 223.312C187.85 224.533 182.508 225.743 177.223 226.028C174.2 226.149 171.041 226.001 167.175 225.553C164.144 225.191 160.966 224.745 158.15 223.357C155.262 221.926 152.915 219.748 150.642 217.612C149.275 216.27 147.791 214.959 146.826 213.27C145.38 210.736 145.213 207.869 144.942 204.848C144.772 202.648 144.645 200.377 144.01 198.299C143.344 196.108 142.127 194.182 140.91 192.255C140.428 191.411 139.903 190.638 139.421 189.793C137.534 186.344 136.956 183.341 137.718 180.899C138.576 178.129 139.201 175.42 139.784 172.782C140.517 169.559 141.262 166.151 142.429 162.694C146.262 151.934 153.668 140.788 164.434 129.616C172.143 121.605 180.421 116.113 189.11 113.243C193.861 111.702 198.874 110.882 203.654 110.121C205.272 109.882 206.932 109.571 208.593 109.259C220.787 107.114 232.66 103.353 243.822 98.1416C250.462 95.0779 254.961 93.2995 262.297 95.0264C264.968 95.6647 267.863 95.7594 270.571 95.1752C271.036 95.054 271.502 94.9327 271.967 94.8114C273.088 94.58 274.062 94.2657 275.172 94.2192C276.472 94.1837 278.203 94.5816 279 95.8898C279.346 96.4666 279.533 97.1455 279.678 97.8961C279.822 98.6467 279.998 99.5105 280.418 100.129C281.079 101.169 282.154 101.677 283.187 102.257C283.482 102.423 283.851 102.63 284.146 102.795C287.719 104.896 291.106 110.623 287.474 116.905L288.138 117.278C291.642 111.211 289.135 104.831 284.604 102.191C284.308 102.026 283.94 101.819 283.644 101.653C282.643 101.186 281.683 100.648 281.201 99.8033C280.855 99.2265 280.668 98.5476 280.524 97.797C280.379 97.0464 280.235 96.2958 279.784 95.5644C279.057 94.9654 278.552 94.4906 278.036 94.2007Z" fill="#0C2340"/>
<path d="M214.192 93.3695C211.166 94.1578 210.425 94.4114 209.684 94.665C208.944 94.9187 208.203 95.1723 205.251 96.002C189.772 100.034 176.971 103.369 164.941 106.564C159.079 108.151 156.774 110.874 153.193 115.081L153.066 115.296C148.125 121.131 141.574 123.383 134.716 125.655C130.43 127.075 125.984 128.596 121.979 131.034C119.319 132.698 117.61 134.416 116.797 136.447C115.366 139.851 117.005 144.215 118.613 148.465C120.91 154.536 123.039 160.227 117.327 163.716C114.826 165.277 111.667 165.129 108.582 165.024C108.086 165.032 107.515 164.998 107.018 165.007C103.891 164.972 100.783 165.236 97.7257 165.911C96.139 166.264 94.3507 166.791 93.2774 168.101C91.4488 170.518 93.1023 174.028 95.5112 176.432C98.0677 178.919 101.039 180.874 103.893 182.859C105.653 184.038 107.56 185.299 109.234 186.622C114.004 190.351 116.818 194.226 117.677 198.247C118.473 202.041 117.064 205.076 115.57 208.255C114.738 209.987 113.979 211.761 113.442 213.66C112.237 218.339 113.385 223.861 116.577 228.426C120.472 233.96 126.255 237.972 132.135 239.168C138.66 240.44 144.306 237.392 149.794 234.447C150.387 234.11 151.097 233.744 151.69 233.407C158.279 229.932 165.113 230.517 172.643 231.587C178.81 232.466 184.614 231.803 188.671 229.776L188.367 229.128C184.47 231.052 178.782 231.685 172.805 230.817C165.085 229.736 158.208 229.223 151.386 232.759C150.793 233.095 150.083 233.462 149.49 233.798C144.119 236.713 138.589 239.73 132.297 238.398C126.564 237.284 121.003 233.398 117.255 227.946C114.242 223.577 113.083 218.24 114.277 213.746C114.814 211.847 115.53 210.145 116.362 208.412C117.898 205.162 119.392 201.984 118.534 197.963C117.687 193.757 114.767 189.728 109.85 185.915C108.102 184.552 106.269 183.332 104.436 182.111C101.538 180.198 98.61 178.172 96.0848 175.798C93.8546 173.59 92.3258 170.532 93.8677 168.432C94.7394 167.296 96.4113 166.8 97.8816 166.477C100.896 165.874 103.93 165.568 107.015 165.674C107.512 165.666 108.083 165.699 108.579 165.691C111.781 165.767 115.056 165.884 117.716 164.221C123.905 160.426 121.545 154.128 119.322 148.098C117.819 144.002 116.211 139.752 117.515 136.563C118.242 134.676 119.909 133.029 122.41 131.468C126.373 129.101 130.702 127.61 134.988 126.19C141.656 123.907 148.63 121.606 153.699 115.556L153.826 115.341C157.407 111.134 159.553 108.513 165.14 107.058C177.169 103.863 189.971 100.528 205.449 96.496C208.475 95.7077 209.216 95.4541 209.957 95.2005C210.698 94.9468 211.438 94.6932 214.39 93.8635L214.192 93.3695Z" fill="#0C2340"/>
<path d="M274.857 93.7559C271.97 94.1441 268.842 94.11 266.194 93.102C264.855 92.5414 263.601 91.8374 262.23 91.1637C260.902 90.4182 259.372 89.8465 257.862 89.5729C256.279 89.2578 254.641 89.1994 253.097 89.4803C251.479 89.7199 250.071 90.2686 248.632 90.7041C245.785 91.6883 242.969 92.7857 240.227 93.9245C237.485 95.0633 234.816 96.2435 232.012 97.156C229.281 98.1099 226.531 98.7658 223.675 99.2671C217.964 100.27 212.066 100.594 206.095 100.876C203.146 101.038 200.123 101.158 197.089 101.464C194.097 101.697 191.063 102.003 187.975 102.565C186.43 102.846 184.886 103.126 183.331 103.592C182.516 103.805 181.775 104.058 181.034 104.312C180.251 104.637 179.467 104.963 178.641 105.36C175.57 106.887 173.14 109.158 170.985 111.296C168.83 113.433 166.908 115.511 164.818 117.207C163.81 118.076 162.74 118.719 161.553 119.392C160.367 120.064 159.106 120.696 157.73 121.358C152.572 123.914 146.676 126.056 141.563 130.36C139.101 132.517 136.943 135.322 135.577 138.285C134.137 141.207 133.415 144.245 132.705 147.098C131.431 152.887 130.445 158.359 127.372 162.373C125.958 164.257 123.721 165.87 121.356 167.699C118.991 169.528 116.309 171.561 114.508 174.758C113.613 176.265 112.917 178.265 113.203 180.434C113.416 182.562 114.528 184.334 115.705 185.664C116.882 186.994 118.083 187.955 119.283 188.916L120.914 190.31L122.503 191.775C124.745 193.799 126.85 195.554 127.602 197.602C127.925 198.549 127.973 199.628 127.726 200.541C127.436 201.526 126.681 202.632 125.809 203.769C124.937 204.906 123.949 206.072 123.128 207.62C122.35 209.096 121.802 211.179 122.332 213.103C123.446 216.693 126.343 218.606 127.475 220.676C128.136 221.717 128.479 222.961 128.589 224.267C128.629 224.863 128.668 225.459 128.592 226.085C128.515 226.712 128.321 227.368 128.191 228.251C128.06 229.134 128.298 230.224 128.749 230.956C129.157 231.759 129.725 232.46 130.304 232.976C131.609 234.091 133.053 234.806 134.552 235.265C137.549 236.182 140.824 236.299 143.861 235.326C146.825 234.311 149.275 232.339 150.987 229.953L150.734 229.715C148.917 231.947 146.436 233.806 143.6 234.605C140.765 235.405 137.648 235.186 134.958 234.25C133.576 233.761 132.248 233.015 131.238 232.066C130.27 231.044 129.473 229.736 129.712 228.34C129.831 227.642 130.025 226.985 130.187 226.215C130.306 225.517 130.352 224.778 130.324 223.997C130.182 222.578 129.819 221.036 129.096 219.769C128.415 218.43 127.374 217.368 126.492 216.203C125.567 215.11 124.727 213.874 124.353 212.516C123.979 211.158 124.334 209.732 124.984 208.471C125.635 207.21 126.654 206.156 127.568 204.948C128.44 203.811 129.354 202.603 129.9 201.187C130.445 199.772 130.389 198.21 129.941 196.811C128.897 193.93 126.497 192.008 124.372 189.955C122.289 187.829 119.834 186.165 117.911 183.937C116.986 182.844 116.263 181.577 116.121 180.159C115.98 178.741 116.409 177.356 117.133 176.136C120.041 171.074 126.243 168.912 129.932 164.192C133.589 159.358 134.567 153.404 135.903 147.841C136.571 145.06 137.355 142.249 138.625 139.614C139.852 137.051 141.638 134.706 143.855 132.794C148.29 128.971 153.848 126.735 159.239 124.118C161.876 122.824 164.598 121.388 166.815 119.476C169.107 117.606 171.04 115.344 173.152 113.277C175.191 111.17 177.408 109.258 180.014 107.852C182.578 106.517 185.561 105.801 188.459 105.228C194.36 104.236 200.227 103.799 206.21 103.332C212.193 102.865 218.177 102.397 223.973 101.251C226.871 100.678 229.78 99.9202 232.596 98.8228C235.369 97.7972 238.08 96.5453 240.865 95.3348C243.576 94.0828 246.244 92.9026 249.018 91.877C250.383 91.4 251.791 90.8514 253.219 90.6007C254.646 90.35 256.136 90.3257 257.573 90.5579C260.487 90.9506 262.973 92.7285 265.811 93.7476C268.734 94.6232 271.831 94.5442 274.802 94.0125L274.857 93.7559Z" fill="#1F33FF"/>
<path d="M203.919 225.137C199.934 227.873 196.01 230.836 192.56 234.16C189.037 237.442 185.829 241.188 183.284 245.307C181.975 247.346 181.035 249.592 179.768 251.559C178.502 253.526 176.762 255.132 174.842 256.541C172.923 257.951 170.857 259.277 169 260.913C167.069 262.507 165.57 264.535 164.261 266.574C162.952 268.613 161.864 270.776 160.524 272.701C159.257 274.668 157.769 276.511 155.819 277.808C153.869 279.104 151.572 279.823 149.279 279.875C146.943 279.999 144.525 279.598 142.235 278.982C139.944 278.366 137.708 277.493 135.398 276.579C133.162 275.706 130.852 274.792 128.457 274.021C126.135 273.292 123.57 272.809 121.086 272.849C118.529 272.848 116.085 273.485 113.746 274.276C111.449 274.996 109.142 275.9 106.783 276.393C104.467 276.815 102.057 276.897 99.8094 276.209C98.7224 275.886 97.6895 275.306 96.8581 274.552C96.0268 273.799 95.397 272.872 95.0426 271.812C94.3337 269.692 94.5985 267.259 94.7468 264.855C94.7841 263.633 94.8952 262.452 94.7424 261.218C94.5895 259.985 94.3203 258.782 93.7019 257.669C92.5815 255.415 90.7401 253.711 88.8872 252.193C85.0224 249.259 80.8283 246.713 77.0374 243.82C73.2464 240.927 69.6373 237.562 67.2573 233.453C66.0091 231.413 65.1527 229.211 64.6454 226.918C64.1381 224.624 64.1701 222.251 64.6562 219.942C65.2161 217.674 66.3039 215.511 67.3491 213.419C68.5106 211.298 69.6722 209.176 70.4222 206.919C71.1722 204.662 71.596 202.126 71.0575 199.72C70.7883 198.517 70.2125 197.333 69.5089 196.364C68.7316 195.354 67.8264 194.559 66.8049 193.794C62.9828 190.788 59.0328 187.997 55.9744 184.367C54.4083 182.532 53.1175 180.564 52.2923 178.475C51.4358 176.273 51.0023 174.021 51.1819 171.731C51.2504 170.621 51.5516 169.451 52.0316 168.478C52.3298 167.975 52.4804 167.39 52.8098 167.001C52.9376 166.786 53.1079 166.499 53.2357 166.284L53.7355 165.608C55.1808 163.837 57.1737 162.469 59.2289 161.327C63.4559 159.014 68.1224 157.616 72.4969 155.385C76.9452 153.195 80.9736 150.388 84.6445 147.188C88.3154 143.988 91.4501 140.2 94.1421 136.164C95.4512 134.125 96.6128 132.004 97.7005 129.841C98.7145 127.636 99.581 125.349 100.257 123.05C101.05 120.722 101.462 118.371 102.096 116.144C102.73 113.918 103.701 111.785 105.177 110.127C106.654 108.469 108.752 107.255 111.005 106.608C113.185 105.919 115.607 105.652 117.974 105.641C122.782 105.662 127.564 106.72 132.593 106.866C133.85 106.902 135.077 106.825 136.377 106.789L137.339 106.66C137.645 106.641 137.994 106.55 138.227 106.489L140.12 106.117C142.491 105.439 144.872 104.576 147.044 103.404C151.418 101.173 155.342 98.2108 159.254 95.4333C163.166 92.6558 167.152 89.9197 171.651 88.1412C172.202 87.8765 172.784 87.7249 173.365 87.5733C173.947 87.4217 174.498 87.157 175.08 87.0054L176.857 86.6638C177.163 86.6446 177.439 86.5122 177.745 86.493L178.665 86.4353C181.043 86.2402 183.461 86.641 185.837 87.1136C190.576 88.2437 195.177 89.7739 199.82 91.2323C202.141 91.9615 204.505 92.619 206.881 93.0916C209.256 93.5642 211.674 93.965 214.189 94.0376L214.2 93.8527C211.802 93.7498 209.384 93.349 206.977 92.7632C204.571 92.1775 202.323 91.4897 199.928 90.7191C195.327 89.1889 190.738 87.4739 185.925 86.3024C183.518 85.7167 181.058 85.3875 178.532 85.4999L177.612 85.5575C177.306 85.5767 176.956 85.6677 176.724 85.7283L174.873 86.0285C174.291 86.1801 173.667 86.4034 173.085 86.555C172.503 86.7066 171.878 86.9299 171.37 87.1229C166.681 88.8903 162.621 91.5849 158.593 94.3928C154.607 97.1289 150.726 100.02 146.394 102.179C144.265 103.279 142 104.112 139.672 104.718L137.896 105.06C137.589 105.079 137.314 105.211 137.007 105.231L136.161 105.33C135.009 105.448 133.752 105.412 132.568 105.417C127.771 105.211 122.989 104.153 117.917 104.079C115.434 104.12 112.865 104.304 110.41 105.126C107.997 105.875 105.666 107.15 103.946 109.053C102.151 110.915 101.2 113.346 100.524 115.644C99.8048 118.014 99.435 120.294 98.685 122.551C98.0513 124.777 97.1537 126.951 96.1397 129.156C95.0946 131.247 94.0494 133.338 92.7403 135.377C90.1647 139.383 87.1152 143.027 83.5606 146.197C80.0061 149.366 76.094 152.144 71.7622 154.303C67.504 156.504 62.7637 157.86 58.4516 160.317C56.3537 161.531 54.2018 163.001 52.6288 164.987L52.0864 165.735C51.916 166.022 51.7456 166.309 51.6179 166.524C51.2771 167.098 51.0527 167.641 50.7545 168.143C50.2631 169.302 50.0356 170.513 49.8819 171.766C49.691 174.241 50.1868 176.719 51.1171 178.963C52.0473 181.207 53.443 183.329 55.0517 185.093C58.3003 188.734 62.324 191.566 66.1888 194.5C67.1365 195.224 68.0416 196.019 68.7878 196.916C69.534 197.813 70.0048 198.842 70.3166 199.974C70.8665 202.195 70.528 204.588 69.7779 206.844C68.3204 211.287 65.1006 215.218 64.0432 219.98C63.5145 222.361 63.5562 224.776 64.0209 227.141C64.4856 229.506 65.4158 231.75 66.7378 233.831C69.1915 237.982 72.7581 241.418 76.6228 244.353C78.5921 245.841 80.5301 247.215 82.542 248.632C84.5539 250.048 86.5345 251.351 88.43 252.797C90.2829 254.316 92.008 256.049 93.0234 258.149C94.0388 260.25 94.0068 262.623 93.901 264.954C93.7952 267.286 93.4141 269.75 94.1427 272.167C94.5283 273.34 95.2205 274.494 96.1568 275.402C97.0931 276.31 98.3162 276.901 99.477 277.266C101.946 278.078 104.503 278.079 107.052 277.597C109.485 277.145 111.866 276.282 114.163 275.562C116.459 274.843 118.787 274.236 121.154 274.226C123.521 274.216 125.896 274.688 128.144 275.376C132.756 276.722 137.035 279.124 141.922 280.336C144.329 280.922 146.821 281.364 149.389 281.18C150.615 281.103 151.927 280.883 153.133 280.508C154.34 280.133 155.484 279.532 156.596 278.818C158.674 277.306 160.279 275.433 161.588 273.394C162.897 271.356 164.058 269.234 165.251 267.225C166.518 265.258 167.858 263.333 169.672 261.769C171.486 260.205 173.479 258.837 175.441 257.355C177.403 255.874 179.228 254.125 180.537 252.087C181.846 250.048 182.787 247.802 183.979 245.793C186.407 241.705 189.426 237.947 192.875 234.623C196.325 231.299 200.101 228.254 204.055 225.405L203.919 225.137Z" fill="#0C2340"/>
<path d="M258.724 111.48L256.35 112.825C255.556 113.336 254.834 113.887 254.187 114.48C252.776 115.697 251.66 117.079 250.502 118.533C248.301 121.41 246.617 124.578 244.743 127.734L241.974 132.396L240.611 134.692C240.142 135.481 239.747 136.311 239.617 137.194C239.443 138.149 239.766 139.095 240.217 139.827C240.7 140.671 241.31 141.301 242.036 141.9C243.531 143.026 245.282 143.722 247.173 144.018C249.063 144.314 250.902 144.198 252.71 143.97C254.561 143.67 256.338 143.328 258.157 142.915C259.976 142.501 261.796 142.088 263.479 141.407C265.236 140.767 266.857 139.86 268.342 138.685C271.238 136.293 273.081 133.024 274.396 129.65C275.711 126.275 276.541 122.724 277.476 119.328C278.002 117.614 278.528 115.901 279.201 114.27C279.874 112.64 280.664 110.979 281.084 109.111C281.462 107.314 281.25 105.187 280.169 103.528C279.571 102.714 278.697 102.032 277.726 101.679C276.756 101.325 275.646 101.372 274.684 101.501C272.717 101.832 271.053 102.811 269.432 103.718L264.643 106.481L259.854 109.245C258.233 110.152 256.717 111.214 255.213 112.091C253.665 113.04 252.056 113.762 250.341 114.33C248.669 114.826 246.861 115.055 245.011 115.355C243.203 115.584 241.278 115.842 239.49 116.369C237.702 116.895 235.902 117.607 234.281 118.514C231.082 120.257 227.809 121.959 224.672 123.928C221.535 125.897 218.546 127.949 215.692 130.269C212.839 132.589 210.238 135.146 207.89 137.94C205.542 140.735 203.342 143.612 201.541 146.81C199.814 150.049 198.604 153.578 198.492 157.245C198.494 159.064 198.687 160.893 199.228 162.632C199.77 164.37 200.618 166.09 201.753 167.492C202.845 168.966 204.414 170.133 206.08 170.973C207.746 171.812 209.667 172.221 211.483 172.476C215.116 172.984 218.888 173.093 222.578 172.678C226.237 172.149 229.93 171.066 232.857 168.787C235.784 166.509 237.879 163.477 240.185 160.754C241.301 159.372 242.491 158.031 243.902 156.815C245.27 155.67 246.891 154.763 248.574 154.082C250.258 153.401 252.046 152.874 253.76 152.306C255.517 151.667 257.243 150.914 258.717 149.924C261.854 147.955 264.349 145.243 266.519 142.252C268.646 139.334 270.446 136.136 272.056 132.927C275.277 126.51 278.203 119.927 280.495 113.084C281.021 111.371 281.325 109.533 281.323 107.715C281.264 106.82 281.131 105.885 280.881 104.98C280.632 104.075 280.033 103.26 279.349 102.59C278.666 101.919 277.78 101.422 276.841 101.182C275.901 100.941 274.908 100.957 273.946 101.087C272.021 101.346 270.327 102.212 268.675 103.006C267.054 103.913 265.58 104.903 263.959 105.811C262.412 106.759 260.834 107.595 259.213 108.502C255.94 110.204 252.678 111.721 249.311 113.083C245.945 114.445 242.504 115.765 239.044 116.788C235.542 117.883 231.976 118.751 228.434 119.249C227.588 119.348 226.68 119.221 225.772 119.094C224.821 119.038 223.828 119.054 222.865 119.184C221.015 119.484 219.226 120.01 217.45 120.352L206.629 122.504C203.033 123.259 199.406 123.901 195.798 124.84C192.19 125.78 188.707 127.173 185.528 129.214C179.211 133.224 174.345 139.1 170.934 145.506C167.48 151.984 165.483 158.993 163.865 166.023C163.078 169.502 162.438 173.065 161.798 176.627C161.537 178.393 161.306 180.272 161.382 182.132C161.458 183.992 161.915 185.874 162.763 187.593C164.342 191.062 167.151 193.787 170.313 195.752C171.893 196.735 173.675 197.544 175.469 198.168C177.262 198.793 179.11 199.16 181 199.456C184.749 199.935 188.533 199.858 192.18 199.515C195.901 199.212 199.529 198.57 203.187 198.042C206.815 197.4 210.485 196.686 214.03 195.52C217.576 194.354 221.027 192.849 224.196 190.993C227.437 189.178 230.469 187.054 233.354 184.847C236.312 182.682 239.091 180.321 241.84 177.847C247.294 172.97 252.169 167.577 256.644 161.863C265.446 150.354 272.279 137.356 276.41 123.607C277.462 120.18 278.292 116.629 279.153 113.191C279.605 111.436 279.866 109.671 279.864 107.852C279.805 106.958 279.672 106.023 279.38 105.189C279.088 104.356 278.605 103.511 277.879 102.912C277.153 102.313 276.139 102.031 275.22 102.089C274.3 102.147 273.369 102.389 272.512 102.673C270.829 103.354 269.239 104.375 267.723 105.437C266.207 106.498 264.839 107.643 263.249 108.664C261.997 109.778 260.345 110.572 258.724 111.48ZM258.829 111.634C260.407 110.799 262.059 110.004 263.649 108.984C265.165 107.922 266.607 106.819 268.08 105.828C269.596 104.767 271.07 103.776 272.827 103.137C273.684 102.853 274.541 102.569 275.461 102.511C276.381 102.454 277.277 102.766 277.973 103.252C278.625 103.809 279.15 104.582 279.442 105.415C279.734 106.249 279.91 107.113 279.895 107.965C279.94 109.712 279.562 111.508 279.153 113.191C278.701 114.946 278.366 116.671 277.84 118.384C277.388 120.139 276.862 121.852 276.337 123.566C271.984 137.19 265.12 150.075 256.139 161.388C251.706 167.03 246.684 172.34 241.272 177.146C238.567 179.548 235.756 181.796 232.798 183.961C229.84 186.127 226.893 188.107 223.767 189.891C220.642 191.676 217.306 193.151 213.846 194.174C210.343 195.268 206.821 196.064 203.236 196.634C199.651 197.205 195.95 197.805 192.345 198.077C188.698 198.421 185.105 198.508 181.472 197.999C179.655 197.745 177.924 197.347 176.278 196.805C174.558 196.223 172.966 195.425 171.533 194.525C168.52 192.642 166.006 190.083 164.52 186.953C163.777 185.389 163.383 183.733 163.295 182.058C163.208 180.383 163.396 178.576 163.731 176.851C164.328 173.36 165.042 169.84 165.756 166.319C167.256 159.319 169.243 152.495 172.611 146.161C175.937 139.898 180.602 134.196 186.643 130.318C189.663 128.379 193.03 127.017 196.521 126.107C200.055 125.126 203.683 124.484 207.279 123.729L218.099 121.577C219.876 121.236 221.664 120.709 223.472 120.481C224.361 120.31 225.238 120.324 226.115 120.338C226.992 120.352 227.974 120.521 228.936 120.392C236.37 119.304 243.282 116.776 250.131 114.021C253.541 112.587 256.845 110.999 260.118 109.297C261.739 108.39 263.317 107.554 264.864 106.606C266.412 105.657 268.001 104.636 269.506 103.759C271.084 102.924 272.736 102.13 274.471 101.86C275.359 101.689 276.236 101.703 277.059 101.974C277.925 102.173 278.662 102.587 279.273 103.216C280.578 104.331 281.003 106.1 281.048 107.847C281.093 109.594 280.757 111.318 280.305 113.073C278.055 119.844 275.203 126.468 271.983 132.886C270.372 136.094 268.614 139.22 266.561 142.181C264.434 145.099 261.981 147.739 258.918 149.75C257.371 150.699 255.719 151.493 254.004 152.061C252.29 152.629 250.502 153.155 248.818 153.836C247.061 154.476 245.44 155.383 244.029 156.6C242.618 157.816 241.429 159.157 240.196 160.569C237.922 163.405 235.795 166.324 232.911 168.531C230.026 170.737 226.45 171.79 222.834 172.247C219.218 172.704 215.531 172.452 211.898 171.943C210.082 171.689 208.319 171.178 206.727 170.38C205.135 169.582 203.756 168.425 202.695 167.064C201.634 165.704 200.817 164.097 200.349 162.4C199.839 160.775 199.647 158.945 199.676 157.24C199.776 153.758 201.018 150.342 202.733 147.288C204.491 144.162 206.649 141.356 209.028 138.675C211.408 135.993 214.008 133.436 216.745 131.147C219.482 128.857 222.471 126.805 225.566 124.908C228.66 123.01 231.859 121.267 235.058 119.524C236.637 118.689 238.246 117.966 239.992 117.511C241.738 117.057 243.472 116.787 245.28 116.558C247.088 116.33 249.012 116.071 250.843 115.473C252.674 114.875 254.326 114.08 255.99 113.101C257.611 112.194 259.127 111.132 260.674 110.183L265.389 107.378L270.105 104.574C271.652 103.625 273.304 102.831 274.964 102.519C275.81 102.42 276.613 102.393 277.363 102.622C278.112 102.851 278.807 103.337 279.227 103.956C280.14 105.233 280.407 107.104 280.04 108.716C279.747 110.369 278.957 112.03 278.284 113.66C277.568 115.362 277.043 117.076 276.591 118.831C275.613 122.299 274.9 125.82 273.627 129.122C272.355 132.425 270.554 135.623 267.891 137.954C266.523 139.098 264.975 140.047 263.261 140.615C261.578 141.296 259.832 141.751 258.012 142.164C254.49 142.96 250.766 143.931 247.207 143.463C245.39 143.209 243.671 142.626 242.249 141.541C241.596 140.983 240.913 140.313 240.462 139.581C240.011 138.85 239.761 137.945 239.849 137.134C239.98 136.251 240.449 135.462 240.801 134.703L242.164 132.407L244.933 127.745C246.765 124.66 248.449 121.493 250.576 118.574C251.618 117.151 252.85 115.738 254.145 114.552C254.792 113.959 255.513 113.407 256.308 112.897L258.829 111.634Z" fill="#0C2340"/>
<path d="M293.387 87.8972C289.371 88.0339 285.471 88.1403 281.477 87.9073C279.502 87.7549 277.527 87.6025 275.636 87.3067C273.673 86.9694 271.794 86.4887 269.915 86.008C266.084 85.0051 262.252 84.0023 258.259 83.7692C254.266 83.5362 250.312 83.8992 246.327 84.1491C238.504 84.7316 230.645 84.0504 222.798 83.1842L199.128 80.801C191.311 80.048 183.359 79.0273 175.335 79.7836C171.381 80.1466 167.319 81.0229 163.592 82.6608C159.791 84.2573 156.589 86.6681 153.262 88.6262C151.598 89.6053 149.977 90.5126 148.104 91.1826C146.347 91.8222 144.485 92.3073 142.56 92.5661C138.785 93.1251 134.854 93.1183 130.892 92.9984C126.93 92.8785 122.968 92.7587 118.94 93.0803C116.942 93.2976 114.901 93.5867 112.923 94.1021C110.944 94.6175 109.059 95.4724 107.279 96.4817C103.751 98.6137 101.011 101.571 98.5661 104.694C96.1213 107.817 94.0142 111.034 91.6547 114.013C86.8929 120.044 81.2146 125.464 74.9065 129.957C71.7894 132.224 68.4197 134.254 65.05 136.284C61.7541 138.356 58.4156 140.499 55.3608 142.992C52.2323 145.444 49.4612 148.288 47.1328 151.381C46.0055 152.948 44.9094 154.628 44.0034 156.319C43.0975 158.011 42.1489 159.774 41.3167 161.506C39.6524 164.971 38.2405 168.674 37.2828 172.44C36.3988 176.248 35.969 180.12 36.4161 184.005C36.6397 185.948 36.9797 187.86 37.5524 189.712C38.1251 191.564 38.9306 193.355 39.7361 195.146C41.2732 198.687 42.5777 202.288 43.3002 206.041C43.6827 207.882 43.8325 209.783 43.7922 211.673C43.8256 213.605 43.5951 215.484 43.4383 217.404C43.2816 219.325 43.1986 221.287 43.496 223.271C43.7934 225.255 44.4825 227.076 45.2879 228.868C46.8989 232.45 48.9868 235.726 50.3338 239.256C51.7546 242.827 52.7098 246.519 53.9291 250.264C55.1171 253.896 56.5265 257.652 58.8045 260.939C59.8853 262.598 61.2841 264.052 62.8845 265.333C64.4848 266.614 66.2556 267.608 68.0377 268.417C71.6758 270.077 75.5383 271.193 79.1567 272.554C82.775 273.916 86.1263 275.892 89.3073 278.156C92.4882 280.42 95.584 282.827 98.7223 285.162C101.903 287.426 105.317 289.629 109.114 291.187C111.013 291.966 112.965 292.488 115.045 292.795C117.126 293.102 119.186 293.11 121.216 293.006C123.288 292.83 125.255 292.5 127.222 292.169L133.092 291.065L144.715 288.885L150.585 287.781C152.478 287.409 154.445 287.078 156.497 286.604C158.476 286.089 160.466 285.389 162.257 284.194C164.048 283 165.482 281.414 166.578 279.734C168.918 276.456 170.435 272.908 172.899 270.083C175.321 267.33 178.691 265.3 181.652 262.467C183.149 261.107 184.509 259.48 185.426 257.604C186.417 255.769 186.954 253.871 187.491 251.972C188.028 250.074 188.449 248.206 189.091 246.462C189.338 245.549 189.733 244.718 190.054 243.847C190.449 243.016 190.77 242.144 191.281 241.283C192.977 237.931 195.157 234.756 197.696 231.972C200.234 229.189 203.215 226.654 206.395 224.613C209.543 222.459 213.247 221.191 216.776 219.059C218.556 218.049 220.2 216.772 221.591 215.258C222.982 213.743 224.152 212.105 225.279 210.538L226.992 208.151C227.204 207.793 227.576 207.332 227.832 206.901C228.088 206.471 228.343 206.041 228.568 205.497C229.442 203.693 229.979 201.794 230.769 200.134C231.164 199.303 231.632 198.514 232.132 197.838L233.004 196.702L233.949 195.606C235.255 194.235 236.635 192.906 238.12 191.731C241.058 189.267 244.428 187.238 247.755 185.279C254.483 181.404 261.728 177.82 267.67 172.452C270.62 169.803 273.255 166.692 275.004 163.083C276.754 159.474 277.638 155.666 278.553 151.972C279.394 148.236 280.321 144.356 280.223 140.38C280.189 138.448 280.113 136.589 280.344 134.709C280.574 132.83 280.879 130.993 281.521 129.249C282.163 127.505 283.069 125.814 284.048 124.164C285.028 122.514 286.008 120.864 286.956 119.101C288.694 115.678 290.875 112.502 292.804 109.089C293.783 107.44 294.732 105.677 295.564 103.944C296.396 102.211 297.197 100.365 297.47 98.4146C297.578 97.9014 297.57 97.4185 297.488 96.8942C297.406 96.3699 297.281 95.9173 297.156 95.4647C296.949 94.4878 296.816 93.5523 296.567 92.6471C295.983 90.9803 295.189 89.0043 293.387 87.8972ZM293.333 88.1538C293.702 88.3609 294.059 88.7529 294.343 89.1034C294.627 89.4539 294.868 89.8762 295.109 90.2984C295.591 91.143 295.84 92.0481 296.047 93.0251C296.297 93.9302 296.387 94.9374 296.563 95.8012C296.688 96.2538 296.77 96.7781 296.821 97.1892C296.872 97.6004 296.88 98.0833 296.772 98.5965C296.468 100.434 295.593 102.239 294.803 103.9C293.971 105.632 292.992 107.282 292.012 108.932C291.032 110.582 289.979 112.19 288.882 113.87C288.371 114.731 287.829 115.479 287.318 116.339L285.901 118.891C284.921 120.541 283.941 122.191 282.919 123.913C281.939 125.562 280.99 127.325 280.232 129.099C279.505 130.987 279.084 132.855 278.885 134.847C278.685 136.839 278.719 138.771 278.679 140.661C278.714 144.411 277.799 148.106 276.841 151.872C275.926 155.566 274.968 159.333 273.273 162.685C271.577 166.037 269.144 168.975 266.206 171.438C263.341 173.943 260.076 176.127 256.749 178.086C253.422 180.044 249.874 181.878 246.473 183.794C243.029 185.783 239.66 187.813 236.488 190.337C234.961 191.583 233.465 192.943 232.116 194.386L231.128 195.553L230.214 196.761C229.555 197.539 229.075 198.513 228.638 199.415C227.763 201.22 227.152 203.077 226.363 204.738C226.15 205.096 225.968 205.568 225.755 205.927C225.542 206.285 225.329 206.644 224.999 207.033C224.414 207.852 223.872 208.6 223.287 209.419C222.16 210.986 221.033 212.553 219.843 213.894C218.537 215.265 217.095 216.368 215.547 217.317C212.337 219.245 208.547 220.657 205.166 222.871C201.754 224.973 198.688 227.651 195.948 230.609C193.282 233.607 190.942 236.885 189.235 240.422C187.38 243.876 186.221 247.816 185.306 251.511C184.811 253.337 184.243 255.123 183.38 256.742C182.517 258.362 181.401 259.744 180.063 261.002C177.346 263.589 173.934 265.691 171.225 268.761C168.548 271.945 166.988 275.564 164.819 278.555C163.808 280.092 162.502 281.463 161.029 282.453C159.555 283.443 157.798 284.083 155.936 284.568C154.074 285.053 152.107 285.383 150.214 285.755L144.418 286.901L132.752 289.152C128.891 289.855 125.02 290.742 121.182 291.075C119.3 291.262 117.356 291.222 115.466 290.927C113.576 290.631 111.771 290.191 109.946 289.454C106.37 288.021 103.136 286.014 99.9546 283.75C96.7736 281.486 93.6779 279.079 90.4543 276.887C87.157 274.654 83.7319 272.636 79.966 271.191C76.2001 269.747 72.4426 268.785 68.8783 267.167C67.0961 266.358 65.4729 265.447 64.0201 264.249C62.4396 263.266 61.1146 261.853 60.0649 260.307C57.8492 257.247 56.471 253.604 55.2404 250.044C54.0524 246.412 52.9495 242.637 51.5288 239.066C50.0768 235.381 47.8725 232.135 46.2928 228.666C45.4447 226.947 44.8294 225.167 44.5632 223.296C44.2544 221.497 44.3374 219.535 44.4941 217.614C44.6508 215.694 44.8076 213.773 44.7742 211.842C44.7407 209.91 44.6335 207.937 44.1772 206.055C43.4973 202.23 42.1191 198.587 40.5081 195.005C39.7026 193.214 38.9284 191.536 38.3556 189.684C37.7829 187.833 37.4004 185.992 37.2506 184.091C36.8346 180.318 37.2644 176.447 38.1058 172.711C39.0209 169.017 40.4639 165.427 42.1283 161.962C43.8664 158.538 45.6472 155.042 47.8592 151.98C50.1876 148.887 52.9161 146.115 55.9594 143.806C59.0454 141.426 62.3413 139.355 65.711 137.325C69.0807 135.295 72.4815 133.378 75.7151 131.081C82.1395 126.557 88.008 121.148 93.0025 115.056C95.4784 112.047 97.7019 108.8 100.061 105.82C102.421 102.841 105.149 100.068 108.36 98.1405C110.024 97.1614 111.707 96.4804 113.569 95.9953C115.431 95.5102 117.282 95.21 119.237 95.0644C123.075 94.7317 126.994 94.9233 130.957 95.0432C134.919 95.1631 138.924 95.2112 143.005 94.633C145.046 94.3439 147.024 93.8285 148.94 93.0868C150.856 92.3452 152.636 91.3358 154.374 90.3981C157.786 88.2965 160.903 86.0292 164.398 84.4519C167.892 82.8746 171.721 82.059 175.559 81.7263C183.319 80.9175 191.197 81.8968 199.056 82.578L222.664 84.735C230.523 85.4162 238.498 86.0672 246.48 85.3826C250.391 85.0913 254.345 84.7283 258.233 84.8068C262.121 84.8852 265.953 85.8881 269.827 86.8192C271.748 87.2282 273.701 87.7503 275.633 87.9745C277.597 88.3117 279.573 88.4641 281.591 88.5447C285.405 88.5818 289.464 88.3734 293.333 88.1538Z" fill="#0C2340"/>
<path d="M242.89 84.8023C239.89 84.553 236.855 84.8583 233.935 85.8011C231.014 86.744 228.439 88.2636 225.802 89.5569C223.165 90.8503 220.422 91.9891 217.513 92.747C214.646 93.4332 211.686 93.78 208.694 94.0136C205.702 94.2472 202.722 94.2959 199.819 93.7183C196.916 93.1407 194.205 91.9064 191.368 90.8873C189.985 90.3984 188.487 89.9399 186.977 89.6663C185.467 89.3926 183.946 89.3038 182.34 89.3585C180.807 89.4546 179.305 89.6639 177.75 90.1297C176.268 90.637 174.922 91.412 173.682 92.3415C171.169 94.0874 169.1 96.0819 166.525 97.6015C164.066 99.0908 161.282 100.301 158.54 101.44L150.271 104.928L146.194 106.657C144.86 107.247 143.495 107.724 142.067 107.975C139.285 108.518 136.351 107.827 133.405 107.321C131.895 107.047 130.416 106.887 128.852 106.87C127.289 106.853 125.744 107.134 124.263 107.641C121.257 108.727 118.807 110.699 116.904 113.075C114.928 115.409 113.616 118.115 112.568 120.874C111.519 123.633 110.809 126.486 110.025 129.298C109.24 132.11 108.382 134.88 107.303 137.526C105.175 142.931 102.415 148.076 98.9902 152.849C97.2779 155.235 95.4919 157.58 93.5271 159.729C91.6361 161.92 89.3762 163.903 87.5476 166.32C86.6332 167.528 85.7927 168.778 85.2473 170.193C84.7019 171.608 84.4204 173.076 84.5193 174.566C84.6181 176.057 85.1399 177.497 85.7042 178.866C86.2686 180.235 86.9919 181.502 87.5563 182.871C88.1206 184.239 88.4949 185.597 88.4461 187.004C88.3974 188.412 87.9684 189.797 87.2442 191.016C85.6795 193.485 83.2097 195.16 80.7399 196.834C79.5418 197.692 78.27 198.508 77.1458 199.407C75.9789 200.378 74.8859 201.391 73.9404 202.486C72.9523 203.653 72.1117 204.902 71.6089 206.246C71.0635 207.662 70.782 209.129 70.8809 210.62C71.0786 213.6 72.4713 216.39 74.4686 218.659C76.3496 220.958 78.7928 222.808 81.3325 224.329C86.3694 227.443 91.906 229.881 96.358 233.815C100.736 237.707 104.095 242.653 105.739 248.167C106.187 249.566 106.445 250.954 106.587 252.372C106.728 253.791 106.901 255.322 107.306 256.793C107.711 258.264 108.54 259.685 109.581 260.748C110.58 261.883 111.896 262.813 113.182 263.63C115.838 265.121 118.792 266.11 121.812 266.657C122.53 266.773 123.322 266.931 124.125 266.903C124.886 266.948 125.646 266.992 126.45 266.965C127.982 266.869 129.558 266.701 131.071 266.307C134.054 265.59 136.807 264.267 139.561 262.943C142.241 261.578 144.878 260.285 147.651 259.259C149.016 258.782 150.456 258.346 151.906 257.726C153.357 257.106 154.671 256.217 155.807 255.133C158.078 252.965 159.612 250.383 161.176 247.914C161.943 246.622 162.741 245.444 163.539 244.266C164.411 243.13 165.356 242.035 166.333 241.053C168.403 239.058 170.725 237.301 173.257 235.853C178.321 232.957 184.004 231.174 189.823 229.658C192.733 228.9 195.631 228.327 198.583 227.497C201.535 226.668 204.382 225.683 207.093 224.431C212.589 221.969 217.761 218.56 221.85 214.16C223.931 211.981 225.612 209.481 227.071 206.857C228.457 204.192 229.653 201.516 230.954 198.994C232.297 196.401 233.893 194.045 236.037 192.092C238.18 190.139 240.681 188.578 243.182 187.017L258.169 177.352C260.638 175.678 263.213 174.159 265.609 172.443C268.005 170.727 270.382 168.714 272.168 166.369C274.028 164.065 275.53 161.37 276.578 158.611C277.626 155.852 278.115 152.874 278.298 149.916C278.481 146.958 278.431 144.061 278.644 141.216C278.736 139.737 278.901 138.299 279.213 136.944C279.569 135.518 279.998 134.133 280.501 132.789C282.554 127.343 285.8 122.374 287.633 116.803L287.485 116.721C285.579 122.25 282.185 127.136 280.015 132.612C279.512 133.956 278.967 135.372 278.686 136.839C278.33 138.266 278.165 139.704 278 141.141C277.744 144.058 277.794 146.955 277.537 149.872C277.324 152.717 276.803 155.581 275.798 158.268C274.792 160.956 273.301 163.466 271.484 165.698C267.881 170.275 262.552 173.118 257.581 176.353L242.49 185.863C239.989 187.424 237.372 189.015 235.112 190.999C232.809 193.054 231.012 195.584 229.668 198.177C228.209 200.801 227.013 203.477 225.712 205.999C224.369 208.592 222.699 210.907 220.734 213.056C216.847 217.282 211.834 220.589 206.455 223.021C203.786 224.201 201.013 225.227 198.177 226.026C195.342 226.826 192.37 227.357 189.46 228.115C183.641 229.631 177.769 231.404 172.503 234.473C169.854 235.951 167.373 237.811 165.26 239.877C164.167 240.889 163.179 242.056 162.339 243.306C161.424 244.514 160.658 245.805 159.933 247.025C158.369 249.494 156.878 252.004 154.851 253.927C153.8 254.868 152.645 255.654 151.311 256.244C149.976 256.834 148.58 257.198 147.172 257.747C141.393 259.858 136.558 263.361 130.855 264.847C129.459 265.211 127.957 265.42 126.541 265.486C125.854 265.483 125.051 265.51 124.407 265.435C123.646 265.391 123.002 265.316 122.21 265.159C119.338 264.694 116.457 263.747 113.949 262.339C111.44 260.931 109.241 258.836 108.45 256.192C108.076 254.834 107.934 253.416 107.719 251.956C107.504 250.496 107.215 248.995 106.767 247.596C105.018 241.927 101.437 236.857 96.9855 232.924C92.4598 228.949 86.8806 226.582 81.8011 223.54C79.2614 222.019 76.892 220.21 75.0422 218.024C73.1923 215.838 71.7571 213.12 71.5906 210.253C71.5229 208.876 71.7306 207.366 72.3072 206.064C72.81 204.721 73.608 203.542 74.596 202.376C75.5415 201.28 76.6346 200.268 77.7589 199.369C78.8831 198.47 80.1549 197.653 81.3529 196.795C82.551 195.938 83.8228 195.121 84.9896 194.15C86.1565 193.179 87.1758 192.125 88.0163 190.876C88.8568 189.626 89.2547 188.128 89.2722 186.607C89.2897 185.087 88.8843 183.616 88.3938 182.289C87.8294 180.92 87.1487 179.581 86.5417 178.284C85.9347 176.987 85.4868 175.588 85.3453 174.169C85.1788 171.302 86.491 168.596 88.3082 166.364C90.1254 164.132 92.3115 162.107 94.3189 159.887C96.3263 157.666 98.1861 155.362 99.8984 152.976C103.323 148.203 106.242 142.956 108.486 137.52C109.608 134.803 110.583 132.002 111.367 129.191C112.151 126.379 112.936 123.567 114.015 120.922C115.021 118.234 116.364 115.641 118.255 113.45C120.072 111.219 122.395 109.462 125.051 108.466C126.417 107.989 127.802 107.81 129.218 107.745C130.666 107.792 132.144 107.952 133.581 108.185C135.017 108.417 136.526 108.691 138.079 108.892C139.631 109.094 141.195 109.111 142.782 108.759C144.326 108.478 145.777 107.857 147.185 107.309L151.304 105.508L159.499 101.979C162.241 100.84 165.026 99.6292 167.569 97.9964C170.187 96.4051 172.373 94.3803 174.769 92.6647C175.967 91.8069 177.196 91.0622 178.519 90.657C179.884 90.1801 181.312 89.9294 182.802 89.905C184.218 89.8393 185.74 89.928 187.176 90.1603C188.612 90.3925 190.036 90.8096 191.418 91.2985C194.225 92.2044 197.009 93.4801 200.029 94.0274C203.049 94.5748 206.145 94.4957 209.137 94.2621C212.171 93.9567 215.131 93.61 218.041 92.852C220.95 92.0941 223.735 90.8836 226.415 89.5185C229.095 88.1534 231.596 86.5924 234.443 85.6082C237.216 84.5825 240.25 84.2772 243.25 84.5265L242.89 84.8023Z" fill="#0C2340"/>
</svg>
