<svg width="439" height="444" viewBox="0 0 439 444" fill="none" xmlns="http://www.w3.org/2000/svg">
<path d="M297.574 153.429C292.826 151.403 287.494 150.98 282.331 150.385C280.385 150.193 278.353 149.921 276.572 149.057C273.008 147.162 271.461 142.87 271.015 138.878C270.569 134.887 270.883 130.705 269.592 126.906C267.526 120.627 261.411 116.389 255.056 114.412C248.616 112.437 241.764 112.393 235.079 111.927C231.017 111.633 226.616 111.098 223.808 108.263C221.937 106.483 220.907 103.928 219.709 101.628C223.121 106.531 229.395 109.095 235.49 109.829C242.346 110.623 249.276 109.58 256.128 109.707C263.995 109.803 273.225 111.527 277.327 118.746C279.036 121.781 279.649 125.351 281.021 128.647C286.854 142.655 307.607 147.703 307.367 164.732C307.366 164.648 307.366 164.565 307.365 164.398C306.49 159.418 302.323 155.455 297.574 153.429Z" fill="#FFF666"/>
<path d="M307.03 164.826L307.791 164.803C307.816 154.622 300.676 148.58 293.707 142.783C288.776 138.593 283.677 134.324 281.19 128.559C280.675 127.239 280.159 125.836 279.813 124.512C279.21 122.527 278.521 120.462 277.496 118.657C273.223 111.11 263.486 109.485 256.042 109.459C253.505 109.452 250.883 109.532 248.346 109.692C244.118 109.903 239.721 110.119 235.404 109.582C228.463 108.79 222.863 105.788 219.878 101.539L219.288 101.891C219.545 102.384 219.802 102.877 220.058 103.37C220.999 105.177 221.941 107.151 223.471 108.523C226.449 111.437 231.019 111.967 234.997 112.264C236.181 112.312 237.366 112.443 238.635 112.488C244.051 112.825 249.72 113.155 254.973 114.748C262.091 116.953 267.446 121.464 269.339 126.997C270.2 129.558 270.3 132.308 270.485 134.973C270.577 136.305 270.585 137.64 270.761 138.886C271.117 141.796 272.247 147.102 276.489 149.31C278.356 150.339 280.556 150.522 282.333 150.719L283.265 150.858C288.005 151.382 292.998 151.899 297.407 153.768C302.665 156.029 306.24 160.01 307.028 164.575C307.029 164.659 307.029 164.659 307.029 164.742L307.03 164.826ZM252.747 110.143C253.847 110.11 254.862 110.079 255.962 110.129C263.236 110.16 272.804 111.79 276.821 119.012C277.847 120.816 278.45 122.801 279.053 124.701C279.484 126.024 279.915 127.512 280.515 128.829C283.002 134.762 288.187 139.111 293.202 143.299C299.407 148.535 305.357 153.528 306.671 161.249C305.128 157.791 301.897 154.885 297.657 153.093C293.163 151.143 288.169 150.626 283.345 150.188L282.33 150.052C280.637 149.852 278.436 149.669 276.739 148.719C272.836 146.667 271.708 141.611 271.353 138.785C271.176 137.539 271.169 136.204 271.076 134.872C270.891 132.124 270.791 129.373 269.93 126.729C268.036 121.029 262.51 116.273 255.138 113.992C249.8 112.401 244.131 112.072 238.631 111.737C237.446 111.689 236.261 111.558 235.077 111.511C231.184 111.211 226.868 110.757 223.976 108.008C222.87 106.956 222.101 105.644 221.417 104.33C224.734 107.484 229.652 109.588 235.323 110.252C239.64 110.789 244.038 110.573 248.35 110.359C249.788 110.316 251.31 110.186 252.747 110.143Z" fill="#FFF666"/>
<path d="M141.921 340.861C143.359 340.818 144.964 340.519 146.321 341.146C147.679 341.856 148.364 343.42 149.721 344.047C151.079 344.757 152.852 344.286 154.201 343.411C155.549 342.536 156.557 341.337 157.735 340.217C159.754 338.404 162.115 336.998 164.732 336.168C171.909 333.948 175.016 330.016 179.125 323.801C186.002 313.581 194.153 304.323 203.495 296.198C208.545 291.79 213.85 287.708 218.22 282.737C224.773 275.113 228.778 265.563 231.005 255.817C233.976 242.961 235.417 228.816 232.805 216.045C231.5 209.66 229.016 204.311 227.457 198.017C226.678 194.953 224.043 192.697 221.242 191.112C218.442 189.528 215.389 188.285 213.009 186.188C209.183 182.799 207.29 177.265 202.792 174.731C201.095 173.781 199.062 173.342 197.199 172.897C194.065 172.241 190.847 171.504 187.635 171.851C184.506 172.112 181.468 173.289 178.6 174.627C175.563 176.054 172.527 177.564 169.747 179.484C165.281 182.455 161.412 186.243 157.543 190.032C150.645 196.665 143.748 203.465 138.635 211.462C138.882 210.37 139.215 209.359 139.547 208.347C140.967 205.134 143.149 202.231 144.992 199.172C145.998 197.556 146.834 195.778 147.585 194.004C149.264 191.867 151.029 189.894 152.964 188.084C154.73 186.362 156.496 184.64 158.262 182.834C159.692 181.372 161.121 179.827 162.465 178.285C164.991 176.206 167.942 174.532 170.895 173.274C177.729 170.315 184.056 167.287 188.078 160.74C191.597 154.96 194.858 148.353 201.695 145.894C207.688 143.711 214.629 144.586 220.226 147.087C224.891 149.199 228.803 153.003 230.27 157.881C231.908 163.339 230.503 168.888 234.674 173.435C237.994 177.089 243.247 178.6 248.156 179.119C253.827 179.782 259.661 179.439 265.167 180.775C268.131 181.436 271.441 183.339 271.12 186.352C270.96 187.943 269.783 189.23 268.606 190.35C266.334 192.421 263.807 194.25 261.109 195.833C257.99 197.596 254.447 199.205 252.773 202.426C247.336 212.937 265.97 217.214 267.288 225.768C267.64 228.177 266.809 230.706 265.638 232.91C260.032 243.593 249.073 250.015 247.115 262.507C246.217 268.041 245.73 271.56 241.525 275.859C231.856 285.83 222.186 295.717 212.431 305.691C208.058 310.078 210.5 308.169 206.127 312.556C197.12 320.087 196.908 327.269 190.002 332.568C188.738 333.357 187.473 334.063 186.21 334.935C181.407 338.084 176.945 341.807 171.715 344.301C166.907 346.532 161.669 347.608 156.689 349.594C151.204 351.762 146.317 355.08 141.345 358.318C138.046 358.25 135.828 354.98 133.615 352.627C130.466 349.301 131.651 334.747 131.372 330.416C131.581 337.335 137.354 340.916 141.921 340.861Z" fill="#FFF666"/>
<path d="M144.347 292.226C146.45 290.244 148.553 288.261 151.168 286.931C153.697 285.603 156.824 285.008 159.452 286.013C160.384 286.402 161.233 286.96 161.746 287.779C162.343 288.763 162.351 290.014 162.357 291.099C162.38 295.019 162.403 299.024 162.51 302.942C162.537 307.614 162.485 313.206 160.226 317.446C159.808 318.293 159.304 319.059 158.802 319.909C157.796 321.525 156.79 323.057 156.039 324.832C154.702 327.709 153.705 330.743 152.029 333.464C150.436 336.015 147.996 338.258 145.025 336.429C142.649 334.999 141.448 332.198 140.587 329.47C140.499 328.889 140.411 328.391 140.323 327.81C139.536 323.244 137.903 318.788 136.861 314.23C136.595 311.985 136.412 309.738 136.23 307.49C136.227 306.906 136.139 306.325 136.135 305.658C136.293 303.65 136.789 301.716 137.709 299.936C139.299 296.968 141.907 294.553 144.347 292.226Z" fill="#FFF666"/>
<path d="M307.711 165.64C308.324 154.774 300.845 148.492 293.535 142.371C288.52 138.1 283.335 133.751 280.848 127.902C280.248 126.585 279.817 125.179 279.386 123.774C278.782 121.789 278.094 119.724 277.068 117.836C272.794 110.205 262.888 108.502 255.275 108.481C252.653 108.477 250.031 108.556 247.495 108.716C243.182 108.93 238.7 109.148 234.383 108.611C226.511 107.681 220.23 103.949 217.662 98.6861L216.988 99.0403C219.726 104.548 226.177 108.358 234.303 109.365C238.704 109.816 243.27 109.595 247.583 109.381C250.12 109.221 252.741 109.142 255.364 109.146C262.723 109.174 272.375 110.802 276.478 118.188C277.503 119.992 278.107 122.06 278.711 124.044C279.142 125.45 279.573 126.855 280.173 128.256C282.746 134.269 288.015 138.699 293.031 143.054C300.511 149.336 307.482 155.3 306.95 165.746L307.711 165.64Z" fill="#0C2340"/>
<path d="M151.333 344.833C152.433 344.8 153.53 344.349 154.372 343.823C155.384 343.209 156.14 342.351 156.981 341.575C157.318 341.231 157.654 340.887 157.991 340.543C159.926 338.733 162.286 337.326 164.819 336.582C172.165 334.275 175.355 330.173 179.465 324.125C186.342 313.905 194.493 304.647 203.751 296.524C205.013 295.402 206.276 294.362 207.538 293.239C211.326 290.038 215.198 286.75 218.475 282.98C224.525 276.039 228.87 266.896 231.345 255.974C234.809 240.767 235.408 227.315 233.144 216.036C232.446 212.469 231.328 209.165 230.209 205.945C229.349 203.384 228.488 200.74 227.795 198.007C227.103 195.358 224.974 192.919 221.41 190.857C220.561 190.382 219.713 189.907 218.865 189.516C216.913 188.49 214.877 187.467 213.262 186.014C211.646 184.56 210.367 182.763 209.173 181.047C207.467 178.595 205.676 176.063 202.96 174.56C201.178 173.529 199.146 173.173 197.198 172.731C194.065 172.075 190.846 171.337 187.549 171.687C184.336 171.951 181.214 173.213 178.43 174.466C174.887 176.075 172.02 177.663 169.492 179.325C164.942 182.382 161.073 186.171 157.204 189.875C149.802 197.108 142.063 204.601 136.787 213.688L137.381 214.004C142.573 204.919 150.227 197.512 157.629 190.363C161.414 186.661 165.368 182.87 169.749 179.901C172.277 178.239 175.06 176.737 178.603 175.128C181.387 173.876 184.34 172.618 187.468 172.357C190.681 172.093 193.815 172.75 196.864 173.409C198.727 173.853 200.675 174.211 202.372 175.161C204.918 176.586 206.538 178.957 208.329 181.406C209.608 183.203 210.888 185.084 212.503 186.537C214.204 188.071 216.24 189.094 218.276 190.118C219.124 190.593 219.973 190.984 220.821 191.459C224.216 193.443 226.259 195.717 226.866 198.202C227.559 201.018 228.42 203.662 229.281 206.223C230.314 209.362 231.433 212.666 232.214 216.231C234.478 227.427 233.879 240.795 230.414 255.919C227.939 266.757 223.677 275.73 217.712 282.669C214.435 286.439 210.563 289.727 206.859 292.843C205.596 293.882 204.334 295.005 203.072 296.128C193.73 304.253 185.494 313.596 178.617 323.817C174.508 329.865 171.569 333.709 164.393 336.011C161.775 336.841 159.246 338.253 157.227 340.149C156.891 340.493 156.554 340.837 156.218 341.181C155.377 341.957 154.704 342.729 153.777 343.341C152.682 344.041 150.993 344.593 149.636 343.883C149.042 343.567 148.532 343.082 148.021 342.513C147.51 341.945 146.914 341.295 146.236 340.982C145.133 340.431 143.949 340.55 142.765 340.586C142.427 340.596 142.004 340.609 141.666 340.619C137.521 340.661 131.667 337.5 131.54 330.244L130.779 330.267C130.904 337.273 136.342 341.447 141.586 341.372C141.924 341.362 142.347 341.349 142.685 341.339C143.784 341.223 144.883 341.189 145.732 341.664C146.326 341.98 146.836 342.465 147.347 343.034C147.858 343.603 148.369 344.171 149.132 344.566C150.064 344.704 150.741 344.851 151.333 344.833Z" fill="#0C2340"/>
<path d="M206.466 312.629C208.652 310.394 209.156 309.795 209.66 309.195C210.164 308.596 210.668 307.997 212.77 305.764C223.954 294.329 233.203 284.871 241.864 275.932C246.068 271.55 246.64 268.028 247.539 262.577L247.537 262.327C248.762 254.78 253.215 249.473 257.92 243.991C260.86 240.564 263.885 236.968 266.06 232.814C267.482 230.018 268.06 227.664 267.709 225.505C267.181 221.85 263.527 218.956 259.958 216.144C254.859 212.126 250.101 208.348 253.196 202.413C254.534 199.786 257.317 198.284 260.015 196.784C260.436 196.521 260.942 196.255 261.364 195.992C264.061 194.409 266.588 192.58 268.86 190.426C270.038 189.306 271.298 187.932 271.542 186.256C271.863 183.243 268.637 181.087 265.333 180.269C261.86 179.456 258.307 179.313 254.838 179.084C252.722 178.981 250.438 178.883 248.322 178.613C242.312 177.877 237.903 176.008 235.094 173.005C232.455 170.164 232.098 166.838 231.739 163.344C231.559 161.43 231.294 159.519 230.776 157.616C229.395 152.985 225.565 148.845 220.477 146.579C214.286 143.845 207.263 143.39 201.607 145.396C195.361 147.671 192.094 153.193 188.911 158.546C188.576 159.14 188.157 159.82 187.822 160.414C183.968 166.789 177.811 169.811 170.807 172.776C165.069 175.202 160.438 178.763 158.007 182.591L158.601 182.991C160.949 179.332 165.496 175.857 171.065 173.52C178.237 170.466 184.394 167.36 188.417 160.814C188.751 160.219 189.17 159.539 189.505 158.945C192.605 153.678 195.787 148.242 201.865 146.139C207.352 144.138 214.121 144.601 220.143 147.34C224.977 149.53 228.722 153.506 230.016 157.972C230.535 159.876 230.799 161.703 230.979 163.617C231.338 167.194 231.697 170.688 234.506 173.69C237.4 176.857 241.979 178.805 248.158 179.536C250.359 179.803 252.558 179.904 254.758 180.004C258.227 180.15 261.781 180.376 265.169 181.109C268.218 181.851 271.105 183.683 270.866 186.277C270.705 187.7 269.528 188.987 268.435 190.021C266.163 192.093 263.72 193.919 261.022 195.418C260.601 195.682 260.095 195.947 259.673 196.21C256.891 197.796 254.025 199.385 252.603 202.181C249.257 208.623 254.525 212.803 259.539 216.824C262.938 219.558 266.507 222.371 267.034 225.776C267.384 227.768 266.805 230.038 265.467 232.665C263.291 236.736 260.351 240.246 257.41 243.672C252.874 249.066 248.085 254.634 246.861 262.431L246.863 262.681C245.964 268.132 245.476 271.484 241.439 275.611C232.779 284.55 223.529 294.008 212.345 305.443C210.159 307.678 209.655 308.278 209.151 308.877C208.647 309.476 208.143 310.076 206.041 312.308L206.466 312.629Z" fill="#0C2340"/>
<path d="M154.286 343.575C156.559 341.755 159.257 340.171 162.045 339.67C163.482 339.46 164.92 339.416 166.442 339.287C167.964 339.241 169.569 338.942 171.004 338.398C172.523 337.852 173.957 337.057 175.135 336.02C176.398 334.981 177.321 333.785 178.33 332.67C180.262 330.359 182.109 327.967 183.872 325.577C185.634 323.188 187.312 320.801 189.245 318.573C191.093 316.348 193.111 314.368 195.299 312.466C199.676 308.662 204.563 305.344 209.534 302.023C211.977 300.364 214.505 298.703 216.948 296.877C219.391 295.134 221.833 293.308 224.189 291.234C225.368 290.198 226.546 289.161 227.639 287.96C228.227 287.358 228.731 286.758 229.235 286.159C229.739 285.476 230.242 284.794 230.745 284.028C232.59 281.135 233.502 277.937 234.246 274.994C234.99 272.051 235.566 269.28 236.482 266.749C236.898 265.485 237.483 264.383 238.153 263.194C238.823 262.006 239.577 260.815 240.416 259.538C243.517 254.688 247.465 249.813 249.627 243.49C250.624 240.373 251.027 236.856 250.67 233.613C250.397 230.367 249.45 227.391 248.588 224.581C246.694 218.964 244.719 213.767 245.282 208.743C245.522 206.4 246.607 203.864 247.69 201.078C248.774 198.291 250.024 195.166 249.919 191.498C249.909 189.746 249.474 187.673 248.11 185.962C246.832 184.249 244.965 183.304 243.27 182.771C241.576 182.238 240.052 182.034 238.528 181.829L236.412 181.476L234.294 181.039C231.331 180.461 228.621 180.042 226.922 178.675C226.157 178.031 225.559 177.131 225.3 176.221C225.041 175.228 225.118 173.89 225.279 172.467C225.44 171.044 225.685 169.534 225.59 167.785C225.496 166.119 224.892 164.051 223.446 162.676C220.64 160.174 217.171 160.029 215.134 158.839C214.031 158.288 213.096 157.398 212.328 156.337C211.987 155.847 211.646 155.356 211.389 154.78C211.132 154.204 210.959 153.541 210.616 152.717C210.273 151.893 209.507 151.082 208.743 150.688C207.979 150.21 207.131 149.902 206.369 149.758C204.676 149.476 203.07 149.607 201.549 149.987C198.508 150.746 195.642 152.335 193.541 154.735C191.525 157.132 190.442 160.085 190.205 163.012L190.544 163.086C190.951 160.236 192.118 157.364 194.136 155.217C196.154 153.07 198.937 151.651 201.725 151.067C203.161 150.773 204.683 150.727 206.038 151.02C207.394 151.396 208.751 152.106 209.266 153.425C209.524 154.085 209.697 154.748 209.955 155.491C210.213 156.15 210.555 156.808 210.981 157.462C211.834 158.605 212.94 159.739 214.213 160.452C215.486 161.248 216.927 161.622 218.283 162.165C219.639 162.624 220.996 163.251 222.017 164.221C223.037 165.192 223.468 166.597 223.561 168.013C223.654 169.429 223.324 170.857 223.163 172.364C223.003 173.787 222.842 175.294 223.104 176.788C223.367 178.282 224.22 179.591 225.326 180.559C227.705 182.49 230.753 182.899 233.632 183.563C236.513 184.31 239.474 184.471 242.271 185.388C243.627 185.847 244.9 186.56 245.752 187.702C246.604 188.845 246.951 190.253 246.959 191.671C247.078 197.508 242.877 202.558 242.151 208.504C241.509 214.531 243.74 220.138 245.464 225.593C246.325 228.32 247.103 231.134 247.373 234.046C247.644 236.875 247.322 239.805 246.408 242.586C244.579 248.148 240.97 252.93 237.7 257.951C236.107 260.419 234.515 263.054 233.601 265.835C232.602 268.619 232.111 271.554 231.367 274.413C230.706 277.27 229.792 280.051 228.284 282.6C226.776 285.065 224.589 287.217 222.401 289.202C217.856 293.094 213.055 296.493 208.169 299.979C203.283 303.464 198.397 306.949 194.022 310.919C191.834 312.904 189.732 315.054 187.885 317.446C186.037 319.754 184.36 322.225 182.598 324.698C180.92 327.168 179.242 329.555 177.395 331.864C176.471 332.976 175.547 334.172 174.453 335.123C173.359 336.074 172.095 336.863 170.745 337.405C168.045 338.571 164.998 338.329 162.041 338.919C159.085 339.676 156.472 341.34 154.2 343.328L154.286 343.575Z" fill="#1F33FF"/>
<path d="M147.333 194.428C149.338 190.029 151.173 185.468 152.415 180.841C153.741 176.212 154.559 171.348 154.615 166.507C154.686 164.085 154.334 161.676 154.405 159.337C154.476 156.999 155.139 154.726 156.057 152.529C156.975 150.332 158.062 148.129 158.809 145.77C159.642 143.409 159.881 140.899 159.951 138.477C160.022 136.055 159.839 133.641 159.994 131.3C160.065 128.961 160.39 126.615 161.393 124.499C162.396 122.383 163.993 120.582 165.931 119.355C167.869 118.045 170.147 117.142 172.427 116.489C174.707 115.836 177.074 115.431 179.524 115.023C181.89 114.618 184.341 114.21 186.791 113.636C189.156 113.064 191.603 112.156 193.71 110.84C195.902 109.523 197.668 107.717 199.264 105.833C200.861 104.033 202.372 102.068 204.139 100.429C205.906 98.8741 207.929 97.5614 210.209 96.9919C211.307 96.7085 212.491 96.6727 213.592 96.8898C214.693 97.1069 215.711 97.5768 216.561 98.3021C218.261 99.7527 219.289 101.975 220.401 104.11C220.999 105.177 221.513 106.246 222.28 107.224C223.046 108.202 223.897 109.095 225.001 109.729C227.123 111.083 229.579 111.593 231.95 111.939C236.774 112.461 241.68 112.479 246.42 113.004C251.16 113.528 255.987 114.551 260.145 116.845C262.266 117.949 264.135 119.395 265.752 121.098C267.369 122.801 268.565 124.851 269.34 127.081C270.029 129.313 270.212 131.727 270.395 134.058C270.493 136.475 270.592 138.891 271.113 141.212C271.634 143.533 272.578 145.924 274.28 147.708C275.131 148.6 276.235 149.318 277.337 149.785C278.524 150.25 279.71 150.465 280.979 150.593C285.804 151.198 290.628 151.553 295.119 153.087C297.408 153.852 299.528 154.873 301.312 156.237C303.182 157.683 304.714 159.389 305.741 161.444C306.254 162.429 306.599 163.587 306.69 164.669C306.694 165.253 306.866 165.832 306.784 166.335C306.786 166.585 306.788 166.919 306.789 167.169L306.709 168.006C306.384 170.269 305.382 172.469 304.209 174.506C301.781 178.668 298.503 182.272 295.905 186.439C293.222 190.608 291.218 195.091 289.722 199.725C288.226 204.36 287.493 209.221 287.267 214.068C287.197 216.49 287.295 218.906 287.479 221.321C287.746 223.732 288.183 226.139 288.789 228.457C289.31 230.861 290.169 233.088 290.774 235.322C291.379 237.557 291.646 239.885 291.236 242.067C290.825 244.249 289.654 246.37 288.056 248.087C286.544 249.802 284.607 251.279 282.584 252.508C278.453 254.969 273.81 256.527 269.426 258.996C268.33 259.613 267.319 260.311 266.223 261.012L265.466 261.619C265.213 261.793 264.961 262.051 264.792 262.223L263.362 263.518C261.681 265.321 260.085 267.288 258.828 269.412C256.23 273.579 254.396 278.14 252.476 282.537C250.556 286.934 248.551 291.333 245.613 295.177C245.278 295.688 244.857 296.118 244.437 296.547C244.016 296.977 243.681 297.488 243.26 297.918L241.914 299.127C241.661 299.301 241.494 299.557 241.241 299.731L240.483 300.255C238.545 301.648 236.267 302.551 233.987 303.371C229.344 304.846 224.613 305.907 219.883 307.051C217.518 307.623 215.153 308.279 212.874 309.098C210.595 309.918 208.316 310.821 206.124 312.056L206.21 312.22C208.318 311.072 210.597 310.168 212.961 309.429C215.325 308.691 217.605 308.121 220.055 307.547C224.786 306.486 229.602 305.59 234.33 304.112C236.694 303.373 238.972 302.386 241.079 300.988L241.837 300.464C242.09 300.29 242.342 300.032 242.51 299.86L243.941 298.648C244.362 298.218 244.782 297.705 245.202 297.275C245.623 296.845 246.043 296.332 246.378 295.905C249.485 291.973 251.574 287.571 253.579 283.088C255.583 278.689 257.418 274.211 260.017 270.127C261.274 268.087 262.785 266.206 264.467 264.486L265.814 263.277C266.066 263.103 266.234 262.847 266.487 262.673L267.16 262.152C268.087 261.456 269.183 260.839 270.194 260.225C274.41 257.928 279.054 256.369 283.437 253.817C285.544 252.502 287.65 251.02 289.331 249.05C291.011 247.164 292.352 244.87 292.845 242.352C293.422 239.832 292.984 237.258 292.379 234.94C291.773 232.539 290.914 230.395 290.394 228.075C289.789 225.84 289.437 223.514 289.169 221.103C288.986 218.772 288.804 216.441 288.874 214.019C289.016 209.259 289.75 204.564 291.162 200.016C292.573 195.467 294.493 191.07 297.092 186.987C299.606 182.906 302.968 179.3 305.396 174.971C306.568 172.85 307.654 170.481 307.978 167.968L308.057 167.048C308.055 166.714 308.053 166.38 308.052 166.13C308.048 165.463 307.96 164.881 307.957 164.297C307.78 163.051 307.351 161.896 306.837 160.743C305.724 158.524 304.022 156.656 302.068 155.213C300.114 153.77 297.824 152.671 295.536 151.989C290.875 150.545 285.967 150.192 281.143 149.67C279.958 149.539 278.773 149.325 277.671 148.941C276.569 148.557 275.635 147.917 274.784 147.109C273.168 145.489 272.224 143.264 271.704 140.944C270.662 136.386 271.394 131.358 269.845 126.732C269.07 124.419 267.79 122.371 266.172 120.585C264.555 118.798 262.601 117.355 260.395 116.253C256.153 113.962 251.325 112.856 246.501 112.334C244.046 112.074 241.677 111.895 239.223 111.719C236.769 111.543 234.4 111.448 232.03 111.185C229.659 110.84 227.288 110.244 225.335 108.968C223.382 107.692 222.186 105.642 221.074 103.589C219.963 101.537 219.019 99.2292 217.148 97.5334C216.213 96.7272 215.025 96.0956 213.755 95.8002C212.484 95.5048 211.132 95.629 209.949 95.9151C207.415 96.4922 205.223 97.81 203.288 99.5372C201.436 101.178 199.841 103.146 198.244 104.946C196.647 106.747 194.965 108.466 192.943 109.695C190.92 110.925 188.64 111.744 186.36 112.314C181.715 113.539 176.81 113.687 171.997 115.167C169.633 115.906 167.27 116.812 165.164 118.294C164.153 118.992 163.142 119.857 162.302 120.8C161.462 121.743 160.791 122.848 160.206 124.034C159.205 126.401 158.796 128.833 158.725 131.255C158.655 133.676 158.753 136.093 158.767 138.429C158.696 140.768 158.54 143.109 157.792 145.384C157.044 147.659 156.042 149.859 155.124 152.14C154.207 154.42 153.545 156.86 153.474 159.282C153.403 161.704 153.756 164.113 153.769 166.449C153.797 171.204 153.148 175.98 151.906 180.606C150.664 185.233 148.998 189.789 147.079 194.269L147.333 194.428Z" fill="#0C2340"/>
<path d="M158.972 320.071L160.311 317.694C160.729 316.847 161.063 316.003 161.312 315.161C161.894 313.391 162.137 311.631 162.38 309.788C162.782 306.188 162.592 302.606 162.571 298.936L162.54 293.513L162.524 290.843C162.519 289.926 162.429 289.011 162.086 288.186C161.742 287.279 160.977 286.635 160.214 286.24C159.365 285.765 158.518 285.541 157.587 285.402C155.725 285.208 153.866 285.514 152.094 286.235C150.322 286.956 148.805 288.003 147.374 289.131C145.943 290.343 144.596 291.551 143.25 292.844C141.904 294.136 140.559 295.428 139.467 296.879C138.292 298.333 137.37 299.947 136.704 301.719C135.456 305.261 135.562 309.013 136.175 312.582C136.788 316.151 137.907 319.622 138.857 323.015C139.29 324.754 139.723 326.493 139.987 328.237C140.251 329.981 140.431 331.812 141.033 333.629C141.635 335.363 142.914 337.077 144.695 337.941C145.628 338.33 146.729 338.464 147.742 338.266C148.756 338.069 149.683 337.456 150.441 336.85C151.956 335.552 152.877 333.856 153.798 332.242L156.477 327.406L159.155 322.569C160.076 320.955 160.828 319.264 161.665 317.737C162.501 316.126 163.508 314.677 164.684 313.307C165.861 312.02 167.293 310.892 168.724 309.68C170.155 308.552 171.67 307.339 172.931 305.965C174.192 304.592 175.367 303.055 176.289 301.442C178.131 298.299 180.059 295.153 181.731 291.849C183.404 288.544 184.907 285.245 186.156 281.786C187.405 278.327 188.315 274.795 188.886 271.19C189.457 267.585 189.859 263.985 189.754 260.317C189.563 256.651 188.781 253.003 186.986 249.804C186.047 248.247 184.938 246.778 183.578 245.568C182.218 244.357 180.605 243.321 178.909 242.705C177.214 242.005 175.267 241.813 173.407 241.953C171.547 242.093 169.69 242.733 168.002 243.451C164.627 244.888 161.339 246.74 158.391 248.998C155.529 251.337 152.923 254.169 151.59 257.631C150.256 261.092 150.024 264.77 149.452 268.292C149.209 270.052 148.881 271.814 148.299 273.584C147.716 275.27 146.795 276.883 145.704 278.335C144.613 279.786 143.352 281.159 142.176 282.53C141 283.984 139.909 285.518 139.157 287.126C137.485 290.431 136.744 294.041 136.427 297.722C136.11 301.32 136.215 304.988 136.49 308.567C137.039 315.727 137.926 322.876 139.489 329.921C139.922 331.66 140.609 333.392 141.548 334.949C142.06 335.684 142.657 336.417 143.337 337.064C144.017 337.711 144.95 338.1 145.882 338.322C146.814 338.544 147.828 338.514 148.757 338.235C149.686 337.957 150.529 337.431 151.287 336.824C152.802 335.61 153.808 333.994 154.814 332.462C155.735 330.849 156.487 329.241 157.408 327.628C158.245 326.017 159.166 324.487 160.087 322.874C162.015 319.729 164.028 316.748 166.21 313.845C168.392 310.942 170.659 308.037 173.097 305.376C175.534 302.633 178.141 300.051 180.92 297.798C181.593 297.277 182.437 296.917 183.281 296.558C184.124 296.115 184.967 295.589 185.725 294.982C187.156 293.771 188.417 292.398 189.763 291.189L197.925 283.767C200.617 281.266 203.394 278.846 206.001 276.18C208.608 273.515 210.874 270.526 212.547 267.138C215.891 260.446 217.032 252.902 216.652 245.654C216.271 238.323 214.369 231.288 212.13 224.43C211.011 221.043 209.723 217.66 208.434 214.278C207.748 212.63 206.977 210.901 205.953 209.347C204.929 207.792 203.568 206.415 201.954 205.379C198.812 203.221 195.001 202.335 191.279 202.28C189.418 202.253 187.473 202.479 185.615 202.868C183.756 203.258 181.984 203.896 180.211 204.617C176.752 206.14 173.55 208.156 170.602 210.331C167.569 212.508 164.792 214.928 161.93 217.268C159.152 219.688 156.375 222.191 153.939 225.018C151.502 227.845 149.321 230.915 147.563 234.139C145.721 237.365 144.218 240.748 142.884 244.126C141.466 247.506 140.301 250.963 139.222 254.5C137.063 261.49 135.667 268.625 134.778 275.827C133.17 290.228 134.016 304.887 137.564 318.798C138.43 322.276 139.55 325.747 140.584 329.137C141.102 330.873 141.788 332.522 142.728 334.079C143.239 334.814 143.836 335.547 144.516 336.111C145.196 336.674 146.044 337.149 146.976 337.288C147.907 337.427 148.92 337.146 149.678 336.622C150.437 336.099 151.109 335.411 151.697 334.726C152.789 333.274 153.625 331.58 154.376 329.889C155.128 328.197 155.71 326.511 156.546 324.817C157.044 323.216 158.051 321.684 158.972 320.071ZM158.802 319.993C157.88 321.522 156.874 323.055 156.038 324.749C155.287 326.44 154.62 328.129 153.868 329.737C153.116 331.429 152.364 333.037 151.189 334.491C150.6 335.176 150.012 335.861 149.254 336.385C148.496 336.908 147.567 337.103 146.72 337.045C145.874 336.904 145.026 336.512 144.346 335.949C143.666 335.385 143.07 334.736 142.643 333.998C141.704 332.524 141.101 330.79 140.584 329.137C140.067 327.4 139.465 325.75 139.032 324.011C138.515 322.274 138.082 320.535 137.649 318.796C134.354 304.877 133.593 290.298 135.455 275.974C136.345 268.855 137.911 261.715 140.07 254.808C141.149 251.354 142.399 247.979 143.817 244.598C145.236 241.218 146.739 238.002 148.498 234.862C150.256 231.721 152.353 228.738 154.791 226.077C157.228 223.334 159.836 220.835 162.613 218.499C165.391 216.162 168.253 213.739 171.201 211.648C174.149 209.473 177.183 207.545 180.558 206.108C182.246 205.39 183.935 204.838 185.624 204.454C187.398 204.066 189.174 203.929 190.865 203.962C194.418 204.021 197.892 204.918 200.779 206.833C202.222 207.791 203.413 209.006 204.352 210.396C205.29 211.787 206.061 213.432 206.663 215.083C207.951 218.381 209.154 221.766 210.358 225.151C212.681 231.923 214.497 238.793 214.877 245.958C215.256 253.039 214.199 260.33 211.022 266.767C209.433 269.986 207.251 272.889 204.728 275.468C202.206 278.131 199.429 280.551 196.737 283.052L188.575 290.474C187.228 291.683 185.967 293.056 184.536 294.184C183.863 294.788 183.104 295.228 182.345 295.668C181.587 296.109 180.658 296.47 179.901 297.077C174.092 301.842 169.473 307.572 165.024 313.463C162.842 316.45 160.829 319.514 158.902 322.66C157.981 324.273 157.059 325.803 156.223 327.413C155.386 329.024 154.55 330.718 153.713 332.245C152.792 333.775 151.785 335.307 150.439 336.432C149.765 337.037 149.007 337.477 148.162 337.669C147.318 337.945 146.472 337.971 145.625 337.746C143.931 337.463 142.655 336.167 141.716 334.693C140.777 333.22 140.176 331.569 139.658 329.832C138.095 322.871 137.123 315.724 136.574 308.565C136.3 304.985 136.195 301.401 136.428 297.806C136.745 294.208 137.486 290.681 139.074 287.379C139.911 285.769 140.917 284.236 142.093 282.866C143.269 281.495 144.53 280.122 145.621 278.671C146.797 277.217 147.718 275.604 148.3 273.834C148.882 272.064 149.21 270.302 149.538 268.456C150.024 264.854 150.342 261.256 151.676 257.878C153.01 254.501 155.531 251.754 158.394 249.499C161.257 247.243 164.546 245.558 167.921 244.121C169.609 243.403 171.382 242.932 173.158 242.795C174.933 242.658 176.711 242.938 178.322 243.557C179.933 244.176 181.461 245.131 182.737 246.344C184.012 247.474 185.12 248.942 185.975 250.418C187.684 253.454 188.381 257.021 188.486 260.522C188.591 264.107 188.189 267.623 187.532 271.148C186.876 274.672 185.966 278.204 184.801 281.576C183.637 284.949 182.133 288.249 180.46 291.47C178.787 294.691 176.944 297.834 175.102 300.977C174.18 302.507 173.173 303.956 171.912 305.245C170.651 306.535 169.304 307.66 167.872 308.788C166.441 309.916 164.926 311.13 163.665 312.587C162.405 314.043 161.399 315.575 160.478 317.272C159.557 318.885 158.805 320.577 157.969 322.187L155.375 327.022L152.78 331.856C151.944 333.467 150.938 334.999 149.676 336.122C149.002 336.643 148.328 337.08 147.567 337.27C146.807 337.46 145.961 337.402 145.283 337.089C143.841 336.465 142.648 334.999 142.132 333.429C141.531 331.862 141.351 330.032 141.087 328.287C140.823 326.46 140.39 324.72 139.872 322.984C138.922 319.508 137.718 316.123 137.106 312.637C136.493 309.151 136.387 305.483 137.468 302.113C138.05 300.427 138.886 298.816 140.063 297.446C141.154 295.994 142.415 294.705 143.761 293.412C146.369 290.914 149.06 288.163 152.35 286.728C154.038 286.01 155.812 285.622 157.589 285.819C158.436 285.96 159.368 286.183 160.131 286.577C160.895 286.971 161.575 287.618 161.918 288.358C162.261 289.182 162.266 290.1 162.356 290.932L162.371 293.601L162.403 299.024C162.423 302.611 162.613 306.193 162.296 309.791C162.137 311.548 161.809 313.394 161.311 315.077C161.062 315.919 160.729 316.764 160.311 317.611L158.802 319.993Z" fill="#0C2340"/>
<path d="M141.429 358.148C144.8 355.961 148.087 353.859 151.629 352C153.4 351.112 155.171 350.224 156.943 349.503C158.8 348.779 160.658 348.223 162.515 347.666C166.315 346.55 170.115 345.434 173.657 343.575C177.199 341.716 180.399 339.366 183.685 337.097C190.087 332.565 197.173 329.097 204.343 325.794L225.854 315.632C232.94 312.247 240.28 309.022 246.765 304.237C249.966 301.888 252.995 299.043 255.344 295.718C257.777 292.39 259.279 288.673 261.12 285.28C262.04 283.584 262.962 281.97 264.221 280.43C265.397 278.976 266.743 277.601 268.258 276.387C271.205 273.962 274.576 271.941 278.033 270.001C281.49 268.061 284.947 266.121 288.232 263.769C289.832 262.552 291.432 261.252 292.861 259.791C294.291 258.329 295.465 256.625 296.47 254.842C298.394 251.196 299.217 247.25 299.702 243.313C300.187 239.377 300.334 235.534 300.819 231.765C301.79 224.143 303.861 216.571 306.95 209.468C308.452 205.919 310.292 202.442 312.133 198.965C313.889 195.491 315.645 191.934 316.977 188.222C318.394 184.508 319.302 180.643 319.702 176.792C319.86 174.868 319.933 172.864 319.838 170.947C319.742 169.031 319.646 167.032 319.466 165.118C319.105 161.291 318.406 157.39 317.285 153.669C316.079 149.951 314.451 146.412 312.065 143.313C310.872 141.764 309.595 140.301 308.149 139.009C306.704 137.718 305.09 136.598 303.477 135.479C300.334 133.238 297.359 130.824 294.805 127.981C293.529 126.601 292.42 125.049 291.48 123.409C290.456 121.771 289.684 120.042 288.828 118.315C287.973 116.589 287.032 114.865 285.754 113.318C284.477 111.772 282.947 110.566 281.334 109.447C278.106 107.208 274.628 105.477 271.654 103.147C268.596 100.82 265.874 98.1485 262.898 95.5683C260.008 93.0689 256.864 90.5772 253.217 88.935C251.436 88.071 249.487 87.5457 247.456 87.2733C245.424 87.0009 243.394 87.0621 241.45 87.2877C237.477 87.7414 233.592 88.7765 229.79 89.4754C225.988 90.1743 222.097 90.2083 218.204 89.9086C214.311 89.6089 210.418 89.1424 206.525 88.7593C202.632 88.4596 198.571 88.3319 194.515 88.955C192.486 89.2665 190.544 89.8258 188.603 90.6354C186.662 91.4449 184.892 92.4996 183.207 93.6352C181.522 94.8542 180.007 96.1515 178.492 97.4489L174.032 101.422L165.196 109.282L160.736 113.254C159.306 114.549 157.791 115.846 156.277 117.311C154.847 118.772 153.503 120.398 152.584 122.345C151.665 124.292 151.254 126.39 151.181 128.395C150.866 132.41 151.396 136.232 150.74 139.923C150.084 143.531 148.244 147.007 147.167 150.962C146.586 152.898 146.26 154.994 146.441 157.075C146.538 159.158 147.056 161.061 147.575 162.964C148.093 164.868 148.696 166.685 149.045 168.511C149.304 169.421 149.394 170.336 149.568 171.248C149.658 172.163 149.832 173.076 149.838 174.077C150.114 177.824 149.882 181.669 149.142 185.362C148.402 189.056 147.155 192.765 145.483 196.153C143.896 199.622 141.376 202.619 139.451 206.265C138.446 208.047 137.696 209.989 137.285 212.004C136.874 214.019 136.716 216.026 136.558 217.95L136.321 220.878C136.324 221.295 136.243 221.881 136.246 222.382C136.248 222.882 136.251 223.383 136.339 223.964C136.52 225.961 137.039 227.865 137.218 229.695C137.308 230.61 137.313 231.528 137.234 232.365L137.073 233.788L136.827 235.214C136.415 237.062 135.918 238.913 135.252 240.685C134.004 244.311 132.163 247.787 130.322 251.18C126.555 257.969 122.196 264.776 119.872 272.439C118.709 276.229 118.056 280.254 118.418 284.248C118.779 288.242 119.985 291.961 121.105 295.598C122.311 299.233 123.517 303.035 125.651 306.391C126.675 308.029 127.699 309.584 128.471 311.313C129.242 313.042 129.929 314.773 130.277 316.598C130.626 318.423 130.722 320.34 130.733 322.258C130.744 324.177 130.755 326.096 130.852 328.096C131.127 331.926 130.896 335.771 131.003 339.689C131.014 341.608 131.11 343.608 131.291 345.521C131.471 347.435 131.736 349.429 132.508 351.242C132.68 351.737 132.936 352.147 133.277 352.554C133.618 352.961 133.958 353.284 134.298 353.608C134.979 354.338 135.575 355.071 136.256 355.718C137.616 356.845 139.315 358.129 141.429 358.148ZM141.343 357.901C140.921 357.913 140.412 357.762 139.988 357.608C139.565 357.454 139.14 357.216 138.716 356.979C137.867 356.504 137.187 355.857 136.506 355.126C135.826 354.479 135.229 353.663 134.633 353.013C134.293 352.69 133.952 352.283 133.696 351.957C133.441 351.631 133.185 351.221 133.012 350.726C132.326 348.994 132.145 346.997 131.965 345.167C131.785 343.253 131.774 341.335 131.763 339.416C131.752 337.497 131.825 335.576 131.898 333.571C131.892 332.57 131.972 331.65 131.966 330.649L131.864 327.731C131.853 325.813 131.842 323.894 131.831 321.892C131.82 319.973 131.723 317.973 131.459 316.062C131.109 314.07 130.506 312.253 129.65 310.443C128.793 308.633 127.769 306.995 126.829 305.355C124.865 302.16 123.744 298.522 122.623 294.801C121.503 291.164 120.381 287.443 120.106 283.696C119.831 279.95 120.401 276.178 121.649 272.552C122.812 268.929 124.483 265.374 126.324 261.981C128.166 258.588 130.261 255.187 132.186 251.792C134.112 248.312 135.953 244.836 137.369 241.038C138.034 239.183 138.615 237.246 139.027 235.314L139.272 233.805L139.433 232.298C139.596 231.292 139.505 230.21 139.415 229.212C139.234 227.214 138.8 225.308 138.62 223.478C138.618 223.061 138.53 222.563 138.528 222.146C138.526 221.729 138.523 221.312 138.605 220.809C138.684 219.805 138.763 218.885 138.842 217.881C139 215.957 139.158 214.033 139.486 212.271C139.898 210.423 140.565 208.734 141.402 207.124C143.159 203.816 145.678 200.653 147.433 197.012C149.274 193.452 150.52 189.576 151.343 185.63C152.081 181.686 152.397 177.671 152.036 173.76C151.844 169.845 150.806 165.871 149.685 162.233C149.167 160.413 148.734 158.591 148.638 156.758C148.543 154.925 148.787 153.165 149.284 151.398C150.278 147.78 152.118 144.22 152.856 140.193C153.509 136.085 152.979 132.179 153.296 128.498C153.37 126.66 153.782 124.812 154.534 123.204C155.286 121.596 156.462 120.142 157.808 118.766C159.153 117.391 160.668 116.093 162.099 114.799L166.474 110.828L175.31 102.885C178.255 100.293 181.115 97.5366 184.232 95.2731C185.748 94.1426 187.434 93.1738 189.206 92.4528C190.978 91.7318 192.751 91.1776 194.695 90.8687C198.498 90.2532 202.304 90.3052 206.197 90.6049C210.09 90.9045 213.983 91.3711 217.875 91.5873C221.852 91.801 225.828 91.7644 229.799 91.0605C233.771 90.3565 237.486 89.2431 241.374 88.7919C243.318 88.5663 245.179 88.5102 247.041 88.7877C248.902 88.815 250.766 89.3428 252.463 90.126C255.939 91.6064 258.998 94.0172 261.888 96.4331C264.779 98.9325 267.67 101.599 270.728 103.926C273.872 106.334 277.434 107.979 280.576 110.137C282.189 111.173 283.634 112.381 284.827 113.847C286.019 115.229 286.96 116.953 287.816 118.68C288.671 120.406 289.527 122.133 290.552 123.77C291.576 125.408 292.685 127.044 294.047 128.421C296.601 131.348 299.66 133.758 302.887 135.997C304.501 137.117 306.03 138.155 307.475 139.447C308.92 140.738 310.197 142.118 311.306 143.67C313.607 146.688 315.235 150.227 316.44 153.861C317.561 157.499 318.175 161.319 318.535 165.146C318.811 168.976 319.088 172.889 318.771 176.654C318.37 180.504 317.462 184.286 316.044 187.833C314.627 191.464 312.871 194.938 311.03 198.415C309.19 201.891 307.264 205.287 305.678 208.923C302.505 216.111 300.266 223.771 299.126 231.566C298.557 235.421 298.326 239.35 297.84 243.119C297.354 246.889 296.446 250.671 294.688 253.978C293.768 255.675 292.677 257.126 291.331 258.502C289.986 259.877 288.555 261.089 286.954 262.222C283.838 264.485 280.38 266.342 276.924 268.282C273.467 270.222 270.01 272.245 266.811 274.845C265.212 276.145 263.782 277.607 262.523 279.23C261.263 280.853 260.259 282.636 259.253 284.335C257.413 287.895 255.911 291.445 253.73 294.598C251.549 297.751 248.689 300.424 245.572 302.688C239.34 307.382 232.084 310.604 224.999 314.072L203.659 324.396C196.573 327.864 189.404 331.418 182.918 336.119C179.717 338.385 176.516 340.735 173.144 342.672C169.772 344.61 165.972 345.726 162.173 346.925C160.315 347.565 158.373 348.125 156.602 348.929C154.745 349.653 152.974 350.541 151.203 351.512C147.915 353.447 144.545 355.718 141.343 357.901Z" fill="#0C2340"/>
<path d="M186.294 334.766C188.993 333.433 191.435 331.607 193.452 329.293C195.468 326.98 196.891 324.35 198.484 321.882C200.077 319.414 201.839 317.025 203.942 314.875C206.044 312.809 208.402 310.986 210.845 309.243C213.288 307.501 215.816 305.923 218.602 304.921C221.387 303.919 224.346 303.579 227.303 302.989C228.739 302.696 230.26 302.316 231.695 301.772C233.129 301.228 234.479 300.52 235.827 299.645C237.091 298.772 238.269 297.819 239.362 296.618C240.37 295.419 241.124 294.061 241.707 292.625C242.96 289.834 243.705 287.058 245.128 284.428C246.467 281.885 248.229 279.412 249.991 277.022L255.278 269.77L257.879 266.187C258.718 264.994 259.642 263.881 260.737 262.93C262.84 261.031 265.711 260.11 268.496 259.025C269.931 258.481 271.28 257.856 272.629 257.064C273.978 256.272 275.156 255.236 276.164 254.037C278.18 251.556 279.263 248.603 279.668 245.587C280.158 242.569 279.887 239.573 279.363 236.669C278.838 233.764 277.976 230.953 277.199 228.14C276.421 225.326 275.728 222.51 275.289 219.686C274.325 213.958 274.038 208.126 274.511 202.271C274.748 199.343 275.07 196.413 275.645 193.559C276.136 190.707 277.05 187.843 277.371 184.829C277.531 183.322 277.607 181.818 277.345 180.324C277.083 178.83 276.567 177.427 275.714 176.202C274.861 174.976 273.671 174.01 272.482 173.128C271.293 172.246 270.02 171.534 268.83 170.652C267.641 169.77 266.62 168.8 265.937 167.569C265.253 166.338 264.906 164.93 264.898 163.511C264.966 160.589 266.219 157.881 267.472 155.173C268.056 153.821 268.725 152.465 269.225 151.115C269.724 149.682 270.139 148.251 270.384 146.825C270.629 145.315 270.705 143.811 270.443 142.401C270.181 140.907 269.665 139.504 268.812 138.278C267.106 135.826 264.475 134.153 261.593 133.239C258.796 132.239 255.749 131.914 252.789 131.92C246.867 131.848 240.866 132.613 235.024 131.538C229.265 130.46 223.838 127.954 219.586 124.077C218.481 123.11 217.544 122.053 216.692 120.911C215.839 119.768 214.902 118.545 213.796 117.494C212.69 116.442 211.248 115.651 209.808 115.278C208.367 114.821 206.759 114.702 205.236 114.665C202.192 114.757 199.151 115.433 196.281 116.52C195.606 116.791 194.846 117.064 194.172 117.502C193.497 117.856 192.823 118.21 192.149 118.648C190.885 119.52 189.622 120.476 188.528 121.594C186.342 123.746 184.665 126.3 182.988 128.854C181.395 131.405 179.803 133.873 177.955 136.181C177.031 137.294 176.022 138.409 175.099 139.689C174.176 140.968 173.508 142.407 173.094 143.921C172.265 146.95 172.283 149.953 172.215 152.876C172.224 154.377 172.147 155.798 172.071 157.219C171.91 158.642 171.665 160.068 171.334 161.413C170.589 164.189 169.505 166.892 168.082 169.438C165.235 174.53 161.285 178.988 157.081 183.287C154.979 185.437 152.791 187.422 150.689 189.655C148.588 191.888 146.656 194.199 144.978 196.669C141.539 201.613 138.864 207.2 137.629 213.078C136.97 216.019 136.818 219.027 136.92 222.028C137.107 225.026 137.462 227.936 137.647 230.767C137.833 233.682 137.681 236.523 136.851 239.302C136.021 242.081 134.683 244.708 133.345 247.335L125.486 263.342C124.233 266.05 122.81 268.679 121.642 271.385C120.473 274.09 119.475 277.041 119.154 279.971C118.748 282.903 118.85 285.988 119.375 288.892C119.899 291.797 121.015 294.6 122.383 297.229C123.752 299.857 125.289 302.314 126.572 304.862C127.256 306.176 127.856 307.493 128.287 308.815C128.718 310.221 129.064 311.629 129.326 313.04C130.374 318.765 130.155 324.696 131.457 330.414L131.626 330.409C130.409 324.688 130.797 318.752 129.833 312.941C129.571 311.53 129.309 310.036 128.793 308.633C128.362 307.228 127.762 305.911 127.163 304.594C125.879 301.963 124.342 299.506 123.058 296.875C121.774 294.327 120.744 291.604 120.22 288.783C119.696 285.962 119.679 283.042 120.086 280.193C120.813 274.414 123.913 269.23 126.504 263.895L134.532 247.966C135.871 245.339 137.293 242.626 138.207 239.762C139.12 236.814 139.356 233.719 139.17 230.805C139.068 227.804 138.713 224.894 138.527 222.063C138.341 219.148 138.579 216.304 139.154 213.45C140.306 207.824 142.897 202.406 146.252 197.549C147.93 195.162 149.777 192.853 151.795 190.706C153.813 188.559 156.085 186.572 158.187 184.422C162.392 180.123 166.51 175.577 169.44 170.231C170.947 167.599 172.115 164.727 172.859 161.868C173.274 160.437 173.519 158.927 173.595 157.423C173.755 155.916 173.747 154.415 173.738 152.997C173.806 150.074 173.789 147.154 174.535 144.462C174.95 143.114 175.535 141.845 176.374 140.651C177.213 139.458 178.222 138.426 179.145 137.23C183.009 132.441 185.345 126.947 189.465 122.734C190.475 121.702 191.653 120.749 192.833 119.962C193.423 119.611 194.097 119.173 194.688 118.905C195.362 118.551 195.953 118.283 196.713 118.009C199.413 116.927 202.37 116.253 205.245 116.166C208.12 116.08 211.085 116.741 213.126 118.599C214.146 119.569 214.999 120.711 215.936 121.851C216.873 122.991 217.894 124.128 219 125.096C223.421 129.051 229.103 131.55 234.945 132.625C240.872 133.698 246.873 132.849 252.794 132.837C255.755 132.831 258.717 133.159 261.429 134.079C264.141 134.998 266.772 136.587 268.393 138.958C269.161 140.103 269.761 141.503 269.939 142.917C270.201 144.327 270.124 145.748 269.879 147.257C269.634 148.683 269.219 150.114 268.719 151.464C268.22 152.814 267.551 154.17 266.967 155.522C266.382 156.875 265.713 158.23 265.214 159.664C264.715 161.097 264.385 162.526 264.309 164.03C264.233 165.534 264.665 167.023 265.434 168.335C266.202 169.647 267.308 170.698 268.413 171.582C269.602 172.464 270.876 173.26 272.064 174.059C273.253 174.857 274.358 175.825 275.211 176.968C276.832 179.338 277.103 182.334 276.696 185.183C276.29 188.033 275.461 190.895 274.886 193.832C274.31 196.77 273.904 199.703 273.668 202.63C273.194 208.485 273.398 214.487 274.277 220.301C274.717 223.208 275.326 226.11 276.104 228.924C276.881 231.737 277.659 234.551 278.098 237.374C278.622 240.195 278.808 243.11 278.317 245.962C277.91 248.811 276.826 251.514 275.063 253.737C274.139 254.849 273.044 255.717 271.865 256.503C270.6 257.209 269.25 257.834 267.9 258.375C266.55 258.916 265.115 259.46 263.681 260.088C262.246 260.715 260.897 261.507 259.72 262.627C258.542 263.664 257.618 264.943 256.695 266.139L254.094 269.806L248.892 277.055C247.129 279.445 245.367 281.918 244.029 284.628C242.607 287.341 241.778 290.203 240.609 292.909C240.025 294.261 239.356 295.533 238.431 296.562C237.507 297.675 236.413 298.626 235.149 299.415C233.969 300.201 232.62 300.91 231.27 301.451C229.919 301.992 228.484 302.37 227.047 302.663C224.175 303.334 221.132 303.676 218.263 304.764C215.393 305.852 212.781 307.516 210.338 309.259C207.895 311.085 205.537 312.908 203.435 315.058C201.333 317.207 199.571 319.68 197.979 322.231C196.386 324.783 195.048 327.41 193.116 329.721C191.268 332.029 188.826 333.855 186.127 335.188L186.294 334.766Z" fill="#0C2340"/>
</svg>
