<svg width="221" height="83" viewBox="0 0 221 83" fill="none" xmlns="http://www.w3.org/2000/svg">
<g clip-path="url(#clip0)">
<path d="M107.641 79.0523C107.673 79.0523 107.704 79.042 107.745 79.042C102.61 80.8001 98.8679 75.2482 94.0341 74.909C92.9219 74.837 91.7784 75.0221 90.6661 74.8267C88.0466 74.3435 86.5393 71.8143 85.6765 69.5422C84.9176 67.5271 84.4914 65.4092 83.5143 63.4969C82.6411 61.7696 81.1858 60.2069 79.3459 59.7134C80.1567 59.847 81.0403 59.8984 81.7783 60.2583C82.9322 60.8135 83.5663 62.0369 84.086 63.1987C84.9488 65.111 85.7077 67.1055 86.9655 68.7814C88.2337 70.4469 90.1672 71.7938 92.2774 71.7835C93.5456 71.7732 94.7722 71.2797 96.03 71.0021C97.2878 70.7451 98.7431 70.7656 99.6891 71.6087C100.157 72.02 100.438 72.5957 100.718 73.1509C101.446 74.6005 102.142 76.1016 103.265 77.2942C104.408 78.4663 106.051 79.3093 107.641 79.0523Z" fill="#FFF666"/>
<path d="M107.767 78.9082L107.829 79.1241C104.804 80.1728 102.216 78.6717 99.7106 77.2324C97.9122 76.2145 96.0619 75.135 94.0764 75.0014C93.619 74.9705 93.1408 74.9808 92.7043 74.9911C92.039 75.0014 91.3529 75.0219 90.6876 74.9088C87.9641 74.4256 86.4256 71.7422 85.6044 69.5626C85.3237 68.8224 85.0846 68.041 84.8559 67.2905C84.4713 66.0362 84.0659 64.7202 83.4526 63.5276C82.4651 61.5947 80.9786 60.2376 79.3569 59.7955L79.3985 59.5796C79.5648 59.6002 79.7519 59.6413 79.9391 59.6618C80.5939 59.7544 81.2696 59.8469 81.8622 60.1451C83.0576 60.7311 83.7021 61.9957 84.2218 63.1369C84.3778 63.4762 84.5233 63.8154 84.6688 64.165C85.3445 65.7175 86.041 67.3316 87.0909 68.699C88.5046 70.5702 90.4693 71.6703 92.3196 71.66C93.172 71.66 94.0244 71.4235 94.8457 71.1973C95.2407 71.0945 95.6565 70.9814 96.0619 70.8889C96.9766 70.6935 98.7022 70.5188 99.8145 71.5263C100.303 71.9684 100.605 72.5956 100.854 73.0993L100.989 73.3872C101.644 74.734 102.341 76.122 103.359 77.2221C104.596 78.5278 106.197 79.1858 107.632 78.9493C107.652 78.9391 107.673 78.9391 107.694 78.9391L107.767 78.9082ZM85.4381 68.5037C85.542 68.8121 85.6564 69.1308 85.7707 69.4392C86.5607 71.5572 88.068 74.1789 90.6772 74.6518C91.3217 74.7649 91.9974 74.7443 92.6419 74.7341C93.0993 74.7341 93.5774 74.7135 94.0348 74.7443C96.0827 74.878 97.9538 75.9575 99.7729 76.9959C102.008 78.2913 104.149 79.5251 106.613 79.1447C105.407 79.0316 104.18 78.3941 103.172 77.3249C102.122 76.194 101.426 74.806 100.76 73.4386L100.625 73.1507C100.386 72.6675 100.095 72.0712 99.6274 71.6497C98.5879 70.7141 96.9559 70.8889 96.0723 71.0739C95.6773 71.1562 95.2614 71.2693 94.8664 71.3824C94.0244 71.6189 93.172 71.845 92.2884 71.8553C90.3654 71.8656 88.3383 70.7244 86.883 68.8018C85.8331 67.4139 85.1158 65.7894 84.4401 64.2164C84.2842 63.8771 84.1491 63.5378 83.9932 63.1883C83.5046 62.0985 82.8809 60.8647 81.7478 60.3198C81.3216 60.1142 80.8538 60.0114 80.3549 59.9394C81.6543 60.5871 82.8081 61.8106 83.6293 63.4145C84.2426 64.6276 84.6584 65.9436 85.0431 67.2185C85.1886 67.6606 85.3237 68.1027 85.4381 68.5037Z" fill="#FFF666"/>
<path d="M138.837 11.1863C140.157 10.8162 144.419 9.0375 145.76 9.61325C146.706 10.0245 147.933 10.3432 148.307 11.2994C147.839 13.0472 147.382 14.8155 147.309 16.6353C147.236 18.2803 147.475 19.915 147.319 21.5394C147.132 23.3078 146.498 24.9836 146.051 26.7006C145.937 27.153 145.833 27.595 145.75 28.0474C144.897 30.5869 142.746 31.3888 141.446 34.7507C140.583 36.4471 140.916 35.563 140.043 37.2696C138.099 41.1045 136.134 44.9188 134.17 48.7332C133.317 50.3884 132.309 50.8922 130.729 51.6941C127.163 53.5036 126.394 57.3488 123.775 60.0425C123.234 60.5976 122.579 61.1014 121.799 61.2351C119.086 61.6977 115.812 56.6805 113.223 59.3228C112.444 60.1247 112.34 61.3173 112.132 62.4071C111.945 63.3427 111.664 64.268 111.269 65.1316C111.072 65.5943 110.801 66.0672 110.354 66.2729C109.502 66.6635 108.566 65.8719 108.047 65.0905C107.07 63.61 106.55 61.8828 105.749 60.2995C105.053 58.9424 104.045 57.5647 102.589 56.9375C100.791 56.1767 99.2525 57.1432 97.4333 57.2049C95.8117 57.2665 94.2316 56.4955 93.0986 55.344C91.7368 53.9766 90.7493 52.0334 90.7597 50.0697C90.7701 47.8284 92.4125 46.2143 93.7846 44.6104C95.3335 42.8009 95.583 40.6419 95.7285 38.3492C95.7909 37.3622 95.9884 36.3135 96.3418 35.3882C96.6641 34.8536 96.9655 34.2778 97.267 33.7021C97.2774 33.6918 97.2774 33.6918 97.2774 33.6918C97.267 33.7021 97.267 33.7021 97.267 33.7021C97.61 33.0132 97.9427 32.3244 98.2753 31.6253C98.6392 30.8953 99.0446 30.1653 99.5019 29.4662C99.9593 29.0755 100.396 28.6643 100.781 28.2016C101.519 27.3689 102.142 26.4333 102.974 25.7033C103.244 25.4874 103.535 25.2921 103.816 25.1173C101.945 27.3997 100.645 30.1037 99.3772 32.7665C98.6599 34.2675 97.9323 35.7789 97.5061 37.3725C97.2462 38.38 97.0903 39.4184 96.9967 40.4465C96.924 41.4232 96.8824 42.4102 97.1319 43.3561C97.3917 44.3225 97.9219 45.1862 98.4728 46.0292C98.7951 46.5536 99.1381 47.0882 99.6163 47.4891C100.864 48.5584 102.714 48.5481 104.149 49.3295C105.043 49.8127 105.739 50.5838 106.519 51.2315C107.309 51.8792 108.265 52.4344 109.273 52.3624C111.342 52.1979 113.223 52.383 115.271 52.126C119.429 51.6119 123.525 49.7818 127.08 47.6434C129.762 46.0189 132.215 43.9113 133.816 41.2279C134.866 39.4595 135.521 37.4958 136.311 35.5938C137.756 32.0674 139.689 28.7465 142.039 25.7239C143.452 23.9041 144.294 22.6087 144.211 20.2954C144.17 19.4626 144.336 18.6196 144.679 17.8485C144.887 17.3961 145.147 16.9746 145.272 16.4914C145.386 16.0081 145.334 15.453 144.97 15.1137C144.627 14.7847 144.076 14.7538 143.723 14.4248C143.38 14.1164 143.328 13.6126 143.172 13.1808C142.704 11.8443 141.01 10.5386 138.837 11.1863Z" fill="#FFF666"/>
<path d="M107.974 78.8259C104.866 80.0288 102.319 78.5689 99.6267 77.0267C97.7868 75.9678 95.8845 74.878 93.7951 74.734C93.3273 74.7032 92.8283 74.7135 92.3813 74.7237C91.716 74.734 91.03 74.7546 90.3751 74.6415C87.7243 74.1686 86.1962 71.516 85.3958 69.3673C85.1047 68.6167 84.8761 67.8354 84.637 67.0746C84.2316 65.7894 83.8262 64.4528 83.192 63.2397C82.0278 60.9675 80.1775 59.4562 78.2336 59.2197L78.2128 59.4459C80.0839 59.6824 81.8823 61.1423 83.0049 63.3425C83.6182 64.5557 84.0237 65.8819 84.4187 67.1568C84.6474 67.9176 84.8865 68.7093 85.1775 69.4598C86.0091 71.66 87.5684 74.3845 90.3335 74.8677C90.9988 74.9911 91.7056 74.9705 92.3709 74.9499C92.8387 74.9397 93.3169 74.9294 93.7743 74.9602C95.8117 75.0939 97.6932 76.1734 99.5124 77.2118C102.132 78.7128 104.845 80.255 108.047 79.011L107.974 78.8259Z" fill="#FFF666"/>
<path d="M145.033 15.0418C144.845 14.867 144.606 14.7642 144.378 14.6717C144.159 14.5688 143.951 14.4866 143.785 14.3324C143.556 14.1165 143.463 13.808 143.369 13.479C143.338 13.3659 143.307 13.2529 143.265 13.1398C142.725 11.6079 140.895 10.4255 138.764 11.0938L138.827 11.3097C141.03 10.6311 142.61 12.0191 143.037 13.222C143.078 13.3351 143.109 13.4379 143.13 13.551C143.234 13.9006 143.328 14.2604 143.608 14.5174C143.806 14.7025 144.045 14.8053 144.274 14.8978C144.492 15.0007 144.689 15.0829 144.856 15.2268C145.199 15.5558 145.22 16.1007 145.126 16.5017C145.053 16.8204 144.897 17.1186 144.741 17.4373C144.679 17.5709 144.606 17.6943 144.554 17.8485C144.211 18.6299 144.035 19.5038 144.066 20.3469C144.149 22.6601 143.317 23.9042 141.924 25.7137C139.585 28.7363 137.652 32.0777 136.186 35.6042C135.999 36.0874 135.802 36.5603 135.615 37.0435C135.064 38.4623 134.481 39.912 133.702 41.228C132.257 43.6543 130.001 45.8031 127.007 47.6023C122.818 50.1212 118.868 51.612 115.24 52.0746C114.107 52.2185 113.005 52.2185 111.924 52.2288C111.061 52.2288 110.157 52.2391 109.242 52.3111C108.421 52.3728 107.527 52.0026 106.571 51.211C106.352 51.0259 106.113 50.8203 105.895 50.6147C105.365 50.1315 104.814 49.6483 104.18 49.2987C103.566 48.9594 102.86 48.7641 102.184 48.579C101.238 48.322 100.354 48.0752 99.6579 47.4789C99.1797 47.078 98.8471 46.5433 98.5248 46.0396C97.9947 45.2068 97.4541 44.3637 97.2046 43.3973C96.9551 42.4617 97.0071 41.4747 97.0903 40.5288C97.2046 39.3259 97.3502 38.3595 97.5996 37.465C98.0258 35.8817 98.7431 34.3498 99.45 32.8899C100.833 30.0112 102.236 27.0399 104.419 24.6136L104.253 24.4593C102.059 26.9063 100.625 29.8981 99.2421 32.7871C98.5248 34.2676 97.7971 35.7995 97.371 37.4136C97.1319 38.3081 96.9655 39.2951 96.8616 40.498C96.7784 41.4541 96.7368 42.472 96.9967 43.4487C97.2566 44.4563 97.8075 45.3199 98.3585 46.1629C98.6911 46.6975 99.0238 47.2322 99.5227 47.6537C100.261 48.2911 101.217 48.5584 102.142 48.8155C102.808 49.0005 103.483 49.1856 104.086 49.5146C104.699 49.8436 105.23 50.3268 105.749 50.7895C105.968 50.9848 106.196 51.2007 106.435 51.3961C107.444 52.2288 108.4 52.6092 109.273 52.5475C110.188 52.4756 111.082 52.4756 111.945 52.4653C113.016 52.4653 114.138 52.455 115.292 52.3111C118.941 51.8484 122.933 50.3474 127.153 47.8079C130.178 45.9779 132.465 43.8188 133.931 41.3513C134.721 40.0251 135.303 38.5549 135.854 37.136C136.041 36.6528 136.228 36.1696 136.425 35.6967C137.87 32.1805 139.804 28.87 142.132 25.8576C143.515 24.0687 144.43 22.7218 144.336 20.3469C144.294 19.5244 144.471 18.6916 144.804 17.9514C144.856 17.8177 144.918 17.6943 144.991 17.5504C145.147 17.242 145.313 16.913 145.396 16.5737C145.469 16.2858 145.479 15.9157 145.376 15.597C145.303 15.3811 145.199 15.1857 145.033 15.0418Z" fill="#FFF666"/>
<path d="M141.384 34.7509C140.958 35.5939 140.823 35.8098 140.698 36.0052C140.573 36.2211 140.438 36.4164 140.001 37.2801C137.756 41.6907 135.895 45.3302 134.128 48.7436C133.296 50.3371 132.361 50.8204 130.802 51.612L130.739 51.6429C128.515 52.7738 127.361 54.7066 126.217 56.5778C125.5 57.7602 124.752 58.9836 123.754 60.0117C123.099 60.6697 122.475 61.0604 121.831 61.1632C120.76 61.3483 119.533 60.608 118.348 59.8678C116.592 58.7986 114.772 57.6779 113.192 59.2921C112.506 60.0015 112.33 60.9885 112.153 61.9652C112.132 62.1297 112.101 62.2942 112.07 62.4484C111.893 63.384 111.612 64.2784 111.228 65.142C111.041 65.5636 110.791 66.0262 110.365 66.2216C109.596 66.5711 108.722 65.8926 108.192 65.0906C107.6 64.1859 107.163 63.1681 106.747 62.1708C106.487 61.5436 106.207 60.9062 105.895 60.2996C105.022 58.5724 103.941 57.4209 102.683 56.8863C101.467 56.3722 100.406 56.6087 99.2733 56.8554C98.6911 56.9788 98.0882 57.1124 97.4749 57.1433C95.978 57.1947 94.3979 56.5264 93.2233 55.3235C91.7576 53.843 90.9052 51.8896 90.9052 50.111C90.9156 48.137 92.2046 46.6565 93.452 45.2377C93.6079 45.0732 93.7431 44.8984 93.8886 44.7339C95.4375 42.9141 95.7077 40.7962 95.8637 38.411C95.9884 36.5398 96.5497 34.8743 97.3917 33.8153L97.2046 33.6816C96.3314 34.7612 95.7597 36.4781 95.6246 38.4007C95.4686 40.7448 95.2088 42.8319 93.7015 44.59C93.5663 44.7545 93.4104 44.9292 93.2649 45.0937C91.9967 46.5434 90.6661 48.0547 90.6661 50.111C90.6661 51.9616 91.5601 53.9664 93.0466 55.488C94.2732 56.732 95.926 57.4414 97.4749 57.3798C98.1194 57.3592 98.7223 57.2255 99.3044 57.0919C100.396 56.8554 101.435 56.6292 102.569 57.1022C103.785 57.6162 104.814 58.7266 105.677 60.4127C105.988 61.0193 106.259 61.6567 106.519 62.2736C106.945 63.2812 107.381 64.299 107.984 65.2243C108.577 66.1085 109.564 66.8282 110.448 66.4375C110.937 66.2113 111.217 65.6972 111.425 65.2346C111.81 64.3607 112.09 63.4251 112.278 62.4895C112.309 62.325 112.34 62.1708 112.361 62.0063C112.527 61.0707 112.704 60.1146 113.327 59.4668C114.772 57.9761 116.436 58.9939 118.182 60.0734C119.398 60.8137 120.666 61.595 121.831 61.3997C122.517 61.266 123.182 60.8754 123.868 60.166C124.887 59.107 125.635 57.8835 126.363 56.6806C127.527 54.7581 128.629 52.9383 130.791 51.8279L130.854 51.7971C132.402 51.0157 133.421 50.4914 134.284 48.8258C136.041 45.4022 137.912 41.7626 140.157 37.3623C140.583 36.5192 140.719 36.3033 140.843 36.108C140.968 35.8921 141.103 35.6967 141.54 34.8331L141.384 34.7509Z" fill="#FFF666"/>
<path d="M145.261 16.481C144.897 17.3137 144.679 18.2493 144.783 19.1541C144.897 20.0588 145.324 20.9327 145.251 21.8683C145.24 22.3412 145.137 22.8039 144.96 23.2254C144.773 23.6572 144.513 24.0479 144.274 24.4283C143.764 25.2097 143.203 25.9499 142.652 26.6799C141.54 28.1501 140.469 29.6512 139.752 31.3578C139.024 33.0337 138.494 34.8123 137.985 36.5704C137.475 38.349 136.956 40.1071 136.269 41.8241C135.916 42.6671 135.511 43.5205 134.908 44.2299C134.294 44.9496 133.525 45.4945 132.735 45.9777C131.966 46.4609 131.145 46.9133 130.417 47.4787C129.679 48.0339 129.086 48.7536 128.504 49.4527C127.361 50.8818 126.301 52.4445 124.783 53.5549C124.024 54.0998 123.161 54.511 122.246 54.7064C121.332 54.9223 120.396 54.984 119.461 54.9943C117.621 55.0251 115.708 54.9429 114.003 55.7037C112.33 56.4748 111.259 58.202 109.409 58.7777C108.972 58.9114 108.463 58.9628 108.016 58.8189C107.558 58.6749 107.184 58.3562 106.903 57.9861C106.321 57.2561 105.957 56.4028 105.438 55.642C104.949 54.8812 104.471 54.0381 103.691 53.5652C103.296 53.3287 102.828 53.2362 102.371 53.2979C101.903 53.3596 101.487 53.5549 101.072 53.7605C100.656 53.9662 100.24 54.1718 99.7826 54.3054C99.3461 54.4391 98.8263 54.4494 98.3897 54.2437C97.9635 54.0278 97.6413 53.6886 97.3398 53.339C97.0487 52.9894 96.7681 52.6296 96.4146 52.3314C96.0612 52.0333 95.635 51.8482 95.1984 51.7146C94.7618 51.5706 94.3044 51.6323 93.8262 51.6118C93.3273 51.5809 92.9323 51.2211 92.6724 50.8509C92.4125 50.4705 92.267 50.0182 92.2046 49.5452C92.0799 48.6199 92.2254 47.6638 92.662 46.8413C93.109 46.0188 93.847 45.3814 94.6786 44.9701L94.7098 45.0318C93.899 45.443 93.1921 46.101 92.7763 46.903C92.3709 47.7049 92.267 48.6302 92.4125 49.5041C92.4749 49.9462 92.6308 50.3677 92.8699 50.707C93.1194 51.0463 93.4624 51.3239 93.8366 51.3342C94.2213 51.3239 94.8034 51.2519 95.2816 51.4061C95.7493 51.5398 96.2171 51.7351 96.6225 52.0538C97.0383 52.3623 97.3398 52.7735 97.6205 53.1025C97.9115 53.4418 98.2442 53.7502 98.5664 53.9045C99.2317 54.2335 100.032 53.8017 100.874 53.3801C101.3 53.1745 101.758 52.9586 102.298 52.8763C102.86 52.8044 103.431 52.9175 103.909 53.1848C104.876 53.7605 105.354 54.655 105.853 55.4055C106.404 56.1663 106.81 57.0608 107.329 57.6777C107.6 57.9861 107.87 58.2226 108.192 58.3254C108.515 58.4282 108.878 58.3973 109.263 58.274C110.022 58.0375 110.718 57.4926 111.404 56.8963C112.09 56.3 112.818 55.6317 113.764 55.1896C115.635 54.3465 117.652 54.4391 119.461 54.398C120.386 54.3877 121.269 54.326 122.111 54.1204C122.953 53.9147 123.702 53.5652 124.409 53.0614C125.802 52.0436 126.852 50.5425 128.026 49.0929C128.328 48.7227 128.629 48.3629 128.962 48.0133C129.274 47.6535 129.679 47.3039 130.053 47.0161C130.833 46.4198 131.675 45.988 132.444 45.4945C133.213 45.0318 133.931 44.5177 134.471 43.8803C135.012 43.2634 135.417 42.4307 135.76 41.6287C136.425 39.9632 136.976 38.2154 137.517 36.4573C138.057 34.6992 138.608 32.9206 139.388 31.2036C139.773 30.3503 140.22 29.5278 140.75 28.7361C141.28 27.9548 141.852 27.2145 142.423 26.4948C143.006 25.7751 143.577 25.0452 144.087 24.2947C144.326 23.9245 144.596 23.5338 144.773 23.1432C144.96 22.7525 145.074 22.3207 145.095 21.8786C145.178 20.9944 144.804 20.1308 144.69 19.1952C144.606 18.239 144.856 17.324 145.24 16.481H145.261Z" fill="white"/>
<path d="M99.5435 29.3633C98.4105 30.3708 97.215 31.3064 95.9468 32.1289C94.6682 32.9411 93.3065 33.6197 91.872 34.0823C91.1547 34.3188 90.4063 34.4525 89.6786 34.7198C88.9301 34.9665 88.2753 35.4086 87.6827 35.9021C87.0902 36.3853 86.5393 36.9097 85.9364 37.3518C85.3438 37.7938 84.6578 38.092 83.9509 38.3388C83.2336 38.5752 82.506 38.7808 81.7783 39.0482C81.061 39.3052 80.3334 39.6547 79.7409 40.1894C79.4498 40.467 79.2003 40.7754 79.0028 41.1147C78.7845 41.4539 78.6598 41.8344 78.5454 42.2045C78.3271 42.9653 78.2959 43.7467 78.3271 44.5075C78.3999 46.0496 78.8573 47.4993 78.9924 48.9798C79.0652 49.7097 79.0548 50.45 78.9093 51.1594C78.7533 51.8791 78.4207 52.5371 78.0465 53.1848C77.6722 53.8222 77.2564 54.4596 76.955 55.1793C76.6535 55.899 76.4872 56.6804 76.5808 57.472C76.6223 57.8627 76.7471 58.2534 76.9654 58.603C77.1837 58.9525 77.4851 59.2404 77.8386 59.4255C78.5558 59.8059 79.3563 59.8573 80.0943 59.9704C80.8324 60.0629 81.5912 60.2068 82.1733 60.6592C82.7658 61.091 83.192 61.7284 83.5455 62.3864C83.8989 63.0444 84.19 63.7436 84.4914 64.4324C84.7929 65.1212 85.0944 65.8101 85.4374 66.4886C86.1131 67.8457 86.9551 69.1515 88.1089 70.159C88.6807 70.6525 89.3252 71.0946 90.032 71.3928C90.7389 71.7115 91.5081 71.876 92.2774 71.876C93.847 71.8554 95.2608 71.146 96.7577 71.0021C97.4957 70.9404 98.265 70.9815 98.9302 71.2899C99.2629 71.4442 99.5539 71.6601 99.793 71.9377C100.022 72.2255 100.209 72.5442 100.386 72.8732C101.051 74.2098 101.664 75.6183 102.61 76.8315C103.078 77.4381 103.629 77.983 104.294 78.4045C104.949 78.8363 105.687 79.1345 106.477 79.2373C106.862 79.2887 107.278 79.2784 107.673 79.2065C107.87 79.155 108.078 79.1242 108.255 79.0522C108.359 79.0214 108.442 78.9905 108.546 78.9597L108.816 78.8363C109.533 78.497 110.136 77.9521 110.656 77.397C111.695 76.2455 112.454 74.9089 113.4 73.7677C114.346 72.6059 115.458 71.5984 116.685 70.7348C117.912 69.8711 119.253 69.1823 120.666 68.6682C121.363 68.4009 122.08 68.2056 122.818 68.0308C123.556 67.8869 124.294 67.7429 125.043 67.7018C125.781 67.6196 126.54 67.6401 127.319 67.5887C128.089 67.527 128.91 67.3831 129.606 66.9718C130.313 66.5812 130.864 65.9437 131.249 65.2652C131.633 64.5866 131.872 63.8361 132.039 63.0856C132.34 61.5639 132.309 60.0526 132.569 58.5927C132.631 58.2328 132.714 57.8627 132.818 57.5132L132.901 57.2561C132.933 57.1739 132.985 57.0916 133.016 56.9991L133.234 56.4953C133.577 55.8476 133.972 55.2205 134.45 54.6447C135.396 53.4932 136.55 52.5062 137.673 51.4884C138.806 50.4808 139.908 49.4116 140.76 48.1264C140.874 47.9722 140.978 47.7974 141.051 47.6329C141.134 47.4684 141.238 47.2937 141.311 47.1292L141.529 46.5945C141.571 46.502 141.613 46.4095 141.644 46.3272L141.727 46.0394C141.924 45.2888 141.956 44.5177 141.945 43.7672C141.893 42.2662 141.644 40.7651 141.467 39.2641C141.384 38.5238 141.301 37.763 141.28 37.0228C141.259 36.2722 141.29 35.5217 141.405 34.7815L141.353 34.7712C141.218 35.5114 141.176 36.2722 141.176 37.0228C141.186 37.7836 141.249 38.5341 141.311 39.2846C141.457 40.7857 141.675 42.2867 141.706 43.7775C141.716 44.5075 141.675 45.258 141.467 45.9777L141.394 46.2347C141.363 46.317 141.311 46.3992 141.28 46.4917L141.062 46.9955C140.978 47.16 140.875 47.3245 140.791 47.4787C140.708 47.6432 140.615 47.7974 140.5 47.9517C139.669 49.1957 138.556 50.2238 137.423 51.2211C136.301 52.2183 135.116 53.1951 134.138 54.3877C133.619 54.9634 133.213 55.6214 132.849 56.3103L132.621 56.8449C132.579 56.9374 132.538 57.0299 132.506 57.1122L132.423 57.3898C132.309 57.7599 132.215 58.1506 132.153 58.5207C131.883 60.0218 131.904 61.5434 131.602 62.993C131.446 63.7127 131.217 64.4221 130.854 65.039C130.511 65.6764 130.012 66.2213 129.388 66.5709C128.775 66.9307 128.047 67.0644 127.309 67.1158C126.56 67.1775 125.802 67.1569 125.022 67.2289C124.253 67.27 123.494 67.4037 122.735 67.5579C121.976 67.7429 121.238 67.9383 120.51 68.2159C119.066 68.7505 117.683 69.4702 116.436 70.3646C115.188 71.2591 114.034 72.2975 113.088 73.4901C112.122 74.6827 111.373 76.009 110.386 77.1091C109.887 77.6643 109.336 78.1783 108.681 78.4868L108.442 78.6101C108.359 78.641 108.275 78.6718 108.182 78.7027C108.016 78.7644 107.839 78.7952 107.662 78.8363C107.298 78.898 106.945 78.9083 106.571 78.8672C105.843 78.7849 105.147 78.5176 104.523 78.1064C103.909 77.6951 103.369 77.2016 102.901 76.6053C101.986 75.4333 101.363 74.0659 100.666 72.7087C100.479 72.3695 100.282 72.0405 100.022 71.7423C99.7618 71.4544 99.4396 71.2077 99.0758 71.0535C98.3481 70.7245 97.5373 70.6936 96.7785 70.7656C96.0092 70.8479 95.2608 71.0843 94.5331 71.2797C93.8055 71.475 93.0674 71.6601 92.3086 71.6703C91.5705 71.6909 90.8117 71.5161 90.1256 71.2283C89.4291 70.9301 88.8054 70.5188 88.2337 70.0254C87.0902 69.0384 86.2898 67.7327 85.6141 66.3858C84.9384 65.0287 84.4187 63.6305 83.743 62.2631C83.3999 61.5845 82.953 60.9162 82.3293 60.4433C82.0174 60.2068 81.6536 60.0218 81.2897 59.9087C80.9051 59.7956 80.5205 59.7236 80.1463 59.6722C79.3874 59.5591 78.6182 59.4871 77.9945 59.1273C77.6826 58.9525 77.4228 58.7058 77.2356 58.4076C77.0485 58.1095 76.9446 57.7599 76.9134 57.4001C76.8406 56.6907 76.9966 55.9504 77.2876 55.2821C77.5787 54.6139 78.0049 53.9764 78.3791 53.3287C78.7533 52.681 79.1172 51.9716 79.2939 51.2108C79.4602 50.4397 79.4706 49.6583 79.3978 48.8975C79.3355 48.1367 79.2003 47.3965 79.0548 46.6562C78.9197 45.9057 78.7741 45.1757 78.7429 44.4355C78.7014 43.7055 78.7221 42.955 78.9197 42.2559C79.1068 41.5465 79.4706 40.909 80.0007 40.4156C80.5413 39.9323 81.2066 39.5828 81.9031 39.336C82.5995 39.0687 83.3376 38.8631 84.0652 38.6061C84.7929 38.349 85.5309 38.0303 86.1339 37.5574C86.7576 37.0947 87.2981 36.5704 87.8802 36.0769C88.452 35.5937 89.0757 35.1721 89.7721 34.9254C90.4686 34.6581 91.2275 34.5142 91.9551 34.2674C93.4104 33.7842 94.7618 33.0645 96.03 32.2112C97.2982 31.3578 98.4729 30.3811 99.5851 29.3633H99.5435Z" fill="#FFF666"/>
<path d="M138.764 20.3057L138.193 20.9431C137.985 21.1487 137.777 21.3338 137.538 21.4983C137.07 21.8376 136.561 22.1049 136.041 22.3413C134.98 22.804 133.879 23.1227 132.787 23.4723L131.155 23.9966L130.334 24.2536C130.074 24.3359 129.783 24.4181 129.481 24.3976C129.19 24.3873 128.92 24.2331 128.691 24.0377C128.473 23.8424 128.307 23.6059 128.172 23.3489C127.912 22.8348 127.818 22.2488 127.839 21.6731C127.881 21.0973 128.016 20.5421 128.224 19.9972C128.432 19.4626 128.66 18.9383 128.899 18.4242C129.128 17.9102 129.388 17.3858 129.7 16.9026C130.012 16.4194 130.407 15.9876 130.864 15.6277C131.789 14.9183 132.943 14.5688 134.076 14.3837C135.22 14.1986 136.373 14.1986 137.506 14.1164C138.078 14.0753 138.65 14.0239 139.201 13.9313C139.752 13.8388 140.334 13.6949 140.926 13.7051C141.529 13.7051 142.163 13.8902 142.61 14.3529C142.829 14.5688 142.974 14.8772 143.026 15.1959C143.068 15.5044 142.985 15.8334 142.881 16.1109C142.642 16.6661 142.236 17.1185 141.862 17.54L140.687 18.7943L139.513 20.0486C139.128 20.4804 138.702 20.8609 138.328 21.2824C137.953 21.6936 137.6 22.1152 137.33 22.6087C137.049 23.0919 136.862 23.6059 136.675 24.1405C136.488 24.6649 136.28 25.2201 135.999 25.7239C135.719 26.2276 135.365 26.7108 135.001 27.1529C134.232 28.0063 133.494 28.8802 132.683 29.6924C131.883 30.5149 131.03 31.2963 130.116 31.9851C129.201 32.6945 128.224 33.3011 127.205 33.846C126.186 34.3909 125.126 34.8535 124.003 35.1723C122.881 35.4807 121.685 35.6349 120.531 35.4087C119.939 35.3059 119.388 35.1003 118.868 34.8227C118.359 34.5348 117.881 34.1853 117.496 33.7329C117.111 33.2908 116.831 32.7562 116.685 32.1804C116.54 31.6047 116.519 31.0289 116.55 30.4532C116.623 29.3017 116.82 28.1811 117.194 27.0912C117.579 26.0117 118.182 24.9733 119.086 24.2331C119.98 23.4723 121.061 23.0507 122.08 22.547C122.589 22.3002 123.099 22.0226 123.546 21.6833C123.993 21.3543 124.388 20.9225 124.689 20.4599C125.001 19.9972 125.282 19.5037 125.583 19.0102C125.895 18.5167 126.249 18.0644 126.654 17.6531C127.475 16.8203 128.494 16.2446 129.544 15.7819C130.604 15.3296 131.716 15.0006 132.818 14.723C135.043 14.1678 137.299 13.7154 139.585 13.4687C140.168 13.4276 140.75 13.4481 141.332 13.5818C141.623 13.6435 141.893 13.7463 142.153 13.9005C142.413 14.0444 142.642 14.2603 142.808 14.5174C142.964 14.7744 143.057 15.0725 143.078 15.3707C143.089 15.6791 143.037 15.9773 142.933 16.2549C142.714 16.8101 142.351 17.283 141.976 17.7045C141.592 18.1466 141.186 18.5373 140.791 18.9486C140.396 19.3701 140.001 19.7813 139.648 20.2131C138.91 21.0665 138.224 21.9712 137.579 22.9068C136.935 23.8424 136.321 24.7883 135.76 25.7753C135.199 26.752 134.689 27.7698 134.315 28.8082C134.232 29.055 134.211 29.3325 134.18 29.6101C134.138 29.898 134.066 30.1962 133.962 30.4635C133.743 31.0084 133.494 31.5122 133.265 32.0262L131.914 35.1517C131.457 36.2004 131.03 37.2491 130.5 38.2669C129.97 39.2847 129.305 40.2614 128.473 41.0737C126.82 42.7084 124.669 43.7776 122.434 44.3945C120.199 45.0011 117.86 45.1656 115.573 45.1759C114.429 45.1759 113.275 45.1656 112.122 45.1142C111.539 45.0936 110.957 45.0319 110.375 44.8777C109.804 44.7132 109.232 44.4665 108.754 44.1066C107.766 43.4075 107.08 42.3897 106.654 41.2896C106.435 40.7447 106.29 40.1792 106.217 39.5932C106.144 39.0071 106.144 38.4314 106.176 37.8557C106.259 36.6836 106.519 35.5527 106.862 34.4629C107.205 33.3628 107.61 32.3141 108.036 31.2448C108.473 30.1859 108.951 29.1372 109.533 28.1399C110.105 27.1324 110.822 26.2173 111.591 25.364C112.361 24.5107 113.223 23.7396 114.086 22.9891C114.959 22.2385 115.874 21.5394 116.81 20.8814C118.691 19.5551 120.687 18.4242 122.777 17.4681C126.945 15.5558 131.446 14.3529 136.03 13.9827C137.174 13.8799 138.328 13.8696 139.471 13.8388C140.043 13.8285 140.625 13.8285 141.186 13.9725C141.477 14.0341 141.748 14.137 141.997 14.2912C142.236 14.4454 142.475 14.6305 142.61 14.8978C142.746 15.1548 142.766 15.4735 142.694 15.7511C142.631 16.039 142.496 16.2857 142.33 16.5325C141.987 17.0157 141.581 17.4064 141.155 17.7868C140.719 18.1672 140.292 18.527 139.866 18.9177C139.44 19.3598 139.097 19.8019 138.764 20.3057ZM138.692 20.2337C139.066 19.7916 139.419 19.3392 139.835 18.9588C140.272 18.5579 140.698 18.198 141.124 17.8279C141.54 17.4475 141.966 17.0465 142.278 16.5839C142.423 16.3474 142.569 16.1007 142.631 15.8231C142.694 15.5558 142.683 15.2679 142.548 15.0211C142.423 14.7847 142.195 14.5996 141.956 14.4557C141.716 14.3117 141.446 14.2192 141.176 14.1472C140.615 14.0136 140.053 14.0136 139.482 14.0239C138.91 14.0341 138.338 14.0547 137.766 14.0753C137.184 14.0958 136.612 14.137 136.051 14.1884C131.498 14.6099 127.028 15.8436 122.912 17.8073C120.854 18.7841 118.889 19.9561 117.039 21.2618C116.113 21.9198 115.219 22.6189 114.367 23.3592C113.504 24.0891 112.673 24.8705 111.924 25.7033C111.155 26.5463 110.49 27.4408 109.928 28.4175C109.367 29.384 108.889 30.4121 108.473 31.4608C108.057 32.5197 107.652 33.5684 107.309 34.6479C106.966 35.7069 106.716 36.807 106.643 37.9071C106.612 38.4622 106.623 39.0174 106.695 39.5623C106.768 40.0969 106.903 40.6418 107.101 41.1559C107.496 42.1737 108.13 43.1196 109.024 43.7468C109.46 44.0758 109.959 44.302 110.479 44.4459C110.999 44.5795 111.56 44.6412 112.122 44.6618C113.265 44.7132 114.419 44.7338 115.552 44.7338C117.818 44.7235 120.105 44.559 122.298 43.973C124.471 43.3766 126.55 42.3485 128.151 40.7755C128.962 40.0044 129.596 39.0791 130.116 38.0818C130.646 37.0948 131.072 36.0462 131.529 35.0078L132.912 31.8926C133.151 31.3682 133.421 30.8644 133.619 30.3504C133.723 30.0934 133.795 29.8466 133.827 29.569C133.868 29.3017 133.889 29.0036 133.983 28.7054C134.804 26.5361 136.041 24.6032 137.34 22.732C137.995 21.8067 138.712 20.902 139.461 20.0384C139.845 19.6065 140.23 19.185 140.625 18.7738C141.02 18.3522 141.446 17.9718 141.82 17.5503C142.195 17.1391 142.538 16.6867 142.735 16.1726C142.829 15.9156 142.881 15.6483 142.87 15.3913C142.86 15.1342 142.777 14.8772 142.631 14.651C142.351 14.1884 141.841 13.9211 141.301 13.7977C140.75 13.6743 140.188 13.664 139.627 13.6949C137.361 13.9313 135.105 14.3529 132.891 14.908C131.789 15.1856 130.677 15.4941 129.637 15.9464C128.598 16.3885 127.59 16.9643 126.789 17.7559C126.384 18.1363 126.03 18.5887 125.739 19.0719C125.448 19.5551 125.167 20.0589 124.845 20.5319C124.533 21.0048 124.128 21.4366 123.681 21.7862C123.213 22.1254 122.704 22.4236 122.194 22.6703C121.176 23.1741 120.105 23.6162 119.242 24.3462C118.379 25.0761 117.787 26.0734 117.423 27.1324C117.059 28.2016 116.883 29.312 116.81 30.4429C116.768 30.9981 116.799 31.5533 116.945 32.0982C117.09 32.6225 117.361 33.1263 117.735 33.5273C118.099 33.9385 118.546 34.2881 119.034 34.5348C119.523 34.7919 120.074 34.9666 120.614 35.0695C121.716 35.2545 122.86 35.1106 123.941 34.8021C125.012 34.4834 126.051 34.0105 127.049 33.4759C128.047 32.9207 128.993 32.3141 129.897 31.6253C130.791 30.9467 131.644 30.1756 132.423 29.3737C133.213 28.582 133.951 27.6978 134.7 26.8548C135.064 26.4333 135.396 25.9912 135.646 25.4977C135.906 24.9939 136.103 24.4901 136.29 23.9452C136.477 23.4106 136.675 22.8657 136.976 22.3516C137.267 21.8478 137.642 21.3955 138.037 20.9739C138.421 20.5421 138.847 20.172 139.232 19.7402L140.396 18.4962L141.561 17.2522C141.945 16.8409 142.299 16.4194 142.517 15.9259C142.621 15.6894 142.673 15.4427 142.642 15.1959C142.631 14.9492 142.507 14.7333 142.33 14.5379C141.966 14.1678 141.436 13.9827 140.895 13.9827C140.344 13.9725 139.783 14.0958 139.222 14.1884C138.64 14.2809 138.057 14.3323 137.486 14.3631C136.342 14.4248 135.188 14.4248 134.066 14.5893C132.953 14.7538 131.841 15.0828 130.937 15.7511C130.49 16.0801 130.105 16.5016 129.793 16.9643C129.481 17.4269 129.232 17.941 128.982 18.4448C128.504 19.4729 127.974 20.4907 127.901 21.6217C127.86 22.1666 127.953 22.7526 128.203 23.2461C128.328 23.5031 128.494 23.7293 128.702 23.9144C128.92 24.0994 129.18 24.2228 129.45 24.2536C129.731 24.2639 130.012 24.192 130.282 24.12L131.103 23.863L132.735 23.3386C133.806 22.9891 134.918 22.6806 135.968 22.218C136.488 21.9918 136.997 21.7245 137.465 21.3955C137.694 21.231 137.901 21.0459 138.109 20.8403L138.692 20.2337Z" fill="#FFF666"/>
<path d="M148.349 11.3198C148.047 12.5227 147.756 13.6947 147.579 14.8976C147.486 15.5042 147.434 16.1005 147.413 16.7071C147.403 17.3137 147.423 17.91 147.455 18.5269C147.517 19.7298 147.59 20.9738 147.403 22.1973C147.236 23.431 146.862 24.5928 146.529 25.7648C145.833 28.0884 145.563 30.5045 145.313 32.9308L144.565 40.1996C144.305 42.6157 144.107 45.0832 143.359 47.4581C142.974 48.6508 142.455 49.8022 141.717 50.8201C140.978 51.8585 140.022 52.6707 139.191 53.5343C138.764 53.9558 138.38 54.4185 138.057 54.9017C137.746 55.3849 137.475 55.9298 137.267 56.4747C136.841 57.5748 136.602 58.7674 136.373 59.9601C136.134 61.1527 135.958 62.3659 135.573 63.5585C135.396 64.1548 135.168 64.7408 134.856 65.296C134.544 65.8512 134.18 66.3755 133.743 66.8382C132.86 67.7738 131.737 68.4009 130.615 68.9253C129.492 69.4393 128.338 69.8814 127.236 70.4057C125.043 71.4647 122.995 72.8115 121.165 74.4154C120.24 75.2173 119.419 76.1015 118.546 76.9651C117.683 77.839 116.799 78.6924 115.822 79.4635C114.856 80.2448 113.806 80.9131 112.662 81.4169C112.09 81.6534 111.498 81.8795 110.905 82.0338C110.313 82.2188 109.71 82.373 109.107 82.517C107.912 82.8048 106.675 82.9899 105.427 83.0105C104.19 83.0208 102.943 82.8974 101.747 82.517C101.155 82.3319 100.583 82.0852 100.032 81.7973C99.4812 81.5094 98.9718 81.1393 98.4729 80.7897C97.4645 80.1009 96.4146 79.4635 95.2816 79.0111C94.7098 78.7746 94.1277 78.6101 93.5352 78.4868C92.9427 78.3634 92.3189 78.3017 91.716 78.2092C91.1131 78.1166 90.4894 78.0241 89.8865 77.8082C89.294 77.5923 88.743 77.2736 88.2337 76.9137C87.2149 76.2043 86.3314 75.351 85.3022 74.7136C84.2731 74.0761 83.1816 73.5312 82.1006 72.9246C81.0299 72.318 79.9592 71.66 79.0756 70.7553C78.639 70.3029 78.2648 69.7889 77.9529 69.2337C77.6514 68.6785 77.4435 68.0616 77.298 67.4653C77.0069 66.2521 76.9238 65.0287 76.7055 63.8463C76.4976 62.664 76.0922 61.5228 75.5932 60.433C75.0942 59.3329 74.5225 58.2431 74.0028 57.1327C73.483 56.0224 73.0152 54.8503 72.7865 53.6166C72.6722 52.9894 72.6202 52.3623 72.6514 51.7248C72.6826 51.0874 72.8177 50.4602 72.9944 49.8639C73.1815 49.2573 73.4102 48.6816 73.6389 48.1161L74.3562 46.43L75.7907 43.0681L76.508 41.382C76.7471 40.8268 76.9758 40.2613 77.2564 39.6958C77.5475 39.1407 77.8905 38.5649 78.3791 38.1023C78.8677 37.6396 79.4498 37.3209 80.0527 37.0741C81.2482 36.5909 82.454 36.3647 83.4727 35.7993C84.4914 35.2544 85.3542 34.3599 86.4145 33.6505C86.9447 33.3009 87.558 32.9925 88.1817 32.828C88.8158 32.6532 89.4499 32.6018 90.0736 32.571C90.7077 32.5401 91.3106 32.5299 91.8927 32.4579C92.1942 32.4373 92.4853 32.3756 92.7867 32.3345C93.0778 32.2728 93.3792 32.2214 93.6599 32.1392C94.8138 31.8513 95.9364 31.3989 96.9864 30.8129C98.0259 30.2269 99.003 29.5072 99.845 28.6641C100.708 27.8519 101.373 26.8341 102.246 25.9088C102.683 25.4461 103.192 25.0246 103.754 24.7059C104.315 24.3769 104.897 24.1404 105.469 23.9039L106.321 23.5544C106.456 23.4927 106.623 23.431 106.779 23.3796C106.934 23.3282 107.101 23.2974 107.257 23.2562C107.891 23.1123 108.504 23.0712 109.076 22.9375C109.367 22.8758 109.637 22.8039 109.887 22.6805L110.292 22.4954L110.677 22.2795C111.207 21.9916 111.695 21.6524 112.174 21.2822C113.12 20.5523 113.972 19.6887 114.804 18.7942C116.456 17.0156 118.036 15.0724 120.084 13.6228C121.093 12.8928 122.246 12.3171 123.483 12.0086C124.731 11.7105 125.978 11.7002 127.215 11.6693C128.432 11.6488 129.71 11.6179 130.937 11.9161C131.529 12.0497 132.122 12.1834 132.725 12.2554C133.328 12.3273 133.92 12.3376 134.523 12.2451C135.126 12.1628 135.708 11.9881 136.29 11.8133C136.883 11.6385 137.455 11.4432 138.057 11.2787C139.253 10.9702 140.376 10.5384 141.571 10.1786C142.153 9.9935 142.746 9.82901 143.349 9.68507C143.941 9.55141 144.565 9.42804 145.188 9.45888C145.344 9.46916 145.511 9.48973 145.656 9.54113C145.812 9.59254 145.937 9.65423 146.082 9.71591C146.374 9.83929 146.644 9.9421 146.935 10.0758C147.517 10.3533 148.089 10.7029 148.349 11.3198ZM148.255 11.2992C148.193 11.1861 148.12 11.0422 148.026 10.9291C147.943 10.816 147.839 10.7132 147.714 10.6207C147.475 10.4356 147.205 10.2917 146.924 10.158C146.644 10.0243 146.363 9.92154 146.072 9.80844C145.937 9.76732 145.781 9.68507 145.656 9.64394C145.511 9.60282 145.365 9.57198 145.22 9.57198C144.617 9.56169 144.003 9.68507 143.421 9.82901C142.829 9.96266 142.257 10.158 141.665 10.3431C141.103 10.5384 140.5 10.7543 139.929 10.9497C139.637 11.0525 139.357 11.1553 139.055 11.2478L138.182 11.5151C137.59 11.6899 137.018 11.8955 136.436 12.0806C135.843 12.2656 135.261 12.4404 134.627 12.5432C134.003 12.6563 133.369 12.6563 132.735 12.5946C132.111 12.5432 131.498 12.4199 130.895 12.2759C129.731 12.0189 128.494 12.06 127.267 12.0909C126.041 12.132 124.814 12.1731 123.65 12.4713C122.486 12.7797 121.404 13.3246 120.438 14.034C119.461 14.7228 118.587 15.5556 117.745 16.4501C116.903 17.324 116.124 18.2596 115.292 19.1643C114.45 20.0691 113.587 20.9635 112.6 21.7346C112.111 22.115 111.591 22.4851 111.041 22.7936L110.625 23.0198L110.199 23.2254C109.897 23.3796 109.575 23.4824 109.253 23.5441C108.629 23.6778 108.005 23.7394 107.444 23.8834C107.309 23.9245 107.163 23.9554 107.028 23.9965C106.882 24.0376 106.768 24.089 106.612 24.161C106.321 24.2946 106.04 24.3974 105.749 24.5208C105.188 24.7573 104.627 24.9938 104.128 25.2816C103.629 25.5695 103.182 25.9396 102.787 26.3611C101.976 27.2145 101.29 28.2632 100.375 29.1371C99.4812 30.0418 98.4521 30.7821 97.3606 31.4092C96.2483 32.0158 95.084 32.499 93.847 32.8075C92.6308 33.1365 91.3314 33.2187 90.1152 33.2701C89.5019 33.3112 88.9197 33.3626 88.3584 33.5066C87.8075 33.6402 87.2981 33.8973 86.8095 34.2263C85.8428 34.8843 84.9696 35.789 83.8157 36.4059C82.6515 37.0125 81.4145 37.2386 80.323 37.691C79.7824 37.9069 79.2731 38.1948 78.8573 38.5752C78.4519 38.9556 78.14 39.4491 77.8697 39.9734C77.5995 40.5081 77.3708 41.0632 77.1317 41.6287L76.404 43.3045L74.9487 46.6048C74.4705 47.7357 73.9404 48.8358 73.5974 49.9668C73.4206 50.5528 73.3063 51.1182 73.2751 51.694C73.2439 52.28 73.2855 52.866 73.3895 53.4418C73.5974 54.6036 74.0339 55.7345 74.5329 56.8346C75.0423 57.9347 75.6036 59.0245 76.0922 60.1451C76.5807 61.2658 77.0069 62.4687 77.2045 63.6819C77.4124 64.9053 77.4851 66.1288 77.745 67.2905C77.8801 67.8766 78.0672 68.442 78.3375 68.9561C78.5974 69.4804 78.9508 69.9636 79.377 70.3852C80.2086 71.2488 81.2482 71.9068 82.2981 72.5134C83.3584 73.12 84.4498 73.6854 85.4998 74.3537C86.5601 75.022 87.4436 75.8959 88.4208 76.595C88.9093 76.9549 89.4395 77.2633 89.9904 77.4689C90.5518 77.6745 91.1547 77.7774 91.7576 77.8699C92.3605 77.9521 92.9738 78.0138 93.5871 78.1578C94.2005 78.2811 94.8034 78.4662 95.3751 78.7027C96.529 79.1653 97.5997 79.8027 98.5976 80.5121C99.107 80.872 99.5955 81.2215 100.136 81.5094C100.666 81.7973 101.228 82.044 101.81 82.2188C102.953 82.5992 104.18 82.7329 105.406 82.702C106.623 82.6609 107.839 82.4759 109.034 82.1983C110.23 81.9104 111.415 81.5917 112.537 81.1085C113.639 80.615 114.679 79.957 115.614 79.1859C116.56 78.4251 117.413 77.5512 118.265 76.6773C119.128 75.7931 119.949 74.8986 120.874 74.0658C122.704 72.4106 124.772 71.0226 126.997 69.9122C128.099 69.3571 129.263 68.9047 130.344 68.3906C131.446 67.8663 132.486 67.2494 133.296 66.3961C133.702 65.9643 134.035 65.4913 134.315 64.967C134.596 64.4632 134.804 63.908 134.98 63.3323C135.334 62.2014 135.531 60.9985 135.75 59.7956C135.968 58.6029 136.207 57.3795 136.644 56.2074C136.872 55.6214 137.153 55.0559 137.507 54.511C137.87 53.9764 138.276 53.5035 138.712 53.0614C139.575 52.1772 140.5 51.3856 141.197 50.4294C141.904 49.4835 142.413 48.3834 142.777 47.2525C143.515 44.9804 143.733 42.5437 144.003 40.1174L144.825 32.8589C145.105 30.4428 145.417 28.0061 146.145 25.6517C146.498 24.49 146.862 23.3385 147.07 22.1459C147.288 20.9635 147.226 19.7401 147.184 18.5269C147.164 17.9203 147.153 17.3034 147.184 16.6968C147.226 16.0902 147.288 15.4734 147.403 14.8771C147.611 13.6742 147.922 12.4918 148.255 11.2992Z" fill="#FFF666"/>
<path d="M146.01 26.8339C145.895 27.7489 145.583 28.6331 145.095 29.4042C144.606 30.1958 143.951 30.8538 143.349 31.5632C142.746 32.2726 142.184 33.0334 141.768 33.8662C141.353 34.699 141.03 35.5831 140.75 36.457C140.49 37.3412 140.272 38.2665 140.251 39.2021C140.22 40.148 140.459 41.063 140.563 41.9678C140.625 42.4201 140.656 42.8725 140.635 43.3249C140.625 43.7772 140.552 44.2193 140.438 44.6511C140.324 45.083 140.147 45.5045 139.929 45.8849C139.689 46.2653 139.388 46.5943 139.045 46.8924C138.38 47.499 137.59 48.0234 136.935 48.7122C136.269 49.3805 135.719 50.1413 135.178 50.8815L133.546 53.1331L132.735 54.2641C132.454 54.6445 132.195 55.0454 131.997 55.4875C131.8 55.9502 131.716 56.4231 131.664 56.8858C131.602 57.3484 131.612 57.8213 131.602 58.2737C131.592 58.7364 131.56 59.1785 131.467 59.6103C131.384 60.0421 131.207 60.4636 130.978 60.8337C130.5 61.5843 129.783 62.16 128.972 62.5712C128.172 62.9825 127.278 63.219 126.373 63.3526C125.459 63.4966 124.533 63.5377 123.598 63.6096C122.662 63.6713 121.727 63.7639 120.802 63.9284C118.951 64.2471 117.132 64.7817 115.417 65.5014C114.554 65.8612 113.712 66.2828 112.891 66.7454C112.07 67.1978 111.311 67.7427 110.479 68.1436C109.658 68.5343 108.712 68.7708 107.828 68.5241C107.392 68.3904 106.986 68.1745 106.612 67.9072C106.228 67.6502 105.864 67.352 105.469 67.1053C105.074 66.8585 104.637 66.6323 104.159 66.5501C103.691 66.4678 103.192 66.5089 102.745 66.6632C102.288 66.8277 101.882 67.0744 101.508 67.3623C101.134 67.6502 100.791 67.9689 100.448 68.2773C100.115 68.5857 99.7826 68.9147 99.4188 69.1923C99.055 69.4802 98.6703 69.7475 98.2545 69.9531C97.8387 70.169 97.4125 70.3233 96.9552 70.3952C96.4978 70.4672 96.0404 70.4364 95.6038 70.3233C94.7098 70.0868 93.9718 69.4802 93.4 68.7811C92.8179 68.0717 92.4021 67.2389 92.1006 66.3753C91.4665 64.648 91.0715 62.818 90.1256 61.173C89.1796 59.5691 87.8179 58.1812 86.1442 57.2764C85.7284 57.0605 85.2814 56.8652 84.8449 56.7213C84.4083 56.5568 83.9613 56.4334 83.5766 56.2175C82.7866 55.8062 82.2773 55.0146 81.9966 54.1715C81.7055 53.3182 81.612 52.4032 81.6328 51.4984C81.6432 51.2619 81.6743 51.0358 81.6951 50.8199C81.7159 50.5937 81.7783 50.3778 81.8199 50.1619C81.9342 49.73 82.1005 49.3085 82.2981 48.9076C83.1089 47.2831 84.533 46.0288 85.5517 44.4352C85.8012 44.0446 86.0299 43.6333 86.2898 43.2837C86.5496 42.9239 86.8719 42.6258 87.2357 42.379C87.9738 41.8752 88.8574 41.5976 89.7409 41.2995C90.1775 41.1453 90.6245 40.991 91.0611 40.806C91.4977 40.6209 91.9239 40.3947 92.3293 40.1377C93.1298 39.6339 93.8574 39.0068 94.5019 38.3179C95.7909 36.93 96.7369 35.2747 97.5685 33.6297C97.9947 32.7969 98.3689 31.9539 98.7847 31.1417C99.2109 30.3397 99.6995 29.5687 100.25 28.8387C101.342 27.3788 102.693 26.0936 104.273 25.1786C105.074 24.7159 105.905 24.3664 106.799 24.1196C107.683 23.8729 108.598 23.6878 109.512 23.4308C110.427 23.1738 111.332 22.8139 112.111 22.2484C112.891 21.683 113.556 21.0147 114.211 20.367L118.161 16.4499C119.492 15.1647 120.718 13.7356 122.392 12.9337C123.203 12.5225 124.107 12.2449 125.012 12.1009C125.926 11.9673 126.851 11.9775 127.777 12.1112C128.691 12.2346 129.606 12.4402 130.542 12.543C130.999 12.6047 131.477 12.6355 131.945 12.6253C132.413 12.615 132.881 12.5636 133.348 12.4916C135.188 12.1935 136.945 11.5149 138.806 11.2887L138.795 11.2373C136.924 11.4224 135.157 12.0906 133.317 12.3477C132.87 12.4094 132.402 12.4608 131.945 12.4608C131.488 12.4608 131.03 12.4196 130.573 12.3477C129.658 12.214 128.754 12.0084 127.818 11.8747C126.893 11.7308 125.937 11.6897 124.991 11.8336C124.045 11.9673 123.13 12.2346 122.288 12.6458C121.425 13.0468 120.656 13.6225 119.96 14.2394C119.263 14.8563 118.619 15.5143 117.943 16.162L113.962 20.0483C113.296 20.6857 112.641 21.354 111.903 21.868C111.165 22.3821 110.313 22.7214 109.419 22.9579C108.535 23.2046 107.61 23.3794 106.695 23.6261C105.781 23.8729 104.876 24.243 104.065 24.7159C102.413 25.6721 101.02 26.9984 99.8866 28.4994C99.3252 29.2602 98.8159 30.0519 98.3793 30.8744C97.9427 31.7174 97.5789 32.5399 97.1527 33.3727C96.3107 35.0177 95.3959 36.6113 94.1589 37.9478C93.5456 38.6264 92.8595 39.2227 92.0902 39.7162C91.716 39.9526 91.3002 40.1788 90.8948 40.3536C90.479 40.5387 90.0424 40.6929 89.6058 40.8368C88.743 41.1453 87.8075 41.4331 87.007 41.9883C86.612 42.2659 86.2378 42.6155 85.9571 42.9959C85.6661 43.3763 85.4478 43.7875 85.2087 44.1782C84.7201 44.939 84.1172 45.6484 83.5351 46.3681C82.9425 47.0981 82.3708 47.8486 81.9446 48.6917C81.7367 49.1132 81.5808 49.5758 81.456 50.0282C81.4145 50.2647 81.3417 50.5011 81.3313 50.7376C81.3105 50.9741 81.2897 51.2003 81.2793 51.447C81.2481 52.3929 81.3625 53.349 81.6743 54.2435C81.8303 54.6856 82.0382 55.1174 82.3396 55.5081C82.6307 55.8885 83.0049 56.238 83.4415 56.4539C83.8781 56.6801 84.3355 56.8138 84.7617 56.9577C85.1983 57.0914 85.6245 57.2662 86.0299 57.4821C87.6515 58.3251 88.9925 59.6822 89.9281 61.245C90.874 62.8283 91.2794 64.648 91.9447 66.3753C92.267 67.2286 92.6932 68.0922 93.2857 68.8119C93.8782 69.5316 94.6578 70.1588 95.583 70.4055C96.0404 70.5186 96.529 70.5494 96.9967 70.4672C97.4645 70.4055 97.9115 70.2307 98.3377 70.0148C98.7535 69.7989 99.1485 69.5316 99.5123 69.2437C99.8762 68.9559 100.219 68.6371 100.552 68.3082C101.217 67.6913 101.914 67.0333 102.776 66.7351C103.203 66.5912 103.67 66.5501 104.117 66.6323C104.554 66.7043 104.98 66.9202 105.365 67.1669C105.749 67.4137 106.113 67.7016 106.487 67.9689C106.872 68.2465 107.298 68.4932 107.756 68.6269C108.223 68.7502 108.702 68.7605 109.18 68.6885C109.658 68.6269 110.105 68.4418 110.531 68.2567C111.384 67.8661 112.153 67.3212 112.964 66.8791C113.774 66.4267 114.606 66.0257 115.458 65.6762C117.174 64.9873 118.972 64.4733 120.791 64.1751C121.706 64.0209 122.631 63.9284 123.556 63.8872C124.481 63.8256 125.427 63.805 126.363 63.6508C127.309 63.5171 128.234 63.2806 129.086 62.8488C129.939 62.417 130.729 61.7899 131.249 60.9777C131.508 60.5664 131.696 60.114 131.8 59.6308C131.914 59.1579 131.924 58.6747 131.945 58.2223C131.987 57.297 131.955 56.3717 132.309 55.5698C132.486 55.1585 132.725 54.7884 132.995 54.4183L133.806 53.2976L135.427 51.0358C135.968 50.2955 136.519 49.5347 137.143 48.887C137.766 48.2084 138.536 47.6841 139.242 47.0672C139.596 46.7588 139.939 46.3887 140.188 45.9774C140.427 45.5662 140.615 45.1241 140.729 44.6511C140.843 44.1885 140.906 43.7156 140.916 43.2529C140.937 42.78 140.874 42.3173 140.822 41.8547C140.708 40.9191 140.479 40.0349 140.49 39.1301C140.49 38.2254 140.687 37.3207 140.958 36.4468C141.228 35.5831 141.529 34.699 141.935 33.8765C142.351 33.0643 142.87 32.3034 143.452 31.5838C144.045 30.8641 144.7 30.1855 145.168 29.3836C145.656 28.5817 145.947 27.6872 146.051 26.7619L146.01 26.8339Z" fill="#FFF666"/>
<path d="M31.123 56.5981C31.8091 57.5234 32.412 58.202 32.9525 58.6338C33.4931 59.0656 34.148 59.4666 34.9276 59.8573V59.9292H30.3018V59.4974L25.3329 52.681H25.0938H21.8505V58.4899C21.8505 59.2096 22.495 59.6516 23.7944 59.8059V59.9292H17.3183V59.8059C18.6177 59.6619 19.2622 59.2198 19.2518 58.4899V43.685C19.2518 42.9653 18.6073 42.5232 17.3183 42.3793V42.2456H26.2789C28.3891 42.2456 30.0419 42.6466 31.2269 43.4382C32.412 44.2299 33.0045 45.3814 33.0045 46.8927C33.0045 48.2087 32.5575 49.3499 31.6531 50.3369C30.7488 51.3136 29.5221 51.9922 27.9629 52.3623L31.123 56.5981ZM21.8505 51.6632C23.1811 52.0333 24.5117 52.2184 25.863 52.2184C27.5159 52.2184 28.6905 51.9099 29.3974 51.3033C30.1043 50.6865 30.4473 49.535 30.4473 47.8283C30.4473 47.1189 30.3849 46.4917 30.2498 45.9468C30.1146 45.4019 29.8652 44.8673 29.4909 44.343C29.1167 43.8186 28.545 43.4177 27.7654 43.1298C26.9857 42.8419 26.0294 42.698 24.8963 42.698H21.8609V51.6632H21.8505Z" fill="#0C2340"/>
<path d="M36.7675 49.2781C38.0045 48.106 39.5846 47.52 41.5285 47.52C43.4723 47.52 45.0524 48.106 46.2894 49.2678C47.5264 50.4296 48.1397 51.9409 48.1397 53.8121C48.1397 55.6627 47.5264 57.1741 46.2894 58.3461C45.0524 59.5182 43.4723 60.1042 41.5285 60.1042C39.5846 60.1042 38.0045 59.5285 36.7675 58.3667C35.5305 57.2049 34.9172 55.6936 34.9172 53.8121C34.9172 51.9615 35.5409 50.4502 36.7675 49.2781ZM42.516 59.6827C43.5243 59.6827 44.304 59.3023 44.8757 58.5517C45.4474 57.8012 45.7281 56.7731 45.7281 55.4674C45.7281 53.5962 45.2395 51.8792 44.252 50.3165C43.2644 48.7435 42.0274 47.9621 40.5201 47.9621C39.5118 47.9621 38.7322 48.3425 38.1604 49.093C37.5887 49.8436 37.308 50.8717 37.308 52.1774C37.308 54.0486 37.807 55.7655 38.7946 57.3283C39.7821 58.891 41.0295 59.6827 42.516 59.6827Z" fill="#0C2340"/>
<path d="M57.7136 47.6841H61.643V47.7869C61.1856 47.9514 60.7906 48.229 60.4475 48.6197C60.1045 49.0104 59.7199 49.7198 59.2729 50.7479L54.7926 61.3067C54.5639 61.8105 54.3976 62.1806 54.2832 62.4068C54.1689 62.6432 53.9922 62.9619 53.7323 63.3526C53.4724 63.7433 53.2229 64.0518 52.9631 64.2368C52.7032 64.4322 52.3705 64.6069 51.9651 64.7509C51.5597 64.9051 51.1023 64.9771 50.593 64.9771L49.6262 63.8564C51.9547 63.8564 53.514 62.9517 54.2936 61.1525L54.6679 60.2786L49.699 49.3908L48.7531 47.6738H53.9818V47.7766C52.3082 47.9823 51.8716 48.959 52.6616 50.6965L55.7905 57.6466L58.7843 50.6965C59.013 50.1824 59.1378 49.7403 59.1585 49.3805C59.1793 49.0207 59.1066 48.7328 58.9299 48.5272C58.7531 48.3215 58.5764 48.1673 58.4101 48.0748C58.2438 47.9823 58.0047 47.8794 57.7136 47.7869V47.6841Z" fill="#0C2340"/>
<path d="M73.7845 57.8526C73.7845 58.5312 73.8572 59.0144 73.9924 59.3228C74.1275 59.6313 74.3978 59.8986 74.7824 60.1453V60.2276L70.8011 59.4359C70.8219 59.4359 70.8219 59.4256 70.8219 59.4154C69.9591 59.8677 68.9403 60.0939 67.7865 60.0939C65.9673 60.0939 64.4912 59.5799 63.3478 58.5415C62.2043 57.5031 61.643 56.0945 61.643 54.2953C61.643 52.3522 62.3291 50.738 63.7012 49.4529C65.0734 48.1677 67.0276 47.52 69.5537 47.52C71.1129 47.52 72.5267 47.8285 73.7845 48.4556V57.8526ZM64.117 52.9382C64.117 54.758 64.6056 56.2899 65.5931 57.5339C66.5807 58.7779 67.7969 59.4051 69.2626 59.4051C70.1254 59.4051 70.8323 59.1069 71.3832 58.5209C71.4144 58.1816 71.4352 57.8526 71.4352 57.5339V49.4118C70.5516 48.4865 69.5017 48.0135 68.2751 48.0135C66.9757 48.0135 65.9673 48.4659 65.2293 49.3604C64.4912 50.2548 64.117 51.4372 64.117 52.9382Z" fill="#0C2340"/>
<path d="M79.8241 57.472C79.8241 58.2123 79.9176 58.7572 80.1047 59.0964C80.2918 59.446 80.6868 59.6825 81.2794 59.8264V59.9292H77.2461L77.4748 58.3665V43.2737C77.4748 42.8008 77.3292 42.554 77.0278 42.5232C76.7367 42.4923 76.1962 42.6054 75.4165 42.883V42.7185L79.9488 40.6006L79.8241 41.5876V57.472Z" fill="#0C2340"/>
<path d="M97.5165 41.896C100.24 41.896 102.517 42.7288 104.357 44.4046C106.196 46.0804 107.111 48.3012 107.111 51.0771C107.111 53.853 106.196 56.084 104.357 57.7599C102.517 59.4357 100.24 60.2788 97.5165 60.2788C94.7722 60.2788 92.4853 59.4357 90.6558 57.7599C88.8158 56.084 87.9011 53.853 87.9011 51.0771C87.9011 48.3012 88.8158 46.0702 90.6558 44.4046C92.4853 42.7288 94.7722 41.896 97.5165 41.896ZM98.5353 59.8264C100.292 59.8264 101.695 59.1581 102.756 57.8113C103.816 56.4644 104.346 54.7269 104.346 52.5679C104.346 50.8612 104.013 49.2368 103.348 47.674C102.683 46.1113 101.737 44.8364 100.51 43.8391C99.2837 42.8419 97.9531 42.3586 96.4666 42.3586C94.7099 42.3586 93.3065 43.0269 92.2462 44.3635C91.1859 45.7 90.6558 47.4376 90.6558 49.576C90.6558 51.2827 90.9884 52.9071 91.6537 54.4802C92.319 56.0532 93.2649 57.3281 94.4916 58.3356C95.7078 59.3226 97.0592 59.8264 98.5353 59.8264Z" fill="#0C2340"/>
<path d="M117.849 47.6841H121.768V47.7869C121.311 47.9514 120.916 48.229 120.573 48.6197C120.23 49.0104 119.845 49.7198 119.398 50.7479L114.918 61.3067C114.689 61.8105 114.523 62.1806 114.409 62.4068C114.294 62.6432 114.118 62.9619 113.858 63.3526C113.598 63.7433 113.348 64.0518 113.088 64.2368C112.829 64.4322 112.496 64.6069 112.09 64.7509C111.685 64.9051 111.228 64.9771 110.718 64.9771L109.752 63.8564C112.08 63.8564 113.639 62.9517 114.419 61.1525L114.793 60.2786L109.824 49.3908L108.878 47.6738H114.107V47.7766C112.434 47.9823 111.997 48.959 112.787 50.6965L115.916 57.6466L118.91 50.6965C119.138 50.1824 119.263 49.7403 119.284 49.3805C119.305 49.0207 119.232 48.7328 119.055 48.5272C118.879 48.3215 118.702 48.1673 118.535 48.0748C118.369 47.9823 118.13 47.8794 117.839 47.7869L117.849 47.6841Z" fill="#0C2340"/>
<path d="M127.319 60.0935C125.323 60.0935 123.691 59.6 122.423 58.613L123.847 56.2586H123.899C123.879 57.2867 124.336 58.1195 125.271 58.7569C126.197 59.3944 127.215 59.7234 128.296 59.7234C129.856 59.7234 130.635 58.9934 130.635 57.5437C130.635 56.7521 130.365 56.1661 129.835 55.7651C129.294 55.3744 128.504 55.0865 127.454 54.9118C126.519 54.7678 125.718 54.5416 125.074 54.2538C124.419 53.9659 123.931 53.6369 123.608 53.2668C123.286 52.8966 123.057 52.5368 122.933 52.177C122.808 51.8171 122.735 51.4573 122.735 51.0666C122.735 49.9768 123.192 49.1029 124.107 48.4655C125.022 47.828 126.186 47.499 127.579 47.499C128.504 47.499 129.378 47.6327 130.209 47.9103C131.041 48.1776 131.716 48.5271 132.226 48.9487L130.615 51.3236H130.563C130.615 50.2955 130.22 49.4627 129.378 48.8356C128.536 48.1981 127.631 47.8897 126.664 47.8897C125.906 47.8897 125.355 48.0953 125.022 48.5169C124.689 48.9384 124.523 49.4216 124.523 49.9871C124.523 50.789 124.835 51.3853 125.448 51.7554C126.072 52.1256 126.883 52.3929 127.881 52.5368C130.916 53.0097 132.423 54.2229 132.413 56.1969C132.413 57.3381 131.956 58.2737 131.041 58.9934C130.116 59.7336 128.879 60.0935 127.319 60.0935Z" fill="#0C2340"/>
<path d="M136.883 60.3301L135.001 59.703L135.074 58.1813V46.1626C135.074 45.6589 134.929 45.3915 134.627 45.3401C134.326 45.299 133.764 45.4121 132.933 45.6794V45.5355L137.631 43.3867L137.423 44.4251V47.6843H140.511L140.386 48.2908H137.423V59.4768L140.511 59.374V59.4768L137.423 60.3404H136.883V60.3301Z" fill="#0C2340"/>
<path d="M153.182 57.4002L153.307 57.503C152.902 58.2433 152.205 58.8601 151.218 59.3639C150.23 59.8574 149.107 60.1144 147.85 60.1144C146.01 60.1144 144.482 59.5798 143.245 58.5003C142.008 57.4208 141.394 55.9608 141.394 54.1102C141.394 52.1362 142.091 50.5529 143.473 49.3398C144.856 48.1369 146.519 47.5303 148.453 47.5303C150.324 47.5303 151.685 48.1266 152.538 49.3089C153.151 50.1623 153.297 50.995 152.974 51.8072C152.663 52.5475 152.06 52.9176 151.155 52.9176H143.868C143.889 54.6654 144.357 56.1151 145.282 57.2666C146.207 58.4181 147.423 58.9938 148.941 58.9938C149.7 58.9938 150.511 58.8499 151.363 58.5723C152.226 58.2947 152.829 57.904 153.182 57.4002ZM147.548 47.9724C146.498 47.9724 145.636 48.3733 144.981 49.1753C144.315 49.9772 143.962 51.0876 143.889 52.4961L150.157 52.4241C150.646 52.4241 150.906 52.0746 150.927 51.3857C150.947 50.5118 150.615 49.7099 149.929 48.9799C149.295 48.3116 148.505 47.9724 147.548 47.9724Z" fill="#0C2340"/>
<path d="M162.029 47.5405C162.507 47.5405 162.954 47.6433 163.39 47.849L161.197 51.3857H161.093C161.384 50.5426 161.446 49.936 161.291 49.5454C161.124 49.1547 160.812 48.9593 160.355 48.9593C159.742 48.9593 159.222 49.2883 158.806 49.936C158.39 50.5838 158.12 51.396 157.985 52.3521V57.5852C157.985 58.2638 158.058 58.7573 158.193 59.076C158.328 59.3947 158.598 59.6826 158.983 59.9294H155.511L155.636 58.1918V48.4864C155.261 48.2499 154.742 48.0957 154.076 48.034V47.9312L158.11 47.5508L157.985 49.422V50.2342H158.307C158.598 49.4323 159.076 48.7743 159.752 48.2808C160.428 47.7873 161.187 47.5405 162.029 47.5405Z" fill="#0C2340"/>
<path d="M43.4723 14.1878C41.7676 14.1878 40.2603 14.2701 38.9609 14.4243C37.6511 14.5785 36.4972 14.9075 35.5097 15.4113C34.5118 15.9151 33.6282 16.6348 32.8382 17.5909C32.0481 18.5471 31.3205 19.8116 30.6656 21.4052C30.6032 21.5286 30.5304 21.5697 30.4577 21.5183C30.3745 21.4669 30.3121 21.3538 30.2394 21.1688C30.52 20.3257 30.8527 19.5032 31.2373 18.7116C31.6115 17.9199 32.0481 17.1797 32.5367 16.5114C33.0253 15.8431 33.5658 15.2674 34.1687 14.8047C34.7716 14.3318 35.4265 14.0439 36.1542 13.9205C36.9442 13.7663 37.8278 13.6943 38.8049 13.7046C39.7821 13.7252 40.7592 13.7252 41.7364 13.7252C42.6511 13.7252 43.5659 13.7355 44.4807 13.7458C45.3954 13.7663 46.3102 13.7663 47.225 13.7663H49.2624C51.7884 13.7355 53.8051 13.3139 55.3124 12.5017C55.7801 12.255 56.2583 11.8746 56.7261 11.3811C57.1939 10.8773 57.433 10.3324 57.433 9.74637C57.433 9.59216 57.4122 9.47906 57.381 9.41738C57.3498 9.38653 57.329 9.34541 57.329 9.27344C57.329 9.15007 57.381 9.08838 57.4746 9.08838C57.5057 9.08838 57.5577 9.11922 57.6201 9.18091C57.9943 9.59216 58.2854 9.99312 58.4725 10.3941C58.566 10.5175 58.618 10.7025 58.618 10.9596C58.618 11.1446 58.5556 11.3708 58.4309 11.6175C57.8904 12.4914 57.1003 13.1186 56.04 13.4887C54.9797 13.8588 53.7011 14.085 52.1834 14.1467C51.6429 14.1776 51.0816 14.1878 50.4786 14.1673C49.8757 14.1467 49.3456 14.157 48.8674 14.1878C48.4204 14.1878 48.0982 14.3421 47.8695 14.6608C46.1023 17.3133 44.4703 19.9042 42.9734 22.4333C41.4765 24.9625 40.1147 27.3375 38.8881 29.5479C38.6074 30.0825 38.3787 30.5658 38.202 31.0181C38.0253 31.4705 37.9214 31.8818 37.8902 32.2622C37.8902 32.5089 37.9214 32.7557 37.9837 32.9921C38.0461 33.2286 38.1916 33.4342 38.4099 33.5987C38.6282 33.7735 38.9505 33.9071 39.3767 34.0202C39.8029 34.1333 40.3642 34.1847 41.0503 34.1847C41.2062 34.1847 41.3933 34.1847 41.622 34.1847C41.8507 34.1847 42.0274 34.1745 42.1937 34.1333C42.2873 34.2567 42.2457 34.3801 42.0482 34.5035C41.5077 34.5651 40.9152 34.6063 40.2499 34.6166C39.5846 34.6268 38.9713 34.6371 38.4099 34.6371C37.9318 34.6371 37.4848 34.6268 37.0586 34.6166C36.6324 34.596 36.2581 34.5343 35.9255 34.4315C35.5929 34.3184 35.3226 34.1539 35.1251 33.938C34.9172 33.7221 34.8132 33.4034 34.8132 33.0024C34.8132 32.7557 34.8756 32.4678 35.0003 32.1593C35.1251 31.8509 35.3018 31.5219 35.5201 31.1724C36.3725 29.7947 37.2249 28.3964 38.0981 26.9571C38.9609 25.5177 39.8133 24.0989 40.6553 22.6698C41.4869 21.251 42.2977 19.8631 43.0877 18.5059C43.8778 17.1488 44.6054 15.8431 45.2603 14.5991C45.4162 14.3215 45.3435 14.1776 45.0212 14.1776L43.4723 14.1878Z" fill="#0C2340"/>
<path d="M78.1816 3.50588C78.1816 4.00966 78.1609 4.37978 78.1089 4.62653C78.0569 4.87328 78.0153 5.04806 77.9633 5.14059C77.9114 5.23312 77.8698 5.25368 77.8178 5.21256C77.7658 5.16115 77.745 5.10975 77.745 5.04806C77.745 4.83216 77.6931 4.534 77.5787 4.1536C77.4644 3.78348 77.2461 3.41335 76.9134 3.05351C76.5808 2.69367 76.113 2.38523 75.5205 2.11792C74.9176 1.85061 74.1483 1.71696 73.2024 1.71696C72.3812 1.71696 71.5392 1.83005 70.6764 2.06652C69.8136 2.30298 68.8676 2.75536 67.8593 3.42363C66.851 4.09191 65.7699 5.0275 64.616 6.20983C63.4622 7.39217 62.2147 8.93435 60.853 10.8158C59.5016 12.7075 58.0255 15.0002 56.4351 17.6939C54.8446 20.3979 53.0982 23.585 51.2063 27.2657C51.4246 27.0806 51.7781 26.7928 52.2458 26.4226C52.724 26.0525 53.2438 25.6721 53.8051 25.302C54.3768 24.9319 54.9278 24.6029 55.4579 24.315C55.9985 24.0374 56.4559 23.8935 56.8301 23.8935C57.1107 23.8935 57.2563 24.0066 57.2563 24.2225C57.2563 24.4075 57.1107 24.6954 56.8301 25.0655C56.5806 25.4356 56.2479 25.9497 55.8321 26.6077C55.4267 27.2657 55.0213 27.9648 54.6263 28.7153C54.2313 29.4659 53.8987 30.1958 53.6076 30.9155C53.3269 31.6352 53.1814 32.2109 53.1814 32.6428C53.1814 33.1465 53.3061 33.5167 53.5556 33.7634C53.8051 34.0102 54.1585 34.1335 54.5951 34.1335C55.3228 34.1335 56.3415 33.6606 57.6721 32.725C59.0027 31.7894 60.5099 30.1958 62.2147 27.9545C62.2771 27.8928 62.3395 27.862 62.4019 27.862C62.4642 27.862 62.4954 27.9237 62.4954 28.0471C61.8925 28.8901 61.196 29.7332 60.3956 30.5762C59.5952 31.4193 58.774 32.1801 57.932 32.8689C57.1004 33.5578 56.2583 34.113 55.4267 34.5345C54.5951 34.956 53.8259 35.1719 53.1294 35.1719C52.5889 35.1719 52.1627 35.028 51.8508 34.7298C51.539 34.4317 51.3726 34.0204 51.3726 33.4858C51.3726 32.982 51.5494 32.3446 51.8924 31.5632C52.2354 30.7819 52.6305 29.9902 53.0567 29.1986C53.4829 28.4069 53.8675 27.6667 54.2105 26.9984C54.5535 26.3301 54.7303 25.8469 54.7303 25.5693C54.7303 25.4151 54.6783 25.3328 54.5847 25.3328C54.3041 25.3328 53.7843 25.6001 53.0463 26.1245C52.3082 26.6591 51.383 27.6564 50.2812 29.1163C49.8342 29.8977 49.3872 30.7099 48.909 31.5529C48.4308 32.396 48.0254 33.1465 47.6824 33.8045C47.4329 34.3083 47.1938 34.5551 46.9755 34.5551C46.8196 34.5551 46.6117 34.5139 46.3622 34.442C46.1127 34.3597 45.988 34.2158 45.988 33.9999C45.988 33.8457 46.04 33.6709 46.1335 33.4858C47.4537 31.1109 48.7531 28.8696 50.0109 26.7722C51.2687 24.6646 52.5473 22.598 53.8363 20.5726C55.354 18.2285 56.9132 15.8433 58.5453 13.4067C60.1669 10.97 61.8301 8.75957 63.5349 6.75474C65.2397 4.76019 66.9653 3.12548 68.7117 1.86089C70.4581 0.596309 72.2564 0 74.0236 0C74.4602 0 74.9176 0.0514059 75.3957 0.164499C75.8739 0.277592 76.3209 0.452372 76.7471 0.69912C77.1733 0.945869 77.5163 1.29543 77.7866 1.7478C78.0569 2.21045 78.1816 2.79648 78.1816 3.50588Z" fill="#0C2340"/>
<path d="M71.851 28.7874C71.3105 29.4454 70.6764 30.124 69.9383 30.8231C69.2002 31.5222 68.3894 32.1699 67.5266 32.7457C66.6638 33.3214 65.7595 33.7944 64.8343 34.1542C63.8988 34.514 62.984 34.6888 62.0692 34.6888C60.5827 34.6888 59.8447 34.0308 59.8447 32.7251C59.8447 31.8512 60.0734 30.9054 60.5307 29.8875C60.9881 28.8697 61.5806 27.9341 62.3083 27.0807C63.036 26.2274 63.826 25.5077 64.6992 24.932C65.562 24.3562 66.3936 24.0684 67.1836 24.0684C67.6202 24.0684 67.932 24.1506 68.1088 24.3048C68.2855 24.459 68.3686 24.6647 68.3686 24.9114C68.3686 25.2815 68.2543 25.6928 68.0152 26.1246C67.7761 26.5667 67.4227 26.9779 66.9549 27.3686C66.4767 27.7593 65.8842 28.0883 65.1566 28.3556C64.4289 28.6229 63.5661 28.7566 62.5578 28.7566C62.4019 29.0342 62.2251 29.4865 62.038 30.0931C61.8509 30.6997 61.7574 31.3166 61.7574 31.9438C61.7574 33.2289 62.3395 33.8663 63.5037 33.8663C64.2314 33.8663 64.9798 33.6916 65.7491 33.3523C66.5183 33.013 67.2668 32.5812 67.9944 32.0671C68.7221 31.5531 69.3874 30.9876 70.0007 30.381C70.614 29.7744 71.1233 29.1987 71.5391 28.6743C71.6015 28.6126 71.6743 28.6024 71.7574 28.6229C71.8094 28.6332 71.851 28.6949 71.851 28.7874ZM66.8821 25.1376C66.8821 24.7366 66.6742 24.531 66.2688 24.531C65.957 24.531 65.6347 24.6441 65.3021 24.8806C64.9694 25.117 64.6472 25.4152 64.3353 25.7956C64.0235 26.1657 63.722 26.577 63.4414 27.0088C63.1607 27.4509 62.9216 27.8724 62.7345 28.2734C62.7969 28.3042 62.9112 28.3248 63.0671 28.3453C63.2231 28.3659 63.3478 28.3659 63.4414 28.3659C64.3561 28.3659 65.1566 28.0472 65.853 27.4097C66.5391 26.7723 66.8821 26.0115 66.8821 25.1376Z" fill="#0C2340"/>
<path d="M198.172 26.875C198.172 27.3788 198.152 27.7181 198.12 27.8826C198.089 28.0471 198.016 28.0882 197.912 27.9854C197.746 27.8209 197.517 27.6256 197.226 27.4096C196.935 27.1937 196.436 27.0806 195.719 27.0806C195.106 27.0806 194.544 27.1115 194.035 27.1835C193.526 27.2554 193.006 27.3891 192.476 27.5844C191.946 27.79 191.395 28.0676 190.823 28.4172C190.241 28.7668 189.596 29.25 188.89 29.8566C187.871 30.6996 186.769 31.9334 185.573 33.5681C184.388 35.2028 183.183 36.9814 181.977 38.9143C180.771 40.8471 179.627 42.8109 178.536 44.8157C177.445 46.8205 176.499 48.6094 175.677 50.1825C175.407 50.7171 175.106 51.3545 174.783 52.0742C174.461 52.7939 174.17 53.5238 173.921 54.2435C173.661 54.9632 173.453 55.6418 173.286 56.2586C173.12 56.8858 173.027 57.3382 173.027 57.6466C173.027 58.5513 173.328 59.0037 173.941 59.0037C174.316 59.0037 174.742 58.8289 175.22 58.4691C175.698 58.1195 176.156 57.6158 176.592 56.9578C177.029 56.2998 177.403 55.4978 177.715 54.5417C178.016 53.5855 178.172 52.4957 178.172 51.2928C178.172 50.8919 178.151 50.5629 178.099 50.3058C178.047 50.0488 177.985 49.8432 177.923 49.6787C177.923 49.4731 178.027 49.2777 178.224 49.0721C178.359 48.9384 178.526 48.7739 178.734 48.5889C178.941 48.4038 179.129 48.2599 179.295 48.1571C179.399 48.1571 179.461 48.1879 179.503 48.2599C179.503 48.9282 179.627 49.4936 179.887 49.946C180.137 50.3984 180.469 50.7685 180.854 51.0564C181.249 51.3442 181.665 51.5499 182.133 51.6835C182.59 51.8172 183.027 51.8891 183.432 51.8891C184.014 51.8891 184.638 51.7966 185.314 51.6115C185.989 51.4265 186.686 51.118 187.403 50.676C187.569 50.5731 187.684 50.5834 187.736 50.6965C187.788 50.8096 187.725 50.9021 187.559 50.9741C186.467 51.5499 185.48 51.9611 184.576 52.2387C183.671 52.506 182.84 52.6397 182.05 52.6397C181.405 52.6397 180.823 52.4957 180.293 52.2078C179.763 51.92 179.368 51.591 179.097 51.2209C179.097 52.4957 178.889 53.6575 178.463 54.6959C178.037 55.7343 177.517 56.6185 176.914 57.3484C176.301 58.0681 175.636 58.6336 174.929 59.0346C174.212 59.4355 173.567 59.6411 172.995 59.6411C172.455 59.6411 171.997 59.4766 171.644 59.1374C171.291 58.7981 171.114 58.284 171.114 57.5746C171.114 57.04 171.228 56.382 171.467 55.6109C171.706 54.8398 171.997 54.0585 172.361 53.2668C172.715 52.4752 173.079 51.7246 173.453 50.9947C173.827 50.275 174.128 49.689 174.368 49.2572C175.282 47.571 176.27 45.8644 177.32 44.1166C178.37 42.3688 179.482 40.6415 180.657 38.9246C181.831 37.2076 183.068 35.5523 184.378 33.9588C185.688 32.3652 187.07 30.895 188.526 29.5481C188.931 29.178 189.451 28.7462 190.075 28.2321C190.698 27.7284 191.374 27.2451 192.091 26.7928C192.808 26.3404 193.526 25.96 194.253 25.6618C194.981 25.3637 195.657 25.2095 196.27 25.2095C196.883 25.2095 197.351 25.374 197.673 25.6927C198.016 26.0114 198.172 26.4124 198.172 26.875Z" fill="#0C2340"/>
<path d="M201.135 52.403C200.355 53.3489 199.493 54.2948 198.567 55.2509C197.632 56.2071 196.686 57.0707 195.74 57.8521C194.794 58.6232 193.848 59.2503 192.912 59.713C191.977 60.1859 191.124 60.4224 190.334 60.4224C189.659 60.4224 189.181 60.2579 188.91 59.9186C188.64 59.5793 188.505 59.1578 188.505 58.654C188.505 58.1811 188.65 57.5539 188.941 56.7623C189.233 55.9706 189.659 55.1276 190.241 54.2125C189.804 54.7883 189.285 55.3949 188.713 56.0323C188.131 56.6697 187.538 57.2558 186.925 57.7698C186.312 58.2942 185.698 58.726 185.095 59.0858C184.482 59.4354 183.941 59.6204 183.463 59.6204C182.746 59.6204 182.393 59.2709 182.393 58.5615C182.393 57.7904 182.694 56.8137 183.307 55.6313C183.921 54.4593 184.742 53.3181 185.781 52.2283C186.821 51.1384 187.996 50.1926 189.326 49.4009C190.646 48.6093 192.029 48.2186 193.453 48.2186C193.619 47.8793 193.775 47.6428 193.91 47.5092C194.045 47.3755 194.181 47.2727 194.316 47.211L195.74 46.8101L195.844 46.8615C195.678 47.026 195.511 47.2419 195.355 47.4886C195.199 47.7456 195.043 48.0027 194.867 48.27C195.033 48.27 195.293 48.2906 195.636 48.3214C195.979 48.3522 196.228 48.3934 196.405 48.4242C196.571 48.4962 196.665 48.5784 196.665 48.6812C196.665 48.7841 196.613 48.8355 196.509 48.8355C196.301 48.7635 196 48.7224 195.594 48.6812C195.189 48.6504 194.877 48.6298 194.68 48.6298C193.12 51.3544 191.966 53.5134 191.239 55.107C190.511 56.7006 190.147 57.8932 190.147 58.6643C190.147 58.9624 190.22 59.2195 190.376 59.4251C190.532 59.6307 190.844 59.7233 191.322 59.7233C191.863 59.7233 192.507 59.5279 193.255 59.1475C194.004 58.7568 194.804 58.2222 195.646 57.5334C196.499 56.8445 197.372 56.0426 198.266 55.1378C199.17 54.2331 200.023 53.2769 200.844 52.2591C200.917 52.1563 200.979 52.1357 201.052 52.1871C201.093 52.218 201.135 52.3002 201.135 52.403ZM193.183 48.5681C192.029 48.5681 190.927 48.9691 189.867 49.7813C188.817 50.5833 187.881 51.5394 187.06 52.6292C186.249 53.719 185.594 54.8088 185.095 55.8781C184.607 56.9576 184.357 57.739 184.357 58.253C184.357 58.5203 184.461 58.654 184.659 58.654C184.867 58.654 185.178 58.5203 185.605 58.253C186.031 57.9857 186.509 57.6259 187.06 57.1735C187.601 56.7211 188.151 56.1865 188.713 55.5902C189.274 54.9836 189.794 54.3256 190.272 53.6265C190.813 52.8246 191.343 51.9609 191.852 51.0562C192.361 50.1515 192.819 49.3392 193.224 48.6401L193.183 48.5681Z" fill="#0C2340"/>
<path d="M209.43 49.021C209.222 49.2575 209.014 49.5453 208.796 49.8743C208.578 50.2136 208.432 50.4604 208.36 50.6352C208.328 50.738 208.256 50.7894 208.152 50.7894C208.12 50.7894 208.069 50.738 207.996 50.6352C207.923 50.5323 207.829 50.4295 207.715 50.3062C207.601 50.1931 207.434 50.08 207.227 49.9772C207.019 49.8743 206.738 49.8229 206.364 49.8229C205.917 49.8229 205.428 49.9772 204.888 50.2753C204.347 50.5735 203.869 50.9127 203.463 51.2829C202.819 51.8175 202.247 52.4138 201.759 53.0512C201.27 53.6887 200.802 54.3569 200.355 55.0458C199.919 55.7346 199.493 56.444 199.077 57.1637C198.671 57.8834 198.224 58.6236 197.757 59.3536C197.725 59.4564 197.621 59.5078 197.455 59.5078C197.382 59.5078 197.247 59.405 197.019 59.2097C196.8 59.004 196.686 58.8601 196.686 58.7573C196.686 58.5517 196.8 58.2535 197.039 57.8526C197.58 56.9067 198.131 55.9608 198.692 55.0047C199.253 54.0485 199.784 53.1438 200.272 52.311C200.761 51.4679 201.197 50.738 201.572 50.1211C201.946 49.5042 202.195 49.0416 202.341 48.7331C202.507 48.435 202.632 48.2808 202.694 48.2808C202.767 48.2808 202.933 48.363 203.204 48.5378C203.474 48.7023 203.609 48.9388 203.609 49.2472C203.609 49.35 203.547 49.5145 203.432 49.751C203.318 49.9874 203.183 50.2342 203.027 50.4809C202.871 50.738 202.725 50.9744 202.59 51.2109C202.455 51.4474 202.351 51.6119 202.289 51.7147C202.185 51.8792 202.174 51.9717 202.237 51.9717C202.299 51.9717 202.393 51.9203 202.486 51.8175C202.829 51.4782 203.245 51.1081 203.734 50.7071C204.222 50.3062 204.742 49.9258 205.293 49.5762C205.834 49.2266 206.374 48.9285 206.894 48.692C207.424 48.4555 207.892 48.3424 208.297 48.3424C208.599 48.3424 208.869 48.4144 209.087 48.5686C209.326 48.692 209.43 48.8565 209.43 49.021Z" fill="#0C2340"/>
<path d="M221 72.8627H0V33.1362H24.5325V34.1746H1.04991V71.8243H219.95V34.1746H78.3479V33.1362H221V72.8627Z" fill="#0C2340"/>
</g>
<defs>
<clipPath id="clip0">
<rect width="221" height="83" fill="white"/>
</clipPath>
</defs>
</svg>
