<svg width="1440" height="255" viewBox="0 0 1440 255" fill="none" xmlns="http://www.w3.org/2000/svg">
<rect x="0.5" y="85.5" width="1439" height="169" fill="#0C2340" stroke="#0C2340"/>
<mask id="mask0" mask-type="alpha" maskUnits="userSpaceOnUse" x="0" y="85" width="1440" height="170">
<rect x="0.5" y="85.5" width="1439" height="169" fill="#0E253A" stroke="#0E253A"/>
</mask>
<g mask="url(#mask0)">
<path d="M553.114 147.207C553.282 147.835 553.311 148.5 553.809 148.965C554.237 149.448 555.009 149.54 555.507 150.005C556.005 150.469 556.002 151.293 555.803 151.944C555.604 152.596 555.228 153.145 554.889 153.834C554.347 154.876 554.069 156.072 554.001 157.212C553.968 160.435 552.65 162.209 550.537 164.644C547.069 168.713 544.169 173.229 541.869 178.031C540.617 180.61 539.561 183.36 537.955 185.734C535.565 189.365 531.97 192.123 528.118 194.201C523.016 196.914 517.188 199.149 511.4 199.578C508.531 199.749 505.968 199.389 503.062 199.42C501.644 199.426 500.369 198.571 499.373 197.642C498.358 196.643 497.464 195.537 496.226 194.822C494.262 193.629 491.686 193.497 490.066 191.912C489.461 191.327 489.027 190.546 488.594 189.765C487.89 188.533 487.256 187.282 486.971 185.938C486.685 184.594 486.837 183.208 487.007 181.891C487.21 180.416 487.501 178.993 487.95 177.601C488.631 175.4 489.786 173.297 490.89 171.281C492.824 167.623 494.828 163.946 497.595 160.887C497.214 161.139 496.763 161.409 496.382 161.661C495.226 162.643 494.214 163.886 493.164 164.99C492.579 165.595 491.976 166.131 491.302 166.685C490.583 167.626 489.952 168.617 489.479 169.641C488.987 170.595 488.495 171.549 487.915 172.452C487.456 173.248 486.978 173.974 486.519 174.77C485.962 176.041 485.602 177.483 485.45 178.869C485.05 182.117 484.575 185.085 482.304 187.488C480.256 189.606 477.911 191.73 477.72 194.921C477.556 197.656 478.76 200.474 480.58 202.528C482.08 204.22 484.202 205.445 486.443 205.443C489 205.505 491.133 204.261 493.622 205.463C495.599 206.428 496.895 208.474 497.716 210.422C498.7 212.7 499.284 215.16 500.528 217.294C501.213 218.456 502.424 219.627 503.642 219.151C504.32 218.895 504.677 218.275 505.035 217.656C505.61 216.456 506.096 215.204 506.425 213.92C506.767 212.408 507.071 210.756 508.209 209.703C511.985 206.225 516.17 213.477 519.945 213.063C521.028 212.922 521.981 212.293 522.756 211.562C526.583 207.995 527.929 202.7 533.054 200.355C535.332 199.371 536.721 198.699 538.067 196.47C541.077 191.252 544.088 186.034 547.118 180.887C548.445 178.587 547.939 179.769 549.266 177.47C551.325 172.881 554.355 171.92 555.731 168.411C555.861 167.778 556.06 167.127 556.278 166.545C556.991 164.186 558.02 161.892 558.398 159.398C558.762 157.132 558.513 154.807 558.719 152.509C558.939 149.982 559.772 147.516 560.467 145.087C560.023 143.711 558.386 143.178 557.097 142.551C555.278 141.618 549.222 143.839 547.372 144.185C550.351 143.312 552.59 145.254 553.114 147.207Z" fill="#1F33FF"/>
<path d="M532.706 153.872C532.112 155.003 531.518 156.134 531.311 157.311C531.033 158.507 531.179 159.888 531.966 160.873C532.218 161.254 532.59 161.529 532.995 161.644C533.488 161.811 534.046 161.662 534.534 161.531C536.207 161.083 537.88 160.634 539.623 160.167C541.576 159.644 543.997 158.921 545.497 157.547C545.79 157.244 546.101 157.011 546.393 156.708C546.979 156.103 547.494 155.516 548.098 154.981C549.133 154.105 550.346 153.332 551.275 152.335C552.134 151.358 552.829 150.05 551.675 149.088C550.786 148.28 549.4 148.128 548.172 148.008C547.963 148.064 547.665 148.069 547.456 148.125C545.429 148.369 543.36 148.176 541.296 148.281C540.301 148.472 539.287 148.594 538.311 148.856C538.032 148.931 537.823 148.987 537.526 148.992C536.708 149.286 535.927 149.719 535.272 150.343C534.148 151.168 533.401 152.564 532.706 153.872Z" fill="#1F33FF"/>
<path d="M555.822 152.014C555.317 153.196 554.988 154.48 555.167 155.703C555.246 156.28 555.415 156.908 555.583 157.536C555.751 158.164 555.798 158.898 555.757 159.582C555.717 160.266 555.536 160.987 555.249 161.588C554.98 162.258 554.585 162.737 554.228 163.356C553.476 164.455 552.706 165.484 551.935 166.513C551.165 167.541 550.306 168.519 549.605 169.529C548.904 170.54 548.31 171.67 547.787 172.783C546.757 175.077 545.905 177.474 545.141 179.921C544.724 181.154 544.307 182.387 543.89 183.621C543.473 184.854 542.968 186.036 542.412 187.306C542.124 187.907 541.837 188.507 541.48 189.126C541.327 189.391 541.122 189.745 540.9 190.029C540.677 190.313 540.454 190.597 540.161 190.9C539.182 191.985 537.899 192.777 536.808 193.443C535.646 194.128 534.517 194.655 533.583 195.354C533.081 195.712 532.719 196.034 532.236 196.462C531.823 196.872 531.428 197.352 530.964 197.85C529.297 199.717 527.724 201.933 525.317 203.55C524.105 204.323 522.678 204.855 521.265 205.159C519.833 205.393 518.485 205.38 517.136 205.368C514.49 205.254 512.035 205.015 509.93 205.804C508.972 206.135 507.988 206.922 506.933 207.728C505.879 208.534 504.685 209.377 503.151 209.788C502.384 209.994 501.491 210.009 500.593 209.726C499.677 209.373 499.053 208.718 498.657 208.077C498.191 207.454 497.953 206.845 497.646 206.254L497.263 205.385L496.811 204.534C496.196 203.353 495.688 202.293 494.873 201.764C494.501 201.49 494.096 201.374 493.659 201.416C493.222 201.459 492.664 201.608 492.055 201.846C491.447 202.084 490.838 202.322 490.071 202.527C489.374 202.714 488.393 202.678 487.667 202.199C486.233 201.313 485.771 199.866 484.989 199.179C484.598 198.835 484.137 198.51 483.556 198.292C483.309 198.208 483.063 198.125 482.746 198.06C482.449 198.065 482.151 198.07 481.747 197.954C481.361 197.908 480.918 197.653 480.635 197.43C480.351 197.207 480.118 196.896 479.955 196.565C479.628 195.905 479.441 195.208 479.413 194.543C479.336 193.143 479.646 191.789 480.398 190.69C481.15 189.591 482.274 188.767 483.491 188.291L483.529 188.431C482.381 188.888 481.345 189.763 480.663 190.843C479.981 191.923 479.741 193.258 479.85 194.5C479.878 195.165 480.047 195.793 480.405 196.295C480.694 196.816 481.192 197.28 481.825 197.41C482.141 197.475 482.42 197.4 482.806 197.446C483.104 197.441 483.439 197.576 483.755 197.641C484.336 197.859 484.955 198.216 485.435 198.611C485.933 199.075 486.291 199.577 486.669 200.149C487.028 200.651 487.456 201.134 487.986 201.441C488.517 201.747 489.2 201.788 489.828 201.62C490.455 201.452 491.064 201.214 491.603 200.995C492.212 200.757 492.821 200.519 493.467 200.421C494.132 200.392 494.853 200.573 495.383 200.879C496.482 201.632 497.116 202.882 497.712 203.993C498.379 205.086 498.855 206.304 499.591 207.378C499.949 207.88 500.447 208.344 501.029 208.562C501.61 208.78 502.275 208.752 502.833 208.602C505.362 207.999 506.968 205.625 509.403 204.674C511.908 203.704 514.591 203.957 517.079 204.038C518.357 204.069 519.636 204.1 520.91 203.833C522.202 203.637 523.331 203.11 524.423 202.443C526.588 201.041 528.129 198.983 529.847 197.028C530.706 196.05 531.584 195.142 532.726 194.387C533.799 193.651 534.998 193.106 536.09 192.439C537.201 191.843 538.274 191.106 539.152 190.198C540.029 189.29 540.623 188.159 541.198 186.959C542.297 184.646 543.13 182.179 543.983 179.783C544.835 177.386 545.739 174.901 546.838 172.588C547.431 171.457 548.095 170.308 548.865 169.279C549.636 168.25 550.476 167.203 551.265 166.244C552.124 165.266 552.895 164.237 553.665 163.208C554.041 162.659 554.436 162.179 554.723 161.579C555.011 160.979 555.159 160.416 555.2 159.732C555.37 158.415 554.824 157.216 554.767 155.885C554.709 154.555 555.107 153.252 555.631 152.14L555.822 152.014Z" fill="#FFF666"/>
<path d="M300.665 208.968C301.604 211.061 301.893 213.371 302.182 215.609C302.326 216.475 302.398 217.341 302.832 218.135C303.698 219.651 305.648 220.301 307.381 220.517C309.187 220.734 310.992 220.589 312.653 221.095C315.469 221.961 317.419 224.632 318.358 227.374C319.297 230.189 319.441 233.149 319.73 236.036C319.874 237.769 320.235 239.717 321.463 240.944C322.257 241.738 323.413 242.172 324.424 242.749C322.185 241.305 320.958 238.563 320.596 235.892C320.163 232.932 320.524 229.901 320.38 226.941C320.235 223.549 319.369 219.507 316.119 217.774C314.747 217.052 313.158 216.764 311.714 216.186C305.504 213.66 302.976 204.637 295.466 204.782C295.538 204.782 295.538 204.782 295.61 204.782C297.921 205.07 299.726 206.947 300.665 208.968Z" fill="#1F33FF"/>
<path d="M295.466 204.854L295.466 204.565C299.943 204.493 302.687 207.597 305.359 210.628C307.237 212.794 309.259 214.959 311.786 216.042C312.364 216.259 313.014 216.475 313.592 216.62C314.458 216.908 315.397 217.125 316.191 217.63C319.585 219.435 320.452 223.693 320.524 226.941C320.596 228.024 320.524 229.179 320.524 230.262C320.452 232.139 320.452 234.015 320.741 235.892C321.174 238.924 322.546 241.378 324.496 242.605L324.352 242.894C324.135 242.749 323.918 242.677 323.702 242.533C322.907 242.1 322.041 241.739 321.391 241.089C320.091 239.79 319.73 237.841 319.585 236.109C319.513 235.603 319.513 235.098 319.441 234.521C319.224 232.139 319.008 229.684 318.213 227.447C317.13 224.343 315.036 222.033 312.653 221.239C311.497 220.878 310.27 220.806 309.114 220.734C308.537 220.734 307.959 220.662 307.381 220.59C306.081 220.445 303.77 219.94 302.687 218.135C302.254 217.341 302.11 216.331 301.965 215.609L301.893 215.176C301.604 213.083 301.315 210.917 300.449 209.041C299.365 206.731 297.56 205.215 295.538 204.926C295.61 204.926 295.61 204.926 295.466 204.854ZM320.308 228.313C320.308 227.88 320.308 227.375 320.308 226.941C320.163 223.765 319.369 219.651 316.119 217.919C315.325 217.486 314.458 217.197 313.592 216.98C313.014 216.764 312.364 216.62 311.786 216.403C309.114 215.32 307.165 213.083 305.215 210.917C302.832 208.246 300.521 205.648 297.127 205.071C298.643 205.72 300.015 207.164 300.882 208.968C301.748 210.917 302.11 213.083 302.398 215.176L302.471 215.609C302.543 216.331 302.687 217.269 303.121 218.063C304.059 219.796 306.298 220.229 307.526 220.373C308.103 220.445 308.681 220.445 309.259 220.517C310.486 220.59 311.714 220.662 312.869 221.023C315.397 221.817 317.563 224.271 318.647 227.447C319.441 229.757 319.658 232.211 319.874 234.593C319.947 235.098 319.947 235.603 320.019 236.181C320.163 237.841 320.452 239.79 321.752 241.017C322.185 241.45 322.835 241.811 323.413 242.1C321.968 240.656 320.958 238.563 320.596 236.036C320.308 234.16 320.38 232.211 320.38 230.334C320.308 229.612 320.308 228.963 320.308 228.313Z" fill="#1F33FF"/>
<path d="M220.002 277.18C220.002 276.53 220.147 275.88 219.786 275.303C219.497 274.725 218.775 274.437 218.414 273.859C218.053 273.282 218.269 272.488 218.63 271.91C218.991 271.333 219.497 270.9 220.002 270.322C220.797 269.456 221.374 268.373 221.736 267.291C222.602 264.187 224.335 262.815 227.007 261.011C231.412 257.979 235.384 254.37 238.85 250.328C240.728 248.163 242.461 245.781 244.627 243.904C247.877 241.017 252.066 239.284 256.326 238.274C261.959 236.975 268.169 236.325 273.874 237.408C276.691 237.985 279.074 238.996 281.89 239.717C283.262 240.078 284.273 241.233 284.995 242.388C285.717 243.615 286.295 244.914 287.306 245.925C288.895 247.585 291.35 248.379 292.506 250.328C292.939 251.05 293.156 251.916 293.372 252.782C293.733 254.154 294.022 255.525 293.95 256.897C293.878 258.268 293.372 259.567 292.867 260.794C292.289 262.166 291.639 263.465 290.845 264.692C289.617 266.641 287.956 268.373 286.367 270.034C283.551 273.065 280.662 276.097 277.196 278.334C277.629 278.19 278.135 278.046 278.568 277.901C279.94 277.252 281.24 276.313 282.54 275.519C283.262 275.086 283.984 274.725 284.779 274.364C285.717 273.643 286.584 272.849 287.306 271.982C288.028 271.188 288.75 270.394 289.545 269.673C290.195 269.023 290.845 268.446 291.495 267.796C292.361 266.713 293.083 265.414 293.589 264.115C294.816 261.083 296.044 258.34 298.86 256.608C301.388 255.092 304.204 253.648 305.215 250.617C306.082 248.018 305.649 244.987 304.421 242.532C303.41 240.511 301.677 238.779 299.51 238.202C297.055 237.48 294.672 238.129 292.578 236.325C290.917 234.881 290.195 232.571 289.906 230.478C289.545 228.024 289.617 225.498 288.967 223.116C288.606 221.816 287.739 220.373 286.44 220.517C285.717 220.589 285.212 221.095 284.706 221.6C283.84 222.61 283.046 223.693 282.396 224.848C281.673 226.22 280.951 227.735 279.579 228.457C275.03 230.839 272.863 222.755 269.108 222.177C268.025 222.033 266.942 222.394 266.003 222.899C261.381 225.353 258.709 230.117 253.149 231.056C250.693 231.417 249.177 231.705 247.299 233.51C243.039 237.769 238.778 242.027 234.517 246.214C232.64 248.09 233.434 247.08 231.557 248.957C228.379 252.854 225.202 252.999 222.963 256.03C222.674 256.608 222.313 257.185 221.952 257.691C220.652 259.784 219.064 261.733 218.053 264.043C217.114 266.136 216.753 268.446 215.958 270.611C215.092 272.993 213.648 275.158 212.348 277.324C212.42 278.767 213.864 279.706 214.947 280.644C216.464 282.016 222.891 281.438 224.769 281.583C221.663 281.655 220.075 279.128 220.002 277.18Z" fill="#1F33FF"/>
<path d="M218.63 271.766C219.424 270.756 220.074 269.601 220.219 268.374C220.291 267.796 220.291 267.146 220.291 266.497C220.291 265.847 220.435 265.125 220.652 264.476C220.869 263.826 221.23 263.177 221.663 262.671C222.096 262.094 222.602 261.733 223.107 261.228C224.118 260.361 225.129 259.567 226.14 258.773C227.151 257.979 228.234 257.258 229.173 256.464C230.112 255.67 230.979 254.731 231.773 253.793C233.362 251.844 234.806 249.751 236.178 247.585C236.9 246.503 237.622 245.42 238.344 244.337C239.067 243.254 239.861 242.244 240.727 241.161C241.161 240.656 241.594 240.151 242.1 239.645C242.316 239.429 242.605 239.14 242.894 238.924C243.183 238.707 243.472 238.491 243.833 238.274C245.06 237.48 246.505 237.047 247.732 236.686C249.032 236.325 250.26 236.109 251.343 235.675C251.921 235.459 252.354 235.242 252.932 234.954C253.437 234.665 253.943 234.304 254.52 233.943C256.615 232.572 258.709 230.839 261.453 229.901C262.825 229.468 264.342 229.323 265.786 229.396C267.23 229.54 268.53 229.901 269.83 230.262C272.357 231.056 274.668 231.922 276.907 231.705C277.918 231.633 279.073 231.128 280.301 230.623C281.529 230.117 282.901 229.612 284.489 229.612C285.284 229.612 286.15 229.829 286.945 230.334C287.739 230.911 288.172 231.705 288.389 232.427C288.678 233.149 288.75 233.799 288.894 234.448L289.039 235.387L289.256 236.325C289.544 237.624 289.761 238.779 290.411 239.501C290.7 239.862 291.061 240.078 291.494 240.151C291.927 240.223 292.505 240.223 293.155 240.151C293.805 240.078 294.455 240.006 295.249 240.006C295.971 240.006 296.91 240.295 297.488 240.945C298.643 242.172 298.716 243.688 299.293 244.554C299.582 244.987 299.943 245.42 300.449 245.781C300.665 245.925 300.882 246.07 301.171 246.214C301.46 246.286 301.749 246.358 302.11 246.575C302.471 246.719 302.832 247.08 303.048 247.369C303.265 247.658 303.41 248.091 303.482 248.379C303.626 249.101 303.626 249.823 303.482 250.473C303.193 251.844 302.543 253.071 301.532 253.937C300.521 254.803 299.221 255.309 297.921 255.453L297.921 255.309C299.149 255.164 300.377 254.587 301.315 253.721C302.254 252.855 302.832 251.628 303.048 250.4C303.193 249.751 303.193 249.101 302.976 248.524C302.832 247.946 302.471 247.369 301.893 247.08C301.604 246.936 301.315 246.936 300.954 246.791C300.665 246.647 300.377 246.503 300.088 246.358C299.582 245.997 299.077 245.492 298.716 244.987C298.355 244.409 298.138 243.832 297.921 243.182C297.705 242.605 297.416 242.027 296.982 241.594C296.549 241.161 295.899 240.945 295.249 240.945C294.599 240.945 293.949 241.017 293.372 241.089C292.722 241.161 292.072 241.233 291.422 241.161C290.772 241.017 290.122 240.656 289.689 240.223C288.822 239.212 288.533 237.841 288.245 236.614C287.883 235.387 287.739 234.087 287.306 232.86C287.089 232.283 286.728 231.705 286.223 231.345C285.717 230.984 285.067 230.839 284.489 230.839C281.89 230.767 279.723 232.644 277.124 232.933C274.452 233.221 271.924 232.283 269.541 231.561C268.313 231.2 267.086 230.839 265.786 230.767C264.486 230.623 263.258 230.839 262.031 231.2C259.575 231.994 257.553 233.582 255.387 235.026C254.304 235.748 253.221 236.397 251.921 236.83C250.693 237.263 249.393 237.48 248.166 237.841C246.938 238.13 245.71 238.563 244.627 239.212C243.544 239.862 242.677 240.8 241.811 241.811C240.15 243.76 238.705 245.925 237.261 248.018C235.817 250.112 234.3 252.277 232.639 254.226C231.773 255.164 230.834 256.103 229.823 256.897C228.812 257.691 227.729 258.485 226.718 259.207C225.635 259.928 224.624 260.722 223.613 261.516C223.107 261.949 222.602 262.31 222.168 262.816C221.735 263.321 221.446 263.826 221.23 264.476C220.724 265.703 220.941 267.002 220.652 268.301C220.363 269.601 219.641 270.756 218.847 271.694L218.63 271.766Z" fill="#0C2340"/>
<path d="M1372.51 217.087C1370.46 216.062 1368.77 214.457 1367.13 212.908C1366.47 212.329 1365.86 211.705 1365.03 211.365C1363.39 210.74 1361.47 211.473 1360 212.403C1358.46 213.379 1357.16 214.634 1355.56 215.295C1352.83 216.409 1349.63 215.577 1347.16 214.049C1344.65 212.465 1342.66 210.266 1340.61 208.214C1339.4 206.965 1337.89 205.685 1336.16 205.513C1335.04 205.402 1333.87 205.799 1332.72 205.992C1335.37 205.691 1338.06 207.037 1340.03 208.875C1342.24 210.891 1343.89 213.466 1345.87 215.665C1348.14 218.199 1351.37 220.778 1354.98 220.06C1356.5 219.75 1357.91 218.967 1359.39 218.499C1365.8 216.521 1373.47 221.902 1379.19 217.033C1379.13 217.079 1379.13 217.079 1379.08 217.125C1377.11 218.365 1374.57 218.112 1372.51 217.087Z" fill="#FFF666"/>
<path d="M1379.14 216.978L1379.32 217.201C1375.91 220.093 1371.82 219.429 1367.83 218.775C1365.01 218.289 1362.07 217.894 1359.43 218.657C1358.84 218.855 1358.2 219.099 1357.67 219.353C1356.81 219.679 1355.95 220.106 1355.02 220.218C1351.25 220.971 1347.88 218.224 1345.76 215.756C1345.02 214.964 1344.34 214.024 1343.66 213.186C1342.52 211.688 1341.33 210.236 1339.92 208.966C1337.66 206.895 1335.05 205.864 1332.76 206.15L1332.69 205.835C1332.95 205.809 1333.16 205.728 1333.42 205.702C1334.31 205.534 1335.21 205.265 1336.12 205.356C1337.95 205.538 1339.47 206.818 1340.68 208.067C1341.05 208.412 1341.37 208.803 1341.79 209.204C1343.47 210.911 1345.2 212.673 1347.23 213.901C1350.03 215.617 1353.12 216.078 1355.46 215.183C1356.59 214.731 1357.58 214.009 1358.52 213.333C1358.97 212.967 1359.46 212.657 1359.95 212.347C1361.05 211.635 1363.16 210.563 1365.14 211.273C1365.98 211.613 1366.73 212.304 1367.3 212.771L1367.63 213.06C1369.18 214.497 1370.77 215.99 1372.63 216.894C1374.94 217.995 1377.29 218.025 1379.04 216.967C1379.03 217.069 1379.09 217.023 1379.14 216.978ZM1345.06 214.557C1345.33 214.893 1345.65 215.284 1345.93 215.619C1348.05 217.985 1351.28 220.666 1354.89 219.949C1355.78 219.781 1356.63 219.455 1357.44 219.074C1358.02 218.876 1358.62 218.576 1359.2 218.377C1361.95 217.523 1364.88 218.019 1367.76 218.46C1371.29 219.018 1374.73 219.565 1377.72 217.862C1376.13 218.32 1374.16 218.072 1372.34 217.224C1370.44 216.265 1368.79 214.817 1367.24 213.38L1366.91 213.091C1366.39 212.578 1365.69 211.943 1364.85 211.603C1363.02 210.857 1361.02 211.94 1359.98 212.606C1359.48 212.916 1359.04 213.282 1358.55 213.592C1357.55 214.314 1356.56 215.036 1355.43 215.488C1352.98 216.475 1349.74 215.948 1346.89 214.176C1344.81 212.891 1343.09 211.129 1341.41 209.423C1341.04 209.078 1340.72 208.687 1340.3 208.285C1339.13 207.092 1337.67 205.767 1335.89 205.64C1335.28 205.58 1334.55 205.712 1333.92 205.855C1335.95 206.057 1338.06 207.037 1339.94 208.763C1341.35 210.033 1342.53 211.587 1343.72 213.039C1344.24 213.552 1344.65 214.055 1345.06 214.557Z" fill="#FFF666"/>
<path d="M1391.68 113.258C1392.09 113.761 1392.39 114.355 1393.04 114.573C1393.63 114.837 1394.37 114.603 1395.02 114.821C1395.66 115.039 1396 115.791 1396.08 116.467C1396.17 117.142 1396.05 117.798 1396.03 118.565C1395.96 119.738 1396.2 120.942 1396.61 122.009C1397.91 124.96 1397.44 127.119 1396.52 130.208C1395.03 135.345 1394.25 140.654 1394.13 145.978C1394.05 148.843 1394.22 151.784 1393.74 154.609C1393.06 158.902 1390.92 162.895 1388.26 166.376C1384.73 170.95 1380.34 175.386 1375.24 178.162C1372.7 179.499 1370.22 180.226 1367.58 181.452C1366.29 182.041 1364.78 181.788 1363.49 181.352C1362.15 180.859 1360.88 180.22 1359.46 180.078C1357.18 179.8 1354.77 180.74 1352.64 179.964C1351.85 179.68 1351.14 179.147 1350.42 178.614C1349.27 177.781 1348.18 176.902 1347.36 175.795C1346.55 174.688 1346.12 173.362 1345.73 172.093C1345.31 170.665 1344.99 169.248 1344.82 167.795C1344.54 165.509 1344.72 163.117 1344.9 160.825C1345.15 156.695 1345.46 152.519 1346.73 148.592C1346.48 148.978 1346.18 149.41 1345.94 149.796C1345.29 151.168 1344.88 152.718 1344.38 154.155C1344.1 154.948 1343.77 155.685 1343.38 156.467C1343.11 157.621 1342.95 158.784 1342.94 159.912C1342.88 160.984 1342.83 162.056 1342.67 163.117C1342.58 164.032 1342.44 164.89 1342.35 165.805C1342.37 167.192 1342.63 168.655 1343.07 169.98C1344.04 173.104 1344.83 176.005 1343.75 179.129C1342.76 181.903 1341.49 184.804 1342.63 187.791C1343.61 190.351 1345.87 192.423 1348.37 193.545C1350.44 194.468 1352.88 194.711 1354.92 193.786C1357.27 192.789 1358.7 190.777 1361.47 190.847C1363.67 190.912 1365.69 192.242 1367.24 193.679C1369.07 195.35 1370.62 197.351 1372.63 198.783C1373.74 199.56 1375.32 200.128 1376.24 199.193C1376.75 198.68 1376.82 197.968 1376.89 197.257C1376.92 195.926 1376.85 194.585 1376.62 193.28C1376.31 191.761 1375.9 190.13 1376.51 188.703C1378.51 183.977 1385.31 188.862 1388.58 186.93C1389.51 186.356 1390.12 185.39 1390.53 184.404C1392.54 179.578 1391.59 174.198 1395.29 169.95C1396.96 168.115 1397.95 166.931 1398.26 164.345C1398.86 158.351 1399.45 152.356 1400.09 146.417C1400.35 143.775 1400.38 145.061 1400.64 142.419C1400.63 137.39 1402.99 135.265 1402.8 131.501C1402.66 130.871 1402.57 130.196 1402.53 129.576C1402.21 127.133 1402.2 124.618 1401.52 122.19C1400.92 119.975 1399.73 117.959 1398.97 115.78C1398.13 113.387 1397.88 110.797 1397.51 108.298C1396.54 107.226 1394.83 107.415 1393.39 107.375C1391.35 107.274 1386.75 111.792 1385.2 112.869C1387.56 110.846 1390.4 111.694 1391.68 113.258Z" fill="#1F33FF"/>
<path d="M1375.83 127.737C1375.75 129.013 1375.68 130.288 1375.98 131.446C1376.22 132.65 1376.92 133.848 1378.04 134.422C1378.43 134.666 1378.88 134.762 1379.3 134.701C1379.81 134.65 1380.26 134.284 1380.65 133.964C1381.99 132.866 1383.33 131.768 1384.73 130.624C1386.29 129.344 1388.2 127.687 1389 125.817C1389.14 125.421 1389.33 125.08 1389.47 124.684C1389.75 123.891 1389.98 123.145 1390.31 122.408C1390.9 121.183 1391.68 119.979 1392.12 118.689C1392.5 117.444 1392.59 115.965 1391.14 115.565C1390 115.194 1388.68 115.627 1387.51 116.023C1387.34 116.161 1387.07 116.288 1386.9 116.425C1385.16 117.482 1383.19 118.159 1381.35 119.104C1380.53 119.689 1379.65 120.217 1378.87 120.858C1378.65 121.041 1378.48 121.178 1378.21 121.305C1377.59 121.91 1377.05 122.626 1376.72 123.465C1376.02 124.781 1375.93 126.259 1375.83 127.737Z" fill="#FFF666"/>
<path d="M1396.17 116.579C1396.2 117.864 1396.43 119.17 1397.1 120.211C1397.41 120.703 1397.82 121.206 1398.23 121.709C1398.64 122.212 1398.99 122.862 1399.23 123.502C1399.48 124.142 1399.61 124.873 1399.6 125.539C1399.63 126.26 1399.46 126.86 1399.39 127.571C1399.16 128.882 1398.88 130.137 1398.61 131.391C1398.33 132.646 1397.95 133.891 1397.72 135.1C1397.5 136.309 1397.43 137.584 1397.41 138.814C1397.41 141.328 1397.63 143.863 1397.94 146.408C1398.07 147.704 1398.19 148.999 1398.32 150.294C1398.45 151.59 1398.48 152.875 1398.49 154.262C1398.48 154.927 1398.46 155.593 1398.39 156.304C1398.36 156.609 1398.32 157.015 1398.24 157.366C1398.15 157.716 1398.06 158.067 1397.92 158.463C1397.48 159.855 1396.63 161.105 1395.91 162.162C1395.14 163.265 1394.33 164.21 1393.76 165.231C1393.45 165.765 1393.26 166.207 1392.99 166.796C1392.78 167.34 1392.62 167.94 1392.4 168.585C1391.65 170.973 1391.13 173.64 1389.61 176.104C1388.82 177.309 1387.74 178.381 1386.58 179.24C1385.37 180.043 1384.13 180.587 1382.9 181.131C1380.44 182.118 1378.11 182.911 1376.51 184.497C1375.78 185.193 1375.2 186.316 1374.57 187.484C1373.95 188.653 1373.21 189.913 1371.98 190.92C1371.36 191.423 1370.56 191.804 1369.62 191.916C1368.64 191.972 1367.8 191.632 1367.18 191.211C1366.5 190.835 1366.03 190.378 1365.5 189.967L1364.8 189.332L1364.04 188.743C1362.99 187.921 1362.09 187.164 1361.13 187.017C1360.68 186.921 1360.26 186.982 1359.83 187.145C1359.45 187.363 1359.01 187.729 1358.55 188.197C1358.09 188.664 1357.64 189.132 1357.02 189.635C1356.46 190.093 1355.55 190.464 1354.7 190.327C1353.02 190.109 1352.01 188.982 1351.01 188.677C1350.51 188.525 1349.96 188.419 1349.34 188.46C1349.08 188.485 1348.82 188.51 1348.51 188.582C1348.24 188.709 1347.97 188.836 1347.55 188.897C1347.18 189.014 1346.67 188.963 1346.32 188.877C1345.97 188.791 1345.59 188.547 1345.35 188.37C1344.78 187.902 1344.32 187.344 1344.02 186.75C1343.37 185.505 1343.1 184.144 1343.33 182.833C1343.56 181.522 1344.25 180.308 1345.16 179.373L1345.25 179.485C1344.4 180.374 1343.81 181.598 1343.64 182.863C1343.46 184.128 1343.79 185.444 1344.4 186.531C1344.7 187.125 1345.11 187.628 1345.65 187.938C1346.12 188.293 1346.77 188.511 1347.4 188.369C1347.71 188.298 1347.94 188.115 1348.31 187.998C1348.62 187.926 1348.94 187.855 1349.25 187.784C1349.87 187.743 1350.58 187.814 1351.18 187.976C1351.83 188.194 1352.36 188.504 1352.94 188.87C1353.48 189.179 1354.07 189.443 1354.67 189.504C1355.28 189.565 1355.92 189.321 1356.43 188.909C1356.93 188.497 1357.39 188.03 1357.79 187.608C1358.24 187.14 1358.7 186.673 1359.25 186.317C1359.84 186.017 1360.57 185.885 1361.18 185.945C1362.49 186.179 1363.59 187.057 1364.59 187.824C1365.65 188.545 1366.58 189.459 1367.69 190.134C1368.23 190.444 1368.87 190.662 1369.49 190.621C1370.11 190.58 1370.71 190.28 1371.15 189.914C1373.21 188.323 1373.69 185.499 1375.52 183.628C1377.4 181.712 1379.95 180.838 1382.25 179.887C1383.43 179.388 1384.61 178.89 1385.66 178.123C1386.76 177.411 1387.57 176.466 1388.29 175.409C1389.68 173.239 1390.24 170.729 1391 168.24C1391.38 166.995 1391.81 165.806 1392.54 164.648C1393.21 163.535 1394.08 162.544 1394.8 161.487C1395.57 160.486 1396.24 159.373 1396.67 158.184C1397.09 156.995 1397.17 155.72 1397.2 154.389C1397.25 151.829 1396.99 149.238 1396.78 146.703C1396.57 144.169 1396.37 141.532 1396.42 138.972C1396.49 137.697 1396.62 136.376 1396.9 135.121C1397.18 133.866 1397.51 132.565 1397.84 131.366C1398.22 130.122 1398.5 128.867 1398.77 127.612C1398.89 126.956 1399.05 126.357 1399.07 125.691C1399.08 125.026 1398.99 124.452 1398.74 123.812C1398.35 122.542 1397.36 121.674 1396.76 120.485C1396.16 119.297 1395.99 117.946 1396.01 116.716L1396.17 116.579Z" fill="#0C2340"/>
<path d="M49.8628 254.087C47.8098 253.062 46.122 251.457 44.48 249.908C43.8192 249.329 43.2142 248.705 42.3758 248.365C40.7447 247.74 38.8252 248.473 37.3478 249.403C35.8146 250.379 34.5102 251.634 32.9056 252.295C30.1788 253.409 26.978 252.577 24.5131 251.049C22.0024 249.465 20.0145 247.266 17.9606 245.214C16.7506 243.965 15.2358 242.685 13.5086 242.513C12.391 242.402 11.223 242.799 10.0752 242.992C12.7214 242.691 15.4096 244.037 17.3821 245.875C19.5934 247.891 21.2362 250.466 23.2242 252.665C25.4867 255.199 28.7195 257.778 32.3305 257.06C33.8491 256.75 35.2605 255.967 36.7434 255.499C43.1471 253.521 50.8218 258.902 56.5373 254.033C56.4815 254.079 56.4815 254.079 56.4257 254.125C54.4558 255.365 51.9158 255.112 49.8628 254.087Z" fill="#FFF666"/>
<path d="M56.4915 253.978L56.6745 254.201C53.2584 257.093 49.1687 256.429 45.1807 255.775C42.356 255.289 39.4197 254.894 36.779 255.657C36.195 255.855 35.5552 256.099 35.0169 256.353C34.1638 256.679 33.3007 257.106 32.3661 257.218C28.5977 257.971 25.2276 255.224 23.1124 252.756C22.3701 251.964 21.6938 251.024 21.0073 250.186C19.8733 248.688 18.6835 247.236 17.2703 245.966C15.0132 243.895 12.3964 242.864 10.1108 243.15L10.0394 242.835C10.2985 242.809 10.5117 242.728 10.7708 242.702C11.6596 242.534 12.5584 242.265 13.4728 242.356C15.3016 242.538 16.8164 243.818 18.0264 245.067C18.4026 245.412 18.7229 245.803 19.1449 246.204C20.8225 247.911 22.546 249.673 24.5789 250.901C27.3842 252.617 30.468 253.078 32.814 252.183C33.9362 251.731 34.9312 251.009 35.8703 250.333C36.317 249.967 36.8095 249.657 37.302 249.347C38.3986 248.635 40.5057 247.563 42.4873 248.273C43.3258 248.613 44.0781 249.304 44.6474 249.771L44.9778 250.06C46.5283 251.497 48.1245 252.99 49.9844 253.894C52.2864 254.995 54.6434 255.025 56.3899 253.967C56.3798 254.069 56.4356 254.023 56.4915 253.978ZM22.4104 251.557C22.685 251.893 23.0053 252.284 23.2799 252.619C25.4052 254.985 28.6279 257.666 32.2389 256.949C33.1277 256.781 33.9808 256.455 34.7881 256.074C35.3721 255.876 35.9662 255.576 36.5502 255.377C39.3026 254.523 42.2288 255.019 45.1093 255.46C48.6452 256.018 52.0795 256.565 55.0699 254.862C53.4855 255.32 51.5093 255.072 49.6952 254.224C47.7895 253.265 46.1375 251.817 44.587 250.38L44.2566 250.091C43.7431 249.578 43.0365 248.943 42.1981 248.603C40.3739 247.857 38.3683 248.94 37.3276 249.606C36.8351 249.916 36.3884 250.282 35.896 250.592C34.901 251.314 33.906 252.036 32.7838 252.488C30.3261 253.475 27.095 252.948 24.2439 251.176C22.1652 249.891 20.4418 248.129 18.7641 246.423C18.3879 246.078 18.0676 245.687 17.6456 245.285C16.4814 244.092 15.0224 242.767 13.2394 242.64C12.6298 242.58 11.8984 242.712 11.2687 242.855C13.3007 243.057 15.4096 244.037 17.2905 245.763C18.7036 247.033 19.8834 248.587 21.0732 250.039C21.5867 250.552 21.9985 251.055 22.4104 251.557Z" fill="#FFF666"/>
<path d="M69.0321 150.258C69.444 150.761 69.7442 151.355 70.3895 151.573C70.9789 151.837 71.7203 151.603 72.3656 151.821C73.0109 152.039 73.3468 152.791 73.4337 153.467C73.5207 154.142 73.4044 154.798 73.3796 155.565C73.3146 156.738 73.5543 157.942 73.9616 159.009C75.2593 161.96 74.7887 164.119 73.8668 167.208C72.3828 172.345 71.5999 177.654 71.4825 182.978C71.4036 185.843 71.5737 188.784 71.0884 191.609C70.4062 195.902 68.266 199.895 65.6123 203.376C62.0807 207.95 57.6905 212.386 52.593 215.162C50.0492 216.499 47.5659 217.226 44.9306 218.452C43.6409 219.041 42.127 218.788 40.8364 218.352C39.5 217.859 38.2296 217.22 36.8072 217.078C34.5262 216.8 32.1244 217.74 29.9954 216.964C29.2027 216.68 28.4861 216.147 27.7694 215.614C26.6207 214.781 25.5278 213.902 24.7142 212.795C23.9005 211.688 23.4676 210.362 23.0805 209.093C22.6577 207.665 22.3366 206.248 22.1728 204.795C21.8864 202.509 22.0724 200.117 22.2482 197.825C22.5038 193.695 22.8153 189.519 24.0768 185.592C23.8333 185.978 23.534 186.41 23.2905 186.796C22.6415 188.168 22.2313 189.718 21.7296 191.155C21.4458 191.948 21.1163 192.685 20.7309 193.467C20.4626 194.621 20.296 195.784 20.2867 196.912C20.2318 197.984 20.1768 199.056 20.0202 200.117C19.9296 201.032 19.7931 201.89 19.7024 202.805C19.7188 204.192 19.9842 205.655 20.417 206.98C21.3899 210.104 22.1796 213.005 21.1003 216.129C20.107 218.903 18.8446 221.804 19.985 224.791C20.9624 227.351 23.2194 229.423 25.7246 230.545C27.7877 231.468 30.2261 231.711 32.2674 230.786C34.6235 229.789 36.0542 227.777 38.8175 227.847C41.0171 227.912 43.0399 229.242 44.5904 230.679C46.4255 232.35 47.9713 234.351 49.9841 235.783C51.087 236.56 52.6723 237.128 53.5858 236.193C54.0984 235.68 54.169 234.968 54.2395 234.257C54.2689 232.926 54.1966 231.585 53.9669 230.28C53.6558 228.761 53.2532 227.13 53.8564 225.703C55.864 220.977 62.6646 225.862 65.9342 223.93C66.8633 223.356 67.472 222.39 67.8776 221.404C69.8952 216.578 68.9408 211.198 72.6454 206.95C74.315 205.115 75.3046 203.931 75.6123 201.345C76.2067 195.351 76.8011 189.356 77.4412 183.417C77.7031 180.775 77.7296 182.061 77.9915 179.419C77.9771 174.39 80.3425 172.265 80.1514 168.501C80.0086 167.871 79.9217 167.196 79.8805 166.576C79.5585 164.133 79.5513 161.618 78.8686 159.19C78.2674 156.975 77.0821 154.959 76.3234 152.78C75.4833 150.387 75.2272 147.797 74.8593 145.298C73.8882 144.226 72.1766 144.415 70.7441 144.375C68.702 144.274 64.0986 148.792 62.5553 149.869C64.9106 147.846 67.7508 148.694 69.0321 150.258Z" fill="#1F33FF"/>
<path d="M53.1806 164.737C53.1054 166.013 53.0303 167.288 53.3259 168.446C53.5657 169.65 54.2676 170.848 55.3907 171.422C55.777 171.666 56.2291 171.762 56.6456 171.701C57.1637 171.65 57.6104 171.284 58.0012 170.964C59.3413 169.866 60.6814 168.768 62.0773 167.624C63.6408 166.344 65.5493 164.687 66.3503 162.817C66.4922 162.421 66.6799 162.08 66.8218 161.684C67.1056 160.891 67.3335 160.145 67.6631 159.408C68.2462 158.183 69.0326 156.979 69.4683 155.689C69.8483 154.444 69.9435 152.965 68.4955 152.565C67.3523 152.194 66.0269 152.627 64.8589 153.023C64.6914 153.161 64.4223 153.288 64.2548 153.425C62.5083 154.482 60.543 155.159 58.705 156.104C57.8775 156.689 57.0043 157.217 56.2226 157.858C55.9992 158.041 55.8317 158.178 55.5626 158.305C54.9383 158.91 54.4056 159.626 54.0659 160.465C53.3711 161.781 53.2758 163.259 53.1806 164.737Z" fill="#FFF666"/>
<path d="M73.5255 153.579C73.552 154.864 73.7817 156.17 74.448 157.211C74.7583 157.703 75.1701 158.206 75.582 158.709C75.9938 159.212 76.3398 159.862 76.5841 160.502C76.8285 161.142 76.9612 161.873 76.9465 162.539C76.9776 163.26 76.8155 163.86 76.745 164.571C76.5125 165.882 76.2341 167.137 75.9558 168.391C75.6775 169.646 75.2975 170.891 75.0751 172.1C74.8526 173.309 74.7775 174.584 74.7582 175.814C74.7653 178.328 74.9757 180.863 75.2877 183.408C75.4158 184.704 75.5438 185.999 75.6719 187.294C75.8 188.59 75.8265 189.875 75.8429 191.262C75.8282 191.927 75.8135 192.593 75.743 193.304C75.7128 193.609 75.6724 194.015 75.5864 194.366C75.5003 194.716 75.4143 195.067 75.2724 195.463C74.8265 196.855 73.9843 198.105 73.2639 199.162C72.4877 200.265 71.6757 201.21 71.1128 202.231C70.8033 202.765 70.6056 203.207 70.342 203.796C70.1342 204.34 69.9721 204.94 69.7543 205.585C69.0045 207.973 68.4835 210.64 66.9566 213.104C66.1703 214.309 65.0892 215.381 63.9267 216.24C62.7184 217.043 61.4845 217.587 60.2507 218.131C57.793 219.118 55.457 219.911 53.8634 221.497C53.1274 222.193 52.5543 223.316 51.9254 224.484C51.2965 225.653 50.556 226.913 49.3276 227.92C48.7134 228.423 47.906 228.804 46.9715 228.916C45.9912 228.972 45.1527 228.632 44.5276 228.211C43.8466 227.835 43.3789 227.378 42.8554 226.967L42.1488 226.332L41.3863 225.743C40.3392 224.921 39.4395 224.164 38.4794 224.017C38.0272 223.921 37.6107 223.982 37.1842 224.145C36.8034 224.363 36.3567 224.729 35.8999 225.197C35.4432 225.664 34.9864 226.132 34.3722 226.635C33.8138 227.093 32.9049 227.464 32.0463 227.327C30.3749 227.109 29.3581 225.982 28.3622 225.677C27.8643 225.525 27.3105 225.419 26.6908 225.46C26.4318 225.485 26.1727 225.51 25.8579 225.582C25.5888 225.709 25.3197 225.836 24.9032 225.897C24.5325 226.014 24.0245 225.963 23.6739 225.877C23.3234 225.791 22.9371 225.547 22.6982 225.37C22.1289 224.902 21.6713 224.344 21.3711 223.75C20.725 222.505 20.4495 221.144 20.682 219.833C20.9146 218.522 21.5993 217.308 22.5129 216.373L22.6044 216.485C21.7467 217.374 21.1636 218.598 20.9869 219.863C20.8102 221.128 21.1414 222.444 21.7519 223.531C22.0521 224.125 22.4639 224.628 22.9975 224.938C23.4753 225.293 24.1206 225.511 24.7503 225.369C25.0652 225.298 25.2886 225.115 25.6593 224.998C25.9742 224.926 26.289 224.855 26.6039 224.784C27.2236 224.743 27.9348 224.814 28.5343 224.976C29.1796 225.194 29.7132 225.504 30.2926 225.87C30.8262 226.179 31.4157 226.443 32.0253 226.504C32.6349 226.565 33.2747 226.321 33.7772 225.909C34.2798 225.497 34.7366 225.03 35.1375 224.608C35.5943 224.14 36.051 223.673 36.5993 223.317C37.1934 223.017 37.9247 222.885 38.5343 222.945C39.8451 223.179 40.9379 224.057 41.9392 224.824C42.9964 225.545 43.9318 226.459 45.0448 227.134C45.5784 227.444 46.2237 227.662 46.8434 227.621C47.4631 227.58 48.0571 227.28 48.5038 226.914C50.5597 225.323 51.045 222.499 52.8721 220.628C54.755 218.712 57.3043 217.838 59.6045 216.887C60.7826 216.388 61.9606 215.89 63.0114 215.123C64.108 214.411 64.92 213.466 65.6404 212.409C67.0355 210.239 67.5921 207.729 68.352 205.24C68.7319 203.995 69.1576 202.806 69.8881 201.648C70.5627 200.535 71.4305 199.544 72.151 198.487C72.9171 197.486 73.5918 196.373 74.0175 195.184C74.4432 193.995 74.5183 192.72 74.5477 191.389C74.5963 188.829 74.3402 186.238 74.1298 183.703C73.9194 181.169 73.7191 178.532 73.7678 175.972C73.8429 174.697 73.9739 173.376 74.2522 172.121C74.5305 170.866 74.8647 169.565 75.1888 168.366C75.5687 167.122 75.847 165.867 76.1253 164.612C76.2416 163.956 76.4037 163.357 76.4184 162.691C76.433 162.026 76.336 161.452 76.0917 160.812C75.7046 159.542 74.7133 158.674 74.1129 157.485C73.5126 156.297 73.3387 154.946 73.358 153.716L73.5255 153.579Z" fill="#0C2340"/>
<path d="M886.743 178.522C887.502 180.701 887.529 183.013 887.612 185.278C887.679 186.157 887.69 187.082 888.026 187.834C888.733 189.494 890.603 190.296 892.31 190.672C894.073 191.001 895.912 191.082 897.533 191.808C900.241 192.95 901.91 195.784 902.598 198.674C903.286 201.564 903.096 204.521 903.062 207.442C903.039 209.235 903.208 211.15 904.306 212.491C905.038 213.385 906.116 213.902 907.127 214.568C905.089 212.877 904.086 210.058 903.941 207.375C903.827 204.388 904.434 201.371 904.625 198.414C904.81 194.995 904.344 190.896 901.264 188.844C899.968 187.946 898.418 187.535 897 186.829C891.055 183.672 889.457 174.432 881.974 173.84C882.02 173.896 882.076 173.85 882.076 173.85C884.383 174.388 886.03 176.399 886.743 178.522Z" fill="#FFF666"/>
<path d="M882.066 173.952L882.096 173.647C886.521 174.037 888.962 177.358 891.357 180.624C893.076 182.95 894.784 185.377 897.224 186.647C897.757 186.956 898.403 187.174 898.992 187.438C899.83 187.778 900.715 188.174 901.487 188.662C904.659 190.825 905.104 195.127 904.883 198.389C904.828 199.461 904.662 200.624 904.551 201.742C904.37 203.57 904.077 205.491 904.2 207.35C904.36 210.393 905.439 212.963 907.294 214.43L907.117 214.669C906.924 214.547 906.685 214.37 906.492 214.248C905.719 213.761 904.947 213.273 904.352 212.547C903.162 211.094 903.048 209.134 903.017 207.386C903.021 206.822 903.016 206.36 903.02 205.796C903.049 203.439 903.087 200.98 902.552 198.618C901.793 195.413 899.936 192.919 897.579 191.864C896.445 191.392 895.282 191.224 894.119 191.057C893.565 190.951 892.955 190.89 892.402 190.784C891.147 190.505 888.86 189.764 887.97 187.879C887.588 187.072 887.587 186.046 887.51 185.269L887.505 184.806C887.457 182.698 887.364 180.534 886.687 178.568C885.847 176.176 884.169 174.47 882.269 173.973C882.167 173.962 882.111 174.008 882.066 173.952ZM904.438 199.781C904.488 199.273 904.528 198.866 904.523 198.404C904.733 195.244 904.278 191.043 901.254 188.946C900.481 188.459 899.643 188.119 898.804 187.779C898.215 187.515 897.625 187.251 897.036 186.987C894.551 185.662 892.741 183.224 891.078 180.853C888.957 177.922 886.974 175.159 883.625 174.262C885.079 175.125 886.269 176.577 886.946 178.543C887.669 180.564 887.706 182.774 887.855 184.892L887.861 185.355C887.892 186.076 887.949 187.057 888.285 187.808C889.084 189.581 891.268 190.312 892.478 190.535C893.031 190.641 893.585 190.748 894.195 190.808C895.358 190.975 896.623 191.153 897.756 191.625C900.216 192.691 902.163 195.296 902.913 198.603C903.448 200.965 903.455 203.479 903.427 205.837C903.422 206.4 903.428 206.863 903.423 207.427C903.409 209.118 903.477 211.023 904.677 212.374C905.089 212.877 905.612 213.288 906.191 213.654C904.91 212.09 904.106 209.855 903.997 207.33C903.929 205.425 904.121 203.494 904.358 201.62C904.261 201.046 904.377 200.39 904.438 199.781Z" fill="#FFF666"/>
<path d="M799.851 238.409C799.911 237.8 800.083 237.099 799.885 236.514C799.64 235.874 798.959 235.499 798.705 234.96C798.461 234.32 798.688 233.574 799.099 233.05C799.511 232.527 800.115 232.125 800.627 231.612C801.475 230.824 802.185 229.869 802.657 228.736C803.828 225.723 805.64 224.518 808.509 223.008C813.225 220.451 817.54 217.29 821.398 213.57C823.494 211.572 825.453 209.407 827.722 207.735C831.255 205.214 835.547 203.846 839.914 203.255C845.633 202.491 851.892 202.499 857.425 204.127C860.163 204.964 862.445 206.269 865.174 207.208C866.51 207.7 867.415 208.919 868.005 210.209C868.652 211.453 869.074 212.881 869.944 213.942C871.352 215.775 873.664 216.775 874.636 218.873C875.018 219.68 875.141 220.514 875.263 221.347C875.483 222.754 875.703 224.161 875.46 225.573C875.273 226.94 874.634 228.21 874.005 229.379C873.265 230.639 872.524 231.899 871.59 233.037C870.18 234.846 868.383 236.412 866.596 237.875C863.505 240.594 860.312 243.303 856.636 245.195C857.108 245.088 857.581 244.981 858.053 244.874C859.536 244.406 860.856 243.511 862.247 242.932C862.999 242.596 863.75 242.261 864.593 242.037C865.578 241.417 866.471 240.685 867.365 239.953C868.202 239.267 868.994 238.525 869.832 237.839C870.502 237.29 871.228 236.695 871.944 236.202C872.913 235.221 873.755 233.971 874.44 232.757C875.905 229.876 877.442 227.31 880.413 225.81C883.058 224.483 886.09 223.4 887.352 220.499C888.473 217.994 888.313 214.951 887.391 212.345C886.576 210.212 885.066 208.368 882.947 207.49C880.625 206.592 878.081 206.903 876.276 204.927C874.791 203.343 874.256 200.981 874.162 198.817C873.998 196.338 874.351 193.808 873.928 191.354C873.698 190.049 872.98 188.49 871.64 188.561C870.918 188.592 870.36 189.05 869.801 189.507C868.842 190.386 867.919 191.423 867.142 192.526C866.244 193.821 865.484 195.285 863.991 195.854C859.233 197.792 857.895 189.552 854.196 188.568C853.145 188.309 852.042 188.559 851.022 189.021C846.208 191.005 842.991 195.507 837.47 195.829C834.991 195.992 833.447 196.044 831.437 197.691C826.803 201.487 822.112 205.329 817.478 209.126C815.412 210.819 816.325 209.883 814.259 211.576C810.671 215.169 807.511 214.957 804.974 217.782C804.563 218.306 804.254 218.839 803.843 219.363C802.31 221.365 800.549 223.088 799.357 225.278C798.185 227.264 797.603 229.515 796.579 231.568C795.478 233.869 793.844 235.861 792.312 237.864C792.273 239.296 793.604 240.352 794.576 241.424C795.913 242.942 802.42 243.026 804.238 243.31C801.033 243.042 799.649 240.441 799.851 238.409Z" fill="#1F33FF"/>
<path d="M821.252 239.361C822.155 238.528 823.16 237.704 823.779 236.637C824.398 235.57 824.788 234.224 824.391 233.056C824.228 232.629 824.009 232.248 823.678 231.959C823.246 231.659 822.738 231.608 822.23 231.558C820.503 231.386 818.776 231.214 817.003 230.986C814.971 230.783 812.477 230.586 810.557 231.318C810.187 231.435 809.806 231.654 809.481 231.827C808.729 232.162 808.024 232.554 807.226 232.834C805.901 233.266 804.586 233.597 803.342 234.242C802.209 234.796 801.083 235.813 801.82 237.169C802.431 238.256 803.6 238.885 804.778 239.413C805.027 239.489 805.231 239.51 805.48 239.586C807.481 240.093 809.341 240.996 811.333 241.605C812.339 241.808 813.299 241.955 814.305 242.158C814.554 242.234 814.813 242.208 815.062 242.285C815.931 242.32 816.819 242.152 817.617 241.872C818.998 241.394 820.181 240.332 821.252 239.361Z" fill="#FFF666"/>
<path d="M798.962 232.882C799.82 231.993 800.596 230.89 800.92 229.691C801.083 229.092 801.143 228.482 801.213 227.771C801.33 227.115 801.446 226.46 801.766 225.825C802.085 225.19 802.45 224.611 802.963 224.097C803.475 223.584 804.024 223.228 804.526 222.816C805.577 222.049 806.719 221.393 807.816 220.682C808.958 220.026 809.999 219.36 811.04 218.694C812.035 217.972 812.984 217.195 813.944 216.315C815.761 214.547 817.339 212.601 818.973 210.609C819.739 209.608 820.607 208.617 821.429 207.57C822.296 206.579 823.164 205.588 824.078 204.653C824.534 204.185 825.093 203.728 825.595 203.316C825.875 203.087 826.154 202.859 826.479 202.686C826.804 202.513 827.083 202.284 827.454 202.167C828.753 201.476 830.216 201.211 831.521 200.982C832.827 200.753 834.066 200.671 835.224 200.376C835.798 200.279 836.28 200.071 836.818 199.817C837.357 199.563 837.895 199.308 838.489 199.008C840.708 197.844 843.013 196.329 845.846 195.688C847.263 195.368 848.752 195.362 850.21 195.661C851.622 195.904 852.903 196.442 854.137 196.925C856.551 197.935 858.751 199.026 861.007 199.045C862.033 199.045 863.201 198.648 864.415 198.307C865.684 197.921 867.111 197.499 868.681 197.706C869.438 197.833 870.342 198.026 871.049 198.66C871.755 199.295 872.081 200.148 872.315 200.89C872.494 201.677 872.535 202.297 872.622 202.973L872.734 203.907L872.847 204.842C872.975 206.138 873.113 207.331 873.652 208.103C873.871 208.484 874.257 208.728 874.699 208.926C875.152 209.022 875.761 209.083 876.325 209.088C876.99 209.103 877.61 209.062 878.423 209.143C879.18 209.27 880.018 209.61 880.567 210.28C881.564 211.61 881.571 213.099 881.988 214.064C882.197 214.547 882.563 214.993 882.985 215.395C883.223 215.572 883.361 215.74 883.655 215.872C883.894 216.05 884.199 216.08 884.54 216.268C884.88 216.456 885.201 216.847 885.373 217.172C885.546 217.497 885.664 217.868 885.725 218.284C885.858 219.016 885.685 219.717 885.468 220.362C885.032 221.652 884.245 222.857 883.139 223.67C882.032 224.483 880.717 224.814 879.386 224.784L879.35 224.626C880.635 224.601 881.859 224.158 882.91 223.391C883.915 222.567 884.59 221.454 884.97 220.21C885.132 219.61 885.248 218.955 885.105 218.325C885.008 217.751 884.718 217.055 884.129 216.791C883.834 216.659 883.539 216.527 883.244 216.395C882.95 216.263 882.665 216.03 882.426 215.852C881.959 215.395 881.491 214.938 881.191 214.344C880.89 213.749 880.748 213.12 880.605 212.49C880.406 211.906 880.162 211.266 879.796 210.819C879.384 210.316 878.795 210.052 878.185 209.991C877.575 209.931 876.91 209.916 876.29 209.956C875.671 209.997 875.005 209.982 874.304 209.81C873.659 209.592 873.079 209.226 872.723 208.678C871.91 207.571 871.837 206.229 871.653 204.98C871.424 203.674 871.397 202.389 871.112 201.129C870.969 200.499 870.669 199.905 870.191 199.55C869.769 199.149 869.124 198.93 868.514 198.87C865.928 198.561 863.614 200.177 860.987 200.275C858.316 200.316 855.922 199.103 853.554 198.149C852.375 197.621 851.186 197.195 849.876 196.962C848.621 196.683 847.336 196.709 846.076 196.994C843.557 197.564 841.364 198.987 839.043 200.141C837.911 200.695 836.723 201.295 835.464 201.58C834.204 201.865 832.909 201.992 831.659 202.176C830.41 202.359 829.105 202.588 828.018 203.198C826.886 203.753 825.881 204.576 824.967 205.511C823.15 207.28 821.461 209.317 819.781 211.253C818.147 213.245 816.467 215.182 814.548 216.94C813.589 217.819 812.584 218.643 811.488 219.354C810.391 220.066 809.304 220.676 808.162 221.332C807.02 221.987 805.933 222.597 804.837 223.309C804.288 223.665 803.74 224.021 803.283 224.488C802.826 224.956 802.471 225.434 802.162 225.967C801.533 227.136 801.559 228.421 801.225 229.722C800.845 230.966 800.023 232.013 799.064 232.892L798.962 232.882Z" fill="#0C2340"/>
<path d="M1050.21 236.068C1050.81 238.282 1052.05 240.253 1053.25 242.168C1053.68 242.93 1054.18 243.646 1054.35 244.535C1054.64 246.257 1053.54 247.994 1052.34 249.26C1051.08 250.571 1049.59 251.603 1048.63 253.046C1047 255.5 1047.18 258.802 1048.2 261.52C1049.26 264.293 1051.02 266.675 1052.63 269.092C1053.62 270.524 1054.57 272.261 1054.4 273.989C1054.29 275.106 1053.67 276.173 1053.26 277.261C1054.07 274.725 1053.28 271.825 1051.87 269.529C1050.33 266.965 1048.12 264.847 1046.36 262.465C1044.32 259.748 1042.43 256.071 1043.84 252.672C1044.45 251.244 1045.49 250.014 1046.24 248.653C1049.44 242.764 1045.68 234.18 1051.57 229.534C1051.52 229.58 1051.52 229.58 1051.46 229.626C1049.86 231.313 1049.61 233.853 1050.21 236.068Z" fill="#1F33FF"/>
<path d="M1051.55 229.738L1051.5 229.783C1050.12 231.288 1049.73 233.66 1050.31 236.078C1050.83 238.079 1051.98 239.938 1053.08 241.741L1053.3 242.122C1053.75 242.782 1054.23 243.6 1054.35 244.535C1054.71 246.572 1053.19 248.472 1052.27 249.407C1051.87 249.829 1051.42 250.195 1051.02 250.617C1050.18 251.405 1049.27 252.238 1048.61 253.249C1047.21 255.419 1047.06 258.533 1048.24 261.576C1049.05 263.811 1050.44 265.847 1051.78 267.828C1052.04 268.265 1052.36 268.656 1052.67 269.148C1053.66 270.58 1054.62 272.317 1054.44 274.146C1054.35 275.061 1053.95 275.945 1053.56 276.727C1053.49 276.976 1053.37 277.169 1053.29 277.418L1053 277.286C1053.68 275.046 1053.18 272.277 1051.64 269.713C1050.68 268.077 1049.43 266.67 1048.24 265.218C1047.55 264.38 1046.77 263.532 1046.14 262.648C1044.19 260.043 1042.16 256.198 1043.58 252.697C1043.92 251.859 1044.47 251.041 1044.95 250.269C1045.31 249.791 1045.67 249.212 1045.98 248.678C1047.31 246.194 1047.44 243.283 1047.52 240.417C1047.66 236.379 1047.82 232.238 1051.33 229.458L1051.55 229.738ZM1048.52 264.989C1049.77 266.396 1051 267.904 1051.97 269.54C1053.25 271.668 1053.84 273.984 1053.63 276.016C1053.9 275.427 1054.17 274.736 1054.23 274.126C1054.4 272.399 1053.44 270.763 1052.51 269.285C1052.24 268.849 1051.92 268.458 1051.61 267.965C1050.27 265.984 1048.88 263.948 1048.03 261.657C1046.85 258.513 1046.97 255.241 1048.42 253.026C1049.09 252.015 1049.99 251.181 1050.9 250.348C1051.34 249.982 1051.74 249.56 1052.14 249.138C1053 248.249 1054.46 246.496 1054.09 244.56C1053.96 243.727 1053.48 242.909 1053.03 242.249L1052.81 241.868C1051.71 240.065 1050.56 238.206 1050.05 236.104C1049.53 234.102 1049.67 232.217 1050.48 230.708C1048.22 233.305 1048.04 236.724 1047.94 240.356C1047.8 243.267 1047.71 246.234 1046.33 248.764C1046.02 249.298 1045.66 249.877 1045.3 250.355C1044.82 251.127 1044.28 251.844 1043.94 252.682C1042.53 256.081 1044.57 259.824 1046.43 262.318C1046.7 262.653 1047.02 263.044 1047.3 263.379C1047.64 264.029 1048.05 264.532 1048.52 264.989Z" fill="#1F33FF"/>
<path d="M1155.78 237.709C1155.37 237.206 1154.84 236.794 1154.76 236.119C1154.61 235.489 1154.99 234.808 1154.9 234.133C1154.82 233.457 1154.14 232.98 1153.5 232.761C1152.85 232.543 1152.19 232.528 1151.43 232.402C1150.27 232.234 1149.13 231.762 1148.17 231.153C1145.53 229.3 1143.32 229.336 1140.11 229.632C1134.78 230.076 1129.42 229.799 1124.18 228.866C1121.36 228.38 1118.51 227.634 1115.64 227.554C1111.3 227.378 1106.96 228.69 1103.03 230.607C1097.85 233.169 1092.63 236.6 1088.91 241.052C1087.1 243.283 1085.9 245.574 1084.18 247.917C1083.34 249.065 1083.29 250.599 1083.47 251.951C1083.69 253.358 1084.06 254.729 1083.92 256.152C1083.75 258.443 1082.35 260.612 1082.69 262.853C1082.82 263.686 1083.2 264.493 1083.58 265.301C1084.17 266.591 1084.82 267.835 1085.74 268.851C1086.67 269.867 1087.88 270.552 1089.05 271.181C1090.37 271.877 1091.69 272.471 1093.09 272.917C1095.27 273.648 1097.65 273.937 1099.93 274.215C1104.03 274.777 1108.19 275.294 1112.29 274.83C1111.86 274.993 1111.38 275.201 1110.95 275.364C1109.48 275.73 1107.88 275.828 1106.37 276.036C1105.54 276.159 1104.75 276.337 1103.91 276.561C1102.72 276.597 1101.55 276.531 1100.44 276.318C1099.38 276.161 1098.32 276.004 1097.25 275.948C1096.33 275.857 1095.47 275.822 1094.55 275.731C1093.19 275.442 1091.81 274.894 1090.6 274.209C1087.73 272.64 1085.04 271.295 1081.76 271.738C1078.85 272.166 1075.75 272.833 1073.05 271.127C1070.73 269.665 1069.15 267.044 1068.54 264.367C1068.04 262.162 1068.28 259.724 1069.59 257.905C1071.03 255.791 1073.29 254.784 1073.76 252.061C1074.13 249.892 1073.22 247.647 1072.12 245.844C1070.84 243.716 1069.19 241.806 1068.18 239.551C1067.63 238.317 1067.39 236.651 1068.48 235.939C1069.09 235.537 1069.8 235.608 1070.51 235.679C1071.82 235.912 1073.12 236.247 1074.36 236.729C1075.79 237.333 1077.3 238.049 1078.82 237.738C1083.85 236.7 1080.4 229.071 1082.94 226.246C1083.68 225.448 1084.75 225.041 1085.8 224.837C1090.93 223.809 1096.01 225.804 1100.91 223.008C1103.03 221.732 1104.39 220.995 1106.99 221.202C1112.98 221.799 1118.97 222.396 1124.92 222.938C1127.56 223.201 1126.31 222.922 1128.95 223.185C1133.88 224.189 1136.43 222.288 1140.08 223.216C1140.67 223.48 1141.32 223.698 1141.92 223.861C1144.25 224.657 1146.71 225.159 1148.96 226.306C1151.01 227.332 1152.75 228.891 1154.74 230.063C1156.92 231.358 1159.41 232.119 1161.79 232.972C1162.65 234.135 1162.13 235.776 1161.88 237.188C1161.58 239.21 1156.25 242.834 1154.89 244.135C1157.32 242.326 1157 239.318 1155.78 237.709Z" fill="#1F33FF"/>
<path d="M1138.46 250.4C1137.2 250.223 1135.93 250.045 1134.86 249.528C1133.72 249.056 1132.69 248.131 1132.34 246.917C1132.18 246.491 1132.18 246.028 1132.32 245.632C1132.47 245.134 1132.92 244.768 1133.31 244.448C1134.65 243.35 1135.99 242.252 1137.38 241.109C1138.95 239.828 1140.95 238.283 1142.94 237.866C1143.35 237.805 1143.73 237.688 1144.14 237.626C1144.97 237.504 1145.75 237.428 1146.54 237.25C1147.85 236.919 1149.19 236.385 1150.54 236.212C1151.84 236.084 1153.3 236.282 1153.41 237.78C1153.55 238.974 1152.87 240.188 1152.25 241.256C1152.08 241.393 1151.9 241.632 1151.73 241.769C1150.35 243.273 1149.3 245.067 1148.01 246.683C1147.28 247.379 1146.59 248.131 1145.81 248.771C1145.58 248.954 1145.42 249.092 1145.24 249.33C1144.52 249.824 1143.72 250.205 1142.83 250.373C1141.45 250.851 1139.93 250.597 1138.46 250.4Z" fill="#1F33FF"/>
<path d="M1153.39 232.853C1152.12 232.676 1150.82 232.341 1149.67 231.508C1148.63 230.686 1147.91 229.589 1146.79 229.015C1146.26 228.705 1145.66 228.543 1145.1 228.437C1144.55 228.33 1143.87 228.417 1143.21 228.402C1141.92 228.428 1140.67 228.611 1139.38 228.739C1138.08 228.866 1136.79 228.994 1135.5 229.019C1134.16 229.091 1132.84 228.96 1131.48 228.772C1128.84 228.407 1126.3 227.692 1123.8 227.033C1122.55 226.652 1121.3 226.373 1120.1 226.049C1118.85 225.77 1117.65 225.445 1116.44 225.222C1115.83 225.161 1115.23 224.999 1114.66 224.994C1114.36 224.964 1114.1 224.989 1113.8 224.959C1113.54 224.984 1113.23 224.954 1113.02 225.035C1111.93 225.183 1110.86 225.59 1109.73 226.144C1108.6 226.698 1107.45 227.354 1106.13 227.786C1105.49 228.03 1104.75 228.264 1104.07 228.351C1103.4 228.438 1102.72 228.524 1102.09 228.667C1099.44 228.967 1096.98 229.029 1094.79 229.889C1093.72 230.296 1092.79 230.87 1091.94 231.658C1091.1 232.445 1090.39 233.401 1089.67 234.458C1088.95 235.515 1088.27 236.627 1087.39 237.72C1086.57 238.767 1085.54 239.895 1084.28 240.642C1082.97 241.435 1081.6 241.812 1080.39 242.152C1079.17 242.493 1078.11 242.9 1077.32 243.541C1076.49 244.227 1076.38 244.78 1076.69 245.837C1076.84 246.365 1077.09 246.904 1077.35 247.442L1077.78 248.305L1078.15 249.215C1078.4 249.753 1078.65 250.393 1078.94 251.089C1079.18 251.729 1079.36 252.516 1079.32 253.385C1079.29 254.254 1078.95 255.092 1078.43 255.707C1077.9 256.322 1077.25 256.667 1076.71 257.023C1076.16 257.379 1075.62 257.633 1075.17 257.999C1074.78 258.319 1074.54 258.706 1074.5 259.112C1074.49 259.214 1074.48 259.315 1074.51 259.473C1074.55 259.63 1074.54 259.732 1074.57 259.889C1074.6 260.148 1074.67 260.463 1074.8 260.732C1075 261.317 1075.24 261.957 1075.32 262.734C1075.4 263.511 1075.22 264.212 1075.05 264.913C1074.97 265.264 1074.78 265.604 1074.59 265.945C1074.4 266.285 1074.18 266.468 1074 266.707C1073.76 267.093 1073.81 267.611 1073.96 268.139C1074.17 268.622 1074.53 269.17 1075 269.526C1075.89 270.384 1077.07 270.912 1078.29 271.033C1079.51 271.155 1080.82 270.926 1081.96 270.27L1082.05 270.382C1080.95 271.093 1079.64 271.424 1078.36 271.348C1077.04 271.217 1075.76 270.679 1074.82 269.866C1074.29 269.455 1073.88 268.952 1073.64 268.312C1073.34 267.718 1073.26 266.941 1073.63 266.362C1073.76 266.067 1073.99 265.782 1074.17 265.543C1074.35 265.305 1074.48 265.01 1074.56 264.659C1074.73 264.06 1074.84 263.405 1074.7 262.775C1074.66 262.155 1074.41 261.515 1074.22 260.931C1074.02 260.347 1073.83 259.661 1073.94 259.006C1074.01 258.294 1074.38 257.715 1074.88 257.303C1075.39 256.892 1075.93 256.536 1076.48 256.18C1077.03 255.824 1077.58 255.468 1077.98 255.047C1078.33 254.569 1078.6 253.98 1078.61 253.314C1078.63 252.085 1077.99 250.84 1077.43 249.708C1076.93 248.529 1076.22 247.432 1075.78 246.208C1075.58 245.624 1075.45 244.893 1075.66 244.247C1075.88 243.602 1076.25 243.023 1076.75 242.611C1078.87 240.873 1081.69 240.897 1083.83 239.52C1085.97 238.142 1087.32 235.815 1088.72 233.645C1089.44 232.588 1090.22 231.486 1091.13 230.551C1092.04 229.615 1093.19 228.96 1094.42 228.416C1096.92 227.485 1099.49 227.433 1102.08 227.178C1103.38 227.051 1104.63 226.867 1105.85 226.425C1107.08 225.982 1108.16 225.372 1109.4 224.828C1110.53 224.274 1111.81 223.786 1113.06 223.603C1114.35 223.475 1115.67 223.607 1116.94 223.784C1119.5 224.296 1121.95 225.001 1124.44 225.762C1126.88 226.468 1129.37 227.229 1131.95 227.639C1133.21 227.816 1134.48 227.994 1135.76 227.968C1137.05 227.942 1138.33 227.916 1139.63 227.788C1140.92 227.661 1142.21 227.635 1143.49 227.609C1144.16 227.624 1144.78 227.583 1145.43 227.7C1146.09 227.816 1146.73 228.035 1147.27 228.344C1148.44 228.974 1149.19 230.127 1150.14 230.939C1151.14 231.706 1152.38 232.188 1153.64 232.365L1153.39 232.853Z" fill="#0C2340"/>
</g>
<rect width="1440" height="85" fill="white"/>
</svg>
